<?xml version="1.0" encoding="utf-8"?>
<!-- Generator: Adobe Illustrator 17.0.0, SVG Export Plug-In . SVG Version: 6.00 Build 0)  -->
<!DOCTYPE svg PUBLIC "-//W3C//DTD SVG 1.1//EN" "http://www.w3.org/Graphics/SVG/1.1/DTD/svg11.dtd">
<svg version="1.1" id="Layer_1" xmlns="http://www.w3.org/2000/svg" xmlns:xlink="http://www.w3.org/1999/xlink" x="0px" y="0px"
	 width="542.1px" height="525.4px" viewBox="0 0 542.1 525.4" enable-background="new 0 0 542.1 525.4" xml:space="preserve">
<g>
	<g>
		<path fill="#C1DEF0" d="M397,214.9c42.8,6,82.3-23.9,88.2-66.7S461.3,66,418.6,60.1c-14.4-2-49.2,5.8-49.2,5.8
			C352.3,34,320.8,10.4,282.2,5c-57.7-8-111.5,27.5-128.1,81.5l-8.2,0.5c-35,1-65.3,27.2-70.3,63c-5.6,40,22.3,77,62.4,82.5
			c20,2.8,62.3-14.5,62.3-14.5c14.4,9.8,31.2,16.5,49.6,19.1c40.1,5.6,78.2-9.8,103.4-37.8C353.2,199.3,383.2,213,397,214.9z"/>
	</g>
	<g>
		<g>
			<path fill="#3794D1" d="M288,400.9c-2,0-3.6,0-5.3-0.1l0.3-6c1.6,0.1,3,0.1,5,0.1V400.9z"/>
		</g>
		<g>
			<path fill="#3794D1" d="M271.8,400c-3.5-0.4-7.1-0.9-10.6-1.6l1.1-5.9c3.3,0.6,6.7,1.1,10.1,1.5L271.8,400z M250.8,396
				c-3.4-0.9-6.9-2-10.2-3.2l2-5.7c3.2,1.1,6.5,2.1,9.8,3L250.8,396z M230.6,388.9c-3.2-1.4-6.5-3-9.6-4.7l2.8-5.3
				c3,1.6,6.1,3.1,9.2,4.5L230.6,388.9z M211.7,378.9c-3-1.9-6-3.9-8.8-6.1l3.6-4.8c2.7,2,5.6,4,8.4,5.8L211.7,378.9z M194.6,366.1
				c-2.7-2.3-5.3-4.8-7.8-7.3l4.3-4.2c2.4,2.4,4.9,4.8,7.5,7L194.6,366.1z M179.6,350.8c-2.3-2.7-4.5-5.5-6.6-8.4l4.9-3.5
				c2,2.8,4.1,5.5,6.3,8.1L179.6,350.8z M167.1,333.5c-1.9-3-3.6-6.2-5.3-9.3l5.3-2.8c1.6,3,3.3,6,5,8.9L167.1,333.5z M157.3,314.5
				c-1.4-3.3-2.7-6.6-3.8-10l5.7-1.9c1.1,3.2,2.3,6.4,3.6,9.6L157.3,314.5z M150.4,294.3c-0.9-3.4-1.6-7-2.2-10.5l5.9-1
				c0.6,3.4,1.3,6.7,2.1,10L150.4,294.3z"/>
		</g>
		<g>
			<path fill="#3794D1" d="M146.8,273.2c-0.2-1.7-0.3-3.4-0.4-5.1l6-0.4c0.1,1.6,0.2,3.3,0.4,4.9L146.8,273.2z"/>
		</g>
	</g>
	<g>
		<g>
			<path fill="#3794D1" d="M314.9,399.4l-1.2-5.9c1.6-0.3,3.2-0.7,4.8-1.1l1.4,5.8C318.3,398.7,316.6,399,314.9,399.4z"/>
		</g>
		<g>
			<path fill="#3794D1" d="M329.6,395.6l-1.8-5.7c3.1-1,6.1-2.1,9.1-3.2l2.2,5.6C336,393.4,332.8,394.6,329.6,395.6z M348.3,388.1
				l-2.6-5.4c2.9-1.4,5.7-2.9,8.5-4.5l3,5.2C354.4,385.1,351.4,386.7,348.3,388.1z M365.8,378.1l-3.4-5c2.7-1.8,5.3-3.7,7.8-5.7
				l3.7,4.7C371.3,374.2,368.6,376.2,365.8,378.1z M381.7,365.7l-4-4.4c2.4-2.1,4.7-4.4,6.9-6.7l4.3,4.2
				C386.6,361.1,384.1,363.5,381.7,365.7z M395.6,351.2l-4.6-3.8c2-2.5,4-5,5.9-7.6l4.9,3.5C399.8,345.9,397.7,348.6,395.6,351.2z
				 M407.3,334.8l-5.1-3.1c1.7-2.7,3.3-5.5,4.8-8.4l5.3,2.8C410.8,329,409.1,332,407.3,334.8z M416.6,316.9l-5.5-2.4
				c1.3-2.9,2.5-6,3.5-9l5.7,2C419.2,310.7,418,313.9,416.6,316.9z M423.3,298l-5.8-1.6c0.8-3.1,1.6-6.2,2.2-9.4l5.9,1.2
				C425,291.4,424.2,294.7,423.3,298z M427.2,278.2l-6-0.7c0.4-3.2,0.7-6.4,0.8-9.6l6,0.3C427.9,271.5,427.6,274.9,427.2,278.2z"/>
		</g>
		<g>
			<path fill="#3794D1" d="M422.2,258.2c0-1.6-0.1-3.2-0.2-4.9l6-0.3c0.1,1.7,0.2,3.4,0.2,5.1L422.2,258.2z"/>
		</g>
	</g>
	<g>
		<g>
			<path fill="#3794D1" d="M153.6,239.1l-5.9-0.9c0.3-1.7,0.5-3.4,0.9-5l5.9,1.1C154.2,235.9,153.9,237.5,153.6,239.1z"/>
		</g>
		<g>
			<path fill="#3794D1" d="M156.7,224.5l-5.8-1.5c0.9-3.4,1.9-6.7,3.1-10l5.7,2C158.5,218.1,157.5,221.3,156.7,224.5z M417.2,220.2
				c-1-3.2-2.1-6.4-3.3-9.5l5.6-2.2c1.2,3.2,2.4,6.6,3.4,9.9L417.2,220.2z M163.2,205.6l-5.5-2.4c1.4-3.2,2.9-6.4,4.5-9.4l5.3,2.8
				C166,199.6,164.6,202.6,163.2,205.6z M410,201.5c-1.4-3-3-6-4.6-8.9l5.2-3c1.7,3,3.3,6.1,4.8,9.3L410,201.5z M172.5,187.9
				l-5.1-3.2c1.8-2.9,3.8-5.9,5.9-8.7l4.8,3.5C176.2,182.3,174.3,185.1,172.5,187.9z M400.1,184.1c-1.8-2.8-3.8-5.5-5.9-8.1l4.7-3.7
				c2.1,2.7,4.2,5.6,6.1,8.5L400.1,184.1z M184.3,171.8l-4.6-3.9c2.2-2.6,4.6-5.2,7.1-7.7l4.3,4.2
				C188.8,166.8,186.5,169.3,184.3,171.8z M387.8,168.4c-2.2-2.5-4.6-4.9-7-7.2l4.1-4.4c2.5,2.4,5,4.9,7.3,7.5L387.8,168.4z
				 M198.4,157.5l-4-4.5c2.6-2.3,5.3-4.5,8.1-6.6l3.6,4.8C203.5,153.2,200.9,155.4,198.4,157.5z M373.2,154.6c-2.6-2.1-5.3-4.1-8-6
				l3.4-4.9c2.8,2,5.6,4.1,8.3,6.3L373.2,154.6z M214.4,145.5l-3.2-5c2.9-1.9,5.9-3.7,9-5.3l2.9,5.3
				C220,142,217.1,143.7,214.4,145.5z M356.9,143.1c-2.9-1.7-5.8-3.3-8.8-4.8l2.7-5.4c3.1,1.6,6.2,3.2,9.2,5L356.9,143.1z
				 M231.9,136l-2.5-5.5c3.2-1.4,6.4-2.8,9.7-3.9l2.1,5.6C238.1,133.3,235,134.6,231.9,136z M339,134.2c-3.1-1.3-6.2-2.4-9.4-3.5
				l1.9-5.7c3.3,1.1,6.6,2.3,9.8,3.6L339,134.2z M250.7,129.1l-1.6-5.8c3.3-0.9,6.8-1.8,10.2-2.5l1.2,5.9
				C257.2,127.4,253.9,128.2,250.7,129.1z M320,128c-3.2-0.8-6.5-1.5-9.8-2l1-5.9c3.4,0.6,6.9,1.3,10.2,2.1L320,128z M270.3,125.1
				l-0.8-6c3.4-0.4,6.9-0.8,10.4-0.9l0.3,6C276.9,124.4,273.6,124.7,270.3,125.1z M300.3,124.6c-3.3-0.3-6.7-0.5-10-0.6l0.1-6
				c3.5,0.1,7,0.3,10.4,0.6L300.3,124.6z"/>
		</g>
		<g>
			<path fill="#3794D1" d="M420.7,234.7c-0.3-1.6-0.6-3.2-1-4.8l5.9-1.3c0.4,1.6,0.7,3.3,1,5L420.7,234.7z"/>
		</g>
	</g>
	<g>
		<g>
			<g>
				<path fill="#3794D1" d="M13.3,462.8c34.5,0.9,212.8-2,240.8-1.2c-0.2-43.7,5.1-100.7,6.5-179L8.8,287.6
					C8.8,355.8,13.3,462.8,13.3,462.8z"/>
			</g>
			<g>
				<path fill="#C1DEF0" d="M24.9,429.7c31.8,0.7,188.4-0.2,214.2,0.4c1.1-22.6,6.1-92.9,6.1-132.3l-226.8,0.1
					C17.9,319.9,24.9,429.7,24.9,429.7z"/>
			</g>
			<g>
				<path fill="#C1DEF0" d="M124.4,445.3c4.4-10.7,18.3-2.4,13.3,6.8C133.9,459.3,121.5,452.5,124.4,445.3z"/>
			</g>
		</g>
		<g>
			<path fill="#3794D1" d="M77.4,508.4c0,0,75.5-1.5,111-1.5v14.6l-111-3.7V508.4z"/>
		</g>
		<g>
			<path fill="#3794D1" d="M184.1,501.5c-9.6-6.3-17.8-20.2-17.6-32.8c0,0-42.3-1.5-63.3-0.5c-1.8,11.9-11.5,29.2-22.1,34.8
				L184.1,501.5z"/>
		</g>
	</g>
	<g>
		<g>
			<path fill="#3794D1" d="M356,427.5c23,0.6,142.1-1.4,160.8-0.8c-0.1-29.2-0.4-64.2,0.5-116.4L353,310.5
				C353,356,356,427.5,356,427.5z"/>
		</g>
		<g>
			<path fill="#C1DEF0" d="M368.8,417.1c21.2,0.5,117.5-0.1,134.7,0.3c0.8-17.1,4.1-65.9,4.1-95.7l-143.2,0.1
				C364.2,338.5,368.8,417.1,368.8,417.1z"/>
		</g>
		<g>
			<path fill="#3794D1" d="M516.8,429.4c-23-0.6-142.1,1.4-160.8,0.8c-11.1,28.7-21.5,45.1-21.5,45.1h200
				C526.4,451.3,516.8,429.4,516.8,429.4z"/>
		</g>
		<g>
			<path fill="#C1DEF0" d="M507.6,436.6c-19.5-0.3-125.7,0.3-141.5,0.1c-10.1,15.6-13.2,21.2-13.2,21.2h164
				C513,449.7,507.6,436.6,507.6,436.6z"/>
		</g>
		<g>
			<path fill="#C1DEF0" d="M461.2,462.9c-7-0.1-45.3,0.1-51,0c-3.6,5.6-4.7,7.6-4.7,7.6h59.2C463.1,467.6,461.2,462.9,461.2,462.9z"
				/>
		</g>
		<g>
			<path fill="#3794D1" d="M334.5,477.3c0,0,136.1,0,200,0l0,8.2l-200-1.4V477.3z"/>
		</g>
	</g>
	<g>
		<polygon fill="#3794D1" points="152,249.8 128.5,264.4 148.8,223.9 177.4,264.4 		"/>
	</g>
	<g>
		<polygon fill="#3794D1" points="300,397 311.8,422.2 273.9,397.1 317.6,373.7 		"/>
	</g>
	<g>
		<polygon fill="#3794D1" points="282.6,121.5 270.9,96.3 308.7,121.3 265,144.8 		"/>
	</g>
	<g>
		<polygon fill="#3794D1" points="422,241.4 445.6,226.7 425.2,267.3 396.7,226.7 		"/>
	</g>
</g>
</svg>
