<?xml version="1.0" encoding="utf-8"?>
<!-- Generator: Adobe Illustrator 17.0.0, SVG Export Plug-In . SVG Version: 6.00 Build 0)  -->
<!DOCTYPE svg PUBLIC "-//W3C//DTD SVG 1.1//EN" "http://www.w3.org/Graphics/SVG/1.1/DTD/svg11.dtd">
<svg version="1.1" id="Layer_1" xmlns="http://www.w3.org/2000/svg" xmlns:xlink="http://www.w3.org/1999/xlink" x="0px" y="0px"
	 width="576.3px" height="257.1px" viewBox="0 0 576.3 257.1" enable-background="new 0 0 576.3 257.1" xml:space="preserve">
<g>
	<g>
		<g>
			<g>
				<path fill="#3794D1" d="M6.6,199.3c28.8,0.7,177.5-1.7,200.9-1c-0.2-36.5,4.2-84.1,5.4-149.3L2.8,53.1
					C2.8,110,6.6,199.3,6.6,199.3z"/>
			</g>
			<g>
				<path fill="#C1DEF0" d="M16.3,171.7c26.5,0.6,157.2-0.2,178.7,0.4c0.9-18.8,5.1-77.5,5.1-110.4L10.9,61.7
					C10.5,80.1,16.3,171.7,16.3,171.7z"/>
			</g>
			<g>
				<path fill="#C1DEF0" d="M99.4,184.7c3.7-8.9,15.3-2,11.1,5.6C107.2,196.3,96.9,190.7,99.4,184.7z"/>
			</g>
		</g>
		<g>
			<path fill="#3794D1" d="M60.1,237.4c0,0,63-1.3,92.6-1.3v12.2l-92.6-3.1V237.4z"/>
		</g>
		<g>
			<path fill="#3794D1" d="M149.2,231.6c-8-5.3-14.9-16.9-14.7-27.4c0,0-35.3-1.3-52.8-0.5c-1.5,9.9-9.6,24.4-18.5,29L149.2,231.6z"
				/>
		</g>
	</g>
	<g>
		<g>
			<path fill="#3794D1" d="M419.2,167.8c20.3,0.5,125-1.2,141.5-0.7c-0.1-25.7-0.4-56.5,0.5-102.4l-144.6,0.2
				C416.6,104.9,419.2,167.8,419.2,167.8z"/>
		</g>
		<g>
			<path fill="#C1DEF0" d="M430.5,158.7c18.7,0.4,103.4-0.1,118.5,0.3c0.7-15,3.6-58,3.6-84.2l-126,0
				C426.4,89.5,430.5,158.7,430.5,158.7z"/>
		</g>
		<g>
			<path fill="#3794D1" d="M560.7,169.5c-20.3-0.5-125,1.2-141.5,0.7c-9.7,25.3-18.9,39.7-18.9,39.7h176
				C569.2,188.7,560.7,169.5,560.7,169.5z"/>
		</g>
		<g>
			<path fill="#C1DEF0" d="M552.7,175.8c-17.1-0.2-110.6,0.3-124.5,0.1c-8.8,13.7-11.6,18.7-11.6,18.7h144.3
				C557.4,187.4,552.7,175.8,552.7,175.8z"/>
		</g>
		<g>
			<path fill="#C1DEF0" d="M511.8,199c-6.2-0.1-39.9,0.1-44.9,0c-3.2,5-4.2,6.7-4.2,6.7h52.1C513.5,203.1,511.8,199,511.8,199z"/>
		</g>
		<g>
			<path fill="#3794D1" d="M400.3,211.6c0,0,119.7,0,176,0v7.3l-176-1.3V211.6z"/>
		</g>
	</g>
	<polygon fill="#3794D1" points="326.1,2.4 283.1,119.7 315.6,132.8 294.3,221.3 301.8,208.7 335.7,139.3 346.3,120 308.8,107.7 	
		"/>
	<g>
		<g>
			
				<line fill="none" stroke="#3794D1" stroke-width="4" stroke-miterlimit="10" stroke-dasharray="5,5" x1="238.4" y1="83.4" x2="382.4" y2="83.4"/>
			<g>
				<polygon fill="#3794D1" points="243.6,90.9 240.4,83.5 243.6,76.1 226,83.5 				"/>
			</g>
		</g>
	</g>
	<g>
		<g>
			
				<line fill="none" stroke="#3794D1" stroke-width="4" stroke-miterlimit="10" stroke-dasharray="5,5" x1="378.4" y1="146.4" x2="234.4" y2="146.4"/>
			<g>
				<polygon fill="#3794D1" points="372.4,139.1 375.6,146.5 372.4,153.9 390,146.5 				"/>
			</g>
		</g>
	</g>
</g>
</svg>
