<?xml version="1.0" encoding="utf-8"?>
<!-- Generator: Adobe Illustrator 17.0.0, SVG Export Plug-In . SVG Version: 6.00 Build 0)  -->
<!DOCTYPE svg PUBLIC "-//W3C//DTD SVG 1.1//EN" "http://www.w3.org/Graphics/SVG/1.1/DTD/svg11.dtd">
<svg version="1.1" id="Layer_1" xmlns="http://www.w3.org/2000/svg" xmlns:xlink="http://www.w3.org/1999/xlink" x="0px" y="0px"
	 width="553px" height="303px" viewBox="0 0 553 303" enable-background="new 0 0 553 303" xml:space="preserve">
<g>
	<path fill="#C1DEF0" stroke="#3794D1" stroke-width="4" stroke-miterlimit="10" stroke-dasharray="5" d="M388,264
		c51.2,6.4,97.9-29.9,104.4-81.1c6.4-51.2-29.9-97.9-81.1-104.4c-17.3-2.2-58.7,7.7-58.7,7.7c-20.9-37.9-59-65.6-105.2-71.4
		c-69.2-8.7-132.8,34.6-151.8,99.4l-9.8,0.7c-41.9,1.8-77.6,33.5-83,76.5c-6,47.9,27.9,91.6,75.9,97.6c24,3,74.3-18.3,74.3-18.3
		c17.4,11.5,37.6,19.2,59.6,22c48,6,93.3-13,122.9-46.8C335.4,246.1,371.5,262,388,264z"/>
	<path fill="#3794D1" stroke="#3794D1" stroke-width="4" stroke-miterlimit="10" stroke-dasharray="5" d="M502.1,288.5
		c24.8,3.1,47.5-14.5,50.6-39.3s-14.5-47.5-39.3-50.6c-8.4-1.1-28.4,3.8-28.4,3.8c-10.1-18.3-28.6-31.8-51-34.6
		c-33.5-4.2-64.4,16.8-73.6,48.2l-4.8,0.4c-20.3,0.9-37.6,16.2-40.2,37.1c-2.9,23.2,13.5,44.4,36.8,47.3c11.6,1.5,36-8.9,36-8.9
		c8.4,5.6,18.2,9.3,28.9,10.6c23.2,2.9,45.2-6.3,59.6-22.7C476.6,279.8,494.1,287.5,502.1,288.5z"/>
	<g>
		<g>
			<path fill="#3794D1" d="M62.5,181.6c17,0.6,105.2,0,119,0.5c0.1-21.6,0.2-47.5,1.2-86.1L61.1,95
				C60.8,128.7,62.5,181.6,62.5,181.6z"/>
		</g>
		<g>
			<path fill="#C1DEF0" d="M72,174.1c15.7,0.5,86.9,0.7,99.7,1.2c0.7-12.6,3.5-48.7,3.7-70.8l-105.9-1C69.1,115.9,72,174.1,72,174.1
				z"/>
		</g>
		<g>
			<path fill="#3794D1" d="M181.4,184.2c-17-0.6-105.2,0-119-0.5c-8.4,21.2-16.2,33.2-16.2,33.2l148,1.4
				C188.4,200.4,181.4,184.2,181.4,184.2z"/>
		</g>
		<g>
			<path fill="#C1DEF0" d="M174.6,189.4c-14.4-0.3-93-0.7-104.7-1C62.4,200,60,204.1,60,204.1l121.3,1.2
				C178.5,199.2,174.6,189.4,174.6,189.4z"/>
		</g>
		<g>
			<path fill="#C1DEF0" d="M140.1,208.6c-5.2-0.1-33.6-0.2-37.8-0.3c-2.7,4.1-3.6,5.6-3.6,5.6l43.8,0.4
				C141.5,212.1,140.1,208.6,140.1,208.6z"/>
		</g>
		<g>
			<path fill="#3794D1" d="M46.2,218.3c0,0,100.7,1,148,1.4l-0.1,6.1l-148-2.5L46.2,218.3z"/>
		</g>
	</g>
	<g>
		<g>
			<g>
				<path fill="#3794D1" d="M151.7,140.9c27.4,1,169.2,0,191.4,0.9c0.2-34.8,4.8-80,6.5-142.2l-200.2,2
					C149,55.8,151.7,140.9,151.7,140.9z"/>
			</g>
			<g>
				<path fill="#C1DEF0" d="M161.2,114.7c25.2,0.8,149.8,1.3,170.3,2c1.1-17.9,5.6-73.8,5.9-105.1L157,9.9
					C156.5,27.4,161.2,114.7,161.2,114.7z"/>
			</g>
			<g>
				<path fill="#C1DEF0" d="M240.2,127.9c3.6-8.5,14.6-1.8,10.5,5.5C247.6,139,237.8,133.5,240.2,127.9z"/>
			</g>
		</g>
		<g>
			<path fill="#3794D1" d="M202.4,177.7c0,0,60-0.6,88.2-0.3l-0.1,11.6l-88.2-3.8L202.4,177.7z"/>
		</g>
		<g>
			<path fill="#3794D1" d="M287.3,173c-7.6-5.1-14-16.2-13.7-26.2c0,0-33.6-1.5-50.3-0.9c-1.5,9.4-9.4,23.2-17.8,27.5L287.3,173z"/>
		</g>
	</g>
	<path fill="#FFFFFF" stroke="#3794D1" stroke-width="4" stroke-miterlimit="10" stroke-dasharray="5" d="M369.8,249.3
		c19.9,2.5,38.1-11.6,40.6-31.6s-11.6-38.1-31.6-40.6c-6.7-0.8-22.8,3-22.8,3c-8.1-14.7-23-25.5-41-27.8
		c-26.9-3.4-51.7,13.5-59.1,38.7l-3.8,0.3c-16.3,0.7-30.2,13-32.3,29.8c-2.3,18.7,10.9,35.7,29.5,38c9.3,1.2,28.9-7.1,28.9-7.1
		c6.8,4.5,14.6,7.5,23.2,8.6c18.7,2.3,36.3-5.1,47.9-18.2C349.4,242.4,363.4,248.5,369.8,249.3z"/>
</g>
</svg>
