<?xml version="1.0" encoding="utf-8"?>
<!-- Generator: Adobe Illustrator 17.0.0, SVG Export Plug-In . SVG Version: 6.00 Build 0)  -->
<!DOCTYPE svg PUBLIC "-//W3C//DTD SVG 1.1//EN" "http://www.w3.org/Graphics/SVG/1.1/DTD/svg11.dtd">
<svg version="1.1" id="Layer_1" xmlns="http://www.w3.org/2000/svg" xmlns:xlink="http://www.w3.org/1999/xlink" x="0px" y="0px"
	 width="460px" height="124px" viewBox="0 0 460 124" enable-background="new 0 0 460 124" xml:space="preserve">
<g>
	<g>
		<g>
			<path fill="#F2F5F6" d="M294.6,0.8L165.7,3.4c0,34.9,2.3,89.7,2.3,89.7c17.7,0.5,109-1,123.3-0.6
				C291.1,70.1,293.8,40.9,294.6,0.8z M231.8,87.5c-1.9,3.6-8.3,0.3-6.9-3.5C227.1,78.6,234.2,82.9,231.8,87.5z M283.6,76.3
				C270.4,76,190.1,76.4,174,76c0,0-3.6-56.2-3.4-67.5h116.1C286.7,28.7,284.1,64.8,283.6,76.3z"/>
		</g>
	</g>
	<g>
		<path fill="#F2F5F6" d="M200.5,121.3l56.9,1.9v-7.5c-18.1,0-56.9,0.8-56.9,0.8V121.3z"/>
	</g>
	<g>
		<path fill="#F2F5F6" d="M246.5,96.1c0,0-21.7-0.8-32.5-0.3c-0.9,6.1-5.9,15-11.4,17.8l52.7-0.8
			C250.5,109.6,246.4,102.5,246.5,96.1z"/>
	</g>
</g>
<g>
	<g>
		<g>
			<path fill="#F2F5F6" d="M111.5,78.5c-0.1-16.8-0.2-36.9,0.3-66.8l-94.3,0.1C17.5,38,19.2,79,19.2,79
				C32.4,79.3,100.7,78.2,111.5,78.5z M24,18.4h82.1c0,17.2-2,45-2.3,54.9c-9.9-0.3-65.2,0-77.3-0.3C26.6,73,23.9,28,24,18.4z"/>
		</g>
	</g>
	<g>
		<g>
			<path fill="#F2F5F6" d="M111.5,80c-13.2-0.3-81.5,0.8-92.2,0.5C12.9,97,6.9,106.4,6.9,106.4h114.7C117,92.6,111.5,80,111.5,80z
				 M25.1,84.3c9.1,0.1,70-0.2,81.2,0c0,0,3.1,7.5,5.4,12.2H17.5C17.5,96.4,19.2,93.2,25.1,84.3z M47.5,103.7c0,0,0.7-1.2,2.8-4.4
				c3.2,0,25.2-0.1,29.3,0c0,0,1.2,2.8,2,4.4H47.5z"/>
		</g>
	</g>
	<g>
		<path fill="#F2F5F6" d="M6.4,111.5l115.2,0.8V107c-36.9,0-115.2,0-115.2,0V111.5z"/>
	</g>
</g>
<g>
	<g>
		<g>
			<path fill="#F2F5F6" d="M442,78.5c-0.1-16.8-0.2-36.9,0.3-66.8L348,11.8c0,26.1,1.7,67.1,1.7,67.1C363,79.3,431.3,78.2,442,78.5z
				 M354.6,18.4h82.1c0,17.2-2,45-2.3,54.9c-9.9-0.3-65.2,0-77.3-0.3C357.1,73,354.5,28,354.6,18.4z"/>
		</g>
	</g>
	<g>
		<g>
			<path fill="#F2F5F6" d="M442,80c-13.2-0.3-81.5,0.8-92.2,0.5c-6.3,16.5-12.3,25.9-12.3,25.9h114.7C447.5,92.6,442,80,442,80z
				 M355.6,84.3c9.1,0.1,70-0.2,81.2,0c0,0,3.1,7.5,5.4,12.2H348C348,96.4,349.8,93.2,355.6,84.3z M378.1,103.7c0,0,0.7-1.2,2.8-4.4
				c3.2,0,25.2-0.1,29.3,0c0,0,1.2,2.8,2,4.4H378.1z"/>
		</g>
	</g>
	<g>
		<path fill="#F2F5F6" d="M337,111.5l115.2,0.8V107c-36.9,0-115.2,0-115.2,0V111.5z"/>
	</g>
</g>
</svg>
