<?xml version="1.0" encoding="utf-8"?>
<!-- Generator: Adobe Illustrator 17.0.0, SVG Export Plug-In . SVG Version: 6.00 Build 0)  -->
<!DOCTYPE svg PUBLIC "-//W3C//DTD SVG 1.1//EN" "http://www.w3.org/Graphics/SVG/1.1/DTD/svg11.dtd">
<svg version="1.1" id="Layer_1" xmlns="http://www.w3.org/2000/svg" xmlns:xlink="http://www.w3.org/1999/xlink" x="0px" y="0px"
	 width="402.6px" height="257.1px" viewBox="0 0 402.6 257.1" enable-background="new 0 0 402.6 257.1" xml:space="preserve">
<g>
	<g>
		<g>
			<path fill="#3794D1" d="M119.2,192.3c39.5,1,243.9-2.2,276-1.3c-0.2-46.6,5.8-107.4,7.5-190.7L114,5.6
				C114,78.2,119.2,192.3,119.2,192.3z"/>
		</g>
		<g>
			<path fill="#C1DEF0" d="M132.5,157c36.4,0.7,215.9-0.2,245.5,0.5c1.3-24,7-99,7-140.9l-260,0.1C124.5,40.1,132.5,157,132.5,157z"
				/>
		</g>
		<g>
			<path fill="#C1DEF0" d="M246.6,173.7c5-11.4,21-2.6,15.3,7.2C257.4,188.5,243.2,181.3,246.6,173.7z"/>
		</g>
	</g>
	<g>
		<path fill="#3794D1" d="M192.7,240.9c0,0,86.5-1.6,127.2-1.6v15.6L192.7,251V240.9z"/>
	</g>
	<g>
		<path fill="#3794D1" d="M315.1,233.6c-11-6.7-20.4-21.5-20.2-35c0,0-48.5-1.6-72.5-0.6c-2,12.6-13.2,31.2-25.4,37.1L315.1,233.6z"
			/>
	</g>
</g>
<g>
	<g>
		<g>
			<path fill="#3794D1" d="M5.3,207.5c29.1,0.8,179.7-1.7,203.3-1c-0.2-36.9,4.3-85.1,5.5-151.1L1.5,59.5
				C1.5,117.1,5.3,207.5,5.3,207.5z"/>
		</g>
		<g>
			<path fill="#C1DEF0" d="M15.1,179.5c26.8,0.6,159.1-0.2,180.9,0.4c1-19,5.2-78.4,5.2-111.7L9.6,68.2
				C9.2,86.8,15.1,179.5,15.1,179.5z"/>
		</g>
		<g>
			<path fill="#C1DEF0" d="M99.2,192.7c3.7-9.1,15.5-2,11.2,5.7C107.1,204.5,96.7,198.7,99.2,192.7z"/>
		</g>
	</g>
	<g>
		<path fill="#3794D1" d="M59.4,246c0,0,63.8-1.3,93.7-1.3v12.3L59.4,254V246z"/>
	</g>
	<g>
		<path fill="#3794D1" d="M149.6,240.2c-8.1-5.3-15-17.1-14.9-27.7c0,0-35.8-1.3-53.4-0.5c-1.5,10-9.7,24.7-18.7,29.4L149.6,240.2z"
			/>
	</g>
</g>
<path fill="#575655" d="M223.9,104.3c47.9-18.1,123.4-47.8,146.6-58.1c-1.1,3.3-2.8,7.8-4.4,12.2c-1.7,4.6-3.4,9-4.2,11.6l-0.3,1.1
	l8-0.2l0.2-0.6c1.9-6.5,6.5-21.6,7.7-31.5c0-0.2,0-0.5-0.2-0.7c-0.4-0.5-1-1.2-35-5c-1.6-0.2-2.7-0.3-3-0.3l-1.3-0.2l2.2,7.7
	l0.6,0.1c0.2,0,12.8,1.6,22.4,2.8c-27.6,11.4-98.3,37.8-144.6,55L223.9,104.3z"/>
<g>
	<path fill="#575655" d="M191,104c-10.7,4-19.2,7.1-23.8,8.9L29.9,164.4l5,6.3l136.8-51.3c4.6-1.7,12.9-4.8,23.4-8.7l0.4-0.1"/>
</g>
</svg>
