<?xml version="1.0" encoding="utf-8"?>
<!-- Generator: Adobe Illustrator 17.0.0, SVG Export Plug-In . SVG Version: 6.00 Build 0)  -->
<!DOCTYPE svg PUBLIC "-//W3C//DTD SVG 1.1//EN" "http://www.w3.org/Graphics/SVG/1.1/DTD/svg11.dtd">
<svg version="1.1" id="Layer_1" xmlns="http://www.w3.org/2000/svg" xmlns:xlink="http://www.w3.org/1999/xlink" x="0px" y="0px"
	 width="1234.4px" height="378px" viewBox="0 0 1234.4 378" enable-background="new 0 0 1234.4 378" xml:space="preserve">
<g>
	<g>
		<g>
			<g>
				<g>
					<g>
						<path fill="#3794D1" d="M15.5,280.1c52.1,1.3,321.6-3.1,363.9-1.8c-0.3-66.1,7.7-152.3,9.9-270.5L8.7,15.2
							C8.7,118.2,15.5,280.1,15.5,280.1z"/>
					</g>
					<g>
						<path fill="#C1DEF0" d="M33.1,230c48,1,284.8-0.3,323.8,0.6c1.7-34.1,9.3-140.4,9.3-199.9L23.2,30.8
							C22.6,64.1,33.1,230,33.1,230z"/>
					</g>
					<g>
						<path fill="#C1DEF0" d="M183.6,253.6c6.7-16.2,27.7-3.6,20.1,10.2C197.8,274.7,179.1,264.5,183.6,253.6z"/>
					</g>
				</g>
				<g>
					<path fill="#3794D1" d="M112.5,349.1c0,0,114.1-2.3,167.8-2.3v22.1l-167.8-5.6V349.1z"/>
				</g>
				<g>
					<path fill="#3794D1" d="M273.8,338.6c-14.5-9.5-26.9-30.5-26.6-49.6c0,0-64-2.3-95.6-0.8c-2.7,17.9-17.4,44.2-33.4,52.6
						L273.8,338.6z"/>
				</g>
			</g>
			<polygon fill="#FFFFFF" points="203,47.5 171.1,134.5 195.2,144.2 182.8,197 185,200.5 213.9,148.2 210.7,131.5 190.1,125.6 			
				"/>
		</g>
		<g>
			<g>
				<g>
					<g>
						<path fill="#575655" d="M852.5,280.1c52.1,1.3,321.6-3.1,363.9-1.8c-0.3-66.1,7.7-152.3,9.9-270.5l-380.6,7.5
							C845.7,118.2,852.5,280.1,852.5,280.1z"/>
					</g>
					<g>
						<path fill="#BBB7B7" d="M870.1,230c48,1,284.8-0.3,323.8,0.6c1.7-34.1,9.3-140.4,9.3-199.9l-342.9,0.1
							C859.6,64.1,870.1,230,870.1,230z"/>
					</g>
					<g>
						<path fill="#BBB7B7" d="M1020.6,253.6c6.7-16.2,27.7-3.6,20.1,10.2C1034.8,274.7,1016.1,264.5,1020.6,253.6z"/>
					</g>
				</g>
				<g>
					<path fill="#575655" d="M949.5,349.1c0,0,114.1-2.3,167.8-2.3v22.1l-167.8-5.6V349.1z"/>
				</g>
				<g>
					<path fill="#575655" d="M1110.8,338.6c-14.5-9.5-26.9-30.5-26.6-49.6c0,0-64-2.3-95.6-0.8c-2.7,17.9-17.4,44.2-33.4,52.6
						L1110.8,338.6z"/>
				</g>
			</g>
			<polygon fill="#FFFFFF" points="1040,47.5 1008.1,134.5 1032.2,144.2 1019.8,197 1022,200.5 1050.9,148.2 1047.7,131.5 
				1027.1,125.6 			"/>
		</g>
	</g>
	<g>
		<g>
			<g>
				<g>
					<path fill="#3794D1" d="M15.5,280.1c52.1,1.3,321.6-3.1,363.9-1.8c-0.3-66.1,7.7-152.3,9.9-270.5L8.7,15.2
						C8.7,118.2,15.5,280.1,15.5,280.1z"/>
				</g>
				<g>
					<path fill="#C1DEF0" d="M33.1,230c48,1,284.8-0.3,323.8,0.6c1.7-34.1,9.3-140.4,9.3-199.9L23.2,30.8
						C22.6,64.1,33.1,230,33.1,230z"/>
				</g>
				<g>
					<path fill="#C1DEF0" d="M183.6,253.6c6.7-16.2,27.7-3.6,20.1,10.2C197.8,274.7,179.1,264.5,183.6,253.6z"/>
				</g>
			</g>
			<g>
				<path fill="#3794D1" d="M112.5,349.1c0,0,114.1-2.3,167.8-2.3v22.1l-167.8-5.6V349.1z"/>
			</g>
			<g>
				<path fill="#3794D1" d="M273.8,338.6c-14.5-9.5-26.9-30.5-26.6-49.6c0,0-64-2.3-95.6-0.8c-2.7,17.9-17.4,44.2-33.4,52.6
					L273.8,338.6z"/>
			</g>
		</g>
		<polygon fill="#FFFFFF" points="203,47.5 171.1,134.5 195.2,144.2 182.8,197 185,200.5 213.9,148.2 210.7,131.5 190.1,125.6 		"/>
	</g>
	<g>
		
			<line fill="none" stroke="#565555" stroke-width="4" stroke-miterlimit="10" stroke-dasharray="5,5" x1="764.9" y1="173.4" x2="426.9" y2="173.4"/>
		<g>
			<polygon fill="#565555" points="759.3,165.1 762.5,172.5 759.3,179.9 776.9,172.5 			"/>
		</g>
	</g>
	<g>
		<g>
			
				<line fill="none" stroke="#3794D1" stroke-width="4" stroke-miterlimit="10" stroke-dasharray="5,5" x1="438.9" y1="123.4" x2="777.9" y2="123.4"/>
			<g>
				<polygon fill="#3794D1" points="444.3,131.2 441.1,123.8 444.3,116.3 426.7,123.8 				"/>
			</g>
		</g>
	</g>
</g>
</svg>
