<?xml version="1.0" encoding="utf-8"?>
<!-- Generator: Adobe Illustrator 17.0.0, SVG Export Plug-In . SVG Version: 6.00 Build 0)  -->
<!DOCTYPE svg PUBLIC "-//W3C//DTD SVG 1.1//EN" "http://www.w3.org/Graphics/SVG/1.1/DTD/svg11.dtd">
<svg version="1.1" id="Layer_1" xmlns="http://www.w3.org/2000/svg" xmlns:xlink="http://www.w3.org/1999/xlink" x="0px" y="0px"
	 width="328.5px" height="298.5px" viewBox="0 0 328.5 298.5" enable-background="new 0 0 328.5 298.5" xml:space="preserve">
<g>
	<g>
		<g>
			<defs>
				<rect id="SVGID_1_" x="0.5" y="0.5" width="164" height="298"/>
			</defs>
			<clipPath id="SVGID_2_">
				<use xlink:href="#SVGID_1_"  overflow="visible"/>
			</clipPath>
			<g clip-path="url(#SVGID_2_)">
				<g>
					<g>
						<path fill="#575655" d="M16.2,226.1c42.6,1.1,262.7-2.5,297.2-1.5c-0.2-54,6.3-124.4,8-220.9L10.6,9.8
							C10.6,94,16.2,226.1,16.2,226.1z"/>
					</g>
					<g>
						<path fill="#BBB7B7" d="M30.6,185.2c39.2,0.8,232.6-0.2,264.4,0.5c1.4-27.8,7.6-114.7,7.6-163.3l-280,0.1
							C22,49.7,30.6,185.2,30.6,185.2z"/>
					</g>
					<g>
						<path fill="#BBB7B7" d="M153.5,204.5c5.4-13.2,22.6-3,16.4,8.3C165.1,221.7,149.8,213.4,153.5,204.5z"/>
					</g>
				</g>
				<g>
					<path fill="#575655" d="M95.4,282.5c0,0,93.2-1.9,137-1.9v18l-137-4.6V282.5z"/>
				</g>
				<g>
					<path fill="#575655" d="M227.2,273.9c-11.9-7.8-22-24.9-21.7-40.5c0,0-52.3-1.9-78.1-0.7c-2.2,14.7-14.2,36.1-27.3,42.9
						L227.2,273.9z"/>
				</g>
			</g>
		</g>
		<polygon fill="#575655" points="40,90.2 128.3,96.1 128.3,80.3 153.2,106.7 128.3,133 128.3,117.5 40,117.5 		"/>
	</g>
	<g>
		<g>
			<defs>
				<rect id="SVGID_3_" x="164.5" y="0.5" width="164" height="298"/>
			</defs>
			<clipPath id="SVGID_4_">
				<use xlink:href="#SVGID_3_"  overflow="visible"/>
			</clipPath>
			<g clip-path="url(#SVGID_4_)">
				<g>
					<g>
						<path fill="#3794D1" d="M16.2,226.1c42.6,1.1,262.7-2.5,297.2-1.5c-0.2-54,6.3-124.4,8-220.9L10.6,9.8
							C10.6,94,16.2,226.1,16.2,226.1z"/>
					</g>
					<g>
						<path fill="#C1DEF0" d="M30.6,185.2c39.2,0.8,232.6-0.2,264.4,0.5c1.4-27.8,7.6-114.7,7.6-163.3l-280,0.1
							C22,49.7,30.6,185.2,30.6,185.2z"/>
					</g>
					<g>
						<path fill="#C1DEF0" d="M153.5,204.5c5.4-13.2,22.6-3,16.4,8.3C165.1,221.7,149.8,213.4,153.5,204.5z"/>
					</g>
				</g>
				<g>
					<path fill="#3794D1" d="M95.4,282.5c0,0,93.2-1.9,137-1.9v18l-137-4.6V282.5z"/>
				</g>
				<g>
					<path fill="#3794D1" d="M227.2,273.9c-11.9-7.8-22-24.9-21.7-40.5c0,0-52.3-1.9-78.1-0.7c-2.2,14.7-14.2,36.1-27.3,42.9
						L227.2,273.9z"/>
				</g>
			</g>
		</g>
		<polygon fill="#3893D0" points="290.4,89.6 199,95.7 199,79.4 173.3,106.7 199,133.9 199,117.9 290.4,117.9 		"/>
	</g>
</g>
</svg>
