<?xml version="1.0" encoding="utf-8"?>
<!-- Generator: Adobe Illustrator 16.2.1, SVG Export Plug-In . SVG Version: 6.00 Build 0)  -->
<!DOCTYPE svg PUBLIC "-//W3C//DTD SVG 1.1//EN" "http://www.w3.org/Graphics/SVG/1.1/DTD/svg11.dtd">
<svg version="1.1" id="Layer_1" xmlns="http://www.w3.org/2000/svg" xmlns:xlink="http://www.w3.org/1999/xlink" x="0px" y="0px"
	 width="201px" height="54px" viewBox="-0.335 -1.344 201 54" enable-background="new -0.335 -1.344 201 54" xml:space="preserve">
<path fill="#FFFFFF" d="M20.903,37.432c-1.931,2.041-4.467,3.199-7.556,3.199c-2.206,0-4.303-0.553-5.901-1.49
	c0.11,0.662,0.11,1.49,0.11,2.316v8.824l-7.115,1.875V19.507c0-3.695-0.055-4.743-0.441-7.115l6.562-1.158
	c0.276,0.993,0.44,1.765,0.497,2.647c1.268-1.544,4.081-2.647,6.948-2.647c1.986,0,4.027,0.662,5.57,1.71
	c3.034,2.041,5.24,5.681,5.24,12.188C24.819,31.2,23.826,34.288,20.903,37.432z M16.05,19.618c-0.552-1.545-1.71-2.372-3.53-2.372
	c-1.82,0-3.584,0.773-4.908,2.151v13.732c0.992,0.828,2.592,1.654,4.081,1.654c3.64,0,5.074-2.48,5.074-8.936
	C16.767,23.148,16.546,20.996,16.05,19.618z"/>
<path fill="#FFFFFF" d="M35.574,28.221v0.22c0,4.356,2.151,6.839,5.956,6.839c2.538,0,4.909-0.938,7.17-2.812l2.868,4.412
	c-3.254,2.648-6.673,3.916-10.645,3.916c-8.107,0-13.347-5.735-13.347-14.615c0-5.073,1.048-8.438,3.53-11.195
	c2.317-2.593,5.129-3.806,8.88-3.806c3.253,0,6.342,1.103,8.162,2.978c2.592,2.647,3.75,6.453,3.75,12.355v1.709H35.574z
	 M44.234,22.486c0-2.096-0.221-3.199-0.883-4.247c-0.717-1.103-1.766-1.654-3.254-1.654c-2.812,0-4.412,2.206-4.412,6.122v0.11
	h8.549V22.486z"/>
<path fill="#FFFFFF" d="M75.318,38.369c-1.931,1.544-3.861,2.206-6.177,2.206c-2.758,0-4.688-0.827-6.288-2.592
	c-0.22,0.993-0.275,1.269-0.771,2.041h-6.619c0.551-1.27,0.717-2.096,0.717-6.012V7.87c0-3.475-0.11-5.35-0.496-6.949l7.556-1.765
	c0.22,1.931,0.275,3.089,0.275,5.019v6.674c0,0.827-0.056,2.041-0.165,2.481c1.434-1.544,3.419-2.261,6.012-2.261
	c6.894,0,11.196,5.516,11.196,14.34C80.557,31.145,78.792,35.612,75.318,38.369z M71.843,20.776
	c-0.552-2.427-2.096-3.585-4.026-3.585c-1.93,0-3.254,1.213-4.192,2.261v13.018c0.993,0.882,2.151,1.819,4.137,1.819
	c1.82,0,2.979-0.717,3.585-2.207c0.662-1.543,0.827-3.032,0.827-6.507C72.174,23.037,72.119,21.99,71.843,20.776z"/>
<path fill="#FFFFFF" d="M104.23,38.369c-1.93,1.544-3.861,2.206-6.177,2.206c-2.758,0-4.688-0.827-6.288-2.592
	c-0.222,0.993-0.276,1.269-0.772,2.041h-6.619c0.552-1.27,0.717-2.096,0.717-6.012V7.87c0-3.475-0.11-5.35-0.496-6.949l7.556-1.765
	c0.221,1.931,0.276,3.089,0.276,5.019v6.674c0,0.827-0.055,2.041-0.166,2.481c1.434-1.544,3.419-2.261,6.012-2.261
	c6.894,0,11.195,5.516,11.195,14.34C109.469,31.145,107.704,35.612,104.23,38.369z M100.755,20.776
	c-0.551-2.427-2.096-3.585-4.026-3.585c-1.93,0-3.254,1.213-4.192,2.261v13.018c0.993,0.882,2.151,1.819,4.137,1.819
	c1.82,0,2.979-0.717,3.585-2.207c0.662-1.543,0.827-3.032,0.827-6.507C101.085,23.037,101.03,21.99,100.755,20.776z"/>
<path fill="#FFFFFF" d="M121.167,40.686c-3.144,0-5.681-1.489-6.562-3.86c-0.551-1.435-0.662-2.317-0.662-6.343V9.415
	c0-3.695-0.11-5.957-0.386-8.494l7.556-1.709c0.275,1.544,0.386,3.364,0.386,7.335v22.005c0,4.854,0.055,5.517,0.496,6.289
	c0.276,0.496,0.883,0.771,1.489,0.771c0.276,0,0.441,0,0.827-0.11l1.269,4.413C124.311,40.41,122.768,40.686,121.167,40.686z"/>
<path fill="#FFFFFF" d="M134.244,28.221v0.22c0,4.356,2.151,6.839,5.957,6.839c2.537,0,4.909-0.938,7.17-2.812l2.867,4.412
	c-3.254,2.648-6.673,3.916-10.644,3.916c-8.107,0-13.347-5.735-13.347-14.615c0-5.073,1.048-8.438,3.53-11.195
	c2.316-2.593,5.129-3.806,8.879-3.806c3.254,0,6.342,1.103,8.163,2.978c2.592,2.647,3.75,6.453,3.75,12.355v1.709H134.244z
	 M142.904,22.486c0-2.096-0.221-3.199-0.882-4.247c-0.718-1.103-1.765-1.654-3.254-1.654c-2.813,0-4.412,2.206-4.412,6.122v0.11
	h8.548V22.486z"/>
<g enable-background="new    ">
	<path fill="#FFFFFF" d="M158.618,42.828c-2.718,0-4.878-2.217-4.878-4.934c0-2.66,2.16-4.821,4.821-4.821
		c2.718,0,4.934,2.162,4.934,4.821C163.495,40.611,161.277,42.828,158.618,42.828z"/>
	<path fill="#FFFFFF" d="M174.417,10.346c-2.496,0-4.548-2.052-4.548-4.601c0-2.551,2.107-4.602,4.656-4.602
		c2.495,0,4.49,2.052,4.49,4.602S176.967,10.346,174.417,10.346z M170.703,41.941V14.06l7.428-1.164v29.045H170.703z"/>
	<path fill="#FFFFFF" d="M194.593,42.606c-3.769,0-6.763-1.662-7.65-4.157c-0.441-1.22-0.498-1.773-0.498-4.379V18.661h-2.827
		v-5.101h2.827c0-2.771,0-4.6,0.276-6.706l7.539-1.886c-0.276,2.605-0.443,5.71-0.443,8.592h6.652l-1.886,5.101h-4.767v14.246
		c0,3.603,0.665,4.545,3.215,4.545c0.666,0,1.332-0.166,2.661-0.555l0.942,4.435C198.475,42.219,196.533,42.606,194.593,42.606z"/>
</g>
</svg>
