<?xml version="1.0" encoding="utf-8"?>
<!-- Generator: Adobe Illustrator 17.0.0, SVG Export Plug-In . SVG Version: 6.00 Build 0)  -->
<!DOCTYPE svg PUBLIC "-//W3C//DTD SVG 1.1//EN" "http://www.w3.org/Graphics/SVG/1.1/DTD/svg11.dtd">
<svg version="1.1" id="Layer_1" xmlns="http://www.w3.org/2000/svg" xmlns:xlink="http://www.w3.org/1999/xlink" x="0px" y="0px"
	 width="443.8px" height="334px" viewBox="0 0 443.8 334" enable-background="new 0 0 443.8 334" xml:space="preserve">
<g>
	<g>
		<g>
			<path fill="#3794D1" d="M2.1,91.1c16.5,0.4,101.5-1,114.9-0.6c-0.1-20.9,2.4-48.1,3.1-85.4L0,7.5C0,40.1,2.1,91.1,2.1,91.1z"/>
		</g>
		<g>
			<path fill="#C1DEF0" d="M7.7,75.3c15.2,0.3,89.9-0.1,102.2,0.2c0.5-10.8,2.9-44.3,2.9-63.1l-108.2,0C4.4,23,7.7,75.3,7.7,75.3z"
				/>
		</g>
		<g>
			<path fill="#C1DEF0" d="M55.2,82.8c2.1-5.1,8.7-1.1,6.4,3.2C59.7,89.4,53.8,86.2,55.2,82.8z"/>
		</g>
	</g>
	<g>
		<path fill="#3794D1" d="M32.8,112.9c0,0,36-0.7,53-0.7v7l-53-1.8V112.9z"/>
	</g>
	<g>
		<path fill="#3794D1" d="M83.7,109.6c-4.6-3-8.5-9.6-8.4-15.7c0,0-20.2-0.7-30.2-0.3c-0.9,5.7-5.5,13.9-10.6,16.6L83.7,109.6z"/>
	</g>
</g>
<g>
	<g>
		<g>
			<path fill="#3794D1" d="M167.2,98.7c16.5,0.4,101.5-1,114.9-0.6c-0.1-20.9,2.4-48.1,3.1-85.4l-120.1,2.4
				C165.1,47.6,167.2,98.7,167.2,98.7z"/>
		</g>
		<g>
			<path fill="#C1DEF0" d="M172.8,82.9c15.2,0.3,89.9-0.1,102.2,0.2c0.5-10.8,2.9-44.3,2.9-63.1l-108.2,0
				C169.4,30.5,172.8,82.9,172.8,82.9z"/>
		</g>
		<g>
			<path fill="#C1DEF0" d="M220.3,90.3c2.1-5.1,8.7-1.1,6.4,3.2C224.8,97,218.9,93.8,220.3,90.3z"/>
		</g>
	</g>
	<g>
		<path fill="#3794D1" d="M197.8,120.5c0,0,36-0.7,53-0.7v7l-53-1.8V120.5z"/>
	</g>
	<g>
		<path fill="#3794D1" d="M248.8,117.2c-4.6-3-8.5-9.6-8.4-15.7c0,0-20.2-0.7-30.2-0.3c-0.9,5.7-5.5,13.9-10.6,16.6L248.8,117.2z"/>
	</g>
</g>
<g>
	<g>
		<g>
			<path fill="#3794D1" d="M175.5,306c16.5,0.4,101.5-1,114.9-0.6c-0.1-20.9,2.4-48.1,3.1-85.4l-120.1,2.4
				C173.3,254.9,175.5,306,175.5,306z"/>
		</g>
		<g>
			<path fill="#C1DEF0" d="M181,290.2c15.2,0.3,89.9-0.1,102.2,0.2c0.5-10.8,2.9-44.3,2.9-63.1l-108.2,0
				C177.7,237.8,181,290.2,181,290.2z"/>
		</g>
		<g>
			<path fill="#C1DEF0" d="M228.5,297.6c2.1-5.1,8.7-1.1,6.4,3.2C233,304.3,227.1,301,228.5,297.6z"/>
		</g>
	</g>
	<g>
		<path fill="#3794D1" d="M206.1,327.7c0,0,36-0.7,53-0.7v7l-53-1.8V327.7z"/>
	</g>
	<g>
		<path fill="#3794D1" d="M257,324.4c-4.6-3-8.5-9.6-8.4-15.7c0,0-20.2-0.7-30.2-0.3c-0.9,5.7-5.5,13.9-10.6,16.6L257,324.4z"/>
	</g>
</g>
<g>
	<g>
		<g>
			<path fill="#3794D1" d="M325.8,86c16.5,0.4,101.5-1,114.9-0.6c-0.1-20.9,2.4-48.1,3.1-85.4L323.6,2.4
				C323.6,34.9,325.8,86,325.8,86z"/>
		</g>
		<g>
			<path fill="#C1DEF0" d="M331.3,70.2c15.2,0.3,89.9-0.1,102.2,0.2c0.5-10.8,2.9-44.3,2.9-63.1l-108.2,0
				C328,17.8,331.3,70.2,331.3,70.2z"/>
		</g>
		<g>
			<path fill="#C1DEF0" d="M378.8,77.6c2.1-5.1,8.7-1.1,6.4,3.2C383.3,84.3,377.4,81,378.8,77.6z"/>
		</g>
	</g>
	<g>
		<path fill="#3794D1" d="M356.4,107.7c0,0,36-0.7,53-0.7v7l-53-1.8V107.7z"/>
	</g>
	<g>
		<path fill="#3794D1" d="M407.3,104.4c-4.6-3-8.5-9.6-8.4-15.7c0,0-20.2-0.7-30.2-0.3c-0.9,5.7-5.5,13.9-10.6,16.6L407.3,104.4z"/>
	</g>
</g>
<path fill="#3794D1" d="M312.9,203.8c18.5-19.2,47.4-49.9,56-59.9c0.2,1.8,0.4,4.3,0.6,6.7c0.2,2.6,0.4,5,0.6,6.4l0.1,0.6l3.7-1.9
	l0-0.3c-0.5-3.5-1.8-11.6-3.4-16.5c0-0.1-0.1-0.2-0.2-0.3c-0.3-0.2-0.7-0.4-17.6,5.4c-0.8,0.3-1.3,0.5-1.5,0.5l-0.6,0.2l2.7,3.2
	l0.3-0.1c0.1,0,6.4-2.1,11.2-3.7c-10.4,11.5-37.9,39.6-55.8,58L312.9,203.8z"/>
<path fill="#3794D1" d="M228.6,203.1c1.4-26.6-0.5-37-0.5-50.2c1.3,1.2,3.1,2.9,4.9,4.7c1.8,1.8,3.6,3.5,4.6,4.4l0.5,0.4l1.6-3.9
	l-0.2-0.2c-2.7-2.3-9-7.6-13.4-10.3c-0.1-0.1-0.2-0.1-0.4-0.1c-0.3,0.1-0.8,0.2-9.7,15.6c-0.4,0.7-0.7,1.2-0.8,1.4l-0.3,0.6l4.1,0.6
	l0.2-0.3c0-0.1,3.4-5.8,6-10.1c-0.3,15.5,0.3,33.4-0.3,46.8L228.6,203.1z"/>
<path fill="#3794D1" d="M148.6,209.9c-18.5-19.2-47.4-49.9-56-59.9c-0.2,1.8-0.4,4.3-0.6,6.7c-0.2,2.6-0.4,5-0.6,6.4l-0.1,0.6
	l-3.7-1.9l0-0.3c0.5-3.5,1.8-11.6,3.4-16.5c0-0.1,0.1-0.2,0.2-0.3c0.3-0.2,0.7-0.4,17.6,5.4c0.8,0.3,1.3,0.5,1.5,0.5l0.6,0.2
	l-2.7,3.2l-0.3-0.1c-0.1,0-6.4-2.1-11.2-3.7c10.4,11.5,37.9,39.6,55.8,58L148.6,209.9z"/>
<g>
	<path fill="#575655" d="M377.4,60.5c0,0-10.1-17-11.9-20.7L370,38c1.4,3.6,5,10.9,7.6,15.6c2.2-3.1,17.2-29,21.6-36.8l6.6,4.2
		c-2.2,2.9-16.5,23.9-16.5,23.9L377.4,60.5z"/>
</g>
<g>
	<path fill="#575655" d="M58.1,61.6c0,0-10.1-17-11.9-20.7l4.5-1.8c1.4,3.6,5,10.9,7.6,15.6c2.2-3.1,17.2-29,21.6-36.8l6.6,4.2
		C84.4,25,70.1,46,70.1,46L58.1,61.6z"/>
</g>
<g>
	<path fill="#575655" d="M225.1,280.7c0,0-10.1-17-11.9-20.7l3-1.2c1.5,3,6.5,10.3,9.1,15.1c2.2-3.1,19.6-27.5,24-35.3l4.3,2.7
		c-2.2,2.9-16.5,23.9-16.5,23.9L225.1,280.7z"/>
</g>
<g>
	<path fill="#575655" d="M225.1,72.5c0,0-10.1-17-11.9-20.7l3-1.2c1.5,3,6.5,10.3,9.1,15.1c2.2-3.1,19.6-27.5,24-35.3l4.3,2.7
		c-2.2,2.9-16.5,23.9-16.5,23.9L225.1,72.5z"/>
</g>
</svg>
