<?xml version="1.0" encoding="utf-8"?>
<!-- Generator: Adobe Illustrator 17.0.0, SVG Export Plug-In . SVG Version: 6.00 Build 0)  -->
<!DOCTYPE svg PUBLIC "-//W3C//DTD SVG 1.1//EN" "http://www.w3.org/Graphics/SVG/1.1/DTD/svg11.dtd">
<svg version="1.1" id="Layer_1" xmlns="http://www.w3.org/2000/svg" xmlns:xlink="http://www.w3.org/1999/xlink" x="0px" y="0px"
	 width="294px" height="553.4px" viewBox="0 0 294 553.4" enable-background="new 0 0 294 553.4" xml:space="preserve">
<g>
	<g>
		<defs>
			<rect id="SVGID_1_" y="7.4" width="302" height="546"/>
		</defs>
		<clipPath id="SVGID_2_">
			<use xlink:href="#SVGID_1_"  overflow="visible"/>
		</clipPath>
		<g clip-path="url(#SVGID_2_)">
			<g>
				<g>
					<path fill="#C1DEF0" d="M-270.7,421.4c78,2,481.6-4.6,544.9-2.7c-0.4-99,11.5-228,14.8-405l-569.8,11.2
						C-280.9,179.1-270.7,421.4-270.7,421.4z"/>
				</g>
				<g>
					<path fill="#3794D1" d="M-244.4,346.4c71.9,1.5,426.4-0.4,484.7,1c2.6-51,13.9-210.2,13.9-299.3l-513.4,0.2
						C-260.2,98-244.4,346.4-244.4,346.4z"/>
				</g>
				<g>
					<path fill="#3794D1" d="M-19.1,381.8c10-24.3,41.4-5.5,30.1,15.3C2.2,413.3-25.7,398-19.1,381.8z"/>
				</g>
			</g>
			<g>
				<path fill="#C1DEF0" d="M-125.5,524.7c0,0,170.9-3.4,251.2-3.4v33.1l-251.2-8.4V524.7z"/>
			</g>
			<g>
				<path fill="#C1DEF0" d="M116.1,509c-21.8-14.2-40.3-45.7-39.8-74.3c0,0-95.8-3.4-143.2-1.2c-4,26.9-26,66.2-50.1,78.7L116.1,509
					z"/>
			</g>
		</g>
	</g>
	<polygon fill="#575655" points="226.2,171.1 58.7,182.3 58.7,152.4 11.5,202.5 58.7,252.3 58.7,223 226.2,223 	"/>
</g>
</svg>
