<?xml version="1.0" encoding="utf-8"?>
<!-- Generator: Adobe Illustrator 17.0.0, SVG Export Plug-In . SVG Version: 6.00 Build 0)  -->
<!DOCTYPE svg PUBLIC "-//W3C//DTD SVG 1.1//EN" "http://www.w3.org/Graphics/SVG/1.1/DTD/svg11.dtd">
<svg version="1.1" id="Layer_1" xmlns="http://www.w3.org/2000/svg" xmlns:xlink="http://www.w3.org/1999/xlink" x="0px" y="0px"
	 width="294px" height="553.4px" viewBox="0 0 294 553.4" enable-background="new 0 0 294 553.4" xml:space="preserve">
<g>
	<g>
		<defs>
			<rect id="SVGID_1_" x="-12" y="-2.6" width="306" height="553"/>
		</defs>
		<clipPath id="SVGID_2_">
			<use xlink:href="#SVGID_1_"  overflow="visible"/>
		</clipPath>
		<g clip-path="url(#SVGID_2_)">
			<g>
				<g>
					<path fill="#575655" d="M19,416.8c79.2,2.1,488.7-4.6,553-2.8c-0.4-100.4,11.7-231.4,15-411.1L8.7,14.3
						C8.7,170.9,19,416.8,19,416.8z"/>
				</g>
				<g>
					<path fill="#BBB7B7" d="M45.7,340.7c73,1.5,432.7-0.4,492,1c2.6-51.8,14.1-213.4,14.1-303.8L30.8,38
						C29.7,88.6,45.7,340.7,45.7,340.7z"/>
				</g>
				<g>
					<path fill="#BBB7B7" d="M274.4,376.6c10.1-24.6,42-5.5,30.6,15.5C296,408.6,267.6,393,274.4,376.6z"/>
				</g>
			</g>
			<g>
				<path fill="#575655" d="M166.4,521.6c0,0,173.4-3.4,254.9-3.4v33.6l-254.9-8.5V521.6z"/>
			</g>
			<g>
				<path fill="#575655" d="M411.5,505.7c-22.1-14.5-40.9-46.4-40.4-75.4c0,0-97.2-3.5-145.3-1.3c-4.1,27.3-26.4,67.1-50.8,79.9
					L411.5,505.7z"/>
			</g>
		</g>
	</g>
	<polygon fill="#3794D1" points="66.4,163.9 230.7,174.8 230.7,145.5 276.9,194.6 230.7,243.5 230.7,214.7 66.4,214.7 	"/>
</g>
</svg>
