<?xml version="1.0" encoding="utf-8"?>
<!-- Generator: Adobe Illustrator 17.0.0, SVG Export Plug-In . SVG Version: 6.00 Build 0)  -->
<!DOCTYPE svg PUBLIC "-//W3C//DTD SVG 1.1//EN" "http://www.w3.org/Graphics/SVG/1.1/DTD/svg11.dtd">
<svg version="1.1" id="Layer_1" xmlns="http://www.w3.org/2000/svg" xmlns:xlink="http://www.w3.org/1999/xlink" x="0px" y="0px"
	 width="1024.4px" height="562.4px" viewBox="0 0 1024.4 562.4" enable-background="new 0 0 1024.4 562.4" xml:space="preserve">
<g>
	<g>
		<g>
			<path fill="#3794D1" d="M102.3,303.9c-2.2-9.7-1.1-16.7,3.2-21.4c3.8-4.1,9.3-5.7,14.6-7.2c6.4-1.8,12-3.3,14.2-8.8
				c0.6-1.7,1.2-10.2-7.3-13.3c-12.3-4.5-29.9,4.2-33.6,13.6L83,262.8c2.6-6.6,9.9-11.5,20.6-13.8c9.2-2,19.4-1.6,26.7,1.1
				c9.5,3.5,13.5,10.5,10.7,18.7c0,0.1,0,0.1-0.1,0.2c-3.5,8.8-11.7,11.1-18.9,13.1c-9.8,2.7-13.1,3.7-9.6,19.4L102.3,303.9z"/>
		</g>
		<g>
			<path fill="#3794D1" d="M112,309.2c-4.8,0-7.5,0-7.5,0l-1.6,8l11.1,1.5L112,309.2z"/>
		</g>
	</g>
	<g>
		<g>
			<path fill="#FFFFFF" d="M283.4,405.1c28.1,0.7,173.5-1.7,196.3-1c-0.2-35.6,4.1-82.1,5.3-145.9l-205.3,4
				C279.7,317.8,283.4,405.1,283.4,405.1z"/>
			<path fill="#C1DEF0" d="M292.9,378.1c25.9,0.5,153.6-0.2,174.6,0.3c0.9-18.4,5-75.7,5-107.8l-184.9,0.1
				C287.2,288.6,292.9,378.1,292.9,378.1z"/>
			<path fill="#C1DEF0" d="M374,390.9c3.6-8.7,14.9-2,10.9,5.5C381.7,402.2,371.6,396.7,374,390.9z"/>
		</g>
		<path fill="#FFFFFF" d="M335.7,442.3c0,0,61.6-1.2,90.5-1.2V453l-90.5-3V442.3z"/>
		<path fill="#FFFFFF" d="M422.7,436.7c-7.8-5.1-14.5-16.5-14.4-26.8c0,0-34.5-1.2-51.6-0.4c-1.5,9.7-9.4,23.8-18,28.3L422.7,436.7z
			"/>
	</g>
	<g>
		<g>
			<path fill="#3794D1" d="M373.7,345.3c-2.2-9.7-5-16.7-0.7-21.4c3.8-4.1,9.3-5.7,14.6-7.2c6.4-1.8,12-3.3,14.2-8.8
				c0.6-1.7,1.2-10.2-7.3-13.3c-12.3-4.5-34-0.1-37.7,9.3l-6.3,0.4c2.6-6.6,9.9-11.5,20.6-13.8c9.2-2,19.4-1.6,26.7,1.1
				c9.5,3.5,13.5,10.5,10.7,18.7c0,0.1,0,0.1-0.1,0.2c-3.5,8.8-11.7,11.1-18.9,13.1c-9.8,2.7-14.9,4.6-11.4,20.3L373.7,345.3z"/>
		</g>
		<g>
			<polygon fill="#3794D1" points="373.1,356.2 378.4,356.7 379.7,350.2 374.8,349 			"/>
		</g>
	</g>
	<g>
		<g>
			<path fill="#FFFFFF" d="M806.5,405.1c28.1,0.7,173.5-1.7,196.3-1c-0.2-35.6,4.1-82.1,5.3-145.9l-205.3,4
				C802.9,317.8,806.5,405.1,806.5,405.1z"/>
			<path fill="#C1DEF0" d="M816,378.1c25.9,0.5,153.6-0.2,174.6,0.3c0.9-18.4,5-75.7,5-107.8l-184.9,0.1
				C810.3,288.6,816,378.1,816,378.1z"/>
			<path fill="#C1DEF0" d="M897.2,390.9c3.6-8.7,14.9-2,10.9,5.5C904.9,402.2,894.8,396.7,897.2,390.9z"/>
		</g>
		<path fill="#FFFFFF" d="M858.9,442.3c0,0,61.6-1.2,90.5-1.2V453l-90.5-3V442.3z"/>
		<path fill="#FFFFFF" d="M945.9,436.7c-7.8-5.1-14.5-16.5-14.4-26.8c0,0-34.5-1.2-51.6-0.4c-1.5,9.7-9.4,23.8-18,28.3L945.9,436.7z
			"/>
	</g>
	<g>
		<g>
			<path fill="#3794D1" d="M896.8,345.3c-2.2-9.7-5-16.7-0.7-21.4c3.8-4.1,9.3-5.7,14.6-7.2c6.4-1.8,12-3.3,14.2-8.8
				c0.6-1.7,1.2-10.2-7.3-13.3c-12.3-4.5-34-0.1-37.7,9.3l-6.3,0.4c2.6-6.6,9.9-11.5,20.6-13.8c9.2-2,19.4-1.6,26.7,1.1
				c9.5,3.5,13.5,10.5,10.7,18.7c0,0.1,0,0.1-0.1,0.2c-3.5,8.8-11.7,11.1-18.9,13.1c-9.8,2.7-14.9,4.6-11.4,20.3L896.8,345.3z"/>
		</g>
		<g>
			<polygon fill="#3794D1" points="896.3,356.2 901.5,356.7 902.9,350.2 898,349 			"/>
		</g>
	</g>
	<g>
		<g>
			<path fill="#C1DEF0" d="M546.3,350.2c28.1,0.7,173.5-1.7,196.3-1c-0.2-35.6,4.1-82.1,5.3-145.9l-205.3,4
				C542.7,262.9,546.3,350.2,546.3,350.2z"/>
			<path fill="#FFFFFF" d="M555.8,323.2c25.9,0.5,153.6-0.2,174.6,0.3c0.9-18.4,5-75.7,5-107.8l-184.9,0.1
				C550.1,233.7,555.8,323.2,555.8,323.2z"/>
			<path fill="#C1DEF0" d="M637,335.9c3.6-8.7,14.9-2,10.9,5.5C644.7,347.3,634.6,341.8,637,335.9z"/>
		</g>
		<path fill="#C1DEF0" d="M598.7,387.4c0,0,61.6-1.2,90.5-1.2v11.9l-90.5-3V387.4z"/>
		<path fill="#C1DEF0" d="M685.7,381.7c-7.8-5.1-14.5-16.5-14.4-26.8c0,0-34.5-1.2-51.6-0.4c-1.5,9.7-9.4,23.8-18,28.3L685.7,381.7z
			"/>
	</g>
	<g>
		<g>
			<path fill="#3794D1" d="M632.7,290.4c-2.2-9.7-1.1-16.7,3.2-21.4c3.8-4.1,9.3-5.7,14.6-7.2c6.4-1.8,12-3.3,14.2-8.8
				c0.6-1.7,1.2-10.2-7.3-13.3c-12.3-4.5-29.9,4.2-33.6,13.6l-10.4-3.9c2.6-6.6,9.9-11.5,20.6-13.8c9.2-2,19.4-1.6,26.7,1.1
				c9.5,3.5,13.5,10.5,10.7,18.7c0,0.1,0,0.1-0.1,0.2c-3.5,8.8-11.7,11.1-18.9,13.1c-9.8,2.7-13.1,3.7-9.6,19.4L632.7,290.4z"/>
		</g>
		<g>
			<path fill="#3794D1" d="M642.4,295.7c-4.8,0-7.5,0-7.5,0l-1.6,8l11.1,1.5L642.4,295.7z"/>
		</g>
	</g>
	<g>
		<g>
			<g>
				<path fill="#C1DEF0" d="M16.3,363.2c28.1,0.7,173.5-1.7,196.3-1c-0.2-35.6,4.1-82.1,5.3-145.9l-205.3,4
					C12.7,275.9,16.3,363.2,16.3,363.2z"/>
				<path fill="#FFFFFF" d="M25.8,336.2c25.9,0.5,153.6-0.2,174.6,0.3c0.9-18.4,5-75.7,5-107.8l-184.9,0.1
					C20.1,246.7,25.8,336.2,25.8,336.2z"/>
				<path fill="#C1DEF0" d="M107,348.9c3.6-8.7,14.9-2,10.9,5.5C114.7,360.3,104.6,354.8,107,348.9z"/>
			</g>
			<path fill="#C1DEF0" d="M68.7,400.4c0,0,61.6-1.2,90.5-1.2v11.9l-90.5-3V400.4z"/>
			<path fill="#C1DEF0" d="M155.7,394.7c-7.8-5.1-14.5-16.5-14.4-26.8c0,0-34.5-1.2-51.6-0.4c-1.5,9.7-9.4,23.8-18,28.3L155.7,394.7
				z"/>
		</g>
		<g>
			<g>
				<path fill="#3794D1" d="M102.7,303.4c-2.2-9.7-1.1-16.7,3.2-21.4c3.8-4.1,9.3-5.7,14.6-7.2c6.4-1.8,12-3.3,14.2-8.8
					c0.6-1.7,1.2-10.2-7.3-13.3c-12.3-4.5-29.9,4.2-33.6,13.6l-10.4-3.9c2.6-6.6,9.9-11.5,20.6-13.8c9.2-2,19.4-1.6,26.7,1.1
					c9.5,3.5,13.5,10.5,10.7,18.7c0,0.1,0,0.1-0.1,0.2c-3.5,8.8-11.7,11.1-18.9,13.1c-9.8,2.7-13.1,3.7-9.6,19.4L102.7,303.4z"/>
			</g>
			<g>
				<path fill="#3794D1" d="M112.4,308.7c-4.8,0-7.5,0-7.5,0l-1.6,8l11.1,1.5L112.4,308.7z"/>
			</g>
		</g>
	</g>
	<g>
		<g>
			<path fill="#FFFFFF" d="M921.6,225.5c-0.6,0-1.2-0.3-1.6-0.9c-1.3-2.1-2.7-4.2-4.1-6.3c-0.6-0.9-0.4-2.1,0.5-2.6
				c0.9-0.6,2.1-0.4,2.6,0.5c1.4,2.1,2.8,4.3,4.2,6.4c0.6,0.9,0.3,2.1-0.6,2.6C922.3,225.4,922,225.5,921.6,225.5z M913.1,212.9
				c-0.6,0-1.2-0.3-1.5-0.8c-1.5-2-3-4.1-4.5-6c-0.6-0.8-0.5-2,0.4-2.7c0.8-0.6,2-0.5,2.7,0.4c1.6,2,3.1,4.1,4.6,6.1
				c0.6,0.9,0.4,2-0.4,2.7C913.9,212.8,913.5,212.9,913.1,212.9z M903.9,200.8c-0.6,0-1.1-0.2-1.5-0.7c-1.6-1.9-3.2-3.9-4.8-5.8
				c-0.7-0.8-0.6-2,0.2-2.7c0.8-0.7,2-0.6,2.7,0.2c1.7,1.9,3.3,3.9,4.9,5.9c0.7,0.8,0.5,2-0.3,2.7
				C904.7,200.7,904.3,200.8,903.9,200.8z M91.4,197.7c-0.4,0-0.7-0.1-1-0.3c-0.9-0.6-1.1-1.7-0.6-2.6c1.4-2.1,2.8-4.3,4.3-6.4
				c0.6-0.9,1.8-1.1,2.6-0.5c0.9,0.6,1.1,1.8,0.5,2.6c-1.4,2.1-2.8,4.2-4.2,6.3C92.6,197.4,92,197.7,91.4,197.7z M893.9,189.3
				c-0.5,0-1-0.2-1.4-0.6c-1.7-1.8-3.4-3.7-5.2-5.5c-0.7-0.8-0.7-2,0.1-2.7c0.8-0.7,2-0.7,2.7,0.1c1.8,1.8,3.5,3.7,5.2,5.6
				c0.7,0.8,0.7,2-0.1,2.7C894.9,189.1,894.4,189.3,893.9,189.3z M100,185.2c-0.4,0-0.8-0.1-1.1-0.4c-0.8-0.6-1-1.8-0.4-2.7
				c1.5-2,3-4.1,4.6-6.1c0.6-0.8,1.8-1,2.7-0.4c0.8,0.6,1,1.8,0.4,2.7c-1.5,2-3.1,4.1-4.5,6.1C101.2,184.9,100.6,185.2,100,185.2z
				 M883.4,178.3c-0.5,0-1-0.2-1.3-0.5c-1.8-1.8-3.6-3.5-5.4-5.2c-0.8-0.7-0.8-1.9-0.1-2.7c0.7-0.8,1.9-0.8,2.7-0.1
				c1.9,1.7,3.7,3.5,5.5,5.3c0.7,0.7,0.8,1.9,0,2.7C884.4,178.2,883.9,178.3,883.4,178.3z M109.3,173.1c-0.4,0-0.8-0.1-1.2-0.4
				c-0.8-0.7-0.9-1.9-0.3-2.7c1.6-2,3.2-4,4.9-5.9c0.7-0.8,1.9-0.9,2.7-0.2c0.8,0.7,0.9,1.9,0.2,2.7c-1.6,1.9-3.2,3.9-4.8,5.8
				C110.4,172.8,109.8,173.1,109.3,173.1z M872.3,167.9c-0.5,0-0.9-0.2-1.3-0.5c-1.8-1.7-3.8-3.3-5.7-5c-0.8-0.7-0.9-1.9-0.2-2.7
				c0.7-0.8,1.9-0.9,2.7-0.2c1.9,1.7,3.9,3.4,5.7,5c0.8,0.7,0.8,1.9,0.1,2.7C873.4,167.7,872.9,167.9,872.3,167.9z M119.1,161.5
				c-0.4,0-0.9-0.2-1.3-0.5c-0.8-0.7-0.9-1.9-0.2-2.7c1.7-1.9,3.4-3.8,5.1-5.7c0.7-0.8,1.9-0.8,2.7-0.1c0.8,0.7,0.8,1.9,0.1,2.7
				c-1.7,1.9-3.4,3.8-5.1,5.6C120.1,161.2,119.6,161.5,119.1,161.5z M860.8,158c-0.4,0-0.9-0.1-1.2-0.4c-1.9-1.6-3.9-3.2-5.9-4.7
				c-0.8-0.6-1-1.8-0.3-2.7c0.7-0.8,1.8-1,2.7-0.3c2,1.6,4,3.2,6,4.8c0.8,0.7,0.9,1.9,0.3,2.7C861.9,157.8,861.4,158,860.8,158z
				 M129.4,150.3c-0.5,0-0.9-0.2-1.3-0.5c-0.8-0.7-0.8-1.9-0.1-2.7c1.7-1.8,3.5-3.6,5.4-5.5c0.7-0.7,1.9-0.7,2.7,0
				c0.7,0.7,0.7,1.9,0,2.7c-1.8,1.8-3.6,3.6-5.3,5.4C130.4,150.1,129.9,150.3,129.4,150.3z M848.9,148.6c-0.4,0-0.8-0.1-1.1-0.4
				c-2-1.5-4-3-6.1-4.5c-0.8-0.6-1-1.8-0.4-2.7c0.6-0.8,1.8-1,2.7-0.4c2.1,1.5,4.1,3,6.1,4.6c0.8,0.6,1,1.8,0.4,2.7
				C850,148.3,849.4,148.6,848.9,148.6z M836.6,139.6c-0.4,0-0.8-0.1-1.1-0.3c-2.1-1.4-4.2-2.9-6.2-4.3c-0.9-0.6-1.1-1.8-0.5-2.6
				c0.6-0.9,1.8-1.1,2.6-0.5c2.1,1.4,4.2,2.9,6.3,4.3c0.9,0.6,1.1,1.8,0.5,2.6C837.7,139.4,837.2,139.6,836.6,139.6z M140.1,139.5
				c-0.5,0-1-0.2-1.4-0.6c-0.7-0.8-0.7-2,0.1-2.7c1.8-1.7,3.7-3.5,5.5-5.2c0.8-0.7,2-0.7,2.7,0.1c0.7,0.8,0.7,2-0.1,2.7
				c-1.8,1.7-3.7,3.4-5.5,5.2C141.1,139.4,140.6,139.5,140.1,139.5z M824,131.1c-0.4,0-0.7-0.1-1-0.3c-2.1-1.4-4.2-2.7-6.4-4.1
				c-0.9-0.6-1.1-1.7-0.6-2.6c0.6-0.9,1.7-1.1,2.6-0.6c2.2,1.4,4.3,2.8,6.4,4.1c0.9,0.6,1.1,1.8,0.5,2.6
				C825.2,130.8,824.6,131.1,824,131.1z M151.3,129.2c-0.5,0-1-0.2-1.4-0.6c-0.7-0.8-0.6-2,0.2-2.7c1.9-1.7,3.8-3.4,5.7-5
				c0.8-0.7,2-0.6,2.7,0.2c0.7,0.8,0.6,2-0.2,2.7c-1.9,1.6-3.8,3.3-5.7,5C152.2,129.1,151.7,129.2,151.3,129.2z M811.1,122.9
				c-0.3,0-0.7-0.1-1-0.3c-2.1-1.3-4.3-2.6-6.5-3.9c-0.9-0.5-1.2-1.7-0.7-2.6c0.5-0.9,1.7-1.2,2.6-0.7c2.2,1.3,4.4,2.6,6.5,4
				c0.9,0.6,1.2,1.7,0.6,2.6C812.4,122.6,811.8,122.9,811.1,122.9z M162.8,119.4c-0.5,0-1.1-0.2-1.5-0.7c-0.7-0.8-0.6-2,0.3-2.7
				c2-1.6,4-3.2,5.9-4.8c0.8-0.7,2-0.5,2.7,0.3c0.7,0.8,0.5,2-0.3,2.7c-2,1.6-3.9,3.2-5.9,4.8C163.7,119.2,163.2,119.4,162.8,119.4z
				 M798.1,115.1c-0.3,0-0.7-0.1-1-0.3c-2.2-1.3-4.4-2.5-6.6-3.8c-0.9-0.5-1.2-1.7-0.7-2.6c0.5-0.9,1.7-1.2,2.6-0.7
				c2.2,1.3,4.4,2.5,6.6,3.8c0.9,0.5,1.2,1.7,0.7,2.6C799.4,114.8,798.7,115.1,798.1,115.1z M174.7,109.9c-0.6,0-1.1-0.3-1.5-0.7
				c-0.6-0.8-0.5-2,0.3-2.7c2-1.5,4-3.1,6.1-4.6c0.8-0.6,2-0.5,2.7,0.4c0.6,0.8,0.4,2-0.4,2.7c-2,1.5-4.1,3-6,4.6
				C175.5,109.7,175.1,109.9,174.7,109.9z M784.8,107.6c-0.3,0-0.6-0.1-0.9-0.2c-2.2-1.2-4.4-2.4-6.7-3.6c-0.9-0.5-1.3-1.7-0.8-2.6
				c0.5-0.9,1.6-1.3,2.6-0.8c2.2,1.2,4.5,2.4,6.7,3.7c0.9,0.5,1.3,1.7,0.7,2.6C786.2,107.2,785.5,107.6,784.8,107.6z M186.9,100.8
				c-0.6,0-1.2-0.3-1.5-0.8c-0.6-0.9-0.4-2,0.4-2.7c2-1.5,4.1-2.9,6.2-4.4c0.9-0.6,2-0.4,2.6,0.5c0.6,0.9,0.4,2-0.5,2.6
				c-2.1,1.4-4.2,2.9-6.2,4.4C187.7,100.7,187.3,100.8,186.9,100.8z M771.4,100.4c-0.3,0-0.6-0.1-0.9-0.2c-2.2-1.2-4.5-2.3-6.7-3.5
				c-0.9-0.5-1.3-1.6-0.8-2.6c0.5-0.9,1.6-1.3,2.6-0.8c2.3,1.2,4.5,2.3,6.8,3.5c0.9,0.5,1.3,1.6,0.8,2.6
				C772.8,100,772.1,100.4,771.4,100.4z M757.9,93.5c-0.3,0-0.6-0.1-0.8-0.2c-2.3-1.1-4.5-2.2-6.8-3.3c-0.9-0.5-1.3-1.6-0.9-2.5
				c0.5-0.9,1.6-1.3,2.5-0.9c2.3,1.1,4.6,2.2,6.8,3.4c0.9,0.5,1.3,1.6,0.9,2.5C759.3,93.1,758.6,93.5,757.9,93.5z M199.4,92.2
				c-0.6,0-1.2-0.3-1.6-0.8c-0.6-0.9-0.3-2.1,0.5-2.6c2.1-1.4,4.3-2.8,6.4-4.2c0.9-0.6,2.1-0.3,2.6,0.6c0.6,0.9,0.3,2.1-0.6,2.6
				c-2.1,1.3-4.2,2.7-6.3,4.2C200.1,92.1,199.8,92.2,199.4,92.2z M744.2,86.8c-0.3,0-0.5-0.1-0.8-0.2c-2.3-1.1-4.6-2.1-6.9-3.2
				c-1-0.4-1.4-1.6-0.9-2.5c0.4-1,1.6-1.4,2.5-0.9c2.3,1.1,4.6,2.1,6.9,3.2c0.9,0.4,1.4,1.6,0.9,2.5
				C745.6,86.4,744.9,86.8,744.2,86.8z M212.2,83.9c-0.6,0-1.3-0.3-1.6-0.9c-0.6-0.9-0.3-2.1,0.6-2.6c2.2-1.3,4.4-2.7,6.5-4
				c0.9-0.5,2.1-0.2,2.6,0.7c0.5,0.9,0.2,2.1-0.7,2.6c-2.2,1.3-4.3,2.6-6.5,3.9C212.9,83.8,212.5,83.9,212.2,83.9z M730.4,80.5
				c-0.3,0-0.5-0.1-0.8-0.2c-2.3-1-4.6-2.1-6.9-3.1c-1-0.4-1.4-1.5-1-2.5s1.5-1.4,2.5-1c2.3,1,4.7,2,7,3.1c1,0.4,1.4,1.6,1,2.5
				C731.8,80.1,731.1,80.5,730.4,80.5z M225.3,76.1c-0.7,0-1.3-0.3-1.6-1c-0.5-0.9-0.2-2.1,0.7-2.6c2.2-1.3,4.4-2.5,6.7-3.8
				c0.9-0.5,2.1-0.2,2.6,0.7c0.5,0.9,0.2,2.1-0.7,2.6c-2.2,1.2-4.4,2.5-6.6,3.7C225.9,76,225.6,76.1,225.3,76.1z M716.4,74.4
				c-0.2,0-0.5,0-0.7-0.2c-2.3-1-4.7-2-7-2.9c-1-0.4-1.4-1.5-1-2.5c0.4-1,1.5-1.4,2.5-1c2.3,1,4.7,2,7,3c1,0.4,1.4,1.5,1,2.5
				C717.9,74,717.2,74.4,716.4,74.4z M238.6,68.7c-0.7,0-1.3-0.4-1.7-1c-0.5-0.9-0.1-2.1,0.8-2.6c2.2-1.2,4.5-2.4,6.8-3.5
				c0.9-0.5,2.1-0.1,2.6,0.8c0.5,0.9,0.1,2.1-0.8,2.6c-2.2,1.1-4.5,2.3-6.7,3.5C239.2,68.7,238.9,68.7,238.6,68.7z M702.4,68.6
				c-0.2,0-0.5,0-0.7-0.1c-2.3-0.9-4.7-1.9-7-2.8c-1-0.4-1.5-1.5-1.1-2.5c0.4-1,1.5-1.5,2.5-1.1c2.4,0.9,4.7,1.9,7.1,2.8
				c1,0.4,1.4,1.5,1,2.5C703.8,68.1,703.1,68.6,702.4,68.6z M688.2,63c-0.2,0-0.5,0-0.7-0.1c-2.4-0.9-4.7-1.8-7.1-2.7
				c-1-0.4-1.5-1.5-1.1-2.4c0.4-1,1.5-1.5,2.4-1.1c2.4,0.9,4.8,1.8,7.1,2.7c1,0.4,1.5,1.5,1.1,2.5C689.7,62.5,689,63,688.2,63z
				 M252.2,61.8c-0.7,0-1.4-0.4-1.7-1.1c-0.5-0.9-0.1-2.1,0.9-2.5c2.3-1.1,4.6-2.2,6.9-3.3c0.9-0.4,2.1,0,2.5,0.9
				c0.4,1,0,2.1-0.9,2.5c-2.3,1.1-4.6,2.2-6.8,3.3C252.8,61.7,252.5,61.8,252.2,61.8z M674,57.7c-0.2,0-0.4,0-0.7-0.1
				c-2.4-0.9-4.8-1.7-7.1-2.6c-1-0.4-1.5-1.4-1.2-2.4c0.3-1,1.4-1.5,2.4-1.2c2.4,0.8,4.8,1.7,7.2,2.6c1,0.4,1.5,1.4,1.1,2.4
				C675.5,57.2,674.8,57.7,674,57.7z M266,55.4c-0.7,0-1.4-0.4-1.7-1.1c-0.4-1,0-2.1,1-2.5c2.3-1,4.7-2.1,7-3.1c1-0.4,2.1,0,2.5,1
				c0.4,1,0,2.1-1,2.5c-2.3,1-4.6,2-6.9,3C266.5,55.3,266.2,55.4,266,55.4z M659.7,52.6c-0.2,0-0.4,0-0.6-0.1
				c-2.4-0.8-4.8-1.6-7.2-2.4c-1-0.3-1.5-1.4-1.2-2.4c0.3-1,1.4-1.5,2.4-1.2c2.4,0.8,4.8,1.6,7.2,2.4c1,0.3,1.5,1.4,1.2,2.4
				C661.2,52.1,660.5,52.6,659.7,52.6z M280,49.4c-0.8,0-1.5-0.4-1.8-1.2c-0.4-1,0.1-2.1,1.1-2.5c2.4-1,4.8-1.9,7.1-2.8
				c1-0.4,2.1,0.1,2.5,1.1c0.4,1-0.1,2.1-1.1,2.5c-2.3,0.9-4.7,1.8-7,2.8C280.4,49.4,280.2,49.4,280,49.4z M645.3,47.8
				c-0.2,0-0.4,0-0.6-0.1c-2.4-0.8-4.8-1.6-7.2-2.3c-1-0.3-1.6-1.4-1.2-2.4c0.3-1,1.4-1.6,2.4-1.2c2.4,0.8,4.8,1.5,7.2,2.3
				c1,0.3,1.5,1.4,1.2,2.4C646.8,47.3,646.1,47.8,645.3,47.8z M294.2,44c-0.8,0-1.5-0.5-1.8-1.3c-0.4-1,0.2-2.1,1.1-2.4
				c2.4-0.9,4.8-1.7,7.2-2.5c1-0.3,2.1,0.2,2.4,1.2c0.3,1-0.2,2.1-1.2,2.4c-2.4,0.8-4.8,1.6-7.1,2.5C294.6,43.9,294.4,44,294.2,44z
				 M630.8,43.2c-0.2,0-0.4,0-0.6-0.1c-1-0.3-2-0.6-3-0.9c-1.4-0.4-2.8-0.8-4.2-1.2c-1-0.3-1.6-1.4-1.3-2.4c0.3-1,1.4-1.6,2.4-1.3
				c1.4,0.4,2.8,0.8,4.2,1.3c1,0.3,2,0.6,3.1,0.9c1,0.3,1.6,1.4,1.3,2.4C632.3,42.7,631.6,43.2,630.8,43.2z M308.6,39.1
				c-0.8,0-1.6-0.5-1.8-1.3c-0.3-1,0.2-2.1,1.2-2.4c2.4-0.8,4.9-1.5,7.3-2.2c1-0.3,2.1,0.3,2.4,1.3c0.3,1-0.3,2.1-1.3,2.4
				c-2.4,0.7-4.8,1.4-7.2,2.2C309,39.1,308.8,39.1,308.6,39.1z M616.2,38.9c-0.2,0-0.3,0-0.5-0.1c-2.4-0.7-4.9-1.3-7.3-2
				c-1-0.3-1.6-1.3-1.3-2.3c0.3-1,1.3-1.6,2.3-1.3c2.5,0.7,5,1.3,7.4,2c1,0.3,1.6,1.3,1.3,2.3C617.8,38.4,617,38.9,616.2,38.9z
				 M601.5,35c-0.2,0-0.3,0-0.5-0.1c-2.5-0.6-4.9-1.2-7.4-1.8c-1-0.2-1.7-1.3-1.4-2.3c0.2-1,1.3-1.7,2.3-1.4
				c2.4,0.6,4.9,1.2,7.4,1.8c1,0.3,1.6,1.3,1.4,2.3C603.1,34.4,602.3,35,601.5,35z M323.2,34.8c-0.8,0-1.6-0.6-1.8-1.4
				c-0.3-1,0.3-2.1,1.3-2.3c2.4-0.7,4.9-1.3,7.4-1.9c1-0.3,2.1,0.4,2.3,1.4c0.3,1-0.4,2.1-1.4,2.3c-2.4,0.6-4.9,1.3-7.3,1.9
				C323.5,34.8,323.3,34.8,323.2,34.8z M586.7,31.5c-0.1,0-0.3,0-0.4,0c-2.4-0.5-4.9-1.1-7.4-1.6c-1-0.2-1.7-1.2-1.5-2.3
				c0.2-1,1.2-1.7,2.3-1.5c2.5,0.5,5,1.1,7.5,1.6c1,0.2,1.7,1.2,1.4,2.3C588.4,30.9,587.6,31.5,586.7,31.5z M337.9,31.1
				c-0.9,0-1.6-0.6-1.8-1.5c-0.2-1,0.4-2,1.4-2.3c2.5-0.6,5-1.2,7.4-1.7c1-0.2,2,0.4,2.3,1.4c0.2,1-0.4,2-1.4,2.3
				c-2.5,0.5-5,1.1-7.4,1.7C338.2,31.1,338,31.1,337.9,31.1z M571.8,28.3c-0.1,0-0.2,0-0.4,0c-2.5-0.5-5-1-7.4-1.4
				c-1-0.2-1.7-1.2-1.5-2.2c0.2-1,1.2-1.7,2.2-1.5c2.5,0.5,5,0.9,7.5,1.4c1,0.2,1.7,1.2,1.5,2.2C573.5,27.7,572.7,28.3,571.8,28.3z
				 M352.7,27.8c-0.9,0-1.7-0.6-1.9-1.5c-0.2-1,0.5-2,1.5-2.2c2.5-0.5,5-1,7.5-1.5c1-0.2,2,0.5,2.2,1.5c0.2,1-0.5,2-1.5,2.2
				c-2.5,0.5-5,1-7.4,1.5C353,27.8,352.9,27.8,352.7,27.8z M556.9,25.6c-0.1,0-0.2,0-0.3,0c-2.5-0.4-5-0.8-7.5-1.2
				c-1-0.2-1.7-1.1-1.6-2.2c0.2-1,1.1-1.7,2.2-1.6c2.5,0.4,5,0.8,7.5,1.2c1,0.2,1.7,1.2,1.6,2.2C558.6,24.9,557.8,25.6,556.9,25.6z
				 M367.7,24.9c-0.9,0-1.7-0.7-1.9-1.6c-0.2-1,0.5-2,1.5-2.2c2.5-0.4,5-0.9,7.5-1.3c1-0.2,2,0.5,2.2,1.6c0.2,1-0.5,2-1.6,2.2
				c-2.5,0.4-5,0.8-7.5,1.2C367.9,24.9,367.8,24.9,367.7,24.9z M541.8,23.2c-0.1,0-0.2,0-0.3,0c-2.5-0.4-5-0.7-7.5-1
				c-1-0.1-1.8-1.1-1.6-2.1c0.1-1,1.1-1.8,2.1-1.6c2.5,0.3,5.1,0.7,7.6,1c1,0.2,1.8,1.1,1.6,2.2C543.6,22.5,542.8,23.2,541.8,23.2z
				 M382.7,22.6c-0.9,0-1.7-0.7-1.9-1.6c-0.1-1,0.6-2,1.6-2.2c2.5-0.4,5-0.7,7.6-1c1-0.1,2,0.6,2.1,1.6c0.1,1-0.6,2-1.6,2.1
				c-2.5,0.3-5,0.7-7.5,1C382.9,22.6,382.8,22.6,382.7,22.6z M526.8,21.2c-0.1,0-0.2,0-0.2,0c-2.5-0.3-5-0.6-7.5-0.8
				c-1-0.1-1.8-1-1.7-2.1c0.1-1,1.1-1.8,2.1-1.7c2.5,0.3,5.1,0.6,7.6,0.9c1,0.1,1.8,1.1,1.7,2.1C528.5,20.5,527.7,21.2,526.8,21.2z
				 M397.8,20.6c-1,0-1.8-0.7-1.9-1.7c-0.1-1,0.6-2,1.7-2.1c2.5-0.3,5.1-0.6,7.6-0.8c1.1-0.1,2,0.7,2.1,1.7c0.1,1-0.7,2-1.7,2.1
				c-2.5,0.2-5,0.5-7.5,0.8C397.9,20.6,397.9,20.6,397.8,20.6z M511.6,19.6c-0.1,0-0.1,0-0.2,0c-2.5-0.2-5-0.4-7.6-0.6
				c-1-0.1-1.8-1-1.7-2c0.1-1,1-1.8,2-1.7c2.6,0.2,5.1,0.4,7.6,0.7c1,0.1,1.8,1,1.7,2.1C513.4,18.9,512.6,19.6,511.6,19.6z
				 M412.9,19.1c-1,0-1.8-0.7-1.9-1.7c-0.1-1,0.7-2,1.7-2.1c2.5-0.2,5.1-0.4,7.6-0.6c1.1-0.1,2,0.7,2,1.8c0.1,1-0.7,2-1.8,2
				c-2.5,0.2-5.1,0.4-7.6,0.6C413,19.1,413,19.1,412.9,19.1z M496.5,18.4c0,0-0.1,0-0.1,0c-2.5-0.2-5.1-0.3-7.6-0.4
				c-1-0.1-1.9-1-1.8-2c0.1-1,1-1.9,2-1.8c2.5,0.1,5.1,0.3,7.6,0.5c1,0.1,1.8,1,1.8,2C498.3,17.6,497.5,18.4,496.5,18.4z M428.1,18
				c-1,0-1.8-0.8-1.9-1.8c-0.1-1,0.7-1.9,1.8-2c2.5-0.1,5.1-0.3,7.6-0.4c1,0,1.9,0.8,2,1.8c0,1-0.8,1.9-1.8,2
				c-2.5,0.1-5.1,0.2-7.6,0.4C428.2,18,428.1,18,428.1,18z M481.3,17.6C481.3,17.6,481.2,17.6,481.3,17.6c-2.6-0.1-5.1-0.2-7.7-0.2
				c-1.1,0-1.9-0.5-1.9-1.5c0-1,0.9-1.4,1.9-1.4c0,0,0,0,0,0c2.5,0,5.1-0.3,7.6-0.2c1,0,1.9,0.7,1.8,1.8
				C483.2,17,482.3,17.6,481.3,17.6z M443.3,17.4c-1,0-1.9-0.8-1.9-1.8c0-1,0.8-1.9,1.8-2c2.6-0.1,5.1-0.1,7.6-0.2
				c1.1,0,1.9,0.8,1.9,1.9c0,1-0.8,1.9-1.9,1.9C448.4,17.3,445.9,16.4,443.3,17.4C443.3,17.4,443.3,17.4,443.3,17.4z M466.1,16.4
				C466.1,16.4,466.1,16.4,466.1,16.4c-2.4,0-4.7,0-7,0h-0.6c-1.1,0-1.9-0.4-1.9-1.5s0.9-1.5,1.9-1.5h0.6c2.3,0,4.7,0,7,0
				c1.1,0,1.9,0.5,1.9,1.5C468,16,467.1,16.4,466.1,16.4z"/>
		</g>
		<g>
			<path fill="#FFFFFF" d="M91.4,197.7c-0.5,0-1-0.2-1.3-0.5c-0.8-0.7-0.8-1.9,0-2.7c1.8-1.8,3.6-3.6,5.4-5.4c0.8-0.7,2-0.7,2.7,0
				c0.7,0.8,0.7,2,0,2.7c-1.8,1.7-3.6,3.5-5.3,5.3C92.4,197.5,91.9,197.7,91.4,197.7z M670.3,189.9c-0.7,0-1.3-0.3-1.6-1
				c-0.9-1.6-1.9-3.2-2.8-4.7c-0.5-0.9-0.3-2.1,0.6-2.6c0.9-0.5,2.1-0.3,2.6,0.6c1,1.6,1.9,3.2,2.9,4.8c0.5,0.9,0.2,2.1-0.7,2.6
				C670.9,189.8,670.6,189.9,670.3,189.9z M102.3,187.1c-0.5,0-1-0.2-1.4-0.6c-0.7-0.8-0.7-2,0.1-2.7c1.9-1.7,3.8-3.4,5.7-5.1
				c0.8-0.7,2-0.6,2.7,0.2c0.7,0.8,0.6,2-0.2,2.7c-1.9,1.6-3.8,3.3-5.6,5C103.2,187,102.8,187.1,102.3,187.1z M663.4,178.7
				c-0.6,0-1.2-0.3-1.6-0.8c-1.4-2.1-2.8-4.2-4.3-6.2c-0.6-0.9-0.4-2,0.4-2.7c0.9-0.6,2-0.4,2.7,0.4c1.5,2.1,2.9,4.2,4.4,6.3
				c0.6,0.9,0.3,2.1-0.5,2.6C664.1,178.6,663.7,178.7,663.4,178.7z M113.8,177.2c-0.5,0-1.1-0.2-1.5-0.7c-0.7-0.8-0.5-2,0.3-2.7
				c1.9-1.6,4-3.2,6-4.8c0.8-0.6,2-0.5,2.7,0.3c0.6,0.8,0.5,2-0.3,2.7c-2,1.5-4,3.1-5.9,4.7C114.6,177.1,114.2,177.2,113.8,177.2z
				 M125.7,167.9c-0.6,0-1.2-0.3-1.5-0.8c-0.6-0.8-0.4-2,0.4-2.7c2-1.5,4.1-3,6.2-4.5c0.9-0.6,2-0.4,2.6,0.5c0.6,0.9,0.4,2-0.5,2.6
				c-2,1.4-4.1,2.9-6.1,4.4C126.5,167.8,126.1,167.9,125.7,167.9z M654.5,166.3c-0.6,0-1.1-0.3-1.5-0.7c-1.5-2-3.1-3.9-4.7-5.8
				c-0.7-0.8-0.6-2,0.2-2.7c0.8-0.7,2-0.6,2.7,0.2c1.6,1.9,3.3,3.9,4.8,6c0.6,0.8,0.5,2-0.3,2.7
				C655.3,166.2,654.9,166.3,654.5,166.3z M138.1,159.2c-0.6,0-1.2-0.3-1.6-0.8c-0.6-0.9-0.3-2.1,0.5-2.6c2.1-1.4,4.2-2.8,6.4-4.2
				c0.9-0.6,2.1-0.3,2.6,0.6c0.6,0.9,0.3,2.1-0.6,2.6c-2.1,1.4-4.3,2.7-6.3,4.1C138.9,159.1,138.5,159.2,138.1,159.2z M644.7,154.7
				c-0.5,0-1-0.2-1.4-0.6c-1.7-1.8-3.4-3.7-5.2-5.4c-0.7-0.7-0.7-1.9,0-2.7c0.7-0.7,1.9-0.7,2.7,0c1.8,1.8,3.6,3.7,5.3,5.6
				c0.7,0.8,0.7,2-0.1,2.7C645.6,154.6,645.1,154.7,644.7,154.7z M150.9,151c-0.6,0-1.3-0.3-1.6-0.9c-0.5-0.9-0.3-2.1,0.6-2.6
				c2.1-1.3,4.3-2.6,6.6-3.9c0.9-0.5,2.1-0.2,2.6,0.7c0.5,0.9,0.2,2.1-0.7,2.6c-2.2,1.3-4.4,2.6-6.5,3.8
				C151.6,151,151.3,151,150.9,151z M634,143.9c-0.5,0-0.9-0.2-1.3-0.5c-1.8-1.7-3.7-3.4-5.6-5c-0.8-0.7-0.9-1.9-0.2-2.7
				c0.7-0.8,1.9-0.9,2.7-0.2c1.9,1.7,3.9,3.4,5.7,5.1c0.8,0.7,0.8,1.9,0.1,2.7C635,143.7,634.5,143.9,634,143.9z M164.1,143.5
				c-0.7,0-1.3-0.4-1.7-1c-0.5-0.9-0.2-2.1,0.8-2.6c2.2-1.2,4.5-2.4,6.7-3.6c0.9-0.5,2.1-0.1,2.6,0.8c0.5,0.9,0.1,2.1-0.8,2.6
				c-2.2,1.2-4.5,2.4-6.6,3.6C164.7,143.4,164.4,143.5,164.1,143.5z M177.5,136.4c-0.7,0-1.4-0.4-1.7-1.1c-0.5-0.9-0.1-2.1,0.9-2.6
				c2.3-1.1,4.6-2.3,6.9-3.3c0.9-0.5,2.1,0,2.5,0.9c0.5,0.9,0,2.1-0.9,2.5c-2.3,1.1-4.6,2.2-6.8,3.3
				C178.1,136.4,177.8,136.4,177.5,136.4z M622.5,134c-0.4,0-0.8-0.1-1.2-0.4c-2-1.5-4-3.1-6-4.6c-0.8-0.6-1-1.8-0.4-2.7
				c0.6-0.8,1.8-1,2.7-0.4c2.1,1.5,4.1,3.1,6.1,4.6c0.8,0.7,1,1.8,0.3,2.7C623.6,133.8,623,134,622.5,134z M191.2,129.9
				c-0.7,0-1.4-0.4-1.7-1.1c-0.4-1,0-2.1,0.9-2.5c2.3-1,4.6-2.1,7-3.1c1-0.4,2.1,0,2.5,1c0.4,1,0,2.1-1,2.5c-2.3,1-4.6,2-6.9,3.1
				C191.7,129.8,191.5,129.9,191.2,129.9z M610.2,125.1c-0.4,0-0.7-0.1-1.1-0.3c-2.1-1.4-4.2-2.8-6.3-4.1c-0.9-0.6-1.2-1.7-0.6-2.6
				c0.6-0.9,1.7-1.2,2.6-0.6c2.2,1.3,4.3,2.7,6.4,4.2c0.9,0.6,1.1,1.8,0.5,2.6C611.4,124.8,610.8,125.1,610.2,125.1z M205.1,123.9
				c-0.7,0-1.5-0.4-1.8-1.2c-0.4-1,0.1-2.1,1-2.5c2.3-1,4.7-1.9,7.1-2.9c1-0.4,2.1,0.1,2.5,1.1c0.4,1-0.1,2.1-1.1,2.5
				c-2.4,0.9-4.7,1.9-7,2.8C205.6,123.8,205.4,123.9,205.1,123.9z M219.2,118.3c-0.8,0-1.5-0.5-1.8-1.2c-0.4-1,0.1-2.1,1.1-2.4
				c2.3-0.9,4.8-1.8,7.2-2.6c1-0.4,2.1,0.2,2.4,1.1c0.4,1-0.2,2.1-1.1,2.4c-2.4,0.9-4.8,1.7-7.1,2.6
				C219.7,118.2,219.5,118.3,219.2,118.3z M597.3,117.1c-0.3,0-0.6-0.1-0.9-0.2c-2.2-1.2-4.4-2.4-6.6-3.6c-0.9-0.5-1.3-1.6-0.8-2.6
				c0.5-0.9,1.6-1.3,2.6-0.8c2.3,1.2,4.5,2.4,6.7,3.7c0.9,0.5,1.2,1.7,0.7,2.6C598.6,116.7,598,117.1,597.3,117.1z M233.6,113.2
				c-0.8,0-1.5-0.5-1.8-1.3c-0.3-1,0.2-2.1,1.2-2.4c2.4-0.8,4.8-1.6,7.2-2.4c1-0.3,2.1,0.2,2.4,1.2c0.3,1-0.2,2.1-1.2,2.4
				c-2.4,0.8-4.8,1.6-7.2,2.4C234,113.1,233.8,113.2,233.6,113.2z M583.8,110c-0.3,0-0.6-0.1-0.8-0.2c-2.2-1.1-4.5-2.1-6.8-3.1
				c-1-0.4-1.4-1.5-1-2.5c0.4-1,1.5-1.4,2.5-1c2.3,1,4.7,2.1,7,3.2c0.9,0.5,1.3,1.6,0.9,2.5C585.2,109.6,584.5,110,583.8,110z
				 M248,108.4c-0.8,0-1.6-0.5-1.8-1.3c-0.3-1,0.3-2.1,1.3-2.4c2.4-0.7,4.9-1.5,7.3-2.2c1-0.3,2.1,0.3,2.4,1.3
				c0.3,1-0.3,2.1-1.3,2.4c-2.4,0.7-4.9,1.5-7.3,2.2C248.4,108.4,248.2,108.4,248,108.4z M262.6,104.2c-0.8,0-1.6-0.6-1.8-1.4
				c-0.3-1,0.3-2.1,1.3-2.3c2.4-0.7,4.9-1.4,7.4-2c1-0.3,2.1,0.3,2.3,1.4c0.3,1-0.3,2.1-1.4,2.3c-2.4,0.6-4.9,1.3-7.3,2
				C263,104.1,262.8,104.2,262.6,104.2z M569.9,103.9c-0.2,0-0.5,0-0.7-0.1c-2.3-0.9-4.7-1.8-7-2.7c-1-0.4-1.5-1.5-1.1-2.4
				c0.4-1,1.5-1.5,2.4-1.1c2.4,0.9,4.8,1.8,7.2,2.7c1,0.4,1.4,1.5,1.1,2.5C571.4,103.5,570.7,103.9,569.9,103.9z M277.4,100.3
				c-0.9,0-1.6-0.6-1.8-1.4c-0.3-1,0.4-2.1,1.4-2.3c2.5-0.6,5-1.2,7.4-1.8c1-0.2,2,0.4,2.3,1.4c0.2,1-0.4,2-1.4,2.3
				c-2.5,0.6-4.9,1.2-7.4,1.8C277.7,100.2,277.5,100.3,277.4,100.3z M555.6,98.7c-0.2,0-0.4,0-0.6-0.1c-2.4-0.8-4.8-1.6-7.2-2.3
				c-1-0.3-1.6-1.4-1.3-2.4c0.3-1,1.4-1.6,2.4-1.3c2.5,0.7,4.9,1.5,7.3,2.3c1,0.3,1.5,1.4,1.2,2.4C557.2,98.2,556.4,98.7,555.6,98.7
				z M292.2,96.7c-0.9,0-1.7-0.6-1.9-1.5c-0.2-1,0.4-2,1.4-2.3c2.5-0.6,5-1.1,7.5-1.6c1-0.2,2,0.4,2.3,1.5c0.2,1-0.4,2-1.5,2.3
				c-2.5,0.5-5,1.1-7.4,1.6C292.5,96.7,292.4,96.7,292.2,96.7z M541.1,94.3c-0.2,0-0.3,0-0.5-0.1c-2.4-0.7-4.9-1.3-7.3-1.9
				c-1-0.2-1.6-1.3-1.4-2.3c0.3-1,1.3-1.6,2.3-1.4c2.5,0.6,5,1.3,7.4,1.9c1,0.3,1.6,1.3,1.3,2.3C542.7,93.7,541.9,94.3,541.1,94.3z
				 M307.1,93.6c-0.9,0-1.7-0.6-1.9-1.5c-0.2-1,0.5-2,1.5-2.2c2.5-0.5,5-1,7.5-1.4c1-0.2,2,0.5,2.2,1.5c0.2,1-0.5,2-1.5,2.2
				c-2.5,0.5-5,0.9-7.4,1.4C307.3,93.6,307.2,93.6,307.1,93.6z M322.1,90.8c-0.9,0-1.7-0.7-1.9-1.6c-0.2-1,0.5-2,1.5-2.2
				c2.5-0.4,5-0.9,7.5-1.3c1-0.2,2,0.5,2.2,1.6c0.2,1-0.5,2-1.6,2.2c-2.5,0.4-5,0.8-7.5,1.2C322.3,90.8,322.2,90.8,322.1,90.8z
				 M526.3,90.7c-0.1,0-0.3,0-0.4,0c-2.4-0.5-4.9-1.1-7.4-1.5c-1-0.2-1.7-1.2-1.5-2.2c0.2-1,1.2-1.7,2.2-1.5c2.5,0.5,5,1,7.5,1.6
				c1,0.2,1.7,1.2,1.4,2.3C527.9,90.1,527.1,90.7,526.3,90.7z M337.1,88.4c-0.9,0-1.7-0.7-1.9-1.6c-0.2-1,0.6-2,1.6-2.2
				c2.5-0.4,5.1-0.7,7.6-1.1c1-0.1,2,0.6,2.1,1.6c0.1,1-0.6,2-1.6,2.1c-2.5,0.3-5,0.7-7.5,1.1C337.3,88.4,337.2,88.4,337.1,88.4z
				 M511.3,87.7c-0.1,0-0.2,0-0.3,0c-2.4-0.4-5-0.8-7.5-1.2c-1-0.2-1.8-1.1-1.6-2.2c0.2-1,1.1-1.8,2.2-1.6c2.5,0.4,5.1,0.8,7.6,1.2
				c1,0.2,1.7,1.2,1.5,2.2C513,87.1,512.2,87.7,511.3,87.7z M352.1,86.4c-0.9,0-1.8-0.7-1.9-1.7c-0.1-1,0.6-2,1.7-2.1
				c2.5-0.3,5.1-0.6,7.6-0.9c1-0.1,2,0.6,2.1,1.7c0.1,1-0.6,2-1.7,2.1c-2.5,0.3-5,0.6-7.5,0.9C352.3,86.4,352.2,86.4,352.1,86.4z
				 M496.3,85.4c-0.1,0-0.2,0-0.3,0c-2.5-0.3-5-0.6-7.5-0.9c-1-0.1-1.8-1.1-1.7-2.1c0.1-1,1.1-1.8,2.1-1.7c2.6,0.3,5.1,0.6,7.6,0.9
				c1,0.1,1.8,1.1,1.6,2.1C498,84.7,497.2,85.4,496.3,85.4z M367.3,84.7c-1,0-1.8-0.7-1.9-1.7c-0.1-1,0.7-2,1.7-2.1
				c2.5-0.3,5.1-0.5,7.6-0.7c1-0.1,2,0.7,2.1,1.7c0.1,1-0.7,2-1.7,2.1c-2.5,0.2-5,0.5-7.5,0.7C367.4,84.7,367.3,84.7,367.3,84.7z
				 M481.2,83.7c-0.1,0-0.1,0-0.2,0c-2.5-0.2-5-0.5-7.5-0.7c-1-0.1-1.8-1-1.7-2c0.1-1,1-1.8,2-1.7c2.6,0.2,5.1,0.4,7.6,0.7
				c1,0.1,1.8,1,1.7,2.1C483,83,482.1,83.7,481.2,83.7z M382.4,83.3c-1,0-1.8-0.8-1.9-1.8c-0.1-1,0.7-2,1.7-2
				c2.5-0.2,5.1-0.4,7.6-0.5c1.1-0.1,2,0.7,2,1.8c0.1,1-0.7,2-1.8,2c-2.5,0.2-5.1,0.4-7.6,0.5C382.5,83.3,382.5,83.3,382.4,83.3z
				 M466,82.5c0,0-0.1,0-0.1,0c-2.5-0.2-5-0.3-7.6-0.4c-1-0.1-1.9-0.9-1.8-2c0.1-1,1-1.9,2-1.8c2.6,0.1,5.1,0.3,7.6,0.4
				c1,0.1,1.8,1,1.8,2C467.8,81.7,467,82.5,466,82.5z M397.6,82.3c-1,0-1.8-0.8-1.9-1.8c-0.1-1,0.7-1.9,1.8-2
				c2.6-0.1,5.1-0.3,7.6-0.4c1.1-0.1,1.9,0.8,2,1.8c0,1-0.8,1.9-1.8,2c-2.5,0.1-5,0.2-7.6,0.4C397.7,82.3,397.6,82.3,397.6,82.3z
				 M450.8,81.7C450.8,81.7,450.8,81.7,450.8,81.7c-2.6-0.1-5.1-0.2-7.6-0.2c-1,0-1.9-0.5-1.9-1.6c0-1,0.9-1.5,1.9-1.5c0,0,0,0,0,0
				c2.5,0,5.1-0.2,7.6-0.1c1,0,1.9,0.7,1.8,1.8C452.7,81.1,451.8,81.7,450.8,81.7z M412.8,82.4c-1,0-1.9-1.2-1.9-2.2
				c0-1,0.8-1.7,1.8-1.8c2.5-0.1,5.1,0,7.6,0c0,0,0,0,0,0c1,0,1.9,0.5,1.9,1.5c0,1-0.8,2.1-1.9,2.1
				C417.9,82.1,415.4,82.4,412.8,82.4C412.8,82.4,412.8,82.4,412.8,82.4z M435.6,82.4C435.6,82.4,435.6,82.4,435.6,82.4
				c-2.5,0-5,0-7.6,0c0,0,0,0,0,0c-1,0-1.9-1.4-1.9-2.4c0-1.1,0.8-2.2,1.9-2.2c2.6,0,5.1-0.1,7.6-0.1c1,0,1.9,1.3,1.9,2.4
				C437.5,81.1,436.7,82.4,435.6,82.4z"/>
		</g>
		<g>
			<path fill="#FFFFFF" d="M398.9,241.8c-0.5,0-0.9-0.2-1.3-0.5c-0.8-0.7-0.8-1.9-0.1-2.7c1.7-1.8,3.5-3.7,5.4-5.5
				c0.8-0.7,2-0.7,2.7,0c0.7,0.8,0.7,2,0,2.7c-1.9,1.8-3.6,3.6-5.2,5.4C399.9,241.6,399.4,241.8,398.9,241.8z M409.8,231.2
				c-0.5,0-1.1-0.2-1.4-0.7c-0.7-0.8-0.6-2,0.2-2.7c1.9-1.6,3.9-3.3,5.9-4.9c0.8-0.6,2-0.5,2.7,0.3c0.6,0.8,0.5,2-0.3,2.7
				c-2,1.6-4,3.2-5.8,4.8C410.7,231.1,410.3,231.2,409.8,231.2z M922.3,226.8c-0.5,0-1-0.2-1.4-0.6c-1.7-1.8-3.5-3.6-5.3-5.3
				c-0.8-0.7-0.8-1.9,0-2.7c0.7-0.8,1.9-0.8,2.7,0c1.8,1.8,3.6,3.6,5.4,5.4c0.7,0.8,0.7,2,0,2.7
				C923.3,226.7,922.8,226.8,922.3,226.8z M421.8,221.8c-0.6,0-1.2-0.3-1.5-0.8c-0.6-0.8-0.4-2,0.4-2.7c2-1.5,4.1-2.9,6.3-4.4
				c0.9-0.6,2.1-0.4,2.6,0.5c0.6,0.9,0.4,2.1-0.5,2.6c-2.1,1.4-4.2,2.9-6.2,4.3C422.6,221.7,422.2,221.8,421.8,221.8z M911.4,216.2
				c-0.5,0-0.9-0.2-1.3-0.5c-1.8-1.7-3.7-3.4-5.6-5c-0.8-0.7-0.9-1.9-0.2-2.7c0.7-0.8,1.9-0.9,2.7-0.2c1.9,1.7,3.8,3.4,5.7,5.1
				c0.8,0.7,0.8,1.9,0.1,2.7C912.5,216,911.9,216.2,911.4,216.2z M434.4,213.3c-0.6,0-1.2-0.3-1.6-0.9c-0.6-0.9-0.3-2.1,0.6-2.6
				c2.1-1.3,4.3-2.7,6.5-4c0.9-0.5,2.1-0.2,2.6,0.7c0.5,0.9,0.2,2.1-0.7,2.6c-2.2,1.3-4.3,2.6-6.4,4
				C435.1,213.2,434.7,213.3,434.4,213.3z M900,206.2c-0.4,0-0.9-0.1-1.2-0.4c-1.9-1.6-3.9-3.2-5.9-4.7c-0.8-0.6-1-1.8-0.3-2.7
				c0.6-0.8,1.8-1,2.7-0.3c2,1.6,4,3.2,6,4.8c0.8,0.7,0.9,1.9,0.3,2.7C901.1,206,900.5,206.2,900,206.2z M447.4,205.5
				c-0.7,0-1.3-0.3-1.7-1c-0.5-0.9-0.2-2.1,0.7-2.6c2.2-1.2,4.4-2.5,6.7-3.7c0.9-0.5,2.1-0.2,2.6,0.8c0.5,0.9,0.2,2.1-0.8,2.6
				c-2.2,1.2-4.5,2.4-6.6,3.7C448.1,205.4,447.7,205.5,447.4,205.5z M460.8,198.2c-0.7,0-1.4-0.4-1.7-1c-0.5-0.9-0.1-2.1,0.8-2.6
				c2.2-1.2,4.5-2.3,6.8-3.4c0.9-0.5,2.1-0.1,2.5,0.9c0.5,0.9,0.1,2.1-0.9,2.5c-2.3,1.1-4.6,2.3-6.8,3.4
				C461.4,198.1,461.1,198.2,460.8,198.2z M887.9,196.9c-0.4,0-0.8-0.1-1.1-0.4c-2-1.5-4.1-3-6.2-4.4c-0.9-0.6-1.1-1.8-0.5-2.6
				c0.6-0.9,1.8-1.1,2.6-0.5c2.1,1.5,4.2,3,6.2,4.4c0.8,0.6,1,1.8,0.4,2.7C889.1,196.6,888.5,196.9,887.9,196.9z M474.4,191.5
				c-0.7,0-1.4-0.4-1.7-1.1c-0.4-0.9,0-2.1,0.9-2.5c2.3-1.1,4.6-2.1,6.9-3.2c1-0.4,2.1,0,2.5,0.9c0.4,1,0,2.1-0.9,2.5
				c-2.3,1.1-4.6,2.1-6.9,3.2C475,191.4,474.7,191.5,474.4,191.5z M875.4,188.2c-0.4,0-0.7-0.1-1-0.3c-2.1-1.4-4.2-2.7-6.4-4
				c-0.9-0.5-1.2-1.7-0.6-2.6c0.5-0.9,1.7-1.2,2.6-0.6c2.2,1.3,4.4,2.7,6.5,4.1c0.9,0.6,1.1,1.8,0.6,2.6
				C876.7,187.9,876,188.2,875.4,188.2z M488.3,185.2c-0.7,0-1.4-0.4-1.7-1.1c-0.4-1,0-2.1,1-2.5c2.3-1,4.7-2,7-3
				c1-0.4,2.1,0.1,2.5,1c0.4,1-0.1,2.1-1,2.5c-2.3,1-4.7,2-7,3C488.8,185.2,488.5,185.2,488.3,185.2z M862.5,180.3
				c-0.3,0-0.6-0.1-0.9-0.3c-2.2-1.2-4.4-2.5-6.6-3.7c-0.9-0.5-1.3-1.7-0.8-2.6c0.5-0.9,1.7-1.3,2.6-0.8c2.2,1.2,4.5,2.5,6.7,3.7
				c0.9,0.5,1.2,1.7,0.7,2.6C863.7,179.9,863.1,180.3,862.5,180.3z M502.3,179.4c-0.8,0-1.5-0.5-1.8-1.2c-0.4-1,0.1-2.1,1.1-2.5
				c2.4-0.9,4.7-1.9,7.1-2.8c1-0.4,2.1,0.1,2.5,1.1c0.4,1-0.1,2.1-1.1,2.5c-2.3,0.9-4.7,1.8-7.1,2.8
				C502.8,179.3,502.6,179.4,502.3,179.4z M516.5,173.9c-0.8,0-1.5-0.5-1.8-1.2c-0.4-1,0.1-2.1,1.1-2.4c2.4-0.9,4.8-1.8,7.2-2.6
				c1-0.4,2.1,0.2,2.4,1.2c0.4,1-0.2,2.1-1.2,2.4c-2.4,0.8-4.8,1.7-7.1,2.6C517,173.9,516.8,173.9,516.5,173.9z M849.1,173.1
				c-0.3,0-0.6-0.1-0.9-0.2c-2.2-1.1-4.5-2.2-6.8-3.3c-0.9-0.4-1.4-1.6-0.9-2.5c0.4-0.9,1.6-1.4,2.5-0.9c2.3,1.1,4.6,2.2,6.9,3.4
				c0.9,0.5,1.3,1.6,0.8,2.6C850.4,172.7,849.8,173.1,849.1,173.1z M530.9,168.8c-0.8,0-1.5-0.5-1.8-1.3c-0.3-1,0.2-2.1,1.2-2.4
				c2.4-0.8,4.8-1.6,7.2-2.4c1-0.3,2.1,0.2,2.4,1.2c0.3,1-0.2,2.1-1.2,2.4c-2.4,0.8-4.8,1.6-7.2,2.4
				C531.3,168.8,531.1,168.8,530.9,168.8z M835.3,166.5c-0.3,0-0.5-0.1-0.8-0.2c-2.3-1-4.6-2-6.9-3c-1-0.4-1.4-1.5-1-2.5
				c0.4-1,1.5-1.4,2.5-1c2.4,1,4.7,2,7,3c1,0.4,1.4,1.5,1,2.5C836.8,166.1,836.1,166.5,835.3,166.5z M545.3,164.1
				c-0.8,0-1.6-0.5-1.8-1.3c-0.3-1,0.2-2.1,1.2-2.4c2.4-0.8,4.9-1.5,7.3-2.2c1-0.3,2.1,0.3,2.4,1.3c0.3,1-0.3,2.1-1.3,2.4
				c-2.4,0.7-4.9,1.5-7.3,2.2C545.7,164.1,545.5,164.1,545.3,164.1z M821.3,160.8c-0.2,0-0.5,0-0.7-0.1c-2.3-0.9-4.7-1.8-7.1-2.6
				c-1-0.4-1.5-1.4-1.2-2.4c0.4-1,1.4-1.5,2.4-1.2c2.4,0.9,4.8,1.7,7.2,2.6c1,0.4,1.5,1.5,1.1,2.5
				C822.8,160.3,822,160.8,821.3,160.8z M559.9,159.7c-0.8,0-1.6-0.5-1.8-1.4c-0.3-1,0.3-2.1,1.3-2.4c2.4-0.7,4.9-1.4,7.3-2.1
				c1-0.3,2.1,0.3,2.3,1.3c0.3,1-0.3,2.1-1.3,2.3c-2.4,0.7-4.9,1.3-7.3,2C560.3,159.7,560.1,159.7,559.9,159.7z M574.6,155.7
				c-0.8,0-1.6-0.6-1.8-1.4c-0.3-1,0.3-2.1,1.4-2.3c2.5-0.6,5-1.3,7.4-1.9c1-0.3,2,0.4,2.3,1.4c0.3,1-0.4,2-1.4,2.3
				c-2.4,0.6-4.9,1.2-7.4,1.9C574.9,155.7,574.8,155.7,574.6,155.7z M806.9,155.7c-0.2,0-0.4,0-0.6-0.1c-2.4-0.8-4.8-1.5-7.2-2.3
				c-1-0.3-1.6-1.4-1.3-2.4c0.3-1,1.4-1.6,2.4-1.3c2.4,0.7,4.9,1.5,7.3,2.3c1,0.3,1.5,1.4,1.2,2.4
				C808.5,155.2,807.7,155.7,806.9,155.7z M589.4,152.1c-0.9,0-1.6-0.6-1.8-1.5c-0.2-1,0.4-2,1.4-2.3c2.5-0.6,5-1.1,7.4-1.7
				c1-0.2,2,0.4,2.3,1.4c0.2,1-0.4,2-1.4,2.3c-2.4,0.5-4.9,1.1-7.4,1.7C589.7,152.1,589.6,152.1,589.4,152.1z M792.4,151.3
				c-0.2,0-0.3,0-0.5-0.1c-2.4-0.7-4.9-1.3-7.3-1.9c-1-0.3-1.6-1.3-1.4-2.3c0.3-1,1.3-1.6,2.3-1.4c2.5,0.6,4.9,1.3,7.4,1.9
				c1,0.3,1.6,1.3,1.3,2.3C794,150.8,793.2,151.3,792.4,151.3z M604.3,148.8c-0.9,0-1.7-0.6-1.9-1.5c-0.2-1,0.5-2,1.5-2.2
				c2.5-0.5,5-1,7.5-1.5c1-0.2,2,0.5,2.2,1.5c0.2,1-0.5,2-1.5,2.2c-2.5,0.5-5,1-7.4,1.5C604.5,148.8,604.4,148.8,604.3,148.8z
				 M777.7,147.6c-0.1,0-0.3,0-0.4,0c-2.4-0.6-4.9-1.1-7.4-1.6c-1-0.2-1.7-1.2-1.5-2.2c0.2-1,1.2-1.7,2.2-1.5c2.5,0.5,5,1.1,7.5,1.6
				c1,0.2,1.7,1.3,1.4,2.3C779.3,147,778.5,147.6,777.7,147.6z M619.2,145.9c-0.9,0-1.7-0.6-1.9-1.6c-0.2-1,0.5-2,1.5-2.2
				c2.5-0.4,5-0.9,7.5-1.3c1-0.2,2,0.5,2.2,1.6c0.2,1-0.5,2-1.6,2.2c-2.4,0.4-5,0.8-7.5,1.3C619.4,145.9,619.3,145.9,619.2,145.9z
				 M762.8,144.6c-0.1,0-0.2,0-0.3,0c-2.5-0.4-5-0.9-7.4-1.3c-1-0.2-1.7-1.1-1.6-2.2c0.2-1,1.1-1.7,2.2-1.6c2.5,0.4,5,0.8,7.5,1.3
				c1,0.2,1.7,1.2,1.5,2.2C764.5,143.9,763.7,144.6,762.8,144.6z M634.2,143.5c-0.9,0-1.7-0.7-1.9-1.6c-0.2-1,0.6-2,1.6-2.2
				c2.5-0.4,5.1-0.7,7.6-1.1c1-0.1,2,0.6,2.1,1.6c0.1,1-0.6,2-1.6,2.1c-2.5,0.3-5,0.7-7.5,1.1C634.4,143.5,634.3,143.5,634.2,143.5z
				 M747.8,142.2c-0.1,0-0.2,0-0.3,0c-2.5-0.3-5-0.7-7.5-1c-1-0.1-1.8-1.1-1.7-2.1c0.1-1,1.1-1.8,2.1-1.7c2.5,0.3,5.1,0.6,7.6,1
				c1,0.1,1.8,1.1,1.6,2.1C749.5,141.5,748.7,142.2,747.8,142.2z M649.3,141.5c-0.9,0-1.8-0.7-1.9-1.7c-0.1-1,0.6-2,1.7-2.1
				c2.5-0.3,5.1-0.6,7.6-0.8c1.1-0.1,2,0.7,2.1,1.7c0.1,1-0.7,2-1.7,2.1c-2.5,0.3-5,0.5-7.5,0.8
				C649.4,141.5,649.3,141.5,649.3,141.5z M732.7,140.3c-0.1,0-0.1,0-0.2,0c-2.5-0.3-5-0.5-7.5-0.7c-1-0.1-1.8-1-1.7-2.1
				c0.1-1,1-1.8,2.1-1.7c2.5,0.2,5.1,0.4,7.6,0.7c1,0.1,1.8,1,1.7,2.1C734.5,139.6,733.7,140.3,732.7,140.3z M664.4,139.9
				c-1,0-1.8-0.7-1.9-1.7c-0.1-1,0.7-2,1.7-2.1c2.6-0.2,5.1-0.4,7.6-0.6c1-0.1,2,0.7,2,1.8c0.1,1-0.7,2-1.8,2
				c-2.5,0.2-5,0.4-7.6,0.6C664.5,139.9,664.5,139.9,664.4,139.9z M717.6,139.1c0,0-0.1,0-0.1,0c-2.5-0.2-5-0.3-7.5-0.4
				c-1,0-1.9-0.9-1.8-2c0-1,0.9-1.9,2-1.8c2.6,0.1,5.1,0.2,7.6,0.4c1,0.1,1.8,1,1.8,2C719.4,138.3,718.6,139.1,717.6,139.1z
				 M679.6,138.9c-1,0-1.8-0.8-1.9-1.8c-0.1-1,0.8-1.9,1.8-2c2.6-0.1,5.1-0.2,7.6-0.3c1,0,1.9,0.8,2,1.8c0,1-0.8,1.9-1.8,2
				C684.8,138.7,682.2,138.8,679.6,138.9C679.6,138.9,679.6,138.9,679.6,138.9z M702.4,139.4C702.4,139.4,702.4,139.4,702.4,139.4
				c-2.5,0-5.1,0-7.6,0c0,0,0,0,0,0c-1,0-1.9-1.3-1.9-2.3c0-1.1,0.8-2.1,1.9-2.1c2.6,0,5.1-0.1,7.6-0.1c1,0,1.9,1.3,1.9,2.3
				C704.3,138.2,703.4,139.4,702.4,139.4z"/>
		</g>
		<g>
			<path fill="#FFFFFF" d="M249.4,555.4h-0.1c-2.4,0-4.8,0-7.2-0.2c-1-0.1-1.7-1-1.6-2c0.1-1,0.9-1.5,1.9-1.4
				c2.3,0.2,4.6,0.6,6.9,0.6h0.1c1,0,1.8,0.4,1.8,1.5C251.2,555,250.4,555.4,249.4,555.4z M256.5,555.2c-0.9,0-1.7-0.8-1.8-1.7
				c-0.1-1,0.7-2,1.6-2c2.3-0.2,4.6-0.5,7-0.9c1-0.2,1.9,0.5,2,1.6c0.2,1-0.5,2-1.5,2.2c-2.4,0.4-4.8,0.7-7.2,0.9
				C256.6,555.2,256.6,555.2,256.5,555.2z M235.2,554.3c-0.1,0-0.2,0-0.3,0c-1.1-0.2-2.2-0.4-3.3-0.7c-1.3-0.3-2.6-0.6-3.8-0.9
				c-1-0.2-1.5-1.3-1.3-2.3c0.2-1,1.2-1.6,2.2-1.4c1.2,0.3,2.5,0.6,3.8,0.9c1,0.2,2.1,0.5,3.1,0.7c1,0.2,1.6,1.2,1.4,2.2
				C236.8,553.6,236.1,554.3,235.2,554.3z M270.6,552.9c-0.8,0-1.6-0.6-1.7-1.5c-0.2-1,0.4-2,1.3-2.3c2.2-0.5,4.5-1.2,6.8-1.9
				c0.9-0.3,1.9,0.3,2.2,1.3c0.3,1-0.3,2.1-1.2,2.4c-2.3,0.7-4.7,1.4-7,1.9C270.9,552.9,270.7,552.9,270.6,552.9z M221.3,550.8
				c-0.2,0-0.3,0-0.5-0.1c-2.3-0.7-4.6-1.4-6.9-2.2c-0.9-0.3-1.5-1.4-1.2-2.4c0.3-1,1.3-1.6,2.2-1.2c2.2,0.8,4.5,1.5,6.8,2.2
				c0.9,0.3,1.5,1.3,1.2,2.3C222.8,550.2,222.1,550.8,221.3,550.8z M284.3,548.7c-0.7,0-1.4-0.5-1.7-1.3c-0.3-1,0.2-2.1,1.1-2.4
				c2.2-0.8,4.4-1.7,6.6-2.6c0.9-0.4,2,0.1,2.3,1c0.4,1-0.1,2.1-1,2.5c-2.3,1-4.5,1.9-6.8,2.7C284.7,548.7,284.5,548.7,284.3,548.7z
				 M207.7,546.1c-0.2,0-0.4,0-0.6-0.1c-2.3-0.9-4.5-1.8-6.7-2.8c-0.9-0.4-1.3-1.5-1-2.5c0.4-1,1.4-1.4,2.3-1
				c2.2,0.9,4.4,1.9,6.6,2.7c0.9,0.4,1.4,1.5,1.1,2.4C209.2,545.7,208.5,546.1,207.7,546.1z M297.5,543c-0.7,0-1.3-0.4-1.6-1.1
				c-0.4-1,0-2.1,0.9-2.5c2.1-1,4.2-2.1,6.4-3.3c0.9-0.5,2-0.1,2.4,0.8c0.4,0.9,0.1,2.1-0.8,2.6c-2.2,1.2-4.4,2.3-6.5,3.3
				C298,543,297.8,543,297.5,543z M194.6,540.4c-0.2,0-0.5-0.1-0.7-0.2c-2.2-1.1-4.4-2.2-6.5-3.4c-0.9-0.5-1.2-1.6-0.8-2.6
				c0.4-0.9,1.5-1.3,2.4-0.8c2.1,1.1,4.2,2.2,6.3,3.3c0.9,0.4,1.3,1.6,0.9,2.5C195.9,539.9,195.2,540.4,194.6,540.4z M310.3,536.2
				c-0.6,0-1.2-0.4-1.6-1c-0.5-0.9-0.2-2.1,0.7-2.6c2-1.2,4.1-2.4,6.1-3.7c0.8-0.5,1.9-0.2,2.4,0.7c0.5,0.9,0.2,2.1-0.6,2.6
				c-2.1,1.3-4.2,2.6-6.2,3.8C310.9,536.1,310.6,536.2,310.3,536.2z M181.9,533.4c-0.3,0-0.6-0.1-0.9-0.2c-2.1-1.2-4.2-2.6-6.2-3.9
				c-0.8-0.6-1.1-1.7-0.6-2.6c0.5-0.9,1.6-1.2,2.5-0.6c2,1.3,4,2.6,6.1,3.8c0.9,0.5,1.2,1.7,0.7,2.6
				C183.1,533.1,182.5,533.4,181.9,533.4z M322.6,528.4c-0.6,0-1.2-0.3-1.5-0.9c-0.5-0.9-0.3-2.1,0.6-2.6c2-1.3,3.9-2.7,5.9-4.1
				c0.8-0.6,1.9-0.4,2.5,0.5c0.5,0.9,0.3,2.1-0.5,2.6c-2,1.4-4,2.8-6,4.2C323.2,528.3,322.9,528.4,322.6,528.4z M169.8,525.4
				c-0.3,0-0.7-0.1-1-0.3c-2-1.4-4-2.9-5.9-4.4c-0.8-0.6-1-1.8-0.4-2.7c0.6-0.8,1.7-1,2.5-0.4c1.9,1.5,3.8,2.9,5.8,4.3
				c0.8,0.6,1,1.8,0.5,2.6C170.9,525.2,170.3,525.4,169.8,525.4z M334.4,520c-0.6,0-1.1-0.3-1.5-0.8c-0.6-0.9-0.4-2,0.4-2.6
				c1.9-1.4,3.8-2.9,5.8-4.4c0.8-0.6,1.9-0.4,2.5,0.4c0.6,0.8,0.4,2-0.4,2.7c-1.9,1.5-3.9,3-5.8,4.5
				C335.1,519.9,334.8,520,334.4,520z M158.3,516.5c-0.4,0-0.8-0.1-1.1-0.4c-1.9-1.6-3.7-3.2-5.6-4.9c-0.7-0.7-0.8-1.9-0.2-2.7
				c0.6-0.8,1.8-0.9,2.5-0.2c1.8,1.6,3.6,3.3,5.5,4.8c0.8,0.7,0.9,1.8,0.3,2.7C159.3,516.2,158.8,516.5,158.3,516.5z M345.9,510.9
				c-0.5,0-1.1-0.3-1.4-0.7c-0.6-0.8-0.5-2,0.3-2.7c1.9-1.5,3.7-3.1,5.6-4.7c0.8-0.7,1.9-0.5,2.5,0.3c0.6,0.8,0.5,2-0.3,2.7
				c-1.9,1.6-3.8,3.2-5.6,4.7C346.6,510.8,346.3,510.9,345.9,510.9z M147.4,506.6c-0.4,0-0.9-0.2-1.2-0.5c-1.7-1.7-3.5-3.5-5.2-5.3
				c-0.7-0.7-0.7-1.9,0-2.7c0.7-0.8,1.8-0.8,2.5,0c1.7,1.8,3.4,3.5,5.1,5.2c0.7,0.7,0.8,1.9,0.1,2.7
				C148.4,506.4,147.9,506.6,147.4,506.6z M357,501.4c-0.5,0-1-0.2-1.4-0.7c-0.6-0.8-0.5-2,0.2-2.7c1.8-1.6,3.6-3.2,5.5-4.9
				c0.7-0.7,1.9-0.6,2.5,0.2c0.6,0.8,0.6,2-0.2,2.7c-1.8,1.7-3.7,3.3-5.5,4.9C357.8,501.3,357.4,501.4,357,501.4z M137.2,496
				c-0.5,0-0.9-0.2-1.3-0.6c-1.6-1.8-3.3-3.7-4.9-5.6c-0.7-0.8-0.6-2,0.1-2.7c0.7-0.7,1.9-0.7,2.5,0.1c1.6,1.9,3.2,3.7,4.8,5.5
				c0.7,0.8,0.7,2,0,2.7C138.1,495.8,137.6,496,137.2,496z M367.9,491.5c-0.5,0-1-0.2-1.3-0.6c-0.7-0.8-0.6-2,0.2-2.7
				c1.8-1.6,3.5-3.3,5.3-5c0.7-0.7,1.9-0.6,2.5,0.1c0.7,0.8,0.6,2-0.1,2.7c-1.8,1.7-3.6,3.4-5.4,5.1
				C368.7,491.4,368.3,491.5,367.9,491.5z M127.6,484.7c-0.5,0-1-0.2-1.4-0.7c-1.5-1.9-3.1-3.9-4.6-5.9c-0.6-0.8-0.5-2,0.2-2.7
				c0.8-0.7,1.9-0.5,2.5,0.3c1.5,2,3,3.9,4.6,5.8c0.6,0.8,0.6,2-0.2,2.7C128.4,484.6,128,484.7,127.6,484.7z M378.5,481.4
				c-0.5,0-1-0.2-1.3-0.6c-0.7-0.8-0.6-2,0.1-2.7c1.8-1.7,3.5-3.5,5.2-5.2c0.7-0.7,1.8-0.7,2.5,0.1c0.7,0.8,0.6,2-0.1,2.7
				c-1.7,1.7-3.5,3.5-5.2,5.2C379.4,481.2,378.9,481.4,378.5,481.4z M118.5,473c-0.5,0-1.1-0.2-1.4-0.7c-1.4-1.9-2.9-4-4.4-6.1
				c-0.6-0.8-0.4-2,0.4-2.7c0.8-0.6,1.9-0.5,2.5,0.4c1.4,2.1,2.9,4.1,4.3,6c0.6,0.8,0.5,2-0.3,2.7C119.3,472.8,118.9,473,118.5,473z
				 M109.9,460.8c-0.6,0-1.1-0.3-1.4-0.8c-1.4-2-2.8-4.1-4.1-6.2c-0.6-0.9-0.4-2,0.4-2.6c0.8-0.6,1.9-0.4,2.5,0.5
				c1.4,2.1,2.8,4.2,4.1,6.2c0.6,0.9,0.4,2-0.4,2.7C110.7,460.7,110.3,460.8,109.9,460.8z M101.8,448.3c-0.6,0-1.1-0.3-1.5-0.8
				c-1.3-2.1-2.6-4.2-4-6.4c-0.5-0.9-0.3-2.1,0.5-2.6c0.8-0.6,1.9-0.3,2.5,0.6c1.3,2.1,2.6,4.3,3.9,6.3c0.6,0.9,0.3,2.1-0.5,2.6
				C102.5,448.2,102.1,448.3,101.8,448.3z"/>
		</g>
		<g>
			<path fill="#FFFFFF" d="M829.7,517.1c-1.2,0-2.5,0-3.7,0c-1,0-1.8-0.3-1.8-1.4c0-1,0.8-1.3,1.8-1.3c0,0,0,0,0,0
				c1.2,0,2.5-0.5,3.7-0.5c1.2,0,2.4-0.3,3.5-0.3c1,0,1.8,0.7,1.9,1.7c0,1-0.8,1.9-1.8,1.9C832.1,517.2,830.9,517.1,829.7,517.1z
				 M818.7,516.7c0,0-0.1,0-0.1,0c-2.4-0.2-4.9-0.4-7.3-0.7c-1-0.1-1.7-1.1-1.6-2.1c0.1-1,1-1.8,2-1.7c2.4,0.3,4.8,0.5,7.2,0.7
				c1,0.1,1.8,1,1.7,2C820.5,515.9,819.7,516.7,818.7,516.7z M840.6,516.7c-0.9,0-1.7-0.8-1.8-1.8c-0.1-1,0.7-2,1.7-2
				c2.4-0.2,4.8-0.5,7.1-0.8c1-0.1,1.9,0.6,2.1,1.6c0.1,1-0.6,2-1.6,2.1c-2.4,0.3-4.9,0.6-7.3,0.8
				C840.7,516.7,840.6,516.7,840.6,516.7z M804.3,515c-0.1,0-0.2,0-0.3,0c-2.4-0.4-4.8-0.8-7.2-1.3c-1-0.2-1.6-1.2-1.4-2.2
				c0.2-1,1.1-1.7,2.1-1.5c2.4,0.5,4.8,0.9,7.1,1.3c1,0.2,1.7,1.1,1.5,2.2C805.9,514.3,805.2,515,804.3,515z M855,514.6
				c-0.8,0-1.6-0.6-1.8-1.5c-0.2-1,0.4-2,1.4-2.2c2.4-0.5,4.7-1.1,7-1.7c1-0.3,2,0.3,2.2,1.3c0.3,1-0.3,2.1-1.3,2.3
				c-2.3,0.7-4.8,1.3-7.2,1.8C855.2,514.6,855.1,514.6,855,514.6z M790,512.1c-0.1,0-0.3,0-0.4,0c-2.4-0.6-4.8-1.2-7.1-1.8
				c-1-0.3-1.6-1.3-1.3-2.3c0.3-1,1.3-1.6,2.2-1.3c2.3,0.6,4.7,1.3,7,1.8c1,0.2,1.6,1.3,1.4,2.3C791.5,511.5,790.8,512.1,790,512.1z
				 M869,510.6c-0.7,0-1.5-0.5-1.7-1.3c-0.3-1,0.2-2.1,1.1-2.4c2.3-0.8,4.5-1.8,6.6-2.8c0.9-0.4,2,0,2.4,1c0.4,1,0,2.1-0.9,2.5
				c-2.2,1-4.5,2-6.9,2.9C869.4,510.6,869.2,510.6,869,510.6z M775.9,508.2c-0.2,0-0.3,0-0.5-0.1c-2.3-0.7-4.7-1.5-7-2.3
				c-1-0.3-1.5-1.4-1.1-2.4c0.3-1,1.3-1.5,2.3-1.2c2.3,0.8,4.6,1.6,6.9,2.3c1,0.3,1.5,1.4,1.2,2.4
				C777.4,507.7,776.7,508.2,775.9,508.2z M882.3,504.4c-0.6,0-1.3-0.4-1.6-1c-0.5-0.9-0.2-2.1,0.7-2.6c2.1-1.2,4.1-2.5,6.1-3.9
				c0.8-0.6,2-0.4,2.5,0.5c0.6,0.9,0.3,2.1-0.5,2.6c-2,1.4-4.2,2.8-6.4,4C882.9,504.3,882.6,504.4,882.3,504.4z M762.1,503.4
				c-0.2,0-0.4,0-0.6-0.1c-2.3-0.9-4.6-1.8-6.9-2.8c-0.9-0.4-1.4-1.5-1-2.5c0.4-1,1.4-1.4,2.4-1.1c2.2,0.9,4.5,1.9,6.8,2.7
				c0.9,0.4,1.4,1.5,1.1,2.4C763.5,502.9,762.8,503.4,762.1,503.4z M748.5,497.7c-0.2,0-0.5-0.1-0.7-0.2c-2.2-1-4.5-2.1-6.7-3.2
				c-0.9-0.4-1.3-1.6-0.9-2.5c0.4-0.9,1.5-1.4,2.4-0.9c2.2,1.1,4.4,2.1,6.6,3.1c0.9,0.4,1.3,1.5,0.9,2.5
				C749.9,497.3,749.2,497.7,748.5,497.7z M894.4,495.9c-0.5,0-1.1-0.2-1.4-0.7c-0.6-0.8-0.5-2,0.3-2.7c1.8-1.6,3.6-3.2,5.3-4.9
				c0.7-0.7,1.9-0.7,2.6,0c0.7,0.8,0.7,2,0,2.7c-1.8,1.8-3.6,3.5-5.6,5.2C895.2,495.8,894.8,495.9,894.4,495.9z M735.3,491.2
				c-0.3,0-0.6-0.1-0.8-0.2c-2.2-1.2-4.4-2.3-6.5-3.5c-0.9-0.5-1.2-1.7-0.7-2.6c0.5-0.9,1.6-1.3,2.5-0.8c2.1,1.2,4.3,2.4,6.4,3.5
				c0.9,0.5,1.3,1.6,0.8,2.6C736.6,490.9,736,491.2,735.3,491.2z M904.8,485.3c-0.4,0-0.8-0.1-1.2-0.5c-0.8-0.7-0.9-1.9-0.2-2.7
				c1-1.3,2.1-2.6,3-4c0.6-0.8,1.7-1,2.5-0.4c0.8,0.6,1,1.8,0.4,2.7c-1,1.4-2.1,2.8-3.2,4.1C905.8,485.1,905.3,485.3,904.8,485.3z
				 M722.5,484c-0.3,0-0.6-0.1-0.9-0.3c-2.1-1.3-4.2-2.6-6.3-3.9c-0.9-0.6-1.1-1.7-0.6-2.6c0.5-0.9,1.6-1.2,2.5-0.6
				c2,1.3,4.1,2.6,6.2,3.9c0.9,0.5,1.2,1.7,0.7,2.6C723.8,483.7,723.2,484,722.5,484z M710.1,476c-0.3,0-0.7-0.1-1-0.3
				c-2-1.4-4.1-2.8-6.1-4.3c-0.8-0.6-1-1.8-0.4-2.6c0.6-0.9,1.7-1.1,2.5-0.5c2,1.4,4,2.8,6,4.2c0.8,0.6,1.1,1.8,0.5,2.6
				C711.3,475.7,710.7,476,710.1,476z M698.2,467.3c-0.4,0-0.8-0.1-1.1-0.4c-2-1.5-3.9-3.1-5.8-4.7c-0.8-0.7-0.9-1.8-0.3-2.7
				c0.6-0.8,1.8-1,2.6-0.3c1.9,1.6,3.8,3.1,5.7,4.6c0.8,0.6,1,1.8,0.4,2.7C699.3,467.1,698.8,467.3,698.2,467.3z M686.8,457.9
				c-0.4,0-0.8-0.1-1.2-0.5c-1.9-1.7-3.7-3.4-5.5-5.1c-0.7-0.7-0.8-1.9-0.1-2.7c0.7-0.8,1.8-0.8,2.6-0.1c1.8,1.7,3.6,3.3,5.4,5
				c0.8,0.7,0.9,1.9,0.2,2.7C687.8,457.6,687.3,457.9,686.8,457.9z M676,447.7c-0.5,0-0.9-0.2-1.3-0.5c-1.8-1.8-3.5-3.6-5.2-5.5
				c-0.7-0.8-0.7-2,0.1-2.7c0.7-0.7,1.9-0.7,2.6,0.1c1.6,1.8,3.3,3.6,5.1,5.4c0.7,0.7,0.7,1.9,0,2.7
				C677,447.5,676.5,447.7,676,447.7z M666,436.6c-0.5,0-1-0.2-1.4-0.6c-1.6-1.9-3.2-3.9-4.7-5.9c-0.6-0.8-0.5-2,0.3-2.7
				c0.8-0.7,1.9-0.5,2.6,0.3c1.5,1.9,3,3.9,4.6,5.8c0.7,0.8,0.6,2-0.2,2.7C666.8,436.5,666.4,436.6,666,436.6z M656.9,424.8
				c-0.6,0-1.1-0.3-1.5-0.8c-1.5-2.1-2.9-4.2-4.2-6.3c-0.5-0.9-0.3-2.1,0.5-2.6c0.8-0.6,2-0.3,2.5,0.6c1.3,2.1,2.7,4.1,4.1,6.2
				c0.6,0.8,0.4,2-0.4,2.7C657.6,424.6,657.3,424.8,656.9,424.8z"/>
		</g>
		<g>
			<path fill="#FFFFFF" d="M482.4,523.4C482.4,523.4,482.4,523.4,482.4,523.4c-2.5,0-5,0-7.4-0.2c-1-0.1-1.8-0.9-1.7-2
				c0.1-1,0.9-1.8,2-1.7c2.4,0.2,4.8,0.3,7.2,0.3c1,0,1.8,0.8,1.8,1.8C484.2,522.6,483.4,523.4,482.4,523.4z M489.7,523.4
				c-1,0-1.8-0.8-1.8-1.8c-0.1-1,0.7-1.9,1.7-2c2.4-0.1,4.8-0.3,7.2-0.6c1-0.1,1.9,0.7,2,1.7c0.1,1-0.6,2-1.6,2.1
				C494.7,523.1,492.2,523.3,489.7,523.4C489.8,523.4,489.7,523.4,489.7,523.4z M467.8,522.5c-0.1,0-0.2,0-0.2,0
				c-2.5-0.3-4.9-0.8-7.3-1.3c-1-0.2-1.6-1.2-1.4-2.2c0.2-1,1.2-1.7,2.2-1.5c2.3,0.5,4.7,0.9,7.1,1.3c1,0.1,1.7,1.1,1.6,2.1
				C469.5,521.8,468.7,522.5,467.8,522.5z M504.3,521.9c-0.9,0-1.7-0.7-1.8-1.6c-0.1-1,0.5-2,1.5-2.2c2.3-0.4,4.7-0.8,7.1-1.2
				c1-0.2,1.9,0.5,2.1,1.5c0.2,1-0.5,2-1.5,2.2c-2.5,0.5-4.9,0.9-7.3,1.3C504.4,521.9,504.3,521.9,504.3,521.9z M453.5,519.4
				c-0.2,0-0.3,0-0.5-0.1c-2.4-0.7-4.7-1.5-7.1-2.4c-1-0.4-1.4-1.4-1.1-2.4s1.4-1.5,2.3-1.2c2.3,0.8,4.6,1.6,6.8,2.3
				c1,0.3,1.5,1.3,1.3,2.3C455,518.9,454.3,519.4,453.5,519.4z M518.6,519.1c-0.8,0-1.6-0.6-1.8-1.5c-0.2-1,0.4-2,1.4-2.3
				c2.4-0.6,4.8-1.1,7.1-1.7c1-0.3,2,0.4,2.2,1.4c0.2,1-0.4,2.1-1.3,2.3c-2.3,0.6-4.7,1.2-7.2,1.7
				C518.9,519.1,518.8,519.1,518.6,519.1z M532.8,515.4c-0.8,0-1.5-0.6-1.8-1.4c-0.3-1,0.3-2.1,1.3-2.3c2.4-0.7,4.7-1.4,7-2.1
				c1-0.3,2,0.2,2.3,1.2c0.3,1-0.2,2.1-1.2,2.4c-2.3,0.7-4.7,1.5-7.1,2.2C533.2,515.4,533,515.4,532.8,515.4z M439.7,514.3
				c-0.2,0-0.5-0.1-0.7-0.2c-2.2-1-4.5-2.1-6.7-3.3c-0.9-0.5-1.3-1.6-0.8-2.6c0.5-0.9,1.6-1.3,2.5-0.8c2.2,1.1,4.4,2.2,6.5,3.2
				c0.9,0.4,1.4,1.5,1,2.5C441.1,513.9,440.4,514.3,439.7,514.3z M546.8,510.9c-0.8,0-1.5-0.5-1.7-1.3c-0.3-1,0.2-2.1,1.1-2.4
				c2.3-0.8,4.6-1.7,6.8-2.6c0.9-0.4,2,0.1,2.4,1.1c0.4,1-0.1,2.1-1,2.5c-2.3,0.9-4.6,1.8-6.9,2.7
				C547.2,510.9,547,510.9,546.8,510.9z M426.7,507.4c-0.3,0-0.6-0.1-0.9-0.3c-2.1-1.2-4.2-2.6-6.3-4c-0.8-0.6-1.1-1.7-0.5-2.6
				c0.5-0.9,1.7-1.1,2.5-0.6c2.1,1.4,4.1,2.7,6.2,3.9c0.9,0.5,1.2,1.7,0.7,2.6C427.9,507.1,427.3,507.4,426.7,507.4z M560.4,505.3
				c-0.7,0-1.4-0.4-1.7-1.1c-0.4-1,0-2.1,0.9-2.5c2.2-1,4.4-2.1,6.6-3.2c0.9-0.5,2-0.1,2.4,0.9c0.4,0.9,0.1,2.1-0.8,2.5
				c-2.2,1.1-4.4,2.2-6.7,3.2C560.9,505.3,560.6,505.3,560.4,505.3z M414.4,499.2c-0.4,0-0.7-0.1-1.1-0.3c-1.9-1.4-3.9-3-5.9-4.6
				c-0.8-0.6-1-1.8-0.3-2.7c0.6-0.8,1.8-1,2.6-0.4c2,1.6,3.9,3.1,5.8,4.5c0.8,0.6,1,1.8,0.4,2.7C415.5,498.9,415,499.2,414.4,499.2z
				 M573.5,498.6c-0.6,0-1.3-0.4-1.6-1c-0.5-0.9-0.2-2.1,0.7-2.6c2.1-1.2,4.2-2.5,6.3-3.7c0.9-0.5,2-0.3,2.5,0.6
				c0.5,0.9,0.2,2.1-0.6,2.6c-2.1,1.3-4.2,2.6-6.4,3.8C574.1,498.5,573.8,498.6,573.5,498.6z M586,490.8c-0.6,0-1.2-0.3-1.5-0.8
				c-0.6-0.9-0.3-2.1,0.5-2.6c2-1.4,4-2.8,5.9-4.3c0.8-0.6,2-0.4,2.6,0.4c0.6,0.8,0.4,2-0.4,2.7c-2,1.5-4,3-6,4.4
				C586.7,490.6,586.3,490.8,586,490.8z M402.8,490c-0.4,0-0.8-0.1-1.2-0.4c-1.8-1.6-3.7-3.2-5.6-4.9c-0.8-0.7-0.8-1.9-0.2-2.7
				c0.7-0.8,1.8-0.9,2.6-0.2c1.9,1.7,3.7,3.3,5.6,4.9c0.8,0.7,0.9,1.9,0.3,2.7C403.8,489.7,403.3,490,402.8,490z M597.8,481.7
				c-0.5,0-1.1-0.2-1.4-0.7c-0.6-0.8-0.5-2,0.3-2.7c1.8-1.5,3.7-3.2,5.5-4.8c0.8-0.7,1.9-0.6,2.6,0.2c0.7,0.8,0.6,2-0.2,2.7
				c-1.9,1.7-3.8,3.4-5.7,4.9C598.6,481.6,598.2,481.7,597.8,481.7z M391.7,480c-0.4,0-0.9-0.2-1.2-0.5c-1.7-1.6-3.6-3.4-5.4-5.2
				c-0.7-0.7-0.8-1.9-0.1-2.7c0.7-0.8,1.9-0.8,2.6-0.1c1.8,1.8,3.6,3.5,5.3,5.1c0.7,0.7,0.8,1.9,0.1,2.7
				C392.7,479.8,392.2,480,391.7,480z M608.8,471.7c-0.5,0-1-0.2-1.3-0.6c-0.7-0.8-0.7-2,0.1-2.7c1.7-1.7,3.5-3.5,5.2-5.3
				c0.7-0.8,1.9-0.8,2.6,0c0.7,0.7,0.7,1.9,0,2.7c-1.7,1.8-3.5,3.7-5.3,5.4C609.7,471.6,609.2,471.7,608.8,471.7z M619,460.9
				c-0.4,0-0.9-0.2-1.2-0.5c-0.7-0.7-0.8-1.9-0.1-2.7c1.6-1.8,3.2-3.7,4.8-5.7c0.7-0.8,1.8-0.9,2.6-0.2c0.8,0.7,0.9,1.9,0.2,2.7
				c-1.6,2-3.2,3.9-4.9,5.7C620,460.7,619.5,460.9,619,460.9z M628.5,449.3c-0.4,0-0.8-0.1-1.1-0.4c-0.8-0.7-0.9-1.9-0.3-2.7
				c1.5-1.9,3-3.9,4.5-5.9c0.6-0.8,1.8-1,2.6-0.4c0.8,0.6,1,1.8,0.3,2.7c-1.5,2.1-3.1,4.1-4.6,6C629.5,449.1,629,449.3,628.5,449.3z
				 M637.4,437.3c-0.4,0-0.8-0.1-1.1-0.4c-0.8-0.6-1-1.8-0.4-2.7c1.4-2,2.8-4,4.2-6.1c0.6-0.9,1.7-1.1,2.5-0.5
				c0.8,0.6,1,1.8,0.4,2.6c-1.4,2.1-2.9,4.2-4.3,6.2C638.5,437,638,437.3,637.4,437.3z M645.8,424.8c-0.4,0-0.7-0.1-1-0.3
				c-0.8-0.6-1.1-1.8-0.5-2.6c1.3-2,2.7-4.2,4-6.3c0.6-0.9,1.7-1.1,2.5-0.6c0.8,0.6,1.1,1.8,0.5,2.6c-1.4,2.2-2.7,4.3-4.1,6.4
				C647,424.5,646.4,424.8,645.8,424.8z"/>
		</g>
	</g>
</g>
</svg>
