<?xml version="1.0" encoding="utf-8"?>
<!-- Generator: Adobe Illustrator 17.0.0, SVG Export Plug-In . SVG Version: 6.00 Build 0)  -->
<!DOCTYPE svg PUBLIC "-//W3C//DTD SVG 1.1//EN" "http://www.w3.org/Graphics/SVG/1.1/DTD/svg11.dtd">
<svg version="1.1" id="Layer_1" xmlns="http://www.w3.org/2000/svg" xmlns:xlink="http://www.w3.org/1999/xlink" x="0px" y="0px"
	 width="469.6px" height="439.1px" viewBox="0 0 469.6 439.1" enable-background="new 0 0 469.6 439.1" xml:space="preserve">
<g>
	<g>
		<g>
			<g>
				<path fill="#C2DFF1" d="M15.5,331.1c63.3,1.6,390.8-3.7,442.2-2.2c-0.3-80.3,9.3-185,12-328.7L7.2,9.3
					C7.2,134.5,15.5,331.1,15.5,331.1z"/>
			</g>
			<g>
				<path fill="#FFFFFF" d="M36.8,270.3c58.4,1.2,346-0.3,393.4,0.8c2.1-41.4,11.3-170.6,11.3-242.9L24.8,28.3
					C24,68.7,36.8,270.3,36.8,270.3z"/>
			</g>
			<g>
				<path fill="#FFFFFF" d="M219.7,299c8.1-19.7,33.6-4.4,24.5,12.4C237,324.6,214.3,312.2,219.7,299z"/>
			</g>
		</g>
		<g>
			<path fill="#C2DFF1" d="M133.3,415c0,0,138.7-2.8,203.8-2.8v26.9l-203.8-6.8V415z"/>
		</g>
		<g>
			<path fill="#C2DFF1" d="M329.3,402.2c-17.7-11.6-32.7-37.1-32.3-60.3c0,0-77.8-2.8-116.2-1c-3.3,21.8-21.1,53.7-40.6,63.9
				L329.3,402.2z"/>
		</g>
	</g>
	<path fill="#3595D2" d="M425.9,89.4c-0.8-1-1.7-2.2-63.7-9.2c-2.9-0.3-4.9-0.5-5.5-0.6l-2.3-0.3l3.9,14.1l1,0.1
		c0.3,0,23.4,2.9,40.9,5.2c-56.3,23.2-211.5,80.9-291.8,110.8c-19.5,7.3-35,13-43.4,16.2l-2,0.8l9.2,11.4l1.1-0.4
		c8.3-3.1,23.5-8.8,42.7-15.9l0.7-0.3C198,191,366,125.3,413.5,104.2c-1.9,5.9-5,14.2-8.1,22.2c-3.2,8.4-6.2,16.3-7.6,21.1l-0.6,2.1
		l14.7-0.4l0.3-1.1c3.5-11.8,11.8-39.4,14.1-57.4C426.3,90.2,426.2,89.8,425.9,89.4z"/>
</g>
</svg>
