<?xml version="1.0" encoding="utf-8"?>
<!-- Generator: Adobe Illustrator 18.0.0, SVG Export Plug-In . SVG Version: 6.00 Build 0)  -->
<!DOCTYPE svg PUBLIC "-//W3C//DTD SVG 1.1//EN" "http://www.w3.org/Graphics/SVG/1.1/DTD/svg11.dtd">
<svg version="1.1" id="Layer_1" xmlns="http://www.w3.org/2000/svg" xmlns:xlink="http://www.w3.org/1999/xlink" x="0px" y="0px"
	 viewBox="0 0 250 243.2" enable-background="new 0 0 250 243.2" xml:space="preserve">
<g>
	<path fill="#3BBEC0" d="M5.5,168.9c-47.5-194.6,229.7-230.5,244.1-58C260.9,245.8,43.8,298.2,5.5,168.9z"/>
	<g>
		<polygon fill="#FFFFFF" points="143.5,157.1 126,147.1 114.2,129.3 167.4,60.7 195.6,87.5 		"/>
		<g>
			<path fill="#C6E5E7" d="M202.5,56.7l-7.3-6.9c-6.1-5.9-17-3.6-23.3,4.9l-4.5,6l28.2,26.9l6.6-8.8
				C207.7,71.4,207.8,61.8,202.5,56.7z"/>
			<path fill="#C6E5E7" d="M161.4,68.4l7,9.1l-44,54.9l-10.2-3.1l-5.6,37.7c-0.3,2.1,1.8,3.7,3.7,2.9l31.1-12.8l-3.5-10.7l40.3-58.8
				l8.3,9.2l2.5-3.3l-28.7-26.5L161.4,68.4z M178.9,86.8l-41.7,58.1l-9.5-1.6l-1.6-6.9l43.5-57.4L178.9,86.8z"/>
		</g>
		<g>
			<path fill="#C6E5E7" d="M95.5,174.7c-4.9,3.8-12.6-0.8-16.3-4.4c-4-3.8-6.9-8.8-12.2-10.9c-12.4-5-20.6,7.6-31.7,9.6
				c-5.7,1-3.3,9.6,2.4,8.6c5.8-1,10.4-6.3,15.3-9.4c2.7-1.7,5.5-2.8,8.7-2.9c2.8-0.1,4.9,2.4,6.6,4.2c4.5,4.9,8.4,9.3,14.8,11.7
				c6.6,2.5,13,4.2,18.7-0.3C106.4,177.5,100,171.2,95.5,174.7L95.5,174.7z"/>
		</g>
		<path fill="#FFFFFF" d="M109.6,160.6l-1,6.4c-0.3,2.1,1.8,3.7,3.7,2.9l6.8-2.8L109.6,160.6z"/>
	</g>
</g>
</svg>
