<?xml version="1.0" encoding="utf-8"?>
<!-- Generator: Adobe Illustrator 18.0.0, SVG Export Plug-In . SVG Version: 6.00 Build 0)  -->
<!DOCTYPE svg PUBLIC "-//W3C//DTD SVG 1.1//EN" "http://www.w3.org/Graphics/SVG/1.1/DTD/svg11.dtd">
<svg version="1.1" id="Layer_1" xmlns="http://www.w3.org/2000/svg" xmlns:xlink="http://www.w3.org/1999/xlink" x="0px" y="0px"
	 viewBox="0 0 250 238.9" enable-background="new 0 0 250 238.9" xml:space="preserve">
<g>
	<path fill="#A4CE42" d="M241.2,84.9C168.8-89.7-65,35.7,17.3,185C81.6,302.1,295.6,209.7,241.2,84.9z"/>
	<g>
		<path fill="#FFFFFF" d="M120.6,61.1c-9.9-8.9-21.1-11.1-31-9l19.8,25L102,92.4l-15.3,2.8L68.5,65.9C57.8,81,59,98.5,77.3,111.4
			c8,5.7,17.2,6,25.6,3.1l38.4,62.5c5.4,8.8,17.2,11.1,25.6,5.1l0.1-0.1l2.4-1.7c8.4-6.1,9.8-18,3.1-25.9L124,97.4
			C131.2,85.9,132.3,71.5,120.6,61.1z M156.4,174.7c-8.1-5.7,1.6-15.7,8.3-9.7C169.9,169.7,161.8,178.5,156.4,174.7z"/>
		<g>
			<polyline fill="#D1E5C2" points="117.5,105.4 112,110.4 146.6,160.9 157.1,153.4 117.5,106.7 			"/>
		</g>
	</g>
</g>
</svg>
