<?xml version="1.0" encoding="utf-8"?>
<!-- Generator: Adobe Illustrator 18.0.0, SVG Export Plug-In . SVG Version: 6.00 Build 0)  -->
<!DOCTYPE svg PUBLIC "-//W3C//DTD SVG 1.1//EN" "http://www.w3.org/Graphics/SVG/1.1/DTD/svg11.dtd">
<svg version="1.1" id="Layer_1" xmlns="http://www.w3.org/2000/svg" xmlns:xlink="http://www.w3.org/1999/xlink" x="0px" y="0px"
	 viewBox="0 0 250 238.9" enable-background="new 0 0 250 238.9" xml:space="preserve">
<g>
	<path fill="#A4CE42" d="M241.2,84.9C168.8-89.7-65,35.7,17.3,185C81.6,302.1,295.6,209.7,241.2,84.9z"/>
</g>
<g>
	<g opacity="0.6">
		<path fill="#FFFFFF" d="M182.3,53.5L63.9,163c-2.3,2.1-1,5.9,2.1,6.2l114.9,14c2.1,0.2,3.8-1.4,3.9-3.5l3.6-123.6
			C188.4,53,184.7,51.4,182.3,53.5z M119,149.3l41.7-37.5c1.8-1.6,4.6-0.2,4.4,2.2l-1.8,41.6c-0.1,1.5-1.4,2.6-2.9,2.5l-39.9-4
			C118.2,153.8,117.2,150.8,119,149.3z"/>
		<g>
			<polygon fill="#D1E5C2" points="166.4,84.4 163.8,86.3 157.1,79 159.4,76.9 			"/>
			<polygon fill="#D1E5C2" points="180.1,71.6 177.8,73.3 171,66.1 173.1,63.6 			"/>
			<polygon fill="#D1E5C2" points="169.7,74 168.2,76.4 164.1,72.5 166.4,70.4 			"/>
			<polygon fill="#D1E5C2" points="183.7,61.5 181.6,63.5 178,59.6 180.1,57.2 			"/>
			<polygon fill="#D1E5C2" points="82.2,162.4 79.9,164.1 73.2,156.8 75.3,154.4 			"/>
			<polygon fill="#D1E5C2" points="96.2,149.4 93.9,151.1 86.9,143.6 89.5,141.7 			"/>
			<polygon fill="#D1E5C2" points="110.2,136.5 107.8,138.1 100.9,130.6 103.5,128.7 			"/>
			<polygon fill="#D1E5C2" points="124.1,123.5 121.8,125.2 115.1,117.9 117,115.2 			"/>
			<polygon fill="#D1E5C2" points="138.1,110 136.3,112.2 129.1,105 131.2,102.5 			"/>
			<polygon fill="#D1E5C2" points="152.1,97.1 150.3,99.8 142.8,91.7 145.4,89.8 			"/>
			<polygon fill="#D1E5C2" points="71.9,164.8 70.3,167.2 66.2,163.3 68.5,161.1 			"/>
			<polygon fill="#D1E5C2" points="85.8,152.3 83.8,154.2 80.2,150.3 82.2,147.9 			"/>
			<polygon fill="#D1E5C2" points="99.6,139.1 97.5,141 93.9,137.1 96.5,135.2 			"/>
			<polygon fill="#D1E5C2" points="113.8,125.9 111.7,127.8 108.1,124.4 110.2,122 			"/>
			
				<rect x="123.4" y="109.8" transform="matrix(0.7333 -0.6799 0.6799 0.7333 -43.054 114.8057)" fill="#D1E5C2" width="2.8" height="4.9"/>
			
				<rect x="137.3" y="96.7" transform="matrix(0.7333 -0.6799 0.6799 0.7333 -30.3947 120.9113)" fill="#D1E5C2" width="3.2" height="4.9"/>
			<polygon fill="#D1E5C2" points="155.7,87.5 153.4,89.1 150.1,85.5 152.2,83.1 			"/>
		</g>
	</g>
	<g>
		<path fill="#FFFFFF" d="M89.6,81.8c-9.4-8.4-19.9-10.4-29.3-8.5L79,96.9l-6.9,14.4L57.7,114L40.5,86.4c-10,14.2-8.9,30.7,8.4,42.9
			c7.6,5.4,16.3,5.7,24.2,2.9l36.2,59c5.1,8.3,16.2,10.5,24.1,4.8l0.1-0.1l2.3-1.6c7.9-5.7,9.2-17,2.9-24.4l-45.8-53.7
			C99.7,105.2,100.7,91.7,89.6,81.8z M123.4,189c-7.7-5.4,1.5-14.8,7.8-9.1C136.2,184.3,128.5,192.6,123.4,189z"/>
		<g>
			<polyline fill="#D1E5C2" points="86.8,123.7 81.6,128.3 114.2,176 124.1,169 86.8,124.9 			"/>
		</g>
	</g>
</g>
</svg>
