<?xml version="1.0" encoding="utf-8"?>
<!-- Generator: Adobe Illustrator 18.0.0, SVG Export Plug-In . SVG Version: 6.00 Build 0)  -->
<!DOCTYPE svg PUBLIC "-//W3C//DTD SVG 1.1//EN" "http://www.w3.org/Graphics/SVG/1.1/DTD/svg11.dtd">
<svg version="1.1" id="Layer_1" xmlns="http://www.w3.org/2000/svg" xmlns:xlink="http://www.w3.org/1999/xlink" x="0px" y="0px"
	 viewBox="0 0 250 233.9" enable-background="new 0 0 250 233.9" xml:space="preserve">
<g>
	<g>
		<path fill="#1AA2DC" d="M246.3,150.7C284.5-37,16.5-51.9,0.5,120.2C-12.1,254.7,220.6,276.2,246.3,150.7z"/>
	</g>
	<g opacity="0.5">
		<polygon fill="#FFFFFF" points="186.3,53 43.2,63.1 48.7,163.7 194.3,156.9 		"/>
		<g opacity="0.3">
			<polygon fill="#1AA2DC" points="185.2,77 46.9,84.6 46.8,64.8 182.9,56.4 			"/>
		</g>
		<g opacity="0.3">
			<circle fill="#1AA2DC" cx="54.5" cy="73.3" r="4.6"/>
		</g>
		<g opacity="0.3">
			<circle fill="#1AA2DC" cx="69.3" cy="72.5" r="4.6"/>
		</g>
		<g opacity="0.3">
			<circle fill="#1AA2DC" cx="84.1" cy="71.6" r="4.6"/>
		</g>
	</g>
	<g>
		<polygon fill="#FFFFFF" points="64.2,69 54.3,169.2 199.3,183.8 207.2,80 		"/>
		<g opacity="0.3">
			<polygon fill="#1AA2DC" points="202.6,103.5 64.7,90.8 67.5,71.2 203.4,82.9 			"/>
		</g>
		<g opacity="0.3">
			<circle fill="#1AA2DC" cx="73.8" cy="80.7" r="4.6"/>
		</g>
		<g opacity="0.3">
			<circle fill="#1AA2DC" cx="88.6" cy="82.1" r="4.6"/>
		</g>
		<g opacity="0.3">
			<circle fill="#1AA2DC" cx="103.4" cy="83.4" r="4.6"/>
		</g>
		<g opacity="0.3">
			<polygon fill="#1AA2DC" points="145,166.5 66.5,159.5 72.2,102 150.2,107.7 			"/>
		</g>
		<g opacity="0.3">
			<polygon fill="#1AA2DC" points="188.2,170.4 155.1,167.4 159.4,108.2 194,111.6 			"/>
		</g>
	</g>
</g>
</svg>
