<?xml version="1.0" encoding="utf-8"?>
<!-- Generator: Adobe Illustrator 18.0.0, SVG Export Plug-In . SVG Version: 6.00 Build 0)  -->
<!DOCTYPE svg PUBLIC "-//W3C//DTD SVG 1.1//EN" "http://www.w3.org/Graphics/SVG/1.1/DTD/svg11.dtd">
<svg version="1.1" id="Layer_1" xmlns="http://www.w3.org/2000/svg" xmlns:xlink="http://www.w3.org/1999/xlink" x="0px" y="0px"
	 viewBox="0 0 250 239.9" enable-background="new 0 0 250 239.9" xml:space="preserve">
<g>
	<path fill="#9B5CA4" d="M3.6,96.9c51.2-183.4,300.2-78,235.8,81.3C189.2,303-30.6,219.3,3.6,96.9z"/>
	<g>
		<path fill="#FFFFFF" d="M184.3,120.7c27.8-61-64.2-107.9-87-37.5c-4.8,14.9,1.6,31.2,11.2,41.9l-23.6,24.1
			c-18.2,18.2,9.7,41.3,24,18.9c3.5-5.4,15.7-30.4,15.7-30.4C144.9,145.6,174,143.4,184.3,120.7z M109.3,91.7
			c8.5-52.1,78.4-29,65.4,17C164.6,144.8,103.6,126.5,109.3,91.7z"/>
		<path fill="#B78BBF" d="M109.3,91.7c8.5-52.1,78.4-29,65.4,17C164.6,144.8,103.6,126.5,109.3,91.7z"/>
		<path fill="#CCAED2" d="M112.6,97.5c-0.1-31.3,29.2-36.8,46.5-24.1c1.7,1.3-17.1,47.3-43.6,35.3c-0.5-0.2-0.9-0.7-1.1-1.3
			C113.9,105.3,112.7,100.1,112.6,97.5z"/>
	</g>
</g>
</svg>
