<?xml version="1.0" encoding="utf-8"?>
<!-- Generator: Adobe Illustrator 18.0.0, SVG Export Plug-In . SVG Version: 6.00 Build 0)  -->
<!DOCTYPE svg PUBLIC "-//W3C//DTD SVG 1.1//EN" "http://www.w3.org/Graphics/SVG/1.1/DTD/svg11.dtd">
<svg version="1.1" id="Layer_1" xmlns="http://www.w3.org/2000/svg" xmlns:xlink="http://www.w3.org/1999/xlink" x="0px" y="0px"
	 viewBox="0 0 250 233.9" enable-background="new 0 0 250 233.9" xml:space="preserve">
<g>
	<path fill="#F8A126" d="M246.3,150.7C284.5-37,16.5-51.9,0.5,120.2C-12.1,254.7,220.6,276.2,246.3,150.7z"/>
	<g>
		<g>
			<g>
				<g>
					<path fill="#FFFFFF" d="M150,188.8c0,0-2.2-5.7-5.1-16.6c-2.8-10.9,9.3-12.9,24.3-17c7.3-2,13.2-7.3,12.9-14.5
						c-0.1-3.9-1.3-4.8,1.1-7.6c6.3-7.2,16.9-8.3,17.5-19.5c1.4-24.1-24-48-45.3-55.2c-8.3-2.8-18.9-4.7-30.2-5.3
						c-3.8-0.2-7.6-0.2-11.4-0.1c-27.3,0.9-55.4,10.2-63.3,34c-3.3,9.9-2.2,31.6,5.6,39.6c9.1,9.4,24.7,4.6,24.7,4.6
						s0.9,9.7,9.1,10.9c8,1.1,13.9,0.9,20.6,6c6.9,5.3,12.1,12.5,17.9,18.9c3,3.3,10.6,19.1,9.6,24.3L150,188.8z"/>
				</g>
			</g>
			<g>
				<path fill="#FBE3B4" d="M118.2,100.7c-5.4,0.6-11,2.1-16.2,4.4c-2.6,1.2-5.1,2.5-7.5,4c-2.4-3-6.6-8.2-8.5-9.4c0,0,0,0,0,0
					c-0.5,0.1-10.5,6.6-13.6,13.1l3.8,1.6c1.1-2.3,2.4-4.5,4-6.5c0.7-0.9,4.4-4.7,5.3-4.8c0,0,0,0,0.1,0c2.1,0.3,5.1,4.6,6.8,7.3
					c-8.2,5.8-14.2,13.4-15.2,21.2l3.8-0.7c0.9-6.9,5.7-13.2,12.8-18.2c0,0,0,0,0,0l2.4-1.6c0,0,0,0,0,0c2.2-1.3,4.5-2.5,6.9-3.6
					c4.7-2.1,9.5-3.4,14.1-3.9c9.4-1.1,18.3,0.9,25.4,5.5l-1.3,7.5c-2.8-1.4-9.6-5.5-16.1-4.8c-0.3,0-0.6,0.1-0.9,0.1l0.6,4.1
					c0.3-0.1,0.7-0.1,1.1-0.2c7.4-0.8,15.4,3.7,15.5,3.7l1.4,0.8l4.8-13.2l-0.8-0.6C139.3,101.5,128.9,99.5,118.2,100.7z"/>
				<path fill="#FBE3B4" d="M75,91.2l-7.1-5.1c5.8-9.6,21.8-16.3,22-16.3l1.4-0.6l-6.2-11.8L80.4,59l7,8.9C83,70,69.8,76.5,65,85.8
					l-0.5,0.9l8.3,7.7L75,91.2z"/>
				<path fill="#FBE3B4" d="M198.1,97.5l-14.5,2c-0.7-1.8-2.1-5.6-4.5-9.7c-4.4-7.5-9.6-12.1-15.4-13.4l-0.7-0.2l-13.3,11.6l1.8,2
					l13.1-9.1c3.9,1.1,7,3.8,9.5,6.8l-7.9,7.1l2.5,3.6l7.2-8.4c3.8,5.5,5.6,11.4,5.6,11.5l0.3,1l1.1-0.1l16.3-1.9L198.1,97.5z"/>
				<path fill="#FBE3B4" d="M149,130.8l-0.8-0.3c-0.1,0-10.6-3.8-10.6-3.8s-1.9-0.7-2.4-0.7c0,0,0,0-0.1,0c-0.8,0.4-2.9,4-2.9,4
					c-0.5,0.6-2.7,3.8-4.7,4.7c-0.8,0.4-1.7,0.6-2.6,0.7c-2.8,0.3-6-0.5-9.3-2c-4.4-2-8-2.8-10.8-2.5c-0.7,0.1-1.3,0.2-1.9,0.5
					l-8.5-7.7l-3.6,3l9.6,6.3c-3.3,3.4-1.8,8.2-1.7,10l2.8,0.6c0,0-1.1-7.2,1.3-9.1c0.6-0.5,1.4-0.8,2.4-0.9
					c2.2-0.3,5.4,0.5,9.3,2.3c3.6,1.7,7,2.3,10.1,2c1.3-0.2,2.6-0.5,3.8-1c3.9-1.7,7-8,7.8-8.3c0,0,0.1,0,0.1,0
					c1.5-0.2,7.3,3.2,8.9,4c0.5,0.3,0.3,0.5,0.3,0.9c-0.3,1.4-3,6.3-3.6,7.3c-2.8,5-6.2,6.3-10.3,6.8c-0.5,0.1-1.1,0.1-1.6,0.1
					l0.5,4.5c0.3,0,0.5,0,0.8,0c7.2-0.8,10.9-6.1,13.1-10c0.3-0.4,1.5-2.8,2.6-5.1c0.7-1.3,1.2-2.4,1.5-3.2
					C149.1,132.3,150.2,131.4,149,130.8z"/>
				<path fill="#FBE3B4" d="M104.9,94.8c0,0,4.4-3.2,13.6-4.2c1.4-0.2,3-0.3,4.6-0.3l-0.3-4.3c-1.1,0-2.2,0.1-3.2,0.2
					c-8.1,0.9-12.9,4.5-15.1,5.7l-6.1-10.7c4.8-3,9.8-4.5,14.7-5c14.7-1.7,28,5.1,28.2,5.2l1,0.5l20-20.7l-4.7-2l-16.1,19.4
					c-3.5-1.6-15.4-6.6-28.5-5.1c-5.6,0.6-11.5,2.5-17.1,6.3l-1,0.7l8.7,15.4L104.9,94.8z"/>
				<path fill="#FBE3B4" d="M67.8,120.5c-0.1-0.1-12.1-11.4-6-22.7l-4.3-2.1c-3,5.5-2.4,12,1.7,18.6c2.1,3.4,4.6,6.1,6,7.4l-6.3,7.1
					l3.3,1.8c0,0,7-6.4,6.6-9.2C68.7,121,67.8,120.5,67.8,120.5z"/>
				<path fill="#FBE3B4" d="M165.7,119c-1,0.1-1.9,0.1-2.9-0.2c-4.6-1.1-5.2-4.4-5.8-9.9c-0.4-3.6-0.8-7.3-3.2-10.2
					c-5.7-6.9-16.7-10.7-21-11.2l0.1,4.7c3.9,0.4,13.7,2,18.8,8.2c1.8,2.2,2.2,5.5,2.5,8.8c0.5,5,1.1,10.7,7.8,12.2
					c1.5,0.3,3,0.4,4.6,0.2c5.9-0.7,12-4.7,16.3-8.8l-3.7-2.9C175.4,113.7,170.8,118.4,165.7,119z"/>
			</g>
		</g>
	</g>
</g>
</svg>
