<?xml version="1.0" encoding="utf-8"?>
<!-- Generator: Adobe Illustrator 18.0.0, SVG Export Plug-In . SVG Version: 6.00 Build 0)  -->
<!DOCTYPE svg PUBLIC "-//W3C//DTD SVG 1.1//EN" "http://www.w3.org/Graphics/SVG/1.1/DTD/svg11.dtd">
<svg version="1.1" id="Layer_1" xmlns="http://www.w3.org/2000/svg" xmlns:xlink="http://www.w3.org/1999/xlink" x="0px" y="0px"
	 viewBox="0 0 250 228.9" enable-background="new 0 0 250 228.9" xml:space="preserve">
<g>
	<path fill="#EE4F7E" d="M0.5,116.3C18.6-68.2,282.1-15.1,246.7,149C219.3,277.5-11.7,239.6,0.5,116.3z"/>
	<g>
		<path fill="#FFFFFF" d="M160,74.9l-7.7,8.2l32.6,27.6c0,0-19.9,24.5-26.2,35l8.9,5.9c18.2-17.8,38.9-42.7,38.9-42.7
			S186.3,90.2,160,74.9z"/>
		<path fill="#FFFFFF" d="M97.1,157.7l8.7-7.4L73,120.5c0,0,20.1-23.2,26.4-33.6L90.4,81c-18.2,17.8-39,41.4-39,41.4
			S70.8,142.4,97.1,157.7z"/>
		<path fill="#FFFFFF" d="M107.4,169.9l14.6,0.9C139.7,116.3,153,51,153,51l-17.2,4.1C119.9,113.2,107.4,169.9,107.4,169.9z"/>
		<g>
			<path fill="#FCDCE5" d="M141.6,58l-3.9,0.2c-7.7,27.3-14.6,54.2-14.6,54.2l2.9,2C133.9,89.2,141.6,58,141.6,58 M141.6,58
				L141.6,58"/>
		</g>
	</g>
</g>
</svg>
