<?xml version="1.0" encoding="utf-8"?>
<!-- Generator: Adobe Illustrator 17.0.0, SVG Export Plug-In . SVG Version: 6.00 Build 0)  -->
<!DOCTYPE svg PUBLIC "-//W3C//DTD SVG 1.1//EN" "http://www.w3.org/Graphics/SVG/1.1/DTD/svg11.dtd">
<svg version="1.1" id="Layer_1" xmlns="http://www.w3.org/2000/svg" xmlns:xlink="http://www.w3.org/1999/xlink" x="0px" y="0px"
	 width="555.4px" height="562.7px" viewBox="0 0 555.4 562.7" enable-background="new 0 0 555.4 562.7" xml:space="preserve">
<g>
	<g>
		<path fill="#C5E9EA" d="M68.6,286.6c-6.2-1.1-11.8-2.7-16.1-4.8C9.4,260.6-8.2,208.5,13,165.5c19-38.6,62.9-56.7,102.8-44.8
			l9.5,2.5c9.7-13.7,21.6-25.2,35-34.2c0,0,170.5-2.7,202,51.4c7.1,12.3,11,26.2,13.4,40.2c0,0,42.1,4.2,57.6,11.8
			c46,22.7,64.8,78.4,42.1,124.3s-78.4,64.8-124.3,42.1c-14.8-7.3-43.5-33.9-43.5-33.9c-38.8,22.1-87.5,25.2-130.6,3.9
			c-19.8-9.8-32.6-31.7-45.1-48.1"/>
		<path fill="#C5E9EA" d="M202.8,339.6c-9-2.4-17.8-5.7-26.3-9.9c-16.2-8-27.8-24.1-38.1-38.4c-2.5-3.5-4.9-6.9-7.4-10l1.6-1.2
			c2.5,3.2,4.9,6.5,7.4,10.1c10.1,14.1,21.6,30,37.4,37.8c41.2,20.3,89.7,18.9,129.7-3.9l0.6-0.4l0.5,0.5
			c0.3,0.3,28.8,26.6,43.3,33.8c45.4,22.4,100.6,3.7,123-41.7c22.4-45.4,3.7-100.6-41.7-123c-15.2-7.5-56.8-11.7-57.2-11.7l-0.8-0.1
			l-0.1-0.8c-2.8-16.2-7.2-29.3-13.3-39.9C331.2,89,168.7,89.9,160.6,90c-13.5,9.2-25.1,20.5-34.5,33.8l-0.4,0.6l-10.2-2.7
			c-40.3-12.1-83,6.5-101.6,44.2c-10.2,20.6-11.7,43.8-4.3,65.6c7.4,21.7,22.7,39.3,43.3,49.4c3.9,1.9,9.3,3.5,15.9,4.7l-0.4,2
			c-6.8-1.2-12.3-2.9-16.4-4.9c-21-10.4-36.8-28.4-44.3-50.6c-7.5-22.2-6-46.1,4.4-67.1c19.1-38.6,62.8-57.6,104-45.3l8.8,2.3
			c9.6-13.3,21.3-24.7,34.9-33.9L160,88l0.3,0c0.4,0,43.2-0.6,89.3,5.4c62.1,8.1,100.3,23.7,113.5,46.4
			c6.2,10.6,10.6,23.7,13.4,39.8c6,0.6,42.6,4.7,57.2,11.8c22.5,11.1,39.3,30.3,47.3,54s6.4,49.2-4.7,71.7
			c-20.1,40.7-65.9,60.4-108.1,49.2c-6-1.6-11.9-3.8-17.6-6.6c-13.8-6.8-39.1-29.8-43.2-33.6C275.2,344.3,237.7,348.8,202.8,339.6z"
			/>
	</g>
	<g>
		<path fill="#37BEC0" d="M227.8,65.3"/>
	</g>
	<g>
		<path fill="#37BEC0" d="M279.8,71.2"/>
	</g>
	<g>
		<path fill="#37BEC0" d="M329.6,98.9"/>
	</g>
	<g>
		<circle fill="#C5E9EA" cx="497.2" cy="368" r="21.7"/>
		<path fill="#C5E9EA" d="M491.4,390c-12.1-3.2-19.4-15.7-16.2-27.8c3.2-12.1,15.7-19.4,27.8-16.2c12.1,3.2,19.4,15.7,16.2,27.8
			C515.9,385.9,503.5,393.2,491.4,390z M502.5,348c-11-2.9-22.4,3.7-25.3,14.7c-2.9,11,3.7,22.4,14.7,25.3
			c11,2.9,22.4-3.7,25.3-14.7C520.1,362.3,513.5,350.9,502.5,348z"/>
	</g>
	<g>
		<circle fill="#C5E9EA" cx="530.3" cy="406.1" r="14.2"/>
		<path fill="#C5E9EA" d="M526.4,420.8c-8.1-2.1-13-10.5-10.8-18.6c2.1-8.1,10.5-13,18.6-10.8c8.1,2.1,13,10.5,10.8,18.6
			S534.5,423,526.4,420.8z M533.6,393.3c-7-1.9-14.3,2.4-16.1,9.4c-1.9,7,2.4,14.3,9.4,16.1s14.3-2.4,16.1-9.4
			C544.9,402.4,540.7,395.2,533.6,393.3z"/>
	</g>
	<g>
		<circle fill="#C5E9EA" cx="545.3" cy="437.5" r="9.1"/>
		<path fill="#C5E9EA" d="M542.7,447.2c-5.4-1.4-8.6-6.9-7.2-12.3c1.4-5.4,6.9-8.6,12.3-7.2c5.4,1.4,8.6,6.9,7.2,12.3
			C553.6,445.4,548.1,448.6,542.7,447.2z M547.4,429.7c-4.3-1.1-8.7,1.4-9.8,5.7c-1.1,4.3,1.4,8.7,5.7,9.8c4.3,1.1,8.7-1.4,9.8-5.7
			C554.2,435.2,551.7,430.8,547.4,429.7z"/>
	</g>
	<g>
		<g>
			<path fill="#37BEC0" d="M256.1,538.4c-15.4-61.7,20-91.7,45.4-139.8c15.8-31.1,35.5-40.1,27.2-55.4c-14.7-27-33.8-10.5-54.9-5.3
				c-12.2,3-24.7,4.8-37.3,4.9c-21.1,0.1-42.3-4.4-60.2-15.7c-15.6-9.8-37.6-28.3-44.4-46.4c-20.8-55.6,103-31.8,54.4-80.4
				c-9.3-9.3-24.2-6.5-35.8-5.4c-49.9,4.6-89.9,58.6-82.3,110c9.3,44.6,58.4,66,66.7,114.6c5.4,43.6-7.1,90.9-10.7,136.3
				L256.1,538.4z"/>
		</g>
		<g>
			<g>
				<path fill="#37BEC0" d="M261,537c-6.9-29.3-2-55.5,12.3-81.6c5.9-10.8,12.8-21.1,19.3-31.5c7.6-12.1,13.8-25.1,21.6-37
					c7.9-12.1,24.8-25.8,20.6-42c-2.1-8-9.6-16.8-17.3-19.9c-9.8-3.9-19.6-0.9-29.1,2.5c-28.2,10.3-58,13.6-87.3,5.3
					c-24.7-7-50.5-27.4-62.8-50c-15.1-27.7,19-35.6,38.3-42c8.6-2.8,18.1-6,23.6-13.6c6-8.3-0.2-18.5-5.5-25.1
					c-14.2-17.8-38.1-14.9-58.2-10c-19.9,4.9-37.2,17.9-50.1,33.5c-12.9,15.7-21.6,35.5-23.8,55.7c-2.3,21.6,3.4,40.1,15.6,58
					c12.1,17.7,28,32.4,39.5,50.5c15,23.6,14.3,50.8,12,77.7c-2.5,29.5-8.4,58.7-10.8,88.2c-0.2,2.5,2.5,5.3,5.1,5
					c44-5.8,88.1-11.5,132.1-17.3c6.4-0.8,6.4-11-0.1-10.1c-44,5.8-88.1,11.5-132.1,17.3c1.7,1.7,3.4,3.3,5.1,5
					c2.5-29.5,8.1-58.7,10.8-88.2c2.3-25.1,2.6-50.5-8.3-73.6c-9-19-24.6-34.3-37.7-50.5C78.6,324.6,69.7,304.5,73,280
					c3-22.5,14.8-43.1,31.2-58.5c17.7-16.7,41-23.2,65-22.8c10.2,0.2,17.8,8,22.3,16.5c1.7,3.3,1.2,6-1.4,8.4
					c-6.9,6.5-19.3,8.4-28,11.3c-20.8,6.8-43.1,18.2-36.2,43.9c5.5,20.5,24.9,36.5,41.4,48.3c23.2,16.7,51.4,22.1,79.5,20.2
					c12.3-0.8,24.8-3.2,36.4-7.2c11.7-4,25.2-12.1,35.9-2c8.5,8,7.1,15,1.3,23.3c-6.6,9.5-14,18.3-19.9,28.3
					c-13.3,22.6-28.1,44.9-40,68.3c-11.3,22.2-15.1,45.7-11.5,70.3c0.6,3.8,1.4,7.5,2.3,11.2C252.7,546.1,262.5,543.4,261,537z"/>
			</g>
		</g>
	</g>
	<g>
		<g>
			<path fill="#37BEC0" d="M113.8,115.9c6.7-53.8,42.3-81.8,61.6-97.5c16.2-13.1,33-9.8,40.2,6.4c12.4,28,12.2,90.7-14.3,116.9
				c-15.6,15.4-31.6,9.2-38.9-7.6c-7.8-18.2-11.4-23-2-42.5c0,0-31.2,14.1-35.1,31.7L113.8,115.9z"/>
		</g>
		<g>
			<g>
				<path fill="#37BEC0" d="M118.7,117.2c4.4-31.6,19.2-58,42.2-79.8c8.4-7.9,18.2-17.8,29.3-21.4c17.9-5.8,23.6,16.2,26.2,29
					c5.4,27.4,2.9,60.6-11.9,84.8c-9.2,14.9-26.3,22-36.4,4.2c-7.9-13.9-10.1-25.3-3.3-40c2.2-4.7-2.2-9.1-6.9-6.9
					c-14.9,6.9-32.7,18.1-37.5,34.8c2.5-1,5-2.1,7.4-3.1c-3.8-2.4-7.6-4.9-11.4-7.3c-5.5-3.5-10.6,5.2-5.1,8.7
					c3.8,2.4,7.6,4.9,11.4,7.3c2.8,1.8,6.6,0,7.4-3.1c4-13.8,20.5-23,32.8-28.6c-2.3-2.3-4.6-4.6-6.9-6.9
					c-7.3,15.7-7.1,26.5-0.3,42.2c6.8,15.6,18.6,29.2,37.1,22.2c16.4-6.2,25.3-25.4,30.2-41c5.8-18.7,6.7-39.4,4.7-58.8
					c-1.5-14.7-4.6-32.9-16.5-42.9c-14.2-11.9-31.4-2.4-43.4,7.4C137,43.3,114.5,74.4,109,114.6C108.1,121,117.8,123.7,118.7,117.2z
					"/>
			</g>
		</g>
	</g>
	<g>
		<g>
			<path fill="#37BEC0" d="M225.2,62.3c6.5-26.8,20.4-61.3,50.7-47.8c17.3,7.7,16.9,32.1,13.2,47.8c0,0-2.6,11.2-2.6,11.2
				c-7.3,34.7-14.9,92.2-42.3,95C196.1,173.5,219.3,86.5,225.2,62.3z"/>
		</g>
		<g>
			<g>
				<path fill="#37BEC0" d="M230.1,63.6c3.7-14.9,8.5-31.2,20-42c6.3-5.9,14.4-5.8,22.1-3.2c10.8,3.6,13.5,15.4,13.9,25.5
					c0.5,13.3-4.2,27-6.8,40c-3.5,18.1-7,36.3-13.3,53.6c-5,13.8-13.8,28.9-30.7,25.5c-11.8-2.4-14.7-16.4-15.5-26.5
					C217.7,112.1,224.3,87.2,230.1,63.6c1.5-6.3-8.2-8.9-9.8-2.6c-6.7,27.5-14.6,57.3-9.3,85.7c2.3,12.2,9.3,22.9,21.7,26.2
					c15.3,4.1,27.8-4.5,35.6-16.9c11-17.3,14.8-39.6,18.7-59.3c3.2-15.8,7.9-31.9,9-48c1.3-19.2-6.5-36.3-26-41.4
					c-17.1-4.5-30.5,8-38.3,21.8c-5.6,9.8-8.9,21.1-11.6,32C218.7,67.3,228.5,69.9,230.1,63.6z"/>
			</g>
		</g>
	</g>
	<g>
		<g>
			<path fill="#37BEC0" d="M257.9,161.4c18.7,27,56.3-18.1,71.7-62.5c12-34.7,10.5-79.5-41.1-60.7
				C288.5,38.1,244.8,142.4,257.9,161.4z"/>
		</g>
		<g>
			<g>
				<path fill="#37BEC0" d="M253.5,164c28.8,38.3,68.9-33.3,77.5-54.7c10.6-26.3,21-80.9-22.8-80.6c-5.4,0-21.8,1.3-24.2,6.9
					c-1.1,2.6-2.2,5.2-3.2,7.8c-5.2,12.9-10,25.8-14.5,38.9c-5.5,16.1-10.6,32.4-13.9,49.1C250.6,141.3,247.8,154.8,253.5,164
					c3.4,5.5,12.2,0.5,8.7-5.1c-4.1-6.6-1.3-17.7,0-24.8c2.3-12.6,6-25,9.9-37.1c5.8-18.3,13.7-39.3,20.4-55.6
					c0.6-1.5-0.2,0.8,0.5,0.5c5-1.7,10.1-2.7,15.3-3.1c7.3-0.5,14.1,2,18.2,8.2c7.6,11.5,4,29.2,0.9,41.5
					c-4.8,19.1-14.4,37.2-25.9,53c-7.2,10-27.2,33.4-39.3,17.3C258.4,153.7,249.6,158.7,253.5,164z"/>
			</g>
		</g>
	</g>
	<g>
		<g>
			<path fill="#37BEC0" d="M285.1,166.9c-11.5,46.5,52.5,12.3,77.1-26.5c18.5-29.2,21-60.1-27.7-58.5
				C334.5,81.9,295,127.1,285.1,166.9z"/>
		</g>
		<g>
			<g>
				<path fill="#37BEC0" d="M280.3,165.6c-2.2,9.6-3.2,22.8,7.7,27.4c11.4,4.7,25.2-2.6,34.8-8.2c26.4-15.3,53.8-44.2,56.7-75.9
					c1-11.3-4.8-21.2-14.5-26.7c-7.8-4.4-28.8-10-35.4-2.2C308.6,104.8,288.6,133.8,280.3,165.6c-1.7,6.3,8.1,8.9,9.8,2.6
					c7-26.7,23.1-50.9,39.8-72.6c2-2.6,4.1-5.2,6.3-7.8c0.6-0.7,1.1-1.4,1.7-2c-1.5,1.8,5,1.3,6.2,1.3c10.7,0.5,23.6,4.4,25.3,16.6
					c3.2,23.2-19.9,47.5-35.7,61c-9.3,8-20.4,15.2-32.3,18.7c-12.3,3.6-13.6-5-11.3-15.2C291.4,161.8,281.7,159.2,280.3,165.6z"/>
			</g>
		</g>
	</g>
</g>
</svg>
