<?xml version="1.0" encoding="utf-8"?>
<!-- Generator: Adobe Illustrator 17.0.0, SVG Export Plug-In . SVG Version: 6.00 Build 0)  -->
<!DOCTYPE svg PUBLIC "-//W3C//DTD SVG 1.1//EN" "http://www.w3.org/Graphics/SVG/1.1/DTD/svg11.dtd">
<svg version="1.1" id="Layer_1" xmlns="http://www.w3.org/2000/svg" xmlns:xlink="http://www.w3.org/1999/xlink" x="0px" y="0px"
	 width="748.6px" height="690.3px" viewBox="0 0 748.6 690.3" enable-background="new 0 0 748.6 690.3" xml:space="preserve">
<g>
	<circle fill="#FFFFFF" cx="235.3" cy="286.9" r="27.6"/>
	<circle fill="#FFFFFF" cx="139.8" cy="276.9" r="27.6"/>
	<circle fill="#FFFFFF" cx="238.1" cy="169.6" r="27.6"/>
	<circle fill="#FFFFFF" cx="434.1" cy="310" r="27.6"/>
	<circle fill="#FFFFFF" cx="499.3" cy="267.1" r="23.2"/>
	<circle fill="#FFFFFF" cx="445.3" cy="249.5" r="23.2"/>
	<circle fill="#FFFFFF" cx="489.1" cy="319" r="20.6"/>
	<circle fill="#FFFFFF" cx="219.4" cy="347" r="20.6"/>
	<circle fill="#FFFFFF" cx="422.1" cy="389.7" r="17.1"/>
	<circle fill="#FFFFFF" cx="426.8" cy="655.2" r="16.8"/>
	<circle fill="#FFFFFF" cx="522.5" cy="351.4" r="16.8"/>
	<circle fill="#FFFFFF" cx="255.2" cy="226.4" r="19.9"/>
	<circle fill="#FFFFFF" cx="294" cy="192.2" r="13"/>
	<circle fill="#FFFFFF" cx="303.9" cy="38.9" r="13"/>
	<circle fill="#FFFFFF" cx="303.9" cy="150.8" r="20.7"/>
	<circle fill="#FFFFFF" cx="178" cy="317.3" r="20.7"/>
	<circle fill="#FFFFFF" cx="167.4" cy="367.6" r="20.7"/>
	<circle fill="#FFFFFF" cx="489.1" cy="205.7" r="20.7"/>
	<circle fill="#FFFFFF" cx="543.2" cy="298.3" r="20.7"/>
	<circle fill="#FFFFFF" cx="204.9" cy="212.9" r="20.7"/>
	<circle fill="#FFFFFF" cx="478.7" cy="381.1" r="26"/>
	<circle fill="#FFFFFF" cx="563.9" cy="360.4" r="21.9"/>
	<circle fill="#FFFFFF" cx="504.7" cy="85" r="27.6"/>
	<circle fill="#FFFFFF" cx="306.9" cy="423.2" r="27.6"/>
	<circle fill="#FFFFFF" cx="188.1" cy="462.7" r="27.6"/>
	<circle fill="#FFFFFF" cx="207.7" cy="400" r="23.2"/>
	<circle fill="#FFFFFF" cx="210.5" cy="120.7" r="23.2"/>
	<circle fill="#FFFFFF" cx="146.7" cy="107.7" r="20.6"/>
	<circle fill="#FFFFFF" cx="445.3" cy="431.9" r="20.6"/>
	<circle fill="#FFFFFF" cx="338.4" cy="378" r="17.1"/>
	<circle fill="#FFFFFF" cx="99.5" cy="242.5" r="16.8"/>
	<circle fill="#FFFFFF" cx="585.8" cy="430.6" r="16.8"/>
	<circle fill="#FFFFFF" cx="547" cy="157.3" r="19.9"/>
	<circle fill="#FFFFFF" cx="262.9" cy="120.7" r="13"/>
	<circle fill="#FFFFFF" cx="509.8" cy="164.3" r="13"/>
	<circle fill="#FFFFFF" cx="639" cy="447.3" r="20.7"/>
	<circle fill="#FFFFFF" cx="146.7" cy="222.8" r="20.7"/>
	<circle fill="#FFFFFF" cx="283.2" cy="481.4" r="20.7"/>
	<circle fill="#FFFFFF" cx="439.9" cy="199.9" r="20.7"/>
	<circle fill="#FFFFFF" cx="562.5" cy="464.3" r="20.7"/>
	<circle fill="#FFFFFF" cx="103.4" cy="404.5" r="20.7"/>
	<circle fill="#FFFFFF" cx="316.1" cy="94.7" r="26"/>
	<circle fill="#FFFFFF" cx="157.3" cy="165.8" r="27.6"/>
	<circle fill="#FFFFFF" cx="255.2" cy="68.7" r="27.6"/>
	<circle fill="#FFFFFF" cx="499.3" cy="464.3" r="27.6"/>
	<circle fill="#FFFFFF" cx="590.7" cy="262.7" r="27.6"/>
	<circle fill="#FFFFFF" cx="644.7" cy="285.7" r="23.2"/>
	<circle fill="#FFFFFF" cx="569" cy="108.1" r="23.2"/>
	<circle fill="#FFFFFF" cx="108.9" cy="537.8" r="20.6"/>
	<circle fill="#FFFFFF" cx="363.2" cy="600.7" r="20.6"/>
	<circle fill="#FFFFFF" cx="700.3" cy="298.4" r="17.1"/>
	<circle fill="#FFFFFF" cx="667.9" cy="397.8" r="16.8"/>
	<circle fill="#FFFFFF" cx="157.3" cy="418.5" r="16.8"/>
	<circle fill="#FFFFFF" cx="659.7" cy="151.6" r="19.9"/>
	<circle fill="#FFFFFF" cx="383.8" cy="636.8" r="13"/>
	<circle fill="#FFFFFF" cx="405" cy="453.3" r="13"/>
	<circle fill="#FFFFFF" cx="682.9" cy="249.2" r="20.7"/>
	<circle fill="#FFFFFF" cx="602.5" cy="327.5" r="20.7"/>
	<circle fill="#FFFFFF" cx="667.9" cy="495.2" r="20.7"/>
	<circle fill="#FFFFFF" cx="602.5" cy="151.6" r="20.7"/>
	<circle fill="#FFFFFF" cx="233.6" cy="502.1" r="20.7"/>
	<circle fill="#FFFFFF" cx="569" cy="562.8" r="20.7"/>
	<circle fill="#FFFFFF" cx="465.9" cy="623.8" r="26"/>
	<circle fill="#C5E9EA" cx="321.3" cy="522.8" r="27.6"/>
	<circle fill="#FFFFFF" cx="250" cy="604.2" r="27.6"/>
	<circle fill="#FFFFFF" cx="608.6" cy="507.1" r="27.6"/>
	<circle fill="#FFFFFF" cx="547" cy="218.6" r="27.6"/>
	<circle fill="#FFFFFF" cx="539.3" cy="407.4" r="23.2"/>
	<circle fill="#FFFFFF" cx="370.8" cy="423.2" r="23.2"/>
	<circle fill="#FFFFFF" cx="383.8" cy="548.4" r="20.6"/>
	<circle fill="#FFFFFF" cx="445.3" cy="496.4" r="20.6"/>
	<circle fill="#FFFFFF" cx="338.4" cy="468.5" r="17.1"/>
	<circle fill="#FFFFFF" cx="262.9" cy="549.3" r="16.8"/>
	<circle fill="#FFFFFF" cx="486.6" cy="530" r="16.8"/>
	<circle fill="#FFFFFF" cx="639" cy="212.9" r="19.9"/>
	<circle fill="#FFFFFF" cx="592.2" cy="197.2" r="13"/>
	<circle fill="#FFFFFF" cx="383.8" cy="378" r="13"/>
	<circle fill="#FFFFFF" cx="538.6" cy="517.1" r="20.7"/>
	<circle fill="#FFFFFF" cx="383.8" cy="495.2" r="20.7"/>
	<circle fill="#FFFFFF" cx="608.6" cy="388.4" r="20.7"/>
	<circle fill="#FFFFFF" cx="391.5" cy="260.4" r="20.7"/>
	<circle fill="#FFFFFF" cx="259.6" cy="660.4" r="20.7"/>
	<circle fill="#FFFFFF" cx="306.9" cy="583.5" r="20.7"/>
	<circle fill="#FFFFFF" cx="439.9" cy="554.9" r="26"/>
	<circle fill="#FFFFFF" cx="112.2" cy="464.6" r="27.6"/>
	<circle fill="#FFFFFF" cx="316.1" cy="644.4" r="27.6"/>
	<circle fill="#FFFFFF" cx="112.2" cy="341.6" r="27.6"/>
	<circle fill="#FFFFFF" cx="49.6" cy="435.2" r="27.6"/>
	<circle fill="#FFFFFF" cx="659.7" cy="339.7" r="23.2"/>
	<circle fill="#FFFFFF" cx="99.5" cy="186.5" r="23.2"/>
	<circle fill="#FFFFFF" cx="207.7" cy="554.9" r="20.6"/>
	<circle fill="#FFFFFF" cx="49.6" cy="373.4" r="20.6"/>
	<circle fill="#FFFFFF" cx="82.7" cy="288.2" r="17.1"/>
	<circle fill="#FFFFFF" cx="688.6" cy="197.2" r="16.8"/>
	<circle fill="#FFFFFF" cx="157.3" cy="564.1" r="16.8"/>
	<circle fill="#FFFFFF" cx="157.3" cy="507.1" r="19.9"/>
	<circle fill="#FFFFFF" cx="413.9" cy="604.2" r="13"/>
	<circle fill="#FFFFFF" cx="709.3" cy="395.6" r="13"/>
	<circle fill="#FFFFFF" cx="717.4" cy="351.4" r="20.7"/>
	<circle fill="#FFFFFF" cx="688.6" cy="440.4" r="20.7"/>
	<circle fill="#FFFFFF" cx="355.5" cy="25.9" r="20.7"/>
	<circle fill="#FFFFFF" cx="250" cy="439.2" r="20.7"/>
	<circle fill="#FFFFFF" cx="469.8" cy="149.1" r="20.7"/>
	<circle fill="#FFFFFF" cx="509.8" cy="583.5" r="20.7"/>
	<circle fill="#FFFFFF" cx="39.6" cy="310" r="26"/>
	<path fill="#C5E9EA" d="M376.1,64c0,0-14,53.6-18.5,66.1c-4.5,12.5-24.3,60.9-24.3,60.9s-6.4,13.5-9.9,21.9
		c-3.5,8.4-5.1,15.6-5.1,15.6s-10.5,31.9-15,38.6c-8.4,12.5-14.2,26.4-20.8,39.8c-5.3,10.8-11.4,23.1-17.4,34.9
		c-2.4,4.7,4.6,59.1,10.1,58.6c3.5-0.3,4.3-5.5,4.3-5.5s0,0,2-0.9c2.7-1.3,3.3-10.2,3.3-10.2s-0.3,2.8,2.9,1.9c3.2-1,8.6-1.5,9.9-18
		c1.3-16.5,1.6-26,1.6-26s5.8-18,7.4-19.9s4.5-4.4,4.5-4.4s1.3,10.8,2.2,13.7c0,0,2.9,5.1,3.5,13.7c0.6,8.6,1.6,14.1,5.4,12.5
		s7.4-5.4,4.5-24.9c-2.9-19.5-3.8-16.3-1.3-22.2s3.2-8.8,3.2-8.8s14.4,0.3,16,4.8c1.6,4.5,14.7,36.8,19.2,41
		c4.5,4.1,12.5,7.6,14.1,1.9s1-5.4-4.8-22.5s-12.8-36.6-12.8-43.9c0-7.4-1.6-16.7-3.8-25.9c-2.2-9.3-8.6-10.5-0.3-25.1
		c8.3-14.5,57.2-89.4,71.9-116.5c14.7-27.2,49.2-104.5,49.2-104.5"/>
</g>
</svg>
