<?xml version="1.0" encoding="utf-8"?>
<!-- Generator: Adobe Illustrator 17.0.0, SVG Export Plug-In . SVG Version: 6.00 Build 0)  -->
<!DOCTYPE svg PUBLIC "-//W3C//DTD SVG 1.1//EN" "http://www.w3.org/Graphics/SVG/1.1/DTD/svg11.dtd">
<svg version="1.1" id="Layer_1" xmlns="http://www.w3.org/2000/svg" xmlns:xlink="http://www.w3.org/1999/xlink" x="0px" y="0px"
	 width="306.3px" height="329px" viewBox="0 0 306.3 329" enable-background="new 0 0 306.3 329" xml:space="preserve">
<g>
	<g>
		<path fill="#40B6B8" d="M42.3,74c0,0-19.6,2.9-26.6,10.7c-15.2,17-17,52.5,1,68.9c9.3,8.5,33.4,17,33.4,17l18.6-15.9l56.9,30
			l13.6-7.7l26.7-21.9c0,0,21.3,15.9,33.8,15.9c12.5,0,26.4-9.1,26.5-9.1c8.3-5.4,13.6-13.7,17.2-22.7c5.5-13.7,8.9-22.4,3.2-36.5
			c-5.1-12.6-9.5-27.6-23.4-33.4c-13.3-5.6-24.6-6.7-39.5-6.7l-10.8-13l-95.9-4.9L42.3,74z"/>
	</g>
	<g>
		<g>
			<path fill="#C5E4E6" d="M76.9,8.9c-2.8,0.3-8.3,2.6-10.5,4.3C59.3,18.6,47.2,43.5,45,51.9c-2.7,10.6-3.3,15.9-2.7,22.1l9.9-1.6
				c0,0,9.6-19.5,11.6-12.1c2.3,8.8,10.8,20.6,17.1,20.5c6.3-0.1,12.9-5.4,14.6-9.3c2.5-5.7,1.9-20.2,1.2-26.4
				C95.6,34.8,88.2,7.6,76.9,8.9z"/>
			<path fill="#C5E4E6" d="M80.8,81.3c-4.1,0-8.3-4.5-10.4-7.1c-3.3-4.2-5.9-9.3-7.1-13.7c-0.2-0.9-0.6-1.3-1-1.3
				c-2.2,0-7.1,8.3-9.7,13.5l-0.1,0.2l-10.7,1.7l0-0.5c-0.6-6.6,0.1-12,2.7-22.3c2.3-8.8,14.5-33.5,21.6-38.9
				C68.5,11,74,8.8,76.9,8.4C88.4,7.1,96,34,97.2,45c0.5,5,1.5,20.5-1.3,26.7C94.2,75.5,87.5,81.2,80.8,81.3L80.8,81.3z M62.4,58.1
				c0.6,0,1.5,0.4,1.9,2c2.8,10.6,11.6,20.1,16.5,20.1v0.5l0.1-0.5c6.3-0.1,12.6-5.4,14.2-9c2.4-5.5,1.8-20,1.2-26.2
				C95.1,34.7,87.7,8.2,77,9.4c-2.7,0.3-8,2.5-10.3,4.2c-6.9,5.2-19,29.9-21.2,38.4c-2.6,9.9-3.2,15.2-2.7,21.4l9.1-1.4
				C53,69.7,59,58.1,62.4,58.1z"/>
		</g>
		<g>
			<path fill="#C5E4E6" d="M104.5,2.4c-4.2,1.2-14.3,13.3-14.3,19.2c0,6,5.3,31.5,5.3,31.5c1.8,7.8,2.6,17.8,7.5,24.4
				c2.9,3.9,13.6,7.8,17.9,3.6c4.7-4.6,6.3-20.3,6.3-29c0-7.8-0.6-15.7-1.4-23.4C124.3,16.3,123-2.9,104.5,2.4z"/>
			<path fill="#C5E4E6" d="M115.6,83.4C115.6,83.4,115.6,83.4,115.6,83.4c-4.7,0-10.7-2.6-13-5.6c-3.8-5.1-5.2-12.5-6.4-18.9
				c-0.4-2-0.7-3.9-1.2-5.7c-0.2-1.1-5.3-25.7-5.3-31.6c0-6.4,10.3-18.5,14.7-19.7c2.1-0.6,4.1-0.9,5.9-0.9
				c12.9,0,14.6,15.1,15.8,26.2l0.2,1.5c1,8.8,1.4,16.4,1.4,23.5c0,8-1.3,24.4-6.4,29.3C119.9,82.7,118,83.4,115.6,83.4z M96,53
				c0.4,1.8,0.8,3.7,1.2,5.7c1.2,6.3,2.6,13.5,6.3,18.5c1.8,2.5,7.4,5.2,12.2,5.2c0,0,0,0,0,0c2.1,0,3.8-0.6,5-1.6
				c4.5-4.3,6.1-19.5,6.1-28.6c0-7-0.5-14.6-1.4-23.4l-0.2-1.5C123.9,16.6,122.3,2,110.3,2c-1.7,0-3.6,0.3-5.7,0.9
				c-3.9,1.1-13.9,13-13.9,18.8C90.7,27.4,95.8,51.9,96,53L96,53z"/>
		</g>
		<g>
			<path fill="#C5E4E6" d="M138.8,6.5c3.8,1.1,12.9,12,12.9,17.4c0,5.4-4.8,28.5-4.8,28.5s-7.3,23.6-10.8,25.7
				c-3.8,2.3-10.2,3.9-12.5,1.6c-4.3-4.1-5.3-20.3-5.3-28.2c0-6.9,0.5-13.9,1.3-20.8C120.8,19.4,121.7,1.6,138.8,6.5z"/>
			<path fill="#C5E4E6" d="M127.1,81.2c-1.7,0-3-0.4-3.8-1.2c-4.3-4.2-5.5-19.9-5.5-28.5c0-6.3,0.4-13.1,1.3-20.8l0.2-1.8
				c1.1-10,2.5-23.7,14.3-23.7c1.6,0,3.5,0.3,5.4,0.8c4,1.1,13.3,12.1,13.3,17.9c0,5.4-4.6,27.6-4.8,28.6c-0.8,2.5-7.4,23.9-11,26
				C133.6,80.1,129.9,81.2,127.1,81.2z M133.5,6.2c-10.9,0-12.2,13.2-13.3,22.8l-0.2,1.8c-0.8,7.7-1.3,14.5-1.3,20.7
				c0,7.9,1.1,23.9,5.2,27.8c0.6,0.6,1.7,0.9,3.1,0.9c2.6,0,6.1-1.1,8.7-2.6c2.8-1.6,8.6-18.9,10.6-25.4c0-0.2,4.8-23,4.8-28.3
				c0-5.2-9-15.9-12.6-16.9C136.8,6.4,135.1,6.2,133.5,6.2z"/>
		</g>
		<g>
			<path fill="#C5E4E6" d="M166.5,25.7c3,1.8,10.2,15,9,19.6c-2.6,10.1-7.1,20.5-13.3,28.9c-3,4-6.5,8.2-11.2,10.3
				c-3,1.4-11.8,3-14.2-0.8c-2.7-4.5,0.6-17.6,2.3-24.3c1.7-6.7,6.9-34.5,12.5-35.6C156,23.1,164.7,24.7,166.5,25.7z"/>
			<path fill="#C5E4E6" d="M143.1,86.6c-3.3,0-5.6-0.9-6.6-2.6c-2.6-4.2-0.3-14.8,2.3-24.7c0.3-1.1,0.7-2.8,1.2-5
				c3.3-14.5,7.1-30.1,11.7-30.9c0.8-0.1,1.8-0.2,2.9-0.2c4.6,0,10.6,1.2,12.2,2.1c3.3,1.9,10.5,15.4,9.2,20.2
				c-2,7.8-6,19.1-13.4,29.1c-3.1,4.2-6.6,8.3-11.4,10.5C149.5,85.8,146.2,86.6,143.1,86.6z M154.5,24.2c-1.1,0-2,0.1-2.7,0.2
				c-4.3,0.8-8.8,20.6-10.9,30.2c-0.5,2.2-0.9,3.9-1.2,5c-1.5,5.8-5,19.5-2.4,23.9c1.1,1.8,3.7,2.1,5.8,2.1c2.9,0,6.1-0.7,7.8-1.5
				c4.5-2.1,8-6.1,11-10.1c7.3-9.9,11.2-21.1,13.2-28.7c1.1-4.2-5.9-17.4-8.8-19.1C165,25.4,159.1,24.2,154.5,24.2z"/>
		</g>
		<g>
			<path fill="#C5E4E6" d="M92.3,112.4c3.6,1.6,8.5,4.9,8.3,7.4c-0.8,10.6-4.7,11.6-12.8,16c-4.7,2.6-15.6,9.7-12.3,15
				c9.7,15.3,28.8,21,43.1,24.3c8.8,2,23.1-3.8,29.6-7.1c4.5-2.3,17.7-12.5,17.7-12.5l17.8,10.6c0,0-13.3,32.1-13.3,47.4
				s1,80.4,1,80.4l-67.7,31c0,0,0-68.7-1.4-76.7c-1.4-7.9-6.9-28.7-10.9-33.5c-4.6-5.4-11.5-7.8-17.5-11.2
				c-7-3.9-11.4-9.4-16.5-15.4c-5.5-6.4-10.9-9.9-11.7-18.7c-0.8-8.6-1.3-17.7,0.5-26.2c2.5-11.6,20-25.1,20-25.1
				c5.6-4.3,15.9-7.5,23.1-6.7C89.9,111.5,91,111.9,92.3,112.4z"/>
			<path fill="#C5E4E6" d="M103.2,325.7v-0.8c0-0.7,0-68.8-1.4-76.6c-1.3-7.5-6.7-28.5-10.8-33.2c-3.4-4-8.2-6.4-12.8-8.7
				c-1.5-0.8-3.1-1.6-4.6-2.4c-6.5-3.6-10.9-8.7-15.4-14.1l-1.2-1.4c-1.2-1.4-2.4-2.6-3.5-3.8c-4.1-4.3-7.7-8-8.3-15.1
				c-0.8-8.7-1.3-17.9,0.5-26.4c2.5-11.6,19.5-24.9,20.2-25.4c5.2-4,14.1-6.9,21.1-6.9c0.8,0,1.6,0,2.3,0.1c0.7,0.1,1.8,0.5,3.2,1.1
				c3.1,1.4,8.8,4.9,8.6,7.9c-0.7,9.8-4.3,11.7-10.8,15.2c-0.7,0.4-1.5,0.8-2.3,1.2c-5.1,2.8-11.5,7.5-12.5,11.4
				c-0.3,1.1-0.1,2,0.4,2.9c9.3,14.7,27.8,20.6,42.8,24.1c1.2,0.3,2.5,0.4,4,0.4c7.9,0,18.5-4,25.3-7.4c4.4-2.2,17.5-12.4,17.6-12.5
				l0.3-0.2l18.4,11l-0.2,0.4c-0.1,0.3-13.3,32.2-13.2,47.2c0.1,15.1,1,79.7,1,80.4l0,0.3l-0.3,0.1L103.2,325.7z M87,111.8
				c-6.7,0-15.5,2.9-20.5,6.7c-0.2,0.1-17.4,13.6-19.8,24.8c-1.8,8.4-1.3,17.5-0.5,26.1c0.6,6.7,3.9,10.2,8,14.5
				c1.2,1.2,2.3,2.5,3.5,3.9l1.2,1.4c4.7,5.5,8.8,10.3,15.2,13.9c1.5,0.8,3.1,1.6,4.6,2.4c4.7,2.4,9.5,4.8,13.1,8.9
				c4.2,4.9,9.7,26.1,11,33.7c1.3,7.5,1.4,68,1.4,76l66.7-30.5c-0.1-5-0.9-65.5-1-80.1c-0.1-14.5,11.5-43.3,13.1-47.2l-17.1-10.2
				c-2,1.5-13.3,10.3-17.5,12.4c-6.8,3.5-17.7,7.5-25.7,7.5c0,0,0,0,0,0c-1.5,0-3-0.1-4.2-0.4C89.5,168.9,80,159,75,151.1
				c-0.7-1.1-0.9-2.3-0.5-3.7c1.4-5.4,11.1-11,13-12c0.8-0.4,1.6-0.9,2.3-1.2c6.5-3.5,9.5-5.1,10.2-14.4c0.1-1.9-4-5.1-8-6.9
				c-1.2-0.6-2.2-0.9-2.8-1C88.5,111.9,87.7,111.8,87,111.8z"/>
		</g>
	</g>
	<g>
		<path fill="#40B6B8" d="M273.7,159.1c0,8.3-5.9,14.2-14.2,14.2c-8.3,0-14.2-5.9-14.2-14.2c0-8.3,6.7-15,15-15
			C268.7,144.1,273.7,150.8,273.7,159.1z"/>
		<path fill="#FFFFFF" d="M259.5,174.7c-9.1,0-15.7-6.6-15.7-15.7c0-9.1,7.4-16.5,16.5-16.5c8.7,0,14.8,6.8,14.8,16.5
			C275.2,168.2,268.6,174.7,259.5,174.7z M260.4,145.6c-7.4,0-13.5,6.1-13.5,13.5c0,7.5,5.2,12.7,12.7,12.7s12.7-5.2,12.7-12.7
			C272.2,151.1,267.3,145.6,260.4,145.6z"/>
	</g>
	<g>
		<path fill="#40B6B8" d="M295.7,173.6c0,6.6-4.7,11.3-11.3,11.3c-6.6,0-11.3-4.7-11.3-11.3c0-6.6,5.4-12,12-12
			S295.7,167,295.7,173.6z"/>
		<path fill="#FFFFFF" d="M284.4,186.4c-7.4,0-12.8-5.4-12.8-12.8c0-7.4,6-13.5,13.5-13.5c7.1,0,12.1,5.5,12.1,13.5
			C297.2,181,291.8,186.4,284.4,186.4z M285.1,163.1c-5.8,0-10.5,4.7-10.5,10.5c0,5.8,4,9.8,9.8,9.8c5.8,0,9.8-4,9.8-9.8
			C294.2,167.4,290.5,163.1,285.1,163.1z"/>
	</g>
	<g>
		<path fill="#40B6B8" d="M304.8,194.3c0,4.4-3.1,7.5-7.5,7.5c-4.4,0-7.5-3.1-7.5-7.5c0-4.4,3.6-8,8-8
			C302.1,186.3,304.8,189.9,304.8,194.3z"/>
		<path fill="#FFFFFF" d="M297.3,203.3c-5.2,0-9-3.8-9-9c0-5.2,4.2-9.5,9.5-9.5c5,0,8.6,4,8.6,9.5
			C306.3,199.5,302.5,203.3,297.3,203.3z M297.8,187.8c-3.6,0-6.5,2.9-6.5,6.5c0,3.6,2.4,6,6,6s6-2.4,6-6
			C303.3,191.1,301.6,187.8,297.8,187.8z"/>
	</g>
</g>
</svg>
