<?xml version="1.0" encoding="utf-8"?>
<!-- Generator: Adobe Illustrator 17.0.0, SVG Export Plug-In . SVG Version: 6.00 Build 0)  -->
<!DOCTYPE svg PUBLIC "-//W3C//DTD SVG 1.1//EN" "http://www.w3.org/Graphics/SVG/1.1/DTD/svg11.dtd">
<svg version="1.1" id="Layer_1" xmlns="http://www.w3.org/2000/svg" xmlns:xlink="http://www.w3.org/1999/xlink" x="0px" y="0px"
	 width="600px" height="560px" viewBox="0 0 600 560" enable-background="new 0 0 600 560" xml:space="preserve">
<g>
	<g>
		<g>
			<path fill="#3FB5B7" d="M17.1,417.3c81.4,2.1,502-4.8,568-2.8c-0.4-103.2,4.8-224.8,8.2-409.3L6.5,3.8
				C6.5,164.7,17.1,417.3,17.1,417.3z"/>
			<path fill="#C5E3E5" d="M44.5,339.1c75,1.6,444.5-0.4,505.3,1c2.7-53.2,14.5-219.2,14.5-312.1L29.2,28.2
				C28.1,80.2,44.5,339.1,44.5,339.1z"/>
			<path fill="#C5E3E5" d="M279.4,376c10.4-25.3,43.2-5.7,31.4,15.9C301.6,408.9,272.5,392.9,279.4,376z"/>
		</g>
		<path fill="#3FB5B7" d="M168.5,525c0,0,178.1-3.5,261.8-3.5v34.5l-261.8-8.7V525z"/>
		<path fill="#3FB5B7" d="M420.3,508.6c-22.7-14.9-42-47.7-41.5-77.5c0,0-99.9-3.6-149.3-1.3c-4.2,28-27.1,69-52.2,82L420.3,508.6z"
			/>
	</g>
	<g>
		<g>
			<path fill="#31B5BC" d="M79.3,149.6c0,0,14.8-0.2,21.8-0.1l0,3.2l-21.8-1L79.3,149.6z"/>
		</g>
		<g>
			<path fill="#31B5BC" d="M101.1,148.5c-3.1-4.2-6.4-13.2-6.6-20.6c0,0-4-0.1-6.6-0.1c-0.1,6.9-5.8,18.1-7.7,21.1L101.1,148.5z"/>
		</g>
		<g>
			<path fill="#31B5BC" d="M78.9,106.3c0.3-1.9,0.5-2.1,0.5-2.1s-8.7-2.4-8.2,5.4c0.2,3.7,4.9,9.6,10.5,9c-0.2-0.9-0.3-1.4-0.3-1.8
				C72.4,116.6,70.9,102.8,78.9,106.3z"/>
		</g>
		<g>
			<path fill="#31B5BC" d="M103.5,106.6c-0.4-1.8-0.6-2.1-0.6-2.1s8.6-2.8,8.5,5c0.1,3.7-4.4,9.9-10,9.5c0.1-0.9,0.2-1.4,0.2-1.8
				C110.5,116.6,111.3,102.7,103.5,106.6z"/>
		</g>
		<g>
			<path fill="#31B5BC" d="M106.6,95.8c0,0-2,31.6-11.6,33.7c-16.7,3.6-16.7-19.1-18.4-31.7L106.6,95.8z"/>
		</g>
	</g>
	<g>
		<g>
			<path fill="#31B5BC" d="M326.4,127.2c0,0-11.2-0.4-16.4-0.4l0,2.4l16.4-0.4L326.4,127.2z"/>
		</g>
		<g>
			<path fill="#31B5BC" d="M310,126c2.4-3.1,5-9.8,5.3-15.4c0,0,3,0,5,0c0,5.2,4.1,13.7,5.5,16L310,126z"/>
		</g>
		<g>
			<path fill="#31B5BC" d="M327.4,94.6c-0.2-1.4-0.4-1.6-0.4-1.6s6.6-1.6,6.1,4.2c-0.2,2.8-3.9,7.2-8.1,6.6c0.1-0.7,0.2-1.1,0.3-1.4
				C332.1,102.5,333.5,92.1,327.4,94.6z"/>
		</g>
		<g>
			<path fill="#31B5BC" d="M308.9,94.4c0.4-1.4,0.5-1.6,0.5-1.6s-6.4-2.3-6.5,3.6c-0.1,2.8,3.1,7.5,7.4,7.4
				c-0.1-0.7-0.1-1.1-0.2-1.4C303.4,101.8,303.1,91.3,308.9,94.4z"/>
		</g>
		<g>
			<path fill="#31B5BC" d="M306.7,86.2c0,0,1,23.8,8.2,25.6c12.5,3,12.9-14.1,14.4-23.6L306.7,86.2z"/>
		</g>
	</g>
	<g>
		<path fill="#31B5BC" d="M160.6,54.6l-0.2,20.6l6.7,0.4l17,1l4.1,6.1l0.2-6.9l8,1.3l0.4-24.2L160.6,54.6z M178,73.3
			c-1.6,0-9-5.6-9-10.6c0-2.8,2.3-5,5.1-5c1.7,0,3.2,0.9,4.1,2.2c0.9-1.3,2.4-2.1,4.1-2.1c2.8,0,5,2.3,5,5.1
			C187.1,68,179.6,73.4,178,73.3z"/>
		<path fill="#31B5BC" d="M188.6,84.2l-4.8-7.1l-23.9-1.5l0.2-21.5l37.1-1.7l-0.4,25.2l-8-1.3L188.6,84.2z M160.9,74.8l23.5,1.4
			l3.4,5.1l0.2-6l8,1.3l0.4-23.2L161.1,55L160.9,74.8z M178,73.8c-2,0-9.5-5.8-9.4-11c0-3,2.5-5.4,5.5-5.4c1.6,0,3.1,0.7,4.1,1.9
			c1-1.2,2.5-1.8,4.1-1.8c3,0,5.4,2.5,5.4,5.5C187.6,68.2,179.9,73.8,178,73.8z M174,58.3c-2.5,0-4.6,2-4.6,4.5
			c-0.1,4.7,7.1,10.1,8.5,10.1c1.4,0,8.7-5.2,8.8-9.9c0-2.5-2-4.6-4.5-4.6c-1.5,0-2.9,0.7-3.7,1.9l-0.4,0.5l-0.4-0.5
			C176.9,59,175.5,58.3,174,58.3z"/>
	</g>
	<g>
		<path fill="#31B5BC" d="M193.8,230l-0.2,23.2l7.5,0.5l19.1,1.2l4.6,6.8l0.2-7.8l9,1.5l0.4-27.2L193.8,230z M213.2,251
			c-1.8,0-10.2-6.2-10.1-11.9c0-3.1,2.6-5.6,5.7-5.6c1.9,0,3.6,1,4.6,2.4c1-1.4,2.7-2.4,4.6-2.3c3.1,0,5.6,2.6,5.6,5.7
			C223.5,245,215,251,213.2,251z"/>
		<path fill="#31B5BC" d="M225.3,263.8l-5.6-8.4l-26.9-1.6l0.3-24.5l42-1.9l-0.5,28.7l-9-1.5L225.3,263.8z M194.2,252.5l26.3,1.6
			l3.5,5.3l0.2-6.4l9,1.5l0.4-25.6l-39.1,1.8L194.2,252.5z M213.2,251.7c-2.2,0-10.9-6.6-10.8-12.6c0-3.5,2.9-6.3,6.4-6.3
			c1.7,0,3.4,0.8,4.6,2c1.2-1.2,2.9-2,4.6-1.9c3.5,0,6.3,2.9,6.3,6.4C224.2,245.4,215.5,251.7,213.2,251.7z M208.8,234.3
			c-2.7,0-4.9,2.2-5,4.9c-0.1,5.2,8,11.1,9.4,11.1c1.4,0,9.6-5.7,9.6-10.9c0-2.7-2.2-4.9-4.9-5c-1.6,0-3.1,0.7-4,2.1l-0.6,0.8
			l-0.6-0.8C211.9,235.1,210.4,234.3,208.8,234.3z"/>
	</g>
	<g>
		<g>
			<path fill="#3FB5B7" d="M206.3,148.8c0-14.3,0.1-20.7,0.5-38.8l-25.7,1.4c-0.2,15.7-0.9,40.4-0.9,40.4c1,1.7,12.5,8.2,13,9
				C193.6,161.7,206.3,148.8,206.3,148.8z"/>
		</g>
		<g>
			<g>
				<path fill="#3FB5B7" d="M207.6,172.2c-0.1,7.4-7.4,12.9-14.8,12.8c-7.4-0.1-12.6-5.4-12.5-12.7c0.1-7.4,6.1-13.3,13.5-13.2
					C201.3,159.1,207.7,164.8,207.6,172.2z"/>
			</g>
			<g>
				<path fill="#C5E3E5" d="M203.7,172.1c-0.1,5.1-5.7,9.2-10.8,9.2s-8.7-3.7-8.7-8.9c0.1-5.1,4.3-9.3,9.4-9.2
					S203.8,167,203.7,172.1z"/>
			</g>
			<g>
				<path fill="#3FB5B7" d="M200.7,172.4c0,3.7-4.1,6.6-7.8,6.6c-3.7,0-6.3-2.7-6.2-6.4c0-3.7,3.1-6.7,6.8-6.6
					S200.8,168.7,200.7,172.4z"/>
			</g>
		</g>
		<g>
			<g>
				<path fill="#C5E3E5" d="M196.3,115.5c0,0-0.3,29.7-0.3,33.4c2.8,0.1,0,0,4.4,0.1l0.4-34.1C197.8,115.3,196.3,115.5,196.3,115.5z
					"/>
			</g>
		</g>
		<g>
			<g>
				<path fill="#C5E3E5" d="M191.1,148.4c0,0,0.3-29.7,0.3-33.4c-2.8-0.1,0,0-4.4-0.1l-0.4,34.1
					C189.7,148.7,191.1,148.4,191.1,148.4z"/>
			</g>
		</g>
	</g>
	<g>
		<g>
			<path fill="#3FB5B7" d="M403.8,236.7c0-12.4,0.1-18,0.4-33.7l-22.3,1.3c-0.1,13.7-0.8,35.1-0.8,35.1c0.9,1.5,10.8,7.1,11.3,7.8
				S403.8,236.7,403.8,236.7z"/>
		</g>
		<g>
			<g>
				<path fill="#3FB5B7" d="M404.9,257c-0.1,6.4-6.4,11.2-12.8,11.1c-6.4-0.1-10.9-4.7-10.8-11.1c0.1-6.4,5.3-11.6,11.7-11.5
					S405,250.6,404.9,257z"/>
			</g>
			<g>
				<path fill="#C5E3E5" d="M401.5,256.9c0,4.5-4.9,8-9.4,8c-4.5,0-7.6-3.2-7.5-7.7c0-4.5,3.7-8,8.2-8
					C397.2,249.3,401.6,252.5,401.5,256.9z"/>
			</g>
			<g>
				<path fill="#3FB5B7" d="M399,257.2c0,3.2-3.5,5.8-6.8,5.7s-5.5-2.3-5.4-5.5c0-3.2,2.7-5.8,5.9-5.8
					C395.9,251.6,399,253.9,399,257.2z"/>
			</g>
		</g>
		<g>
			<g>
				<path fill="#C5E3E5" d="M395.1,207.8c0,0-0.2,25.8-0.3,29c2.4,0.1,0,0,3.8,0.1l0.3-29.6C396.4,207.6,395.1,207.8,395.1,207.8z"
					/>
			</g>
		</g>
		<g>
			<g>
				<path fill="#C5E3E5" d="M390.6,236.3c0,0,0.2-25.8,0.3-29c-2.4-0.1,0,0-3.8-0.1l-0.3,29.6C389.4,236.6,390.6,236.3,390.6,236.3z
					"/>
			</g>
		</g>
	</g>
	<g>
		<polygon fill="#3FB5B7" points="149.6,162.3 132.7,207.1 145.1,212.2 138.4,239.3 139.5,241.2 154.7,214.3 153.1,205.7 
			142.6,202.6 		"/>
		<path fill="#3FB5B7" d="M139.5,242.8l-2-3.3l6.6-26.8l-12.4-5.2l17.2-45.5l1.6,0.4l-6.9,39.5l10.4,3.1l1.7,9.4L139.5,242.8z
			 M139.3,239.2l0.2,0.3l14.4-25.3l-1.4-7.8l-10.8-3.2l5.7-32.5l-13.6,35.9l12.3,5.1L139.3,239.2z"/>
	</g>
	<g>
		<polygon fill="#3FB5B7" points="259,110.1 251.2,130.9 256.9,133.3 253.8,145.9 254.3,146.7 261.4,134.3 260.7,130.3 255.7,128.8 
					"/>
		<path fill="#3FB5B7" d="M254.3,148.1l-1.3-2.1l3-12.3l-5.8-2.4l8.1-21.4l1.4,0.4l-3.2,18.1l4.7,1.4l0.9,4.7L254.3,148.1z
			 M252.1,130.5l5.7,2.4l-2.8,11.3l5.7-10l-0.6-3.3l-5.1-1.5l2.1-11.9L252.1,130.5z"/>
	</g>
	<g>
		<polygon fill="#3FB5B7" points="239.4,186.5 241.9,177.2 242.5,176.6 245.4,187.4 255.6,187.5 255.6,188.4 247.1,192.1 250,200 
			249.1,200.2 242.1,195.7 237.1,202.8 235.8,203.4 237,191.7 230.9,190.5 230.3,189.8 		"/>
	</g>
	<g>
		<polygon fill="#3FB5B7" points="453.1,80.9 449,64.1 447.9,63 442.3,82.1 424.2,81.9 424.2,83.6 439.2,90.5 433.8,104.5 
			435.4,104.8 448,97.1 456.6,109.9 458.9,111 457.2,90.1 468.1,88.2 469.2,87.1 		"/>
	</g>
	<g>
		<g>
			<g>
				<path fill="#3FB5B7" d="M514.9,151.2l15.1,3.4l-5.9-14.1c-2.6,3.4-6.1,6.2-10.3,8c-4.2,1.8-8.7,2.3-12.9,1.8l5.9,14.1
					L514.9,151.2z"/>
			</g>
			<g>
				<polygon fill="#3FB5B7" points="515.9,153.5 507.8,166.7 508.7,168.9 517,156.2 531.7,160.4 531,156.9 				"/>
			</g>
		</g>
		<g>
			<path fill="#3FB5B7" d="M524.6,123.2c1.1-0.2,1.8-1.2,1.6-2.3c-0.2-1.1-1.1-1.8-2.2-1.8c1-0.4,1.5-1.6,1.1-2.6
				c-0.4-1-1.5-1.6-2.5-1.3c0.9-0.6,1.1-1.8,0.6-2.8c-0.6-0.9-1.8-1.3-2.7-0.8c0.7-0.8,0.8-2,0-2.8c-0.7-0.8-2-0.9-2.8-0.2
				c0.6-0.9,0.4-2.1-0.5-2.8c-0.9-0.7-2.1-0.5-2.8,0.3c0.4-1-0.1-2.2-1.1-2.6c-1-0.5-2.2-0.1-2.7,0.9c0.2-1.1-0.5-2.1-1.5-2.4
				c-1.1-0.3-2.1,0.3-2.5,1.4c0-1.1-0.9-2-2-2c-1.1-0.1-2,0.8-2.2,1.8c-0.2-1.1-1.2-1.8-2.3-1.6c-1.1,0.2-1.8,1.1-1.8,2.2
				c-0.4-1-1.6-1.5-2.6-1.1c-1,0.4-1.6,1.5-1.3,2.5c-0.6-0.9-1.8-1.1-2.8-0.6c-0.9,0.6-1.3,1.8-0.8,2.7c-0.8-0.7-2-0.8-2.8,0
				c-0.8,0.7-0.9,2-0.2,2.8c-0.9-0.6-2.1-0.4-2.8,0.5c-0.6,0.9-0.5,2.1,0.3,2.8c-1-0.4-2.2,0.1-2.6,1.1c-0.5,1-0.1,2.2,0.9,2.7
				c-1.1-0.2-2.1,0.5-2.4,1.5c-0.3,1.1,0.3,2.1,1.4,2.5c-1.1,0-2,0.9-2,2c-0.1,1.1,0.8,2,1.8,2.2c-1.1,0.2-1.8,1.2-1.6,2.3
				c0.2,1.1,1.1,1.8,2.2,1.8c-1,0.4-1.5,1.6-1.1,2.6c0.4,1,1.5,1.6,2.5,1.3c-0.9,0.6-1.1,1.8-0.6,2.8c0.6,0.9,1.7,1.3,2.7,0.8
				c-0.7,0.8-0.8,2,0,2.8c0.7,0.8,2,0.9,2.8,0.2c-0.6,0.9-0.4,2.1,0.5,2.8c0.9,0.6,2.1,0.5,2.8-0.3c-0.4,1,0.1,2.2,1.1,2.6
				c1,0.5,2.2,0.1,2.7-0.9c-0.2,1.1,0.5,2.1,1.5,2.4c1.1,0.3,2.1-0.3,2.5-1.4c0,1.1,0.9,2,2,2c1.1,0.1,2-0.8,2.1-1.8
				c0.2,1.1,1.2,1.8,2.3,1.6c1.1-0.2,1.8-1.1,1.8-2.2c0.4,1,1.6,1.5,2.6,1.1c1-0.4,1.6-1.5,1.3-2.5c0.6,0.9,1.8,1.1,2.8,0.6
				c0.9-0.6,1.3-1.8,0.8-2.7c0.8,0.7,2,0.8,2.8,0c0.8-0.7,0.9-2,0.2-2.8c0.9,0.6,2.1,0.4,2.8-0.5c0.7-0.9,0.5-2.1-0.3-2.8
				c1,0.4,2.2-0.1,2.6-1.1c0.5-1,0.1-2.2-0.9-2.7c1.1,0.2,2.1-0.5,2.4-1.5c0.3-1.1-0.3-2.1-1.4-2.5c1.1,0,2-0.9,2-2
				C526.5,124.3,525.7,123.4,524.6,123.2z"/>
		</g>
		<g>
			<g>
				<path fill="#C5E3E5" d="M520.4,128.2c-2.3,9.4-13.7,14.7-22.4,12.5c-8.7-2.2-13.2-10.4-10.9-19.7s11.3-15.3,20-13.1
					C515.8,110,522.7,118.8,520.4,128.2z"/>
			</g>
			<g>
				<path fill="#3FB5B7" d="M515.2,127.5c-1.7,6.8-9.8,10.5-16.1,9c-6.3-1.6-9.5-7.5-7.8-14.2c1.7-6.8,8.1-11,14.4-9.4
					C511.9,114.4,516.9,120.7,515.2,127.5z"/>
			</g>
		</g>
	</g>
	<g>
		<g>
			<path fill="#3FB5B7" d="M502.3,217.2c-3.8,15.4-22.4,24-36.7,20.5s-21.7-17-17.9-32.4c3.8-15.4,18.5-25,32.8-21.5
				C494.8,187.4,506.1,201.8,502.3,217.2z"/>
		</g>
		<g>
			<path fill="#C5E3E5" d="M498.5,217c-3.2,13-19,20.3-31,17.3c-12.1-3-18.4-14.4-15.1-27.4c3.2-13,15.7-21.1,27.7-18.1
				C492.2,191.8,501.7,204,498.5,217z"/>
		</g>
		<g>
			<path fill="#3FB5B7" d="M495.4,216.5c-2.9,11.6-16.9,18.2-27.7,15.5s-16.4-12.8-13.5-24.5c2.9-11.6,14-18.9,24.8-16.2
				S498.3,204.9,495.4,216.5z"/>
		</g>
		<g>
			<g>
				<path fill="#C5E3E5" d="M472.4,195.7c0,0-0.3,28.4-0.3,32c2.3,0.1,0,0,3.5,0.1l0.4-32.6C473.5,195.5,472.4,195.7,472.4,195.7z"
					/>
			</g>
		</g>
	</g>
	<g>
		<g>
			<path fill="#3FB5B7" d="M369,63.2c-2,8.1-11.8,12.6-19.3,10.7c-7.5-1.9-11.4-8.9-9.4-17s9.7-13.1,17.2-11.3
				C365,47.5,371,55.1,369,63.2z"/>
		</g>
		<g>
			<path fill="#C5E3E5" d="M367,63.1c-1.7,6.8-9.9,10.7-16.3,9.1c-6.3-1.6-9.6-7.5-7.9-14.4c1.7-6.8,8.2-11.1,14.6-9.5
				C363.6,49.9,368.7,56.3,367,63.1z"/>
		</g>
		<g>
			<path fill="#3FB5B7" d="M365.3,62.8c-1.5,6.1-8.9,9.5-14.5,8.1s-8.6-6.7-7.1-12.8s7.3-9.9,13-8.5C362.3,51,366.8,56.7,365.3,62.8
				z"/>
		</g>
		<g>
			<g>
				<path fill="#C5E3E5" d="M353.3,51.9c0,0-0.1,14.9-0.2,16.8c1.2,0,0,0,1.8,0.1l0.2-17.1C353.9,51.8,353.3,51.9,353.3,51.9z"/>
			</g>
		</g>
	</g>
	<g>
		<g>
			<path fill="#3FB5B7" d="M283.7,66.5c-0.1-1.8-0.2-2.6-0.2-2.6s-2.2,0-4.8,0l0.1-5c-1.8,0.1-2.6,0.2-2.6,0.2s0,2.2,0,4.8
				c-2.3,0-4.4,0-4.9-0.1c0,1.7,0,0-0.1,2.6l5,0.1c0,2.3,0,4.4-0.1,4.9c1.7,0,0,0,2.6,0.1l0.1-5L283.7,66.5z"/>
		</g>
		<g>
			<g>
				<g>
					<path fill="#31B5BC" d="M277.3,76.6c0,1,0,1,0,1c0,1.3-3.5,2.4-7.7,2.3s-11.2-0.1-15.4-0.2s-7.7-1.2-7.7-2.5c0,0,0,0,0-1
						c0-1,2.6-2.5,6.7-3.9c4.1-1.5,5.3-2.7,5.4-5.3c0-1.6-1.2-1.1-1.7-4c-0.2-1.2-1.3-0.1-1.5-2.8c0-1.1,0-1.1,0-1.1
						c0.3-0.1,0.5-1,0.3-1.9c0,0,0,0-0.1-1.2c-0.1-1.6,1-5.6,6.5-5.5c5.6,0.1,6.6,4.1,6.4,5.6c-0.1,1.2-0.1,1.2-0.1,1.2
						c-0.2,0.9-0.1,1.8,0.2,1.9c0,0,0,0,0,1.1c-0.2,2.7-1.3,1.6-1.5,2.8c-0.6,2.9-1.8,2.3-1.8,4c0,2.6,1.3,3.9,5.2,5.4
						C274.7,74.1,277.3,75.6,277.3,76.6z"/>
				</g>
			</g>
			<g>
				<g>
					<path fill="#31B5BC" d="M269.6,80.6l-15.4-0.2c-4.1,0-8.3-1.1-8.3-3.1l0-1c0-1.4,2.4-2.9,7.1-4.5c4.2-1.5,4.9-2.7,4.9-4.7
						c0-0.5-0.1-0.7-0.4-1c-0.4-0.5-1-1.1-1.3-2.8c0-0.2,0-0.2-0.2-0.3c-0.6-0.3-1.1-0.7-1.3-2.6l0-1.6l0.3-0.1
						c0.1-0.2,0.2-0.6,0.1-1.3l-0.1-1.3c-0.1-1.1,0.3-2.8,1.6-4.1c1.3-1.4,3.2-2.1,5.6-2c3.1,0,4.8,1.2,5.7,2.2
						c1.1,1.3,1.5,3,1.3,4.1l-0.1,1.2c-0.1,0.7-0.1,1.2,0,1.3l0.3,0.1l0,1.5c-0.2,1.9-0.7,2.3-1.3,2.6c-0.2,0.1-0.2,0.1-0.2,0.3
						c-0.3,1.7-0.9,2.4-1.3,2.9c-0.3,0.3-0.4,0.5-0.5,1c0,2.3,1.1,3.4,4.9,4.8c4.7,1.7,7,3.3,7,4.6l0,1
						C277.9,79.7,273.7,80.7,269.6,80.6z M256.1,59.4l0,0.8c0.1,1.3,0.3,1.4,0.6,1.5c0.3,0.1,0.7,0.4,0.9,1.2c0.3,1.4,0.7,1.8,1,2.3
						c0.4,0.4,0.7,0.9,0.7,1.8c0,3.2-2,4.5-5.8,5.9c-5.1,1.8-6.3,3-6.3,3.4l0,1c0,0.6,2.7,1.8,7.1,1.9l15.4,0.2
						c4.4,0,7.1-1.1,7.1-1.7l0-1c0-0.3-1.1-1.6-6.2-3.5c-3.8-1.5-5.7-2.8-5.6-6c0-1,0.4-1.4,0.8-1.8c0.4-0.4,0.8-0.9,1.1-2.3
						c0.1-0.8,0.6-1,0.9-1.2c0.3-0.1,0.5-0.3,0.6-1.6l0-0.8c-0.4-0.5-0.4-1.5-0.2-2.3l0.1-1.2c0.1-0.6,0-2-1-3.2
						c-1-1.2-2.6-1.8-4.8-1.8c-2.1,0-3.6,0.5-4.7,1.6c-1.1,1.1-1.3,2.5-1.2,3.2l0.1,1.2C256.5,57.8,256.5,58.8,256.1,59.4z"/>
				</g>
			</g>
		</g>
	</g>
	<g>
		<g>
			<path fill="#3FB5B7" d="M432.8,144.6c-0.2-2.9-0.3-4.3-0.3-4.3s-3.6,0-7.7-0.1l0.1-8.1c-2.9,0.2-4.3,0.3-4.3,0.3s0,3.6-0.1,7.8
				c-3.8,0-7.2-0.1-8.1-0.1c-0.1,2.7,0,0-0.1,4.2l8.1,0.1c0,3.7-0.1,7.1-0.1,8c2.7,0.1,0,0,4.2,0.1l0.1-8.1L432.8,144.6z"/>
		</g>
		<g>
			<g>
				<g>
					<path fill="#31B5BC" d="M422.5,158.9c0,1.6,0,1.6,0,1.6c0,2-4.5,3.6-10,3.5l-3.3,0c-5.5-0.1-14.4-0.2-19.8-0.2l-3.3,0
						c-5.5-0.1-9.9-1.7-9.9-3.7c0,0,0,0,0-1.6c0-1.6,4-3.8,10.1-5.9c6.1-2.2,8-4,8.1-8c0-2.5-1.8-1.7-2.6-6c-0.3-1.9-2-0.1-2.2-4.3
						c0-1.7,0-1.7,0-1.7c0.5-0.2,0.7-1.5,0.5-2.8c0,0,0,0-0.2-1.9c-0.2-2.4,1.5-8.3,9.8-8.3c8.5,0.1,10,6.1,9.6,8.5
						c-0.1,1.9-0.1,1.9-0.1,1.9c-0.3,1.3-0.1,2.6,0.4,2.9c0,0,0,0,0,1.7c-0.3,4.1-2,2.3-2.3,4.2c-0.8,4.3-2.7,3.5-2.7,6
						c0,3.9,1.9,5.8,7.9,8.2C418.6,155,422.5,157.3,422.5,158.9z"/>
				</g>
			</g>
			<g>
				<g>
					<path fill="#31B5BC" d="M412.5,164.6l-26.4-0.3c-5.1-0.1-10.5-1.6-10.5-4.3l0-1.6c0-2.4,5.7-4.8,10.5-6.4
						c5.9-2.1,7.6-3.8,7.7-7.4c0-0.9-0.2-1.2-0.7-1.8c-0.6-0.7-1.4-1.6-1.9-4.1c-0.1-0.5-0.2-0.5-0.5-0.7c-0.8-0.4-1.6-1-1.7-3.6
						l0-2.1l0.3-0.2c0.1-0.1,0.4-1,0.2-2.2l-0.2-1.9c-0.1-1.5,0.4-4,2.3-5.9c1.9-2,4.6-3,8.2-3c4.6,0,7,1.8,8.3,3.3
						c1.6,1.9,2.1,4.3,1.9,5.9l-0.1,1.8c-0.3,1.3-0.1,2.2,0.1,2.3l0.3,0.2l0,0.4l0,1.7c-0.2,2.6-1,3.2-1.8,3.6
						c-0.3,0.2-0.4,0.2-0.5,0.7c-0.5,2.5-1.3,3.4-1.9,4.1c-0.5,0.5-0.8,0.8-0.8,1.7c0,3.6,1.6,5.3,7.5,7.6
						c4.7,1.7,10.4,4.3,10.3,6.7l0,1.6C423,163.2,417.6,164.6,412.5,164.6z M390.2,132.9l0,1.4c0.1,2.1,0.6,2.4,1.1,2.6
						c0.4,0.2,1,0.5,1.1,1.5c0.4,2.2,1.1,2.9,1.6,3.6c0.5,0.6,1,1.2,1,2.6c0,4.2-2.1,6.2-8.4,8.5c-7.7,2.6-9.7,4.6-9.7,5.3l0,1.6
						c0,1.4,4,3.1,9.3,3.2l26.4,0.3c5.3,0.1,9.4-1.5,9.4-3l0-1.6c0-0.7-2-2.8-9.6-5.6c-6.3-2.5-8.3-4.6-8.3-8.7
						c0-1.3,0.5-1.9,1.1-2.5c0.6-0.6,1.2-1.4,1.7-3.6c0.2-1,0.7-1.3,1.2-1.5c0.5-0.2,1-0.5,1.1-2.6l0-1.4c-0.6-0.6-0.6-2.1-0.3-3.3
						l0.1-1.8c0.1-1-0.1-3.1-1.7-5c-1.6-1.9-4.1-2.8-7.4-2.9c-3.2,0-5.7,0.8-7.3,2.6c-1.7,1.8-2,4-1.9,5l0.2,1.9
						C390.9,130.8,390.8,132.2,390.2,132.9z"/>
				</g>
			</g>
		</g>
	</g>
	<g>
		<g>
			<g>
				<path fill="#31B5BC" d="M400.5,303.1c-0.1,6.3-0.1,6.3-0.1,6.3c0,2.5-3.5,4.8-7.8,5l-169.2,7.3c-4.3,0.2-7.7-3.2-7.7-7.4
					c0,0,0.1-6.8,0.1-13.1c0.1-6.3,15.9-15.2,40.3-23.5c24.5-8.8,32-16.2,32.2-31.9c0.1-9.8-7-6.8-10.3-24.1
					c-1.1-7.5-7.9-0.5-8.9-17c0.1-6.7,0.1-6.7,0.1-6.7c2-0.8,3-5,2.4-9.2c0,0-0.3-2.2-1-9.6c-0.7-9.4,5.9-33.3,39.3-33
					c33.8,0.4,39.8,24.4,38.5,33.8c-0.5,7.5-0.9,9.7-0.9,9.7c-0.9,4.2,0,8.3,1.9,9.2c0,0,0,0-0.1,6.7c-1.4,16.5-8,9.3-9.2,16.8
					c-3.3,17.3-10.8,14-10.9,23.9c-0.2,15.7,7.6,23.3,31.5,32.6C385,287.6,400.6,296.8,400.5,303.1z"/>
			</g>
		</g>
		<g>
			<g>
				<path fill="#31B5BC" d="M223,322c-4.4,0-7.8-3.5-7.7-7.9l0.1-13.1c0.1-6.4,14.9-15.1,40.6-24c24.3-8.7,31.7-16,31.9-31.4
					c0-4.4-1.4-6.1-3.3-8.4c-2.3-2.8-5.2-6.2-7-15.6c-0.4-2.8-1.6-3.4-3-4.1c-2.3-1.2-5.2-2.7-5.8-12.9l0.1-7l0.3-0.1
					c1.8-0.8,2.7-4.8,2.1-8.7c0-0.1-0.3-2.3-1-9.7c-0.3-4.6,1.1-14.4,8.5-22.3c7.1-7.6,17.6-11.3,31.2-11.2
					c13.9,0.1,24.8,4.4,31.7,12.4c7,8.1,7.9,17.6,7.3,22c-0.5,7.4-0.9,9.6-0.9,9.7c-0.8,3.9-0.1,7.9,1.7,8.7l0.3,0.1l-0.1,7
					c-0.8,10.2-3.8,11.7-6.1,12.8c-1.5,0.7-2.6,1.3-3.1,4c-1.8,9.5-4.9,12.9-7.3,15.6c-2,2.3-3.5,3.9-3.5,8.2
					c-0.2,15.3,7.1,22.8,31.2,32.1c25.6,9.4,40.2,18.4,40.1,24.8l-0.1,6.3c0,2.8-3.7,5.2-8.3,5.4L223.4,322
					C223.3,322,223.1,322,223,322z M269.7,198.2l-0.1,6.4c0.6,9.7,3.1,11,5.3,12.1c1.6,0.8,3,1.6,3.5,4.8c1.8,9.2,4.6,12.5,6.8,15.2
					c2,2.4,3.6,4.2,3.5,9c-0.2,15.9-7.8,23.4-32.5,32.3c-24.6,8.4-40,17.3-40,23.1l-0.1,13.1c0,4,3.2,7.2,7.2,7l169.2-7.3
					c4-0.2,7.4-2.2,7.4-4.5l0.1-6.3c0.1-5.8-15.1-15-39.5-24c-24.5-9.5-31.9-17.3-31.8-33c0.1-4.7,1.7-6.5,3.8-8.8
					c2.4-2.6,5.3-5.9,7.1-15.1c0.5-3.2,2-3.9,3.6-4.7c2.3-1.1,4.8-2.4,5.6-12.1l0.1-6.4c-2-1.2-2.8-5.3-1.9-9.6c0,0,0.5-2.3,0.9-9.6
					c0.6-4.2-0.3-13.4-7.1-21.3c-6.8-7.8-17.2-11.9-31-12c-13.3-0.1-23.6,3.5-30.5,10.9c-7.2,7.7-8.6,17.2-8.3,21.6
					c0.7,7.4,1,9.6,1,9.6C272.8,193,271.7,197,269.7,198.2z"/>
			</g>
		</g>
	</g>
</g>
</svg>
