<?xml version="1.0" encoding="utf-8"?>
<!-- Generator: Adobe Illustrator 17.0.0, SVG Export Plug-In . SVG Version: 6.00 Build 0)  -->
<!DOCTYPE svg PUBLIC "-//W3C//DTD SVG 1.1//EN" "http://www.w3.org/Graphics/SVG/1.1/DTD/svg11.dtd">
<svg version="1.1" id="Layer_1" xmlns="http://www.w3.org/2000/svg" xmlns:xlink="http://www.w3.org/1999/xlink" x="0px" y="0px"
	 width="508.7px" height="475.2px" viewBox="0 0 508.7 475.2" enable-background="new 0 0 508.7 475.2" xml:space="preserve">
<g>
	<g>
		<g>
			<path fill="#F6AC40" d="M436.3,413.1c-14.8-7.7-58.5-126.4-46.5-162.2c9.2-27.6,34.2-45.4,64.1-42.7
				c82.5,7.4,40.9,117.2,17.4,160.8C468.6,374.2,441.6,415.8,436.3,413.1z"/>
			<g>
				<path fill="#FFFFFF" d="M437.6,410.9c-3.1-1.7-5.2-5.7-6.9-8.5c-3.5-5.7-6.3-11.8-9.1-17.8c-7.5-16.7-13.6-34.1-18.9-51.6
					c-5.3-17.6-9.8-35.7-11.7-54.1c-0.7-6.9-1.1-14.1-0.1-21c1.3-9.3,6-18.2,11.7-25.5c14.5-18.7,38.2-25.1,60.8-20.3
					c15.2,3.2,27.5,12.6,33,27.2c5.6,14.6,4.6,31.3,2.1,46.5c-2.8,16.9-8,33.3-14.2,49.2c-5.2,13.4-11.1,26.8-18.9,38.9
					c-4.9,7.7-10.1,15.3-15.6,22.7c-2.6,3.5-5.4,7-8.4,10.2c-1,1.1-2.2,2.2-3.3,3.2c-1,0.8-1.4,0.7-1.2,0.8c-3-1.2-4.3,3.7-1.3,4.8
					c4.1,1.6,8.8-4.5,11-7c5.4-6.2,10.2-13,14.9-19.7c7.3-10.6,13.7-21.3,19.2-32.9c13.7-29.1,25.5-62.2,24.6-94.8
					c-0.4-14.1-4.1-28.3-13.5-39c-11-12.5-28.9-16.9-45-16.7c-21.8,0.2-41.4,12.2-52.7,30.5c-8.6,13.8-9.6,28.2-8,43.9
					c3,28.6,11.7,56.9,21.7,83.8c4.3,11.7,9.1,23.2,14.8,34.3c2.9,5.7,6.6,14,12.6,17.3C437.9,416.8,440.4,412.5,437.6,410.9z"/>
			</g>
		</g>
		<path fill="#FFFFFF" d="M409.4,254c22.9-55.7,95.2-12.5,69.2,35.1C458.3,326.4,394.1,291.2,409.4,254z"/>
	</g>
	<g>
		<g>
			<path fill="#575655" d="M339.9,222.8c1.2,67.5,8.1,182.6,8.1,182.6s1.5-158.4,0.6-183.5L339.9,222.8z"/>
			<g>
				<path fill="#575655" d="M338.6,222.8c1.1,60.9,4.5,121.8,8.1,182.6c0.1,1.6,2.5,1.6,2.5,0c0.5-54.1,1.1-108.3,0.9-162.5
					c0-7,0-14-0.3-21c0-0.6-0.6-1.3-1.2-1.2c-2.9,0.3-5.8,0.6-8.8,0.9c-1.6,0.2-1.6,2.7,0,2.5c2.9-0.3,5.8-0.6,8.8-0.9
					c-0.4-0.4-0.8-0.8-1.2-1.2c0.9,26.8,0.3,53.8,0.1,80.6c-0.2,30.7-0.4,61.3-0.7,92c0,3.6-0.1,7.3-0.1,10.9c0.8,0,1.7,0,2.5,0
					c-3.6-60.8-7-121.7-8.1-182.6C341.1,221.2,338.6,221.2,338.6,222.8z"/>
			</g>
		</g>
		<g>
			<path fill="#F6AC40" stroke="#FFFFFF" stroke-miterlimit="10" d="M300.9,225.9c-5.7,30.8,72.1,38.3,87.4,13.8
				c0,0,0.1-9.6,1.1-14.8"/>
			<g>
				<path fill="#FFFFFF" stroke="#FFFFFF" stroke-miterlimit="10" d="M299.7,225.6c-3.6,22.1,27,28.7,43,29.8
					c11.4,0.8,23.5-0.4,34.1-5c4.3-1.8,8.3-4.5,11.2-8.1c1.3-1.6,1.6-2.4,1.6-4.4c0.1-4.2,0.3-8.5,1-12.7c0.3-1.6-2.1-2.3-2.4-0.7
					c-0.5,3-0.7,6-0.9,9.1c-0.1,1.6,0.4,4.8-0.4,6c-2.3,3.6-6.1,6-9.9,7.9c-9.5,4.8-20.8,5.7-31.3,5.5c-14.4-0.4-47-5.9-43.6-26.8
					C302.3,224.7,299.9,224,299.7,225.6L299.7,225.6z"/>
			</g>
		</g>
		<g>
			<path fill="#F6AC40" stroke="#FFFFFF" stroke-miterlimit="10" d="M378.5,213c8.9,3.4,16.4,9.1,5.7,17.1
				c-16.4,12.2-60,11.8-77.5,1.3c-13.6-8.2,1-15,9.4-17.6c16-5,32.6-7,49.3-4.3C368.4,210,373.7,211.2,378.5,213z"/>
			<g>
				<path fill="#FFFFFF" stroke="#FFFFFF" stroke-miterlimit="10" d="M378.2,214.2c3.3,1.3,7,2.9,9.2,5.8c3.2,4.2-3.1,8.6-6.2,10.5
					c-5.3,3.2-11.5,4.8-17.6,5.9c-14,2.6-29.1,2.1-43-1.1c-6-1.4-14.4-3.7-17.9-9.1c-4-6.3,13.7-11.3,17.2-12.3
					C338.8,208.5,359.6,207.5,378.2,214.2c1.5,0.6,2.2-1.9,0.7-2.4c-21.4-7.8-47.5-6.1-68.4,2.7c-4.1,1.7-12.7,6.1-10.2,12.1
					c2.8,6.6,12.3,9.2,18.6,10.9c17,4.5,36.7,4.4,53.6-0.6c6-1.7,15.5-5.4,17.7-11.8c2.5-7.2-5.9-11.1-11.3-13.3
					C377.3,211.2,376.7,213.6,378.2,214.2z"/>
			</g>
		</g>
		<g>
			<path fill="#F6AC40" stroke="#FFFFFF" stroke-miterlimit="10" d="M294,143.6c1.9,17.3,15,73,15.1,73.4
				c0.7,8.6,17.3,12.3,24.4,13.6c14.3,2.5,34.5,1.9,44.7-9.7c3.8-4.3,16-59.9,17-73.3"/>
			<g>
				<path fill="#FFFFFF" stroke="#FFFFFF" stroke-miterlimit="10" d="M292.8,143.6c1.9,16.8,6,33.5,9.7,50
					c1.5,6.9,3.1,13.7,4.7,20.6c1.1,4.8,2.3,8.2,6.7,11.2c7,4.7,16.5,6.2,24.7,7.2c10.7,1.3,22,0.4,31.9-4.3
					c6.1-2.9,9.4-6.8,11.4-12.9c2.5-7.5,4.3-15.3,6.1-23c3.4-14.7,7.3-29.8,8.5-44.9c0.1-1.6-2.4-1.6-2.5,0
					c-1.3,16.3-5.6,32.7-9.5,48.6c-1.7,7-3.4,14.2-5.9,21c-3.3,9.2-16.1,12.2-24.8,13.1c-10.3,1.1-21-0.4-30.8-3.5
					c-4.5-1.4-10.4-3.7-12.4-8.4c-0.5-1.2-0.7-3-1-4.4c-3.7-16-7.3-32.1-10.6-48.2c-1.5-7.3-3-14.7-3.8-22.2
					C295.1,142,292.6,142,292.8,143.6L292.8,143.6z"/>
			</g>
		</g>
		<g>
			<path fill="#F6AC40" stroke="#FFFFFF" stroke-miterlimit="10" d="M286.7,122.5c-7.6,41.1,94.5,50.8,114.7,18.1
				c0,0,0.2-12.8,1.5-19.7"/>
			<g>
				<path fill="#FFFFFF" stroke="#FFFFFF" stroke-miterlimit="10" d="M285.5,122.1c-4.9,29.2,36,37.9,57,39.1
					c14.8,0.8,30.4-0.8,43.9-7c5.4-2.5,10.7-6,14.4-10.8c1.7-2.2,1.8-3.2,1.8-5.9c0.2-5.5,0.4-11,1.3-16.4c0.3-1.6-2.1-2.3-2.4-0.7
					c-0.6,3.8-1,7.7-1.2,11.5c-0.1,2.1,0.5,6.8-0.5,8.5c-3.1,4.9-8.1,8.3-13.2,10.9c-12.5,6.3-27.4,7.8-41.2,7.5
					c-19.5-0.5-62.4-7.9-57.6-36C288.2,121.2,285.8,120.5,285.5,122.1L285.5,122.1z"/>
			</g>
		</g>
		<g>
			<path fill="#F6AC40" stroke="#FFFFFF" stroke-miterlimit="10" d="M388.7,105c11.7,4.5,21.5,12,7.4,22.7
				c-21.6,16.3-78.9,15.9-101.8,2c-17.8-10.8,1.4-20,12.4-23.5c21-6.7,42.9-9.5,64.7-5.9C375.5,101,382.4,102.6,388.7,105z"/>
			<g>
				<path fill="#FFFFFF" stroke="#FFFFFF" stroke-miterlimit="10" d="M388.4,106.2c4.5,1.8,9.5,4,12.4,8.1c4,5.6-3.5,11.3-7.6,14
					c-6.9,4.5-15.3,6.8-23.4,8.3c-18.4,3.6-38.4,3.1-56.7-1.1c-8-1.8-16.9-4.6-22.8-10.5c-8.9-8.9,13.1-16.4,18.6-18.1
					C334.4,98.9,362.9,96.8,388.4,106.2c1.5,0.6,2.2-1.9,0.7-2.4c-27-10-57.8-7.3-84.7,1.9c-6.1,2.1-17.5,6.3-18.4,13.9
					c-1,8.2,9.7,12.7,15.9,15.1c18.8,7.4,41.1,7.9,60.9,5.5c9.1-1.1,18.2-3.2,26.6-7c6.7-3,16.1-8.9,14.9-17.3
					c-0.9-6.5-10-10.1-15.1-12.1C387.5,103.2,386.9,105.6,388.4,106.2z"/>
			</g>
		</g>
	</g>
	<g>
		<g>
			<path fill="#F6AC40" d="M158.4,394.7C130.1,380,46.7,153.3,69.6,84.8C87.3,32,134.9-2,192,3.2c157.7,14.2,78.1,224,33.3,307.2
				C220,320.3,168.6,400,158.4,394.7z"/>
			<g>
				<path fill="#FFFFFF" d="M159.7,392.6c-6.3-3.4-10.6-11.5-14.2-17.4c-7-11.5-12.8-23.8-18.2-36.1c-15-33.6-27.1-68.5-37.4-103.8
					c-10-34.5-18.7-70.1-21.2-106.1c-0.9-12.9-1-26.3,2-38.9c4.9-20.4,17.4-39.7,32.3-54.2c32-31.1,80-38,121.4-23.7
					c28.6,9.9,47.6,32.9,54.8,61.9c7.8,31.2,3.5,65-3.3,96c-7.3,33.2-18.7,65.5-32.2,96.6c-9.7,22.2-20.5,43.4-33.8,63.6
					c-9.1,13.8-18.5,27.4-28.7,40.5c-4.2,5.4-8.6,10.7-13.4,15.6c-1.7,1.7-3.4,3.3-5.3,4.6C161.5,391.7,159.4,392.4,159.7,392.6
					c-2.9-1.3-5.5,3-2.5,4.3c8,3.6,18.1-11,22.2-15.8c10.9-12.9,20.5-26.9,30-40.8c6.4-9.5,13.1-19.1,18.5-29.2
					c6.5-12.2,12.6-24.7,18.2-37.4c13.6-30.6,25.1-62.3,33-94.9c7.5-31.2,12.1-64.3,6.8-96.3c-4.6-28.1-19-53.4-44.2-67.7
					c-33.8-19.3-79.3-19.3-113.8-2.3c-33.5,16.4-60.4,51.9-64.1,89.4c-3.1,31.7,3.9,64.8,11,95.5c8.7,37.3,20.3,73.9,33.9,109.6
					c10.1,26.3,20.8,53.9,36.7,77.3c3.1,4.6,6.7,9.8,11.7,12.5C160,398.4,162.5,394.1,159.7,392.6z"/>
			</g>
		</g>
		<path fill="#FFFFFF" d="M106.9,90.7c43.7-106.5,181.9-23.9,132.3,67.2C200.4,229.2,77.7,161.9,106.9,90.7z"/>
	</g>
	<g>
		<g>
			<path fill="#F6AC40" d="M79,401.4c16.1-8.4,63.6-137.6,50.6-176.6c-10.1-30.1-37.2-49.5-69.7-46.5c-89.9,8.1-44.5,127.6-19,175.1
				C43.9,359,73.2,404.4,79,401.4z"/>
			<g>
				<path fill="#FFFFFF" d="M80.3,403.5c7.8-4.3,12.4-16.1,16-23.6c7.5-15.3,13.5-31.4,19-47.6c6.1-18.1,11.3-36.6,15-55.4
					c2.9-14.6,5.4-30.3,3.4-45.2c-2.5-18.7-15.4-35.8-30.9-45.9c-17.6-11.4-40-12.9-59.8-7c-13.9,4.1-25.5,13.3-32,26.3
					c-6.6,13.3-7.6,28.8-6.6,43.4c2.2,32.6,14.2,64.8,28.2,94.1c5.5,11.4,12.1,21.9,19.2,32.3c4.7,6.8,9.6,13.6,14.9,19.9
					c2.9,3.4,6.7,8.5,11.5,9.1c0.5,0.1,1-0.1,1.4-0.2c3-1.2,1.7-6-1.3-4.8c-1.8,0.7-8.9-8.7-10.3-10.4c-5.4-6.7-10.4-13.9-15.2-21.1
					c-6.9-10.3-12.8-20.7-18-32C20.9,305.7,9.1,272.2,9.1,239c0-14.4,3-29.7,12.5-41c11.3-13.4,30-17.9,46.9-17.5
					c24,0.5,44.7,15.3,55.3,36.5c6.9,13.9,6.2,28.9,4.2,43.9c-3.8,29.4-12.8,58.4-23.1,86.1c-4.4,11.9-9.3,23.6-15,34.9
					c-2.8,5.4-6.4,14.3-12,17.4C74.9,400.8,77.5,405.1,80.3,403.5z"/>
			</g>
		</g>
		<path fill="#FFFFFF" d="M108.3,228.2C83.4,167.5,4.7,214.5,33,266.4C55.1,307.1,125,268.7,108.3,228.2z"/>
	</g>
	<g>
		<g>
			<path fill="#F6AC40" d="M258.9,466.4c17.9-7.8,78.7-142.9,67.6-185.8c-8.5-33.1-36.2-55.9-71.4-55.2
				c-97.1,1.9-57.4,133.7-33.6,186.5C224.4,418.3,252.5,469.2,258.9,466.4z"/>
			<g>
				<path fill="#FFFFFF" d="M260.2,468.6c7.8-3.6,13.2-14.5,17.3-21.4c8.5-14.4,15.7-29.6,22.3-44.9c7.6-17.5,14.4-35.4,20-53.7
					c4.9-15.8,9-32.1,10.3-48.7c3.1-39-28.2-72.8-66.4-76.7c-16.4-1.7-34.7,1.6-48.3,11.3c-11.2,8-18,20.3-21.5,33.4
					c-8.4,31-1.1,65.8,7.5,95.9c4.1,14.5,9.2,28.7,15,42.5c5,11.8,11.4,22.9,18.1,33.8c4.3,7.2,8.8,14.2,14,20.9
					c2.2,2.9,6.6,9.2,11.1,7.7c3.1-1,1.7-5.8-1.3-4.8c0.1,0,0.3,0.2-0.7-0.5c-0.8-0.6-1.6-1.4-2.3-2.1c-2.4-2.5-4.5-5.4-6.5-8.3
					c-4.9-7-9.4-14.4-13.7-21.7c-6.3-10.7-11.9-21.4-16.5-32.9c-12.1-30.1-21.4-62.5-22.9-95c-1.3-29.3,6.2-62,37.3-72.2
					c20-6.5,43-3.9,60.8,7.1c16.7,10.3,29.9,30.1,31.4,49.9c1.2,15.1-2.5,30.6-6.3,45.1c-4.8,18.5-11.2,36.5-18.4,54.2
					c-6.7,16.6-14.1,32.9-22.7,48.7c-5,9.1-10.4,20.3-18.6,27c-0.5,0.4-1,0.7-1.6,0.9C254.7,465.6,257.3,469.9,260.2,468.6z"/>
			</g>
		</g>
		<path fill="#FFFFFF" d="M303.5,282.7c-22.2-67-110.2-22.5-83.8,35.4C240.3,363.4,318.3,327.5,303.5,282.7z"/>
	</g>
	<g>
		<path fill="#F6AC40" d="M274,286.5c0-4.3,14.2,3.9,17.5,6.2c11.5,8.1-10.4,26.5-16.8,20.1c-3-3,1.6-8.2-1.6-11.2
			C273,301.6,274,290.6,274,286.5z"/>
		<g>
			<path fill="#F6AC40" d="M272.8,276.3c4.4,3.4,3.4,24.3-2,28.2c-6.9,4.9-23.6,1.8-31,0.3c-9.4-2-12.8-3-13.3-12.8
				c-0.3-5.1-1.5-11,3.7-14.3C233.6,275.6,266.7,271.3,272.8,276.3z"/>
			<g>
				<path fill="#F6AC40" d="M272.3,276.8c3.5,3.3,2.7,10.8,2.4,15.1c-0.5,6.3-2,12.1-8.7,13.9c-6.6,1.7-14.3,0.4-21-0.7
					c-4.9-0.8-11.8-1.3-15.4-5c-2.2-2.3-2.2-6.4-2.4-9.3c-0.3-4.4-1-9.9,3.6-12.5c3.2-1.8,8.1-1.9,11.6-2.3
					c5.4-0.7,10.9-1.1,16.3-1.2c4.2-0.1,10.1-0.4,13.7,2.2c0.8,0.6,1.5-0.7,0.8-1.3c-3.8-2.8-10-2.4-14.4-2.4
					c-7.1,0-14.3,0.8-21.3,1.9c-4.3,0.7-9.8,1.4-11.3,6.4c-1.6,5.5-1.4,14.8,2.3,19.6c3.6,4.6,13.1,4.9,18.4,5.8
					c6.9,1.1,16.1,2.6,22.6-0.7c5.1-2.6,6-9,6.6-14.2c0.5-4.6,1-12.6-2.8-16.1C272.6,275.1,271.6,276.2,272.3,276.8z"/>
			</g>
		</g>
		<path fill="#FFFFFF" d="M269,278.9c3.8,2.8,3,19.7-1.7,22.8c-5.9,4-20.4,1.5-26.7,0.3c-8.1-1.6-11-2.4-11.5-10.4
			c-0.2-4.1-1.3-8.9,3.2-11.6C235.2,278.3,263.8,274.9,269,278.9z"/>
		<g>
			<path fill="#F6AC40" d="M258.7,300c1.5-2.8,3.6-5.1,5.4-7.7c0.4-0.5-0.5-1-0.9-0.5c-1.8,2.6-3.9,4.9-5.4,7.7
				C257.6,300,258.4,300.6,258.7,300L258.7,300z"/>
		</g>
		<g>
			<path fill="#F6AC40" d="M260.8,299.6c1.5-2.8,3.7-5.2,5.3-8c0.3-0.6-0.5-1.1-0.9-0.5c-1.6,2.8-3.8,5.1-5.3,8
				C259.6,299.6,260.5,300.1,260.8,299.6L260.8,299.6z"/>
		</g>
		<g>
			<path fill="#F6AC40" d="M262.5,299.8c1.4-2.2,2.9-4.4,4.5-6.5c0.4-0.5-0.5-1-0.9-0.5c-1.6,2.1-3.1,4.2-4.5,6.5
				C261.3,299.9,262.1,300.4,262.5,299.8L262.5,299.8z"/>
		</g>
	</g>
	<g>
		<g>
			<g>
				<path fill="#FFFFFF" d="M350.1,109c5.7,2.7,7.6,9.1,6.2,14.9c-1.7,7.4-11.6,10.1-17.9,7.1c-5.9-2.8-7.9-11.8-5.5-17.4
					c2.7-6.2,12.2-6.4,17.5-4.5c1.5,0.5,2.2-1.9,0.7-2.4c-7.2-2.6-17.4-1.2-20.7,6.6c-3.1,7.2,0.8,17,7.7,20.3
					c6.7,3.2,17.2,0,20-7.1c2.8-7.2,0.5-16.1-6.7-19.6C349.9,106.1,348.7,108.3,350.1,109z"/>
			</g>
			<path fill="#FFFFFF" d="M330.9,118.8c2.9-2,15.4-11.7,27-0.6l-0.1,4.8c0,0-7-4.5-8.7,0.4c-1.7,4.9,0,9.2,0,9.2s-7.3,0-7.3,0
				c1.8,0,1.3-7.3,0.9-8.1c-1.2-2.9-5-2.3-7.3-1c-0.5,0.3-3.3,1.7-3.1,2.6C332.3,126,330.9,118.8,330.9,118.8z"/>
		</g>
		<path fill="#F6AC40" d="M342.1,117.7c2-4.8,8.3-1.1,6,3.1C346.4,124,340.8,121,342.1,117.7z"/>
	</g>
	<g>
		<g>
			<path fill="#F6AC40" d="M227.6,125.5c10.9-3,7.8-19.4,2.3-25.9c-1.6,17.2-103.2,17.6-101.6,0.4c-3.9,4.3-6.2,11.9-5.3,17.5
				c0.4,3.1,3.1,6.8,6.1,7.7c3.6,1.1,21.5,3.5,26.8,3.7c10.4,0.4,20.9,0.7,31.3,0.8c12.5,0.1,25.8-1.6,38.1-3.6L227.6,125.5z"/>
			<g>
				<path fill="#F6AC40" d="M228.2,127.9c13-4.2,10.2-21.5,3.4-30.1c-1.5-2-4-0.1-4.3,1.8c-0.6,4.9-12.4,6.8-15.9,7.5
					c-10.8,2.4-22.1,3-33.1,3.1c-10.9,0.1-22-0.5-32.8-2.6c-3.3-0.7-15.1-2.6-14.8-7.6c0.1-2.1-2.9-3.4-4.3-1.8
					c-6.2,7.4-9.6,20.3-1.4,27.6c2.5,2.2,6.1,2.5,9.2,3c4.8,0.8,9.7,1.4,14.5,2c13.2,1.5,26.8,1.4,40.1,1.4
					C201.7,132.3,215.7,131.1,228.2,127.9c3.1-0.8,1.8-5.6-1.3-4.8c-23,5.8-47.7,4.1-71.1,3.3c-7.1-0.2-14.2-1.4-21.2-2.6
					c-4.1-0.7-7.3-1.3-9-5.8c-1.9-5.1,1.2-12.4,4.4-16.3c-1.4-0.6-2.8-1.2-4.3-1.8c-0.4,7.3,9.5,10.1,14.9,11.6
					c11.9,3.1,24.5,3.6,36.7,3.6c12.6,0,25.4-0.9,37.7-3.8c6.3-1.5,16.3-4.2,17.3-11.9c-1.4,0.6-2.8,1.2-4.3,1.8
					c4.3,5.5,7.7,18.9-1.2,21.8C223.9,124.1,225.2,128.9,228.2,127.9z"/>
			</g>
		</g>
		<path fill="#FFFFFF" d="M128.5,109.9c-1.2,2.4-1.2,3.9-0.3,6.7c1.3,3.9,9.4,7.2,12.2,7c2.5-0.1,3.4-5.1,1.9-7.9
			c-1.7-3.2-8-5.8-10.5-6.7C131.9,109.1,129.2,108.4,128.5,109.9z"/>
		<path fill="#FFFFFF" d="M232.1,109.9c1.2,2.4,1.2,3.9,0.3,6.7c-1.3,3.9-9.4,7.2-12.2,7c-2.5-0.1-3.4-5.1-1.9-7.9
			c1.7-3.2,8-5.8,10.5-6.7C228.7,109.1,231.3,108.4,232.1,109.9z"/>
		<g>
			<path fill="#FFFFFF" d="M156.3,116.3c8.5,0.5,17,1.4,25.5,1.7c8.1,0.3,16.2-0.5,24.2-0.5c1,0,1-1.5,0-1.5
				c-8.1,0.1-16.2,0.7-24.2,0.5c-8.5-0.2-17-1.2-25.5-1.7C155.3,114.7,155.3,116.2,156.3,116.3L156.3,116.3z"/>
		</g>
		<g>
			<path fill="#FFFFFF" d="M156.3,120.3c8.5,0.5,17,1.4,25.5,1.7c8.1,0.3,16.2-0.5,24.2-0.5c1,0,1-1.5,0-1.5
				c-8.1,0.1-16.2,0.7-24.2,0.5c-8.5-0.2-17-1.2-25.5-1.7C155.3,118.7,155.3,120.2,156.3,120.3L156.3,120.3z"/>
		</g>
		<g>
			<path fill="#FFFFFF" d="M156.3,124.4c8.5,0.5,17,1.4,25.5,1.7c8.1,0.3,16.2-0.5,24.2-0.5c1,0,1-1.5,0-1.5
				c-8.1,0.1-16.2,0.7-24.2,0.5c-8.5-0.2-17-1.2-25.5-1.7C155.3,122.9,155.3,124.4,156.3,124.4L156.3,124.4z"/>
		</g>
	</g>
	<g>
		<path fill="#F6AC40" d="M92.6,229.3c2.1,3,3.6,6.4,4.2,10.2c2.2,14.8-10.1,28.4-23.4,29.5c-20.5,1.8-38.8-9.9-33.2-34.9
			c2.8-13.7,12.7-23.2,30.5-19C78.5,216.9,87.4,222,92.6,229.3z"/>
		<g>
			<path fill="#FFFFFF" d="M82.5,234.1c5,9.1,0.4,20.2-9.2,23.4c-7.1,2.3-16.4-0.8-20.4-7c-4.1-6.4-1.8-16.5,3.2-21.7
				C63.6,221.1,77,227,82.5,234.1c0.6,0.8,1.9,0,1.3-0.8c-6-7.8-17.8-12.7-26.8-7.1c-7.8,4.8-9.5,17.4-5.4,25
				c4.2,7.7,15.6,9.8,23.3,7.2c10.2-3.4,13.8-16.2,8.9-25.2C83.3,232.5,82,233.3,82.5,234.1z"/>
		</g>
		<path fill="#FFFFFF" d="M80,235.9c1,1.5,1.8,3.1,2,5c1.1,7.2-4.9,13.8-11.4,14.4c-10,0.9-18.9-4.8-16.2-17
			c1.4-6.7,6.2-11.3,14.9-9.3C73.1,229.8,77.5,232.3,80,235.9z"/>
		<path fill="#F6AC40" d="M81.5,245.9c-1.7-0.4-3.9-1-5.2-2.2c-4.7-4.3,6.9-3.3,6.9-4.9c-0.4-6.3-4.6-8.6-4.6-8.6
			c-2.4-0.6-6.1,6-8.6,6.2c-4.6,0.4-0.1-7.3-2-9.4c-3.5-3.7-9.2,2.5-9.2,2.5c3.1,1,4.8,2.8,4,6.3c-1.1,4.9-5.5,3.9-9,2.4
			c0,0-2.4,2.3,0,6.9c1.3,2.5,7-1.4,8.1,1.2c0.9,2.4-1.8,6.2-2.9,7.8c0,0,4.6,5.8,7.7,2.5c1.8-1.9,0.1-6.7,1.3-8.7
			c1.1-1.9,3.6-0.6,4.6,0.9c1.3,1.9,1.3,4.4,2.2,6.4c1.7-0.6,3.9-1.4,5.1-2.9C81.3,250.8,81.4,248,81.5,245.9z"/>
	</g>
	<g>
		<g>
			<path fill="#F6AC40" d="M476.5,262.4c-0.3,2-1,9.5-1,9.5c-9.9-1.7-20.7,6.9-20,16l-32.7-1.7c0-12.4-0.3-40.4-0.3-40.4
				c3.9-1.2,8.5-1,12.5-1c4.9,0,9.8,0.1,14.8,0.4c5.8,0.4,10.5,2.4,15,6.1C468.9,254.8,472.4,258.9,476.5,262.4"/>
			<g>
				<path fill="#F6AC40" d="M475.8,262.2c-0.4,2.8-0.6,5.6-0.9,8.4c-0.1,1.5-1.5,0.2-3.4,0.3c-1.9,0.1-3.7,0.7-5.4,1.4
					c-3,1.1-6,3.3-7.9,5.9c-0.6,0.8-5.3,8.8-2.6,8.9c-10-0.5-19.9-1-29.9-1.6c-0.7,0-1.5-0.1-2.2-0.1c-1-0.1,0.2,0.1,0.2-1.2
					c0-3.9,0-7.7-0.1-11.6c-0.1-7.6-0.1-15.2-0.2-22.8c0-1,0-2,0-3.1c0-1.5-0.2-0.5,0.9-0.8c5.6-1.5,12.5-0.6,18.2-0.5
					c6.4,0.2,12.5,0.5,18.2,3.7c5.9,3.3,10.3,9.2,15.3,13.7c0.7,0.6,1.8-0.4,1.1-1.1c-7.6-6.7-13.6-14.8-24-17
					c-5.2-1.1-10.9-0.8-16.2-0.8c-4.9,0-9.8-0.2-14.6,1c-0.3,0.1-0.6,0.4-0.6,0.7c0.2,13.5,0.3,26.9,0.3,40.4c0,0.4,0.3,0.7,0.8,0.8
					c10.9,0.6,21.8,1.1,32.7,1.7c0.4,0,0.8-0.4,0.8-0.8c-0.1-9.9,10.1-16.4,19.3-15.3c0.4,0.1,0.7-0.4,0.8-0.8
					c0.3-3.1,0.5-6.2,0.9-9.3C477.4,261.7,475.9,261.3,475.8,262.2L475.8,262.2z"/>
			</g>
		</g>
		<g>
			<path fill="#FFFFFF" d="M427.3,248.4c0,4.9,0,10.9,0,15.5l42.3-0.3C461.3,249.6,443.1,248.4,427.3,248.4"/>
			<g>
				<path fill="#FFFFFF" d="M426.5,248.4c0,5.2,0,10.3,0,15.5c0,0.4,0.3,0.8,0.8,0.8c14.1-0.1,28.2-0.2,42.3-0.3
					c0.6,0,1-0.6,0.6-1.1c-9.1-14.6-27.4-15.5-42.9-15.5c-1,0-1,1.5,0,1.5c14.9,0,32.8,0.7,41.6,14.8c0.2-0.4,0.4-0.8,0.6-1.1
					c-8.4,0.1-16.7,0.1-25.1,0.2c-4.8,0-9.6,0.1-14.4,0.1c-0.9,0-1.8,0-2.7,0c1.3,0,0.7-13.1,0.7-14.7
					C428,247.4,426.5,247.4,426.5,248.4L426.5,248.4z"/>
			</g>
		</g>
		<g>
			<path fill="#FFFFFF" d="M427.6,268.4c2.1,0,4.1,0,6.5,0l1,0c0,0.8,0,1.9,0,3.1v0c-2.1,0-4.1,0-6.5,0l-1,0
				C427.6,270.6,427.6,269.5,427.6,268.4"/>
			<g>
				<path fill="#FFFFFF" d="M427.6,269.1c2.5,0,5,0.1,7.5,0c-0.2-0.2-0.5-0.5-0.8-0.8c0,1,0,2,0,3.1c0.5,0,1,0,1.5,0c0,0,0,0,0,0
					c0-0.4-0.3-0.8-0.8-0.8c-2.5,0-5-0.1-7.5,0c0.2,0.2,0.5,0.5,0.8,0.8c0-1,0-2,0-3.1c0-1-1.5-1-1.5,0c0,1,0,2,0,3.1
					c0,0.4,0.3,0.8,0.8,0.8c2.5-0.1,5,0,7.5,0c-0.2-0.2-0.5-0.5-0.8-0.8c0,0,0,0,0,0c0,1,1.5,1,1.5,0c0-1,0-2,0-3.1
					c0-0.4-0.3-0.8-0.8-0.8c-2.5,0.1-5,0-7.5,0C426.6,267.6,426.6,269.1,427.6,269.1L427.6,269.1z"/>
			</g>
		</g>
	</g>
</g>
</svg>
