<?xml version="1.0" encoding="utf-8"?>
<!-- Generator: Adobe Illustrator 17.0.0, SVG Export Plug-In . SVG Version: 6.00 Build 0)  -->
<!DOCTYPE svg PUBLIC "-//W3C//DTD SVG 1.1//EN" "http://www.w3.org/Graphics/SVG/1.1/DTD/svg11.dtd">
<svg version="1.1" id="Layer_1" xmlns="http://www.w3.org/2000/svg" xmlns:xlink="http://www.w3.org/1999/xlink" x="0px" y="0px"
	 width="348px" height="295px" viewBox="0 0 348 295" enable-background="new 0 0 348 295" xml:space="preserve">
<g>
	<g>
		<g>
			<path fill="#C6E5E7" d="M15.8,229.7c0.9,2.9,4.7,19.5,4.7,19.5c-5.9-0.9-11.6-3.1-17.9-4L15.8,229.7z"/>
		</g>
	</g>
	<g>
		<g>
			<g>
				<g>
					<path fill="#42B7BA" d="M226.3,67.8c0,38.6-31.3,69.9-69.9,69.9s-69.9-31.3-69.9-69.9S122.4,2.5,161,2.5S226.3,29.2,226.3,67.8
						z"/>
				</g>
			</g>
		</g>
		<g>
			<g>
				<path fill="#42B7BA" d="M270.8,106.5c0,25.7-18.5,43.9-44.5,43.9s-44.5-18.2-44.5-43.9S202.9,60,228.9,60
					S270.8,80.8,270.8,106.5z"/>
			</g>
			<g>
				<path fill="#FFFFFF" d="M228,151.7c-13,0-24.7-4.6-33-12.9c-8.3-8.3-14.2-21.4-14.2-34.3c0-26.8,23.1-45.9,49.9-45.9
					c25.4,0,43.2,18.6,43.2,47.2c0,13-4.6,24.7-12.9,33C252.7,147.1,241,151.7,228,151.7z M229.8,59.9c-25.3,0-45.9,20.6-45.9,45.9
					c0,25.5,17.8,43.2,43.2,43.2s43.2-17.8,43.2-43.2C270.4,78.8,253.7,59.9,229.8,59.9z"/>
			</g>
		</g>
		<g>
			<g>
				<path fill="#C6E5E7" d="M163.3,82c6.5,22.5,50.2,183.4,59.1,205.7c0,0,105.2-48.2,122.1-55.4L163.3,82z"/>
			</g>
		</g>
		<g>
			<g>
				<path fill="#C6E5E7" d="M45.5,255.5c-5.8-1.2-14.2-3.9-19.5-4.7c-2-6.2-5.5-21.1-6.5-25.2c3.6-4.9,8.6-10.7,12.8-16.3
					C33.6,215,43.9,249.3,45.5,255.5z"/>
			</g>
		</g>
		<g>
			<g>
				<path fill="#C6E5E7" d="M69.3,261.3c-5.8-1.2-14.2-3.9-19.5-4.7c-3-8-12.2-42.7-14.6-51c5.2-5.3,9.7-9.2,14.6-14.5
					C51.1,198.5,67.5,257.8,69.3,261.3z"/>
			</g>
		</g>
		<g>
			<g>
				<path fill="#C6E5E7" d="M91.5,267.4c-5.8-1.2-12.2-3.9-17.5-4.7c-2.9-7.8-19.3-66.3-21.7-74.9c5.2-5.3,9.7-9.2,14.6-14.5
					C68.1,180.6,89.7,263.8,91.5,267.4z"/>
			</g>
		</g>
		<g>
			<g>
				<path fill="#C6E5E7" d="M114,269.7c-5.2,0-12.5-1.5-17.8-2.3c-2.9-7.8-24.5-90-27-98.6c5.2-5.3,8.8-8.3,13.7-13.6
					C85,163.3,112.3,266.2,114,269.7z"/>
			</g>
		</g>
		<g>
			<g>
				<path fill="#C6E5E7" d="M136.1,274.4c-5.8-1.2-12.2-3-17.5-3.8c-2.9-7.8-30.8-110.2-33.2-118.7c5.2-5.3,9.7-9.2,14.6-14.5
					C101.2,144.7,134.3,270.8,136.1,274.4z"/>
			</g>
		</g>
		<g>
			<g>
				<path fill="#C6E5E7" d="M160.4,279.1c-5.8-1.2-15.2-1.8-20.5-2.6c-2.9-7.8-36-135.1-38.5-143.7c5.2-5.3,9.7-9.2,14.6-14.5
					C117.2,125.6,158.6,275.5,160.4,279.1z"/>
			</g>
		</g>
		<g>
			<g>
				<path fill="#C6E5E7" d="M184.8,285.2c-5.8-1.2-14.5-3-19.8-3.8c-2.9-7.8-43.9-156.7-46.4-165.3c5.2-5.3,9.7-9.2,14.6-14.5
					C134.4,108.9,183,281.7,184.8,285.2z"/>
			</g>
		</g>
		<g>
			<g>
				<path fill="#C6E5E7" d="M196.5,243.9c-1.8,5.4-9.9,12.4-15.2,11.7c-2.9-7.8-44-148.6-46.4-157.2c5.2-5.3,11.8-11,16.8-16.3
					C152.9,89.4,194.7,240.3,196.5,243.9z"/>
			</g>
		</g>
		<g>
			<path fill="#42B7BA" d="M196.2,244.2c-4,9-12.2,16.9-24.4,16.9c-16.6,0-27.1-10.7-38.1-21.2c11.6-4.2,27.3-6.8,35.7-16.7
				C171.8,229.7,187.8,255.1,196.2,244.2z"/>
			<path fill="#42B7BA" d="M171.8,261.1c-7.2,0-13.9-2-20.5-6.2c-5.9-3.7-11.2-8.8-16.4-13.8c-0.4-0.4-0.9-0.8-1.3-1.2l-0.1-0.1
				l0.1,0c2.7-1,5.5-1.8,8.5-2.8c9.7-3,20.7-6.3,27.1-13.9l0.1-0.1l0,0.1c1.1,2.9,4.5,8.9,8.4,13.8c6.4,8.1,10.8,9.8,13.4,9.8
				c1.9,0,3.5-0.9,4.9-2.7l0.3-0.3l-0.2,0.4c-2.1,4.8-5.3,8.9-9.1,11.8C182.7,259.4,177.5,261.1,171.8,261.1z M133.8,239.9
				c0.4,0.4,0.8,0.8,1.2,1.2c5.2,4.9,10.5,10,16.4,13.8c6.6,4.2,13.3,6.2,20.4,6.2c5.7,0,10.8-1.7,15.2-5.1
				c3.7-2.8,6.8-6.8,8.9-11.4c-1.3,1.6-2.9,2.4-4.7,2.4c-2.6,0-7-1.7-13.5-9.8c-3.9-4.9-7.3-10.9-8.4-13.8
				c-6.5,7.6-17.5,10.9-27.1,13.9C139.3,238.1,136.4,239,133.8,239.9z"/>
		</g>
	</g>
</g>
</svg>
