<?xml version="1.0" encoding="utf-8"?>
<!-- Generator: Adobe Illustrator 17.0.0, SVG Export Plug-In . SVG Version: 6.00 Build 0)  -->
<!DOCTYPE svg PUBLIC "-//W3C//DTD SVG 1.1//EN" "http://www.w3.org/Graphics/SVG/1.1/DTD/svg11.dtd">
<svg version="1.1" id="Layer_1" xmlns="http://www.w3.org/2000/svg" xmlns:xlink="http://www.w3.org/1999/xlink" x="0px" y="0px"
	 width="133.9px" height="125.2px" viewBox="0 0 133.9 125.2" enable-background="new 0 0 133.9 125.2" xml:space="preserve">
<g>
	<circle fill="#F24E7D" cx="29.2" cy="74.6" r="6.1"/>
	<circle fill="#F24E7D" cx="41.5" cy="62.9" r="5"/>
	<circle fill="#F24E7D" cx="13.1" cy="74.6" r="5"/>
	<circle fill="#F24E7D" cx="27.3" cy="40.2" r="5"/>
	<circle fill="#F24E7D" cx="97.7" cy="85.7" r="5"/>
	<circle fill="#F24E7D" cx="82.5" cy="117.6" r="5.6"/>
	<circle fill="#F24E7D" cx="93.5" cy="36.1" r="5"/>
	<circle fill="#F24E7D" cx="85.9" cy="74.6" r="5.5"/>
	<circle fill="#F24E7D" cx="115.2" cy="87.4" r="4.4"/>
	<circle fill="#F24E7D" cx="104.6" cy="47.5" r="4.4"/>
	<circle fill="#F24E7D" cx="117" cy="36.1" r="4.4"/>
	<circle fill="#F24E7D" cx="54.6" cy="29.1" r="5"/>
	<circle fill="#F24E7D" cx="59.5" cy="9.3" r="5"/>
	<circle fill="#F24E7D" cx="15.8" cy="26.9" r="5"/>
	<circle fill="#F24E7D" cx="85.2" cy="98.9" r="6.3"/>
	<circle fill="#F24E7D" cx="41.1" cy="102.8" r="6.3"/>
	<circle fill="#F24E7D" cx="85.2" cy="53.8" r="6.3"/>
	<circle fill="#F24E7D" cx="127.7" cy="76" r="6.3"/>
	<circle fill="#F24E7D" cx="105.5" cy="67.2" r="7.1"/>
	<circle fill="#F24E7D" cx="104.6" cy="105.1" r="7.1"/>
	<circle fill="#F24E7D" cx="54.9" cy="118.1" r="7.1"/>
	<circle fill="#F24E7D" cx="6.3" cy="51.5" r="6.3"/>
	<circle fill="#F24E7D" cx="19.3" cy="95.8" r="6.3"/>
	<circle fill="#F24E7D" cx="46.1" cy="45.7" r="6.3"/>
	<circle fill="#F24E7D" cx="121.4" cy="56.6" r="6.3"/>
	<circle fill="#F24E7D" cx="66.9" cy="84.5" r="6.3"/>
	<circle fill="#F24E7D" cx="104.6" cy="22" r="6.3"/>
	<circle fill="#F24E7D" cx="33.6" cy="16.9" r="6.3"/>
	<circle fill="#F24E7D" cx="43.4" cy="85.7" r="4.4"/>
	<circle fill="#F24E7D" cx="23.1" cy="54.3" r="4.4"/>
	<g>
		<circle fill="#FFFFFF" cx="62.8" cy="101.8" r="5.8"/>
		<path fill="#FFFFFF" d="M77.6,1.9c0,0-6.2,17.4-7.2,20.1c-0.9,2.6-5.1,12.8-5.1,12.8s-1.3,2.9-2.1,4.6s-1.1,3.3-1.1,3.3
			s-2.2,6.7-3.2,8.1c-1.8,2.6-3,5.6-4.4,8.4c-1.1,2.3-2.4,4.9-3.7,7.3c-0.5,1,1,12.5,2.1,12.4c0.7-0.1,0.9-1.2,0.9-1.2s0,0,0.4-0.2
			c0.6-0.3,0.7-2.1,0.7-2.1S55,76,55.7,75.8c0.7-0.2,1.8-0.3,2.1-3.8c0.3-3.5,0.3-5.5,0.3-5.5s1.2-3.8,1.6-4.2s0.9-0.9,0.9-0.9
			s0.3,2.3,0.5,2.9c0,0,0.6,1.1,0.7,2.9c0.1,1.8,0.3,3,1.1,2.6c0.8-0.3,1.6-1.1,0.9-5.3c-0.6-4.1-0.8-3.4-0.3-4.7
			c0.5-1.2,0.7-1.9,0.7-1.9s3,0.1,3.4,1c0.3,0.9,3.1,7.8,4,8.6c0.9,0.9,2.6,1.6,3,0.4s0.2-1.1-1-4.7c-1.2-3.6-2.7-7.7-2.7-9.3
			s-0.3-3.5-0.8-5.5c-0.5-2-1.8-2.2-0.1-5.3c1.8-3.1,12.1-18.8,15.2-24.6C88.3,13,94.7,0,94.7,0L77.6,1.9z"/>
	</g>
</g>
</svg>
