<?xml version="1.0" encoding="utf-8"?>
<!-- Generator: Adobe Illustrator 17.0.0, SVG Export Plug-In . SVG Version: 6.00 Build 0)  -->
<!DOCTYPE svg PUBLIC "-//W3C//DTD SVG 1.1//EN" "http://www.w3.org/Graphics/SVG/1.1/DTD/svg11.dtd">
<svg version="1.1" id="Layer_1" xmlns="http://www.w3.org/2000/svg" xmlns:xlink="http://www.w3.org/1999/xlink" x="0px" y="0px"
	 width="598.5px" height="514.5px" viewBox="-28.6 -24.7 598.5 514.5" enable-background="new -28.6 -24.7 598.5 514.5"
	 xml:space="preserve">
<g>
	<g>
		<g>
			<g>
				<path fill="#F7AC40" d="M480.7,144.7c-3,18.1-8.9,87.8-8.9,87.8c-91.5-16-191.9,63.9-186,149l-304.1-16c0-115.4-3-375.1-3-375.1
					C15-21.1,57.8-18.8,95.3-19c45.7-0.2,91.5,0.9,137.1,4c54.2,3.7,97.4,21.9,139.2,56.4C410.2,73.4,442.7,112.1,480.7,144.7"/>
			</g>
			<g>
				<g>
					<path fill="#F7AC40" d="M479.7,144.5c-3.6,22.8-5.2,46-7.2,68.9c-0.4,4.5-0.8,8.9-1.2,13.4c-0.1,1.3-0.2,2.7-0.3,4
						c-0.2,2.7,0.2,0.6-0.8,0.4c-15.3-2.5-30.9-2.2-46.2,0.2c-60.7,9.2-119.9,55-135.9,115.5c-1.1,4-6.3,33.4-2.5,33.6
						c-2.6-0.1-5.1-0.3-7.7-0.4c-13.5-0.7-27.1-1.4-40.6-2.1c-44.4-2.3-88.8-4.7-133.2-7c-36.6-1.9-73.2-3.8-109.8-5.8
						c-3.6-0.2-7.2-0.4-10.8-0.6c-0.6,0-1.1-0.1-1.7-0.1c1.8,0.1,1-12.8,1-14.9c-0.1-26.7-0.2-53.5-0.4-80.2
						c-0.6-92.6-1.5-185.1-2.6-277.7c0-2.3,1.4-0.9,3.9-1.6c11-3.2,22.5-5,33.9-6.2c20.9-2.2,42.1-1.9,63.1-1.8
						c46,0.2,91.8,0.5,137.7,3.2c40.1,2.4,77.8,10,113.2,29.8c36.6,20.4,66.5,50.9,95.8,80.4c17.1,17.1,34.2,34.3,52.5,50.1
						c1,0.9,2.6-0.6,1.5-1.5C421.2,92,372.6,23.1,294.7-3.9C256-17.3,214.2-17.6,173.7-19c-44.3-1.5-89-2.2-133.3-0.7
						c-20.9,0.7-41.9,3-61.9,9.2c-0.5,0.1-0.8,0.5-0.8,1c1,86.4,1.8,172.9,2.4,259.3c0.3,38.6,0.5,77.2,0.5,115.8
						c0,0.6,0.5,1,1.1,1.1c69.3,3.6,138.6,7.3,207.9,10.9c32.1,1.7,64.2,3.4,96.2,5.1c0.6,0,1.1-0.5,1.1-1.1
						c-2.7-44.2,22.2-83.9,55.4-111c35.6-29.1,83.5-44.6,129.3-36.9c0.7,0.1,1.3-0.3,1.4-1c2.5-29.1,4.2-58.6,8.8-87.5
						C482,143.7,479.9,143.1,479.7,144.5L479.7,144.5z"/>
				</g>
			</g>
		</g>
		<g>
			<g>
				<path fill="#FFFFFF" d="M23.1,14.4c0,45.2,0,101.1,0,143.7l392.7-2.7C339,25,170.7,14.4,23.1,14.4"/>
			</g>
			<g>
				<g>
					<path fill="#FFFFFF" d="M22,14.4c0,47.9,0,95.8,0,143.7c0,0.6,0.5,1.1,1.1,1.1c62.4-0.4,124.7-0.8,187.1-1.3
						c68.2-0.5,136.3-0.9,204.5-1.4c0.4,0,0.8,0,1.1,0c0.8,0,1.3-0.9,0.9-1.6C347.3,38.2,203.1,17.7,79.2,14
						c-18.7-0.6-37.4-0.7-56.1-0.7c-1.4,0-1.4,2.1,0,2.1c67.5,0,135.6,1.9,201.7,16.5c62.9,13.8,123.6,41.1,166.3,90.6
						c8.9,10.4,16.8,21.6,23.7,33.4c0.3-0.5,0.6-1.1,0.9-1.6c-62.4,0.4-124.7,0.8-187.1,1.3c-68.2,0.5-136.3,0.9-204.5,1.4
						c-0.3,0-0.6,0-1,0c1.6,0,0.9-8.5,0.9-10c0-14.4,0-28.9,0-43.3c0-29.7,0-59.5,0-89.2C24.1,13,22,13,22,14.4L22,14.4z"/>
				</g>
			</g>
		</g>
		<g>
			<g>
				<path fill="#FFFFFF" d="M26,200c19.8,0,38.2,0,60.2,0l9.4-0.4c0,7.1,0,17.7,0,28.4v-0.4c-19.8,0-38.2,0-60.2,0l-9.4,0.4
					c0-7.1,0-17.7,0-28.4"/>
			</g>
			<g>
				<g>
					<path fill="#FFFFFF" d="M26,201.1c18.2,0,36.5,0,54.7,0c4.9,0,9.7-0.2,14.5-0.4c-1.7,0.1-0.8,24.8-0.8,27.3c0.7,0,1.4,0,2.1,0
						c0-0.1,0-0.3,0-0.4c0-0.6-0.5-1.1-1.1-1.1c-18.2,0-36.5,0-54.7,0c-4.9,0-9.7,0.2-14.5,0.4c1.7-0.1,0.8-24.8,0.8-27.3
						c0-1.4-2.1-1.4-2.1,0c0,9.5,0,18.9,0,28.4c0,0.6,0.5,1.1,1.1,1.1c6.9-0.3,68.5-0.2,68.5-1.1c0,1.4,2.1,1.4,2.1,0
						c0-9.5,0-18.9,0-28.4c0-0.6-0.5-1.1-1.1-1.1c-23.1,1.1-46.4,0.4-69.5,0.4C24.6,198.9,24.6,201.1,26,201.1L26,201.1z"/>
				</g>
			</g>
		</g>
	</g>
	<g>
		<g>
			<path fill="#F6AC40" d="M422.5,467.2c-38.8-14.3-64.4-47.1-65.2-83.5l7.1-0.2c0.7,33.5,24.5,63.7,60.5,77L422.5,467.2z"/>
		</g>
		<g>
			<path fill="#F6AC40" d="M372.3,357.8l-6.6-2.7c10.5-25.5,26.5-44.1,46.2-54c17.7-8.8,37.8-10.5,58.1-4.9l-1.9,6.9
				c-18.6-5.1-37-3.6-53.1,4.4C396.7,316.7,382.3,333.6,372.3,357.8z"/>
		</g>
		<g>
			<path fill="#F6AC40" d="M548.7,382.5c-0.7-33.5-24.5-63.7-60.5-77l2.5-6.7c38.8,14.3,64.4,47.1,65.2,83.5L548.7,382.5z"/>
		</g>
		<g>
			<path fill="#F6AC40" d="M469.3,473.6c-7.7,0-15.5-1.1-23.4-3.2l1.9-6.9c18.6,5.1,37,3.6,53.1-4.4c18.5-9.2,32.9-26.1,42.8-50.3
				l6.6,2.7c-10.5,25.5-26.5,44.1-46.2,54C493.2,470.9,481.4,473.6,469.3,473.6z"/>
		</g>
		<g>
			<path fill="#F6AC40" d="M553,390.6l-2.5-2.1c-3.7-3.2-12.5-12.5-15.1-15.2l5.2-4.9c4,4.3,8.9,9.3,12.1,12.5
				c3-2.9,7.4-7.2,10.4-10.7l5.4,4.7c-3.7,4.3-9.3,9.7-12.2,12.5L553,390.6z"/>
		</g>
		<g>
			<path fill="#F6AC40" d="M456.3,484.1c-2.8-2.6-12-11.3-15.2-15.1l-2.1-2.5l3.2-3.3c2.9-3,8.2-8.5,12.5-12.2l4.7,5.4
				c-3.5,3-7.8,7.3-10.7,10.4c3.2,3.3,8.2,8.1,12.5,12.1L456.3,484.1z"/>
		</g>
		<g>
			<path fill="#F6AC40" d="M460.4,315.8l-4.7-5.4c3.5-3,7.8-7.3,10.7-10.4c-3.2-3.3-8.2-8.1-12.5-12.1l4.9-5.2
				c2.8,2.6,12,11.3,15.2,15.1l2.1,2.5l-3.2,3.3C470.1,306.5,464.7,312,460.4,315.8z"/>
		</g>
		<g>
			<path fill="#F6AC40" d="M349.2,397l-5.2-4.9c2.6-2.8,11.3-12,15.1-15.2l2.5-2.1l3.3,3.2c3,2.9,8.5,8.2,12.3,12.6l-5.4,4.7
				c-3-3.5-7.3-7.8-10.4-10.7C358.1,387.7,353.3,392.7,349.2,397z"/>
		</g>
	</g>
</g>
</svg>
