<?xml version="1.0" encoding="utf-8"?>
<!-- Generator: Adobe Illustrator 17.0.0, SVG Export Plug-In . SVG Version: 6.00 Build 0)  -->
<!DOCTYPE svg PUBLIC "-//W3C//DTD SVG 1.1//EN" "http://www.w3.org/Graphics/SVG/1.1/DTD/svg11.dtd">
<svg version="1.1" id="Layer_1" xmlns="http://www.w3.org/2000/svg" xmlns:xlink="http://www.w3.org/1999/xlink" x="0px" y="0px"
	 width="556.5px" height="587px" viewBox="0 0 556.5 587" enable-background="new 0 0 556.5 587" xml:space="preserve">
<g>
	<path fill="#B88DBD" d="M90.7,16.7c0,0,62.5,1.8,89.3,9.8s25,7.1,25,7.1l126.9,7.1c0,0,36.6,14.3,64.3,19.7
		c27.7,5.4,50.9,8.9,50.9,8.9l101.9-8l4.5,97.4l-19.7,148.3l3.6,127.8c0,0-7.1,45.6-21.4,75.1c-14.3,29.5-25.9,47.4-25.9,47.4
		s-99.2,26.8-108.1,26.8s-12.5,0-12.5,0l-104.5-28.6l-128.7-1.8l-121.5-34c0,0,4.5-132.2,4.5-140.7l28.1-97.4l2.2-14.3
		c0,0,14.3-112.1,14.7-117.9c0,0,22.3-90.2,24.1-103.2S90.7,16.7,90.7,16.7z"/>
</g>
<g>
	<g>
		<path fill="#FFFFFF" d="M78.4,3.3c0,0,61.4,1.8,87.7,9.6s24.5,7,24.5,7l124.5,7c0,0,35.9,14,63.1,19.3c27.2,5.3,50,8.8,50,8.8
			l99.9-7.9l4.4,95.6l-19.3,145.5l3.5,125.4c0,0-7,44.7-21,73.6c-14,28.9-25.4,46.5-25.4,46.5S373,560,364.2,560s-12.3,0-12.3,0
			l-102.6-28.1l-126.3-1.8L3.9,496.9c0,0,4.4-129.8,4.4-138.1l27.6-95.6l2.2-14c0,0,14-110,14.5-115.7c0,0,21.9-88.6,23.7-101.3
			C78,19.5,78.4,3.3,78.4,3.3z"/>
		<path fill="#995CA0" d="M364.2,560.8h-12.4l-0.1,0l-102.5-28L123,530.9l-0.1,0L3.1,497.4l0-0.6c0-1.3,4.4-129.8,4.4-138.1v-0.1
			l0-0.1L35.1,263l2.2-14c0.1-1.1,14-110.1,14.5-115.7l0-0.1c0.2-0.9,21.9-88.7,23.7-101.2c1.7-12.5,2.2-28.7,2.2-28.8l0-0.8l0.8,0
			c0.6,0,61.8,1.8,87.9,9.7c18.8,5.6,23.1,6.8,24.1,7l0.3,0l124.6,7l0.1,0c0.4,0.1,36.2,14.1,63,19.2c26,5,48.3,8.5,49.9,8.7
			l100.7-7.9l4.4,96.4L514,288.2l3.5,125.4l0,0.1c-0.1,0.4-7.2,45.2-21.1,73.9c-13.9,28.6-25.4,46.4-25.5,46.6l-0.2,0.2l-0.3,0.1
			C466.5,535.5,373,560.8,364.2,560.8z M352,559.2h12.2c8.3,0,99.7-24.6,105.6-26.2c1.4-2.2,12.3-19.4,25.2-46.1
			c13.6-28,20.6-71.3,21-73.4l-3.5-125.4l0-0.1l19.3-145.5l-4.3-94.7l-99.2,7.8l-0.1,0c-0.2,0-23.1-3.6-50-8.8
			c-26.2-5.1-60.9-18.4-63.1-19.3l-123.9-7l-0.4,0c-0.8,0-9.1-2.4-24.8-7.1c-24.3-7.3-79.5-9.3-86.7-9.6C79,7.4,78.5,21.3,77,32.3
			c-1.7,12.5-22.6,96.9-23.7,101.3c-0.5,6.3-13.9,111.2-14.5,115.7l-2.2,14.1L9,358.9c0,8.9-4,127.8-4.4,137.4l118.6,33.1l126.2,1.8
			l0.1,0L352,559.2z"/>
	</g>
	<g>
		<polygon fill="#995CA0" points="122.7,530.2 122,393.9 122,393.9 153.6,281.6 162.9,152 190.2,19.8 191,20 163.7,152.1 
			154.4,281.7 154.3,281.7 122.8,394 123.5,530.2 		"/>
	</g>
	<g>
		<polygon fill="#995CA0" points="438.1,186.3 438,186.3 314.1,174.6 163.3,152.4 52.5,133.8 52.6,133.1 163.4,151.6 314.2,173.8 
			438,185.5 532.4,142.3 532.7,143 		"/>
	</g>
	<g>
		<polygon fill="#995CA0" points="396,305.4 395.9,305.4 255.6,293.8 153.9,282 153.8,282 40.3,230.8 40.6,230.1 154.1,281.2 
			255.7,293.1 395.9,304.6 513.2,287.8 513.3,288.6 		"/>
	</g>
	<g>
		<polygon fill="#995CA0" points="249.7,532 249,531.9 267.8,408 271.4,294.8 287.7,170.3 310.4,26.6 311.2,26.7 288.5,170.4 
			272.1,294.8 268.6,408 		"/>
	</g>
	<g>
		<polygon fill="#995CA0" points="352.3,560.1 351.6,559.9 373.4,436 395.6,304.9 395.6,304.9 437.6,185.9 427.8,55 428.6,55 
			438.4,186 438.4,186 396.3,305.1 374.1,436.1 		"/>
	</g>
	<g>
		<polygon fill="#995CA0" points="375.1,428.3 375.1,428.3 268.1,408.4 122.3,394.4 122.3,394.4 8.1,359.1 8.4,358.4 122.5,393.6 
			268.3,407.6 375.1,427.5 516.7,413.2 516.8,414 		"/>
	</g>
</g>
<g>
	<g>
		<g>
			<path fill="#995CA0" d="M254.3,472.5c-0.2,1.9-0.5,3.8-0.7,5.6c-0.2,1.3,1.9,1.3,2.1,0c0.2-1.9,0.5-3.8,0.7-5.6
				C256.6,471.2,254.5,471.2,254.3,472.5L254.3,472.5z"/>
		</g>
	</g>
	<g>
		<path fill="#E85080" d="M133.9,311.9c2.8,0.4,5.6,0.7,8.5,1.1"/>
	</g>
	<g>
		<g>
			<g>
				<g>
					<path fill="#995CA0" d="M347.7,259.1c2.7,9.2,9.5,16.9,16.9,22.7c7.6,6,17,10.6,26.8,10.8c9.6,0.2,17.6-5.7,22-13.9
						c3.7-6.8,2-14.3-3.4-19.6c-4.3-4.3-11.4-7.6-17.6-6.8c-5.4,0.8-7.7,5.9-5.6,10.8c2.6,5.8,10.2,8.7,15.8,10.3
						c7.3,2,15.6,2.3,22.6-0.5c5.7-2.2,9-6.5,10.6-12.3c1.6-5.7,1-12.1-4-15.9c-4.7-3.6-11.1-4.1-16.8-3.7c-6.4,0.5-13,2.5-18.3,6.1
						c-0.7,0.5-0.6,1.3,0,1.8c7.5,5.5,16.7,8.3,26,7c7.9-1.1,15.2-6.1,18.3-13.6c3.3-8.1,2.2-18.9-2.2-26.4
						c-4-6.7-11.2-11.2-18.5-13.5c-6.4-2-14.2-2.7-20.2,0.6c-6,3.3-6.9,10.6-4.5,16.5c3.1,7.2,11.5,6.9,17.8,4.7
						c8.1-2.8,15.5-8.7,20.4-15.6c13.7-19.4-10.9-38-22.9-50.1c-0.9-0.9-2.4,0.5-1.5,1.5c8.5,8.5,18.7,16.1,23.9,27.2
						c2.3,4.8,3.1,10.7,1.2,15.7c-1.5,4-4.5,7.5-7.6,10.4c-5.7,5.5-15,11.6-23.3,10.2c-7.4-1.3-9.6-11.9-4.8-17
						c4.8-5.1,13.9-4.1,19.9-2.4c7.8,2.2,15.4,7.1,19.1,14.5c2.2,4.4,2.9,10,2.8,14.8c-0.1,4.7-1.6,9.3-4.6,13
						c-5.7,7.1-15.6,8.8-24.1,7.2c-5.2-1-10-3.3-14.2-6.5c0,0.6,0,1.2,0,1.8c6.8-4.5,15.5-6.5,23.6-5.8c3.6,0.3,7.4,1.5,10.1,4
						c3,2.8,3.5,6.9,2.9,10.7c-0.7,4.1-2.3,8-5.5,10.7c-2.8,2.4-6.6,3.5-10.3,4.1c-7.7,1.2-16.3-0.4-23.2-4.1
						c-3.9-2.1-11-8.3-5.8-12.9c2-1.8,5.6-1.4,8-0.8c3.5,0.8,6.8,2.5,9.6,4.7c2.9,2.3,5,5.4,5.9,9c1,4.4-0.9,8.8-3.4,12.3
						c-3.1,4.3-7.1,7.7-12.1,9.1c-4.7,1.4-9.8,0.8-14.4-0.5c-7.9-2.2-15.1-6.8-21-12.3c-5.5-5-10.4-11.3-12.5-18.5
						C349.4,257.3,347.4,257.8,347.7,259.1L347.7,259.1z"/>
				</g>
			</g>
			<g>
				<g>
					<path fill="#995CA0" d="M359,141.8c3.4-3.8,7.9-6,12.3-8.3c1.2-0.6,0.1-2.4-1-1.8c-4.6,2.3-9.2,4.7-12.8,8.6
						C356.6,141.3,358.1,142.7,359,141.8L359,141.8z"/>
				</g>
			</g>
			<g>
				<g>
					<path fill="#995CA0" d="M389.3,127.2c5.7-3.3,10.4-7.7,14.7-12.6c0.9-1-0.6-2.5-1.5-1.5c-4.2,4.8-8.8,9.1-14.3,12.3
						C387.1,126.1,388.2,127.9,389.3,127.2L389.3,127.2z"/>
				</g>
			</g>
			<g>
				<g>
					<path fill="#995CA0" d="M369.8,132.9c1.4,5.3,4.1,10.4,9.1,12.9c3.8,1.9,8.3,1.6,12.1-0.2c3.3-1.6,6-4.7,6.4-8.4
						c0.5-4.9-3-8.9-6.7-11.6c-1.1-0.8-2.1,1-1,1.8c3.1,2.3,6.3,5.7,5.7,9.9c-0.5,3.1-3,5.4-5.7,6.7c-3.1,1.5-7,1.4-10.1-0.2
						c-4.4-2.2-6.7-7-7.8-11.5C371.4,131.1,369.5,131.6,369.8,132.9L369.8,132.9z"/>
				</g>
			</g>
			<g>
				<g>
					<path fill="#995CA0" d="M354.4,140.9c3.2,8.7,12.3,15,20,19.3c8.4,4.7,18.2,8.2,27.7,5.1c8.5-2.8,14.8-8.8,14.7-18.1
						c-0.1-8.8-4.9-17.3-9.1-24.7c-1.2-2.1-2.5-4.2-3.8-6.3c-0.7-1.1-2.5-0.1-1.8,1c7.5,12.3,22,34.6,3.6,44.4
						c-4.3,2.3-8.9,3.4-13.7,2.8c-5.2-0.6-10.2-2.7-14.8-5c-4.6-2.3-8.9-5.3-12.8-8.7c-3.2-2.8-6.5-6.2-8-10.3
						C355.9,139.2,354,139.7,354.4,140.9L354.4,140.9z"/>
				</g>
			</g>
			<g>
				<g>
					<path fill="#995CA0" d="M408.1,164.3c13.6,5,19.5,19.2,17.1,32.9c-0.9,5.3-3.1,10.7-7.2,14.3c-4.2,3.7-9.5,3.2-14.1,0.4
						c0,0.6,0,1.2,0,1.8c4.7-3.6,10.3-4.7,15.6-1.7c4.8,2.8,8.1,8,9.8,13.2c1.7,5.2,1.9,11.2-0.7,16.1c-3.3,6.2-10.6,7.7-17,7.4
						c0.2,0.6,0.3,1.3,0.5,1.9c4.2-2,15.4-4.4,15,3.5c-0.2,3.7-4,7.1-6.7,9.1c-1.7,1.2-3.6,2-5.6,2.7c-7.5,2.4-22.3,2.3-18.8-9.4
						c-0.5,0.2-1,0.4-1.5,0.6c10.6,7.4,9.8,27.9-5.5,28.4c-7.1,0.2-13.2-5.4-17.8-10.1c-4.6-4.8-8.6-10.2-13.4-14.8
						c-1-0.9-2.4,0.5-1.5,1.5c9.9,9.3,20.2,28.8,36.5,24.9c6.5-1.5,10.4-7.9,10.9-14.2c0.6-6.8-2.7-13.6-8.3-17.5
						c-0.6-0.4-1.3,0-1.5,0.6c-1.6,5.4,0,10.1,5.4,12.2c5.4,2.2,12.4,1.1,17.7-0.9c5.8-2.2,13.2-8.4,11.9-15.3
						c-0.5-2.8-3.2-4.4-5.7-5.1c-4.1-1.1-8.6,0.3-12.3,2c-1,0.5-0.4,1.9,0.5,1.9c6.8,0.3,13.7-1.3,17.9-7c3.5-4.7,3.7-11.1,2.5-16.6
						c-2.3-10.8-12.4-22.7-24.5-17.8c-1.6,0.7-3.1,1.6-4.5,2.6c-0.6,0.5-0.7,1.3,0,1.8c4.9,3.1,10.7,3.6,15.5,0.1
						c4.9-3.6,7.5-9.8,8.7-15.6c3-14.9-3.8-30.5-18.5-35.9C407.4,161.8,406.9,163.8,408.1,164.3L408.1,164.3z"/>
				</g>
			</g>
		</g>
		<g>
			<g>
				<g>
					<path fill="#995CA0" d="M240.6,372.7c-5.7-1.2-13-2.3-18.2,1.2c-3,2-4,5.7-2.8,9c1.3,3.6,4.6,6.3,8.3,7.3
						c5.2,1.5,10.5-0.9,14.5-4.2c0.5-0.4,0.3-1.3-0.2-1.6c-4.3-2.5-10-5-15-3.1c-3.3,1.3-4.9,4.6-4.7,7.9c0.2,4,2.8,7.5,6,9.7
						c5,3.4,11.6,3.3,17.3,2.1c0.8-0.2,1.1-1.5,0.2-1.9c-6.5-2.8-14.2-5.3-21.2-3c-4.2,1.4-7.4,4.9-8.1,9.3
						c-0.6,3.9,0.8,8.1,3.9,10.6c3.9,3.2,9.1,2.5,13.4,0.5c0.8-0.4,0.5-1.7-0.2-1.9c-8.1-2.3-15.1-0.2-20.4,6.4
						c-0.4,0.5-0.4,1,0,1.5c6.4,8,17,9.4,24.2,1.5c0.4-0.5,0.4-1.3-0.2-1.6c-5.1-2.8-12.3-6.5-18.1-3.7c-3.8,1.9-4.7,6.6-4.4,10.4
						c0.7,7,7.6,18.6,15.4,11.2c1.2-1.2,2.2-2.7,3-4.2c0.3-0.5,0.1-1.1-0.4-1.4c-5.2-2.7-11-4.2-16.8-3c-5.4,1.1-9.3,5.2-11.3,10.2
						c-0.2,0.4,0.1,0.9,0.5,1.2c4.9,3.2,10,4.2,15.7,5c1.3,0.2,1.3-1.9,0-2.1c-5.3-0.7-10.1-1.7-14.6-4.7c0.2,0.4,0.3,0.8,0.5,1.2
						c4.4-10.7,16.2-10.6,25.1-6c-0.1-0.5-0.2-0.9-0.4-1.4c-1.7,3.1-4.8,7.1-8.7,4.9c-3.2-1.8-4.9-5.9-5.7-9.3
						c-0.7-3.3-0.6-7.8,2.5-9.8c4.8-3.3,12.5,1,16.7,3.3c-0.1-0.5-0.1-1.1-0.2-1.6c-6.5,7.1-15.5,5.7-21.3-1.5c0,0.5,0,1,0,1.5
						c4.9-6,11-8,18.4-5.8c-0.1-0.6-0.2-1.3-0.2-1.9c-3.5,1.6-7.9,2.3-11.1-0.3c-2.5-2.1-3.6-5.6-3.1-8.7
						c1.9-12.4,18.8-8.1,26.2-4.8c0.1-0.6,0.2-1.3,0.2-1.9c-7.7,1.7-19,0.2-20.6-9.3c-0.5-2.7,0.8-5.6,3.4-6.6
						c4.3-1.7,9.5,0.9,13.1,3c-0.1-0.5-0.1-1.1-0.2-1.6c-5.8,4.7-15.5,6.1-19.2-2c-1.2-2.6-0.4-5.5,2-7.1c4.5-3.1,11.4-1.8,16.4-0.8
						C241.4,375,241.9,373,240.6,372.7L240.6,372.7z"/>
				</g>
			</g>
			<g>
				<g>
					<path fill="#995CA0" d="M206.9,473.7c-1.2-5.3-0.5-10.7,3.1-14.9c3.2-3.6,7.9-5.6,12.7-5.8c4.8-0.2,9.4,1.7,12.5,5.4
						c4.5,5.3,4.6,13.2,3.5,19.7c0.3-0.3,0.7-0.5,1-0.8c-11.9,1.3-23.7-1.6-35.4-3.1c-1.3-0.2-1.3,1.9,0,2.1
						c11.8,1.6,23.5,4.4,35.4,3.1c0.4,0,0.9-0.3,1-0.8c1.1-7.1,1-15.2-3.6-21.1c-3.5-4.5-8.8-6.7-14.4-6.6
						c-5.3,0.1-10.6,2.5-14.2,6.4c-4.2,4.6-5.1,11-3.7,16.9C205.2,475.5,207.2,474.9,206.9,473.7L206.9,473.7z"/>
				</g>
			</g>
			<g>
				<g>
					<path fill="#995CA0" d="M218.5,449.1c4.7,4.4,3.2,12.4,1.6,17.9c-0.4,1.3,1.6,1.8,2,0.5c1.8-6.2,3.2-14.9-2.1-19.9
						C219,446.8,217.5,448.2,218.5,449.1L218.5,449.1z"/>
				</g>
			</g>
		</g>
		<g>
			<g>
				<g>
					<path fill="#995CA0" d="M273.2,378.1c0.3,30.5-6.3,60.4-10.3,90.4c-0.2,1.3,1.9,1.3,2.1,0c3.9-30.1,10.6-60,10.3-90.4
						C275.2,376.8,273.2,376.8,273.2,378.1L273.2,378.1z"/>
				</g>
			</g>
			<g>
				<g>
					<path fill="#995CA0" d="M294.3,380.8c-1,29.4-4.7,58.6-8.5,87.8c-0.2,1.3,1.9,1.3,2.1,0c3.8-29.2,7.5-58.4,8.5-87.8
						C296.4,379.5,294.4,379.5,294.3,380.8L294.3,380.8z"/>
				</g>
			</g>
			<g>
				<g>
					<path fill="#995CA0" d="M257.7,473.1c12.4,0.3,24.6,1.7,36.8,3.3c1.3,0.2,1.3-1.9,0-2.1c-12.2-1.6-24.5-3.1-36.8-3.3
						C256.4,471,256.4,473,257.7,473.1L257.7,473.1z"/>
				</g>
			</g>
			<g>
				<g>
					<path fill="#995CA0" d="M293.2,478.2c-0.4,3.3-0.9,6.6-1.3,9.9c-0.2,1.3,1.9,1.3,2.1,0c0.4-3.3,0.9-6.6,1.3-9.9
						C295.4,476.9,293.4,476.9,293.2,478.2L293.2,478.2z"/>
				</g>
			</g>
			<g>
				<g>
					<path fill="#995CA0" d="M252.1,483.8c13.3,0.4,26.7,0.6,40,0.9c1.3,0,1.3-2,0-2.1c-13.3-0.2-26.7-0.5-40-0.9
						C250.7,481.7,250.7,483.8,252.1,483.8L252.1,483.8z"/>
				</g>
			</g>
			<g>
				<g>
					<path fill="#995CA0" d="M272.4,393.2c4.2,0.5,8.5,1.1,12.7,1.6c1.3,0.2,1.3-1.9,0-2.1c-4.2-0.5-8.5-1.1-12.7-1.6
						C271.1,391,271.1,393.1,272.4,393.2L272.4,393.2z"/>
				</g>
			</g>
			<g>
				<g>
					<path fill="#995CA0" d="M279.1,405.6c5.9,2.2,12.2,3,18.4,3.8c1.3,0.2,1.3-1.9,0-2.1c-6.1-0.8-12.1-1.6-17.9-3.7
						C278.4,403.1,277.9,405.1,279.1,405.6L279.1,405.6z"/>
				</g>
			</g>
			<g>
				<g>
					<path fill="#995CA0" d="M266.4,428.3c3.8,0.5,7.5,1,11.3,1.5c1.3,0.2,1.3-1.9,0-2.1c-3.8-0.5-7.5-1-11.3-1.5
						C265.1,426.1,265.1,428.1,266.4,428.3L266.4,428.3z"/>
				</g>
			</g>
			<g>
				<g>
					<path fill="#995CA0" d="M261.5,454.9c7.1,0.9,14.1,1.8,21.2,2.7c1.3,0.2,1.3-1.9,0-2.1c-7.1-0.9-14.1-1.8-21.2-2.7
						C260.2,452.7,260.2,454.7,261.5,454.9L261.5,454.9z"/>
				</g>
			</g>
			<g>
				<g>
					<path fill="#995CA0" d="M269.4,438.7c5,0.6,9.8-0.1,14.7-1c1.3-0.3,0.7-2.2-0.5-2c-4.7,0.9-9.4,1.5-14.2,1
						C268,436.5,268.1,438.6,269.4,438.7L269.4,438.7z"/>
				</g>
			</g>
		</g>
		<g>
			<g>
				<g>
					<path fill="#995CA0" d="M128.6,233.7c26.3,3.4,53.2,10,79.8,5.9c1.3-0.2,0.8-2.2-0.5-2c-26.4,4.1-53.2-2.6-79.2-6
						C127.3,231.4,127.3,233.5,128.6,233.7L128.6,233.7z"/>
				</g>
			</g>
			<g>
				<g>
					<path fill="#995CA0" d="M124.4,234.8c-6.3,25.2-15.4,51.2-12.9,77.5c0.1,1.3,2.2,1.3,2.1,0c-2.5-26.1,6.5-51.9,12.8-76.9
						C126.7,234.1,124.7,233.5,124.4,234.8L124.4,234.8z"/>
				</g>
			</g>
			<g>
				<g>
					<path fill="#995CA0" d="M136.3,253.6c-6.5,18.5-9.3,38-14.5,56.9c-0.4,1.3,1.6,1.8,2,0.5c5.2-18.9,8-38.4,14.5-56.9
						C138.7,252.9,136.7,252.3,136.3,253.6L136.3,253.6z"/>
				</g>
			</g>
			<g>
				<g>
					<path fill="#995CA0" d="M131.9,254.1c21.3-4.1,42.8-1.5,64.3-0.2c1.3,0.1,1.3-2,0-2.1c-21.6-1.3-43.3-3.8-64.8,0.3
						C130.1,252.4,130.6,254.4,131.9,254.1L131.9,254.1z"/>
				</g>
			</g>
			<g>
				<g>
					<path fill="#995CA0" d="M92.1,334.2c0.8-5.9,3.2-11.4,8.6-14.4c4.9-2.7,10.9-2.2,16-0.7c11.9,3.5,22.2,14.4,23.3,27
						c0.1,1.3,2.2,1.3,2.1,0c-1.2-13.9-12.2-25.2-25.3-29.1c-5.6-1.7-11.9-1.7-17.2,1c-5.9,3-8.7,9.4-9.6,15.6
						C89.9,334.9,91.9,335.5,92.1,334.2L92.1,334.2z"/>
				</g>
			</g>
			<g>
				<g>
					<path fill="#995CA0" d="M103.4,319.8c-1.1,8.6-0.8,17.2-0.5,25.7c0,1.3,2.1,1.3,2.1,0c-0.3-8.6-0.6-17.2,0.5-25.7
						C105.6,318.5,103.5,318.5,103.4,319.8L103.4,319.8z"/>
				</g>
			</g>
			<g>
				<g>
					<path fill="#995CA0" d="M120.1,323.4c-0.9,7.6-0.6,15.3-0.1,22.9c0.1,1.3,2.1,1.3,2.1,0c-0.5-7.6-0.8-15.3,0.1-22.9
						C122.3,322.1,120.3,322.1,120.1,323.4L120.1,323.4z"/>
				</g>
			</g>
		</g>
		<g>
			<g>
				<path fill="#995CA0" d="M255.5,102.9c7.4,1.6,15.2,1.9,22.3,4.4c3,1.1,5.8,2.8,7.2,5.8c1.9,3.9,0.5,8.8-0.7,12.6
					c-0.4,1.3,1.6,1.8,2,0.5c2.5-7.5,2.6-15.6-5.2-19.7c-7.5-4-17-3.8-25.1-5.6C254.7,100.6,254.2,102.6,255.5,102.9L255.5,102.9z"
					/>
			</g>
		</g>
		<g>
			<g>
				<path fill="#995CA0" d="M301.6,128.9c-0.6-3.2-1.6-6.5-1.6-9.9c0.1-3.8,4.2-2.7,6.7-2.1c1.3,0.3,1.8-1.6,0.5-2
					c-10.1-3-15.1-20.7-3.6-25.3c-0.3-0.6-0.5-1.3-0.8-1.9c-3.7,2.4-3.7-2.9-3-4.9c0.6-2.1,1.7-4,2.7-6c1.7-3.2,3.4-7.1,6.5-9.3
					c1.9-1.4,4.6,0.1,4.3,2.5c-0.3,2.4-2.6,2.3-4.3,1.6c-2.2-1-7.7-4-7.6-6.9c0-1.3-2-1.3-2.1,0c-0.1,2.3,2.1,4.2,3.7,5.6
					c2,1.7,4.7,3.6,7.5,3.9c5.6,0.7,6.3-7.8,1.1-9.2c-5.8-1.5-9.6,8.3-11.6,12.2c-1.5,2.9-3.1,6.2-2.7,9.5c0.5,3.3,4.1,4.3,6.6,2.8
					c0.9-0.6,0.3-2.3-0.8-1.9c-13.4,5.3-8.6,25.5,3.6,29.2c0.2-0.7,0.4-1.3,0.5-2c-2.8-0.7-7.7-1.8-8.9,2c-1.3,3.8,0.5,8.7,1.3,12.5
					C299.9,130.7,301.9,130.2,301.6,128.9L301.6,128.9z"/>
			</g>
		</g>
		<g>
			<g>
				<path fill="#995CA0" d="M252,145.8c-2.2,24.2-10.2,47.6-10.3,72c0,0.4,0.3,0.9,0.8,1c11.4,2.1,22.7,4.7,34.1,7.1
					c11.6,2.4,23.3,5.3,35.1,6.3c0.5,0,0.9-0.3,1-0.8c4.1-12,6-24.6,7.3-37.2c1.4-13,2-26.2,2-39.3c0-0.5-0.3-0.9-0.8-1
					c-22.2-6.3-45.3-7.3-67.9-11.3c-1.3-0.2-1.9,1.7-0.5,2c22.6,4.1,45.7,5.1,67.9,11.3c-0.3-0.3-0.5-0.7-0.8-1
					c0,12.8-0.6,25.7-1.9,38.4c-1.3,12.6-3.2,25.4-7.3,37.4c0.3-0.3,0.7-0.5,1-0.8c-11.6-1-23.2-3.9-34.6-6.3
					c-11.4-2.4-22.7-5-34.1-7.1c0.3,0.3,0.5,0.7,0.8,1c0.1-24.4,8.1-47.8,10.3-72C254.2,144.5,252.1,144.5,252,145.8L252,145.8z"/>
			</g>
		</g>
		<g>
			<g>
				<path fill="#995CA0" d="M229,243.2c-2.9,31.6-13.7,62.1-13.8,94c0,0.4,0.3,0.9,0.8,1c15.4,2.7,30.6,6.2,45.9,9.3
					c9.1,1.8,18.1,3.6,27.2,5.3c6.4,1.2,12.9,2.4,19.4,2.9c0.5,0,0.8-0.3,1-0.8c5.5-15.6,8-32.2,9.8-48.5c1.8-17,2.6-34.1,2.6-51.1
					c0-0.5-0.3-0.9-0.8-1c-29.7-8.2-60.6-9.5-90.9-14.8c-1.3-0.2-1.9,1.8-0.5,2c30.2,5.3,61.2,6.6,90.9,14.8c-0.3-0.3-0.5-0.7-0.8-1
					c0,16.8-0.8,33.6-2.5,50.3c-1.7,16.5-4.3,33.2-9.8,48.8c0.3-0.3,0.7-0.5,1-0.8c-6.5-0.5-13-1.8-19.4-3
					c-9.1-1.7-18.2-3.5-27.3-5.3c-15.1-3.1-30.1-6.5-45.3-9.2c0.3,0.3,0.5,0.7,0.8,1c0.1-31.9,10.9-62.4,13.8-94
					C231.2,241.9,229.2,241.9,229,243.2L229,243.2z"/>
			</g>
		</g>
		<g>
			<g>
				<g>
					<path fill="#995CA0" d="M282.4,132c-0.7,3.3-2.1,6.2-3.1,9.4c-0.4,1.3,1.6,1.8,2,0.5c0.9-3.2,2.4-6.2,3.1-9.4
						C284.7,131.2,282.7,130.7,282.4,132L282.4,132z"/>
				</g>
			</g>
			<g>
				<g>
					<path fill="#995CA0" d="M280.5,142.5c-0.9-1.1-1.8-2.3-2.3-3.7c-0.2-0.5-0.7-0.9-1.3-0.7c-0.5,0.1-0.9,0.7-0.7,1.3
						c0.7,1.7,1.7,3.2,2.8,4.6C279.9,145,281.4,143.5,280.5,142.5L280.5,142.5z"/>
				</g>
			</g>
			<g>
				<g>
					<path fill="#995CA0" d="M280.1,144.2c1.7-0.7,3-1.9,4.6-2.6c1.2-0.5,0.7-2.5-0.5-2c-1.7,0.7-3,1.9-4.6,2.6
						C278.3,142.8,278.8,144.7,280.1,144.2L280.1,144.2z"/>
				</g>
			</g>
		</g>
		<g>
			<g>
				<g>
					<path fill="#995CA0" d="M300.3,133.9c-0.1,3.4-0.9,6.5-1.2,9.9c-0.1,1.3,1.9,1.3,2.1,0c0.3-3.3,1.1-6.5,1.2-9.9
						C302.4,132.6,300.3,132.6,300.3,133.9L300.3,133.9z"/>
				</g>
			</g>
			<g>
				<g>
					<path fill="#995CA0" d="M300.6,144.7c-1.2-1-2.3-2-3.2-3.3c-0.7-1.1-2.5-0.1-1.8,1c1,1.4,2.1,2.7,3.5,3.7c0.4,0.4,1,0.4,1.5,0
						C301,145.8,301.1,145,300.6,144.7L300.6,144.7z"/>
				</g>
			</g>
			<g>
				<g>
					<path fill="#995CA0" d="M300.4,146.3c1.5-1,2.6-2.4,4-3.4c1.1-0.7,0.1-2.5-1-1.8c-1.5,1-2.6,2.4-4,3.4
						C298.3,145.2,299.3,147,300.4,146.3L300.4,146.3z"/>
				</g>
			</g>
		</g>
		<g>
			<g>
				<g>
					<path fill="#995CA0" d="M275.1,229.1c-0.1,3.4-0.9,6.5-1.2,9.9c-0.1,1.3,1.9,1.3,2.1,0c0.3-3.3,1.1-6.5,1.2-9.9
						C277.1,227.8,275.1,227.8,275.1,229.1L275.1,229.1z"/>
				</g>
			</g>
			<g>
				<g>
					<path fill="#995CA0" d="M275.4,239.9c-1.2-1-2.3-2-3.2-3.3c-0.7-1.1-2.5-0.1-1.8,1c1,1.4,2.1,2.7,3.5,3.7c0.4,0.4,1,0.4,1.5,0
						C275.8,240.9,275.9,240.2,275.4,239.9L275.4,239.9z"/>
				</g>
			</g>
			<g>
				<g>
					<path fill="#995CA0" d="M275.2,241.5c1.5-1,2.6-2.4,4-3.4c1.1-0.7,0.1-2.5-1-1.8c-1.5,1-2.6,2.4-4,3.4
						C273.1,240.4,274.1,242.2,275.2,241.5L275.2,241.5z"/>
				</g>
			</g>
		</g>
		<g>
			<g>
				<g>
					<path fill="#995CA0" d="M232.4,349c-0.1,3.4-0.9,6.5-1.2,9.9c-0.1,1.3,1.9,1.3,2.1,0c0.3-3.3,1.1-6.5,1.2-9.9
						C234.4,347.6,232.4,347.7,232.4,349L232.4,349z"/>
				</g>
			</g>
			<g>
				<g>
					<path fill="#995CA0" d="M232.7,359.7c-1.2-1-2.3-2-3.2-3.3c-0.7-1.1-2.5-0.1-1.8,1c1,1.4,2.1,2.7,3.5,3.7c0.4,0.4,1,0.4,1.5,0
						C233.1,360.8,233.2,360.1,232.7,359.7L232.7,359.7z"/>
				</g>
			</g>
			<g>
				<g>
					<path fill="#995CA0" d="M232.5,361.3c1.5-1,2.6-2.4,4-3.4c1.1-0.7,0.1-2.5-1-1.8c-1.5,1-2.6,2.4-4,3.4
						C230.4,360.3,231.4,362.1,232.5,361.3L232.5,361.3z"/>
				</g>
			</g>
		</g>
		<g>
			<g>
				<g>
					<path fill="#995CA0" d="M281.8,360.3c-0.1,3.4-0.9,6.5-1.2,9.9c-0.1,1.3,1.9,1.3,2.1,0c0.3-3.3,1.1-6.5,1.2-9.9
						C283.8,359,281.8,359,281.8,360.3L281.8,360.3z"/>
				</g>
			</g>
			<g>
				<g>
					<path fill="#995CA0" d="M282.1,371.1c-1.2-1-2.3-2-3.2-3.3c-0.7-1.1-2.5-0.1-1.8,1c1,1.4,2.1,2.7,3.5,3.7c0.4,0.4,1,0.4,1.5,0
						C282.5,372.1,282.5,371.4,282.1,371.1L282.1,371.1z"/>
				</g>
			</g>
			<g>
				<g>
					<path fill="#995CA0" d="M281.9,372.7c1.5-1,2.6-2.4,4-3.4c1.1-0.7,0.1-2.5-1-1.8c-1.5,1-2.6,2.4-4,3.4
						C279.8,371.6,280.8,373.4,281.9,372.7L281.9,372.7z"/>
				</g>
			</g>
		</g>
		<g>
			<g>
				<g>
					<path fill="#995CA0" d="M220.8,250.9c-3.4-0.1-6.5-0.9-9.9-1.2c-1.3-0.1-1.3,1.9,0,2.1c3.3,0.3,6.5,1.1,9.9,1.2
						C222.2,252.9,222.2,250.9,220.8,250.9L220.8,250.9z"/>
				</g>
			</g>
			<g>
				<g>
					<path fill="#995CA0" d="M210.1,251.2c1-1.2,2-2.3,3.3-3.2c1.1-0.7,0.1-2.5-1-1.8c-1.4,1-2.7,2.1-3.7,3.5c-0.4,0.4-0.4,1,0,1.5
						C209,251.6,209.7,251.6,210.1,251.2L210.1,251.2z"/>
				</g>
			</g>
			<g>
				<g>
					<path fill="#995CA0" d="M208.5,251c1,1.5,2.4,2.6,3.4,4c0.7,1.1,2.5,0.1,1.8-1c-1-1.5-2.4-2.6-3.4-4
						C209.5,248.9,207.7,249.9,208.5,251L208.5,251z"/>
				</g>
			</g>
		</g>
		<g>
			<g>
				<g>
					<path fill="#995CA0" d="M327.4,258.2c3.4,0.1,6.5,0.9,9.9,1.2c1.3,0.1,1.3-1.9,0-2.1c-3.3-0.3-6.5-1.1-9.9-1.2
						C326.1,256.2,326.1,258.2,327.4,258.2L327.4,258.2z"/>
				</g>
			</g>
			<g>
				<g>
					<path fill="#995CA0" d="M338.2,257.9c-1,1.2-2,2.3-3.3,3.2c-1.1,0.7-0.1,2.5,1,1.8c1.4-1,2.7-2.1,3.7-3.5c0.4-0.4,0.4-1,0-1.5
						C339.2,257.5,338.5,257.4,338.2,257.9L338.2,257.9z"/>
				</g>
			</g>
			<g>
				<g>
					<path fill="#995CA0" d="M339.8,258.1c-1-1.5-2.4-2.6-3.4-4c-0.7-1.1-2.5-0.1-1.8,1c1,1.5,2.4,2.6,3.4,4
						C338.7,260.2,340.5,259.2,339.8,258.1L339.8,258.1z"/>
				</g>
			</g>
		</g>
	</g>
</g>
</svg>
