<?xml version="1.0" encoding="utf-8"?>
<!-- Generator: Adobe Illustrator 17.0.0, SVG Export Plug-In . SVG Version: 6.00 Build 0)  -->
<!DOCTYPE svg PUBLIC "-//W3C//DTD SVG 1.1//EN" "http://www.w3.org/Graphics/SVG/1.1/DTD/svg11.dtd">
<svg version="1.1" id="Layer_1" xmlns="http://www.w3.org/2000/svg" xmlns:xlink="http://www.w3.org/1999/xlink" x="0px" y="0px"
	 width="797px" height="472.5px" viewBox="0 0 797 472.5" enable-background="new 0 0 797 472.5" xml:space="preserve">
<g>
	<path fill="#B88DBD" d="M6.6,464.9c98.3,1.7,622.5-10.7,702.2-9.2c3.5-56.3,0.7-212.3,0.7-310.6L6.2,161.5
		C4.8,216.5,6.6,464.9,6.6,464.9z"/>
	<path fill="#995CA0" d="M38.1,430.6c89.5,1.2,566.2-1.1,638.8,0c3.2-39.1,0-161.1,0-229.3l-638.8,0.1
		C36.9,239.5,38.1,430.6,38.1,430.6z"/>
	<path fill="#FFFFFF" d="M772,281.3V60.9c10-8.6,38.4-56.3-7.3-58c-55.5-2.1-53.1,43.4-25.6,61.4c1.7,1.1,3.5,2,5.1,2.7
		c-0.1,44.8,0.4,180.1,0.3,213.7c-19.3-0.5-34.9-1.2-34.9-1.2c-0.4,15.7,0.9,100.2,0.5,113c18-1.4,61.9-10.7,79.9-13.2v-97.8
		C785,281.4,778,281.4,772,281.3z"/>
	<path fill="#B88DBD" d="M469.2,308.8c25.4,0.6,160.9-8.6,181.4-8c0.9-18.8-0.4-69.5-0.4-102.4l-181,0.1
		C468.8,216.9,469.2,308.8,469.2,308.8z"/>
	<path fill="#B88DBD" d="M57.3,339.5c25.4,0.8,160.5-0.7,181,0c0.9-27.4-3.7-108.7-3.7-156.6l-177.3-4.1
		C56.9,205.6,57.3,339.5,57.3,339.5z"/>
	<path fill="#B88DBD" d="M265.4,335.3c25.4,0.8,156.6,3.5,177.2,4.2c0.9-27.4,0-112.9,0-160.8l-181,0.1
		C261.2,205.6,265.4,335.3,265.4,335.3z"/>
	<path fill="#B88DBD" d="M469.2,289.7c25.4,0.5,160.5-0.4,181,0c0.9-15.6,0-64.1,0-91.3l-181,0C468.8,213.7,469.2,289.7,469.2,289.7
		z"/>
	<g>
		<defs>
			<path id="SVGID_1_" d="M469.2,310.8c25.4,0.6,160.9-10.5,181.4-10c0.9-18.7-0.4-67-0.4-99.6l-181,0.1
				C468.8,219.5,469.2,310.8,469.2,310.8z"/>
		</defs>
		<clipPath id="SVGID_2_">
			<use xlink:href="#SVGID_1_"  overflow="visible"/>
		</clipPath>
		<path clip-path="url(#SVGID_2_)" fill="#FFFFFF" d="M577.6,171.2c79.8,32.8,17.9,136.2-50.3,99.1
			C473.8,241.3,524.2,149.3,577.6,171.2z"/>
	</g>
	<path fill="#B88DBD" d="M469.9,438.6c25.4,0.5,160.5-0.5,181,0c0.9-16.9,0-69.6,0-99.1l-181,0.1
		C469.5,356.1,469.9,438.6,469.9,438.6z"/>
	<g>
		<defs>
			<path id="SVGID_3_" d="M469.2,430.9c25.4,0.5,160.5-0.5,181,0c0.9-16.9,0-69.6,0-99.1l-181,0.1
				C468.8,348.4,469.2,430.9,469.2,430.9z"/>
		</defs>
		<clipPath id="SVGID_4_">
			<use xlink:href="#SVGID_3_"  overflow="visible"/>
		</clipPath>
		<polygon clip-path="url(#SVGID_4_)" fill="#FFFFFF" points="530.9,461.2 502,411.2 524.8,358.4 588.7,361.1 617.6,411.2 
			588.7,461.2 		"/>
	</g>
	<g>
		<defs>
			<path id="SVGID_5_" d="M469.2,431c25.4,0.5,160.5-0.5,181,0c0.9-18.4,0.7-59.3,0.7-91.4l-181.7-16.3
				C468.8,341.2,469.2,431,469.2,431z"/>
		</defs>
		<clipPath id="SVGID_6_">
			<use xlink:href="#SVGID_5_"  overflow="visible"/>
		</clipPath>
	</g>
	<path fill="#FFFFFF" d="M96.1,241.5c32.8-79.8,136.2-17.9,99.1,50.3C166.1,345.2,74.2,294.8,96.1,241.5z"/>
	<path fill="#FFFFFF" d="M370.3,207.8c79.8,32.8,17.9,136.2-50.3,99.1C266.6,277.8,317,185.9,370.3,207.8z"/>
</g>
</svg>
