<?xml version="1.0" encoding="utf-8"?>
<!-- Generator: Adobe Illustrator 17.0.0, SVG Export Plug-In . SVG Version: 6.00 Build 0)  -->
<!DOCTYPE svg PUBLIC "-//W3C//DTD SVG 1.1//EN" "http://www.w3.org/Graphics/SVG/1.1/DTD/svg11.dtd">
<svg version="1.1" id="Layer_1" xmlns="http://www.w3.org/2000/svg" xmlns:xlink="http://www.w3.org/1999/xlink" x="0px" y="0px"
	 width="543.1px" height="156.9px" viewBox="0 0 543.1 156.9" enable-background="new 0 0 543.1 156.9" xml:space="preserve">
<g>
	<g>
		<path fill="#C6E5E7" d="M18.8,107.9c0.6,7.6,3.3,14.4,7.2,20.5c3.9,6.1,7.5,12.9,13.1,17.5c1.9,1.5,4,2.8,6.5,3.6
			c11,3.7,58.4-0.2,69.9-0.4c16.6-0.3,33.3-1.8,49.9-2.5c19.1-0.7,38.2-1.3,57.3-2.4c20-1.2,40.1-2.3,60.1-3.3
			c19.9-1,39.8-2.4,59.8-3.7c18.7-1.2,37.3-2.3,56-3.6c16.2-1.2,32.3-2.5,48.5-3.8c12.6-1,25.2-2,37.8-3.4
			c7.7-0.8,15.5-1.6,23.1-2.9c10.3-1.8,15.4-12.4,19-24.5L18.8,107.9z"/>
	</g>
	<g>
		<g>
			<g>
				<polygon fill="#FFFFFF" points="358,12.5 358.8,47.2 379.4,46.9 371.8,9.8 				"/>
			</g>
			<g>
				<polygon fill="#C6E5E7" points="318.4,7.5 321.6,46.7 298.2,48.8 302.5,6 				"/>
			</g>
			<g>
				<polygon fill="#FFFFFF" points="238.6,15.2 239.4,49.9 260,49.6 252.4,12.5 				"/>
			</g>
			<g>
				<polygon fill="#C6E5E7" points="176.9,12.2 177.7,50.7 200.7,50.4 192.2,9.2 				"/>
			</g>
			<path fill="#FFFFFF" d="M457.8,63.1l-31.4,0.6c0,0,0,0-6.8-18c0-2.9-284.5,5.6-284.5,5.6c-4.7,16.5-4.7,16.5-4.7,16.5
				S9,67.6,8.8,69c0,0-0.1,11.2-0.1,11.2s9.9,1.3,9.9,1.3c-1,6,0.2,26.4,0.2,26.4s498.7-6.4,508.2-8.7c0,0,9.9-37.8,8.9-38
				C535.8,61.2,457.8,63.1,457.8,63.1z"/>
		</g>
	</g>
	<ellipse fill="#C6E5E7" cx="159.7" cy="76.6" rx="6.6" ry="7.6"/>
	<ellipse fill="#C6E5E7" cx="204" cy="71.2" rx="6.6" ry="7.6"/>
	<ellipse fill="#C6E5E7" cx="291.8" cy="71.2" rx="6.6" ry="7.6"/>
	<ellipse fill="#C6E5E7" cx="337.3" cy="73" rx="6.6" ry="7.6"/>
	<ellipse fill="#C6E5E7" cx="384.5" cy="69.4" rx="6.6" ry="7.6"/>
	<ellipse fill="#C6E5E7" cx="247.4" cy="69.4" rx="6.6" ry="7.6"/>
	<path fill="#C6E5E7" d="M18.8,107.9"/>
</g>
</svg>
