<?xml version="1.0" encoding="utf-8"?>
<!-- Generator: Adobe Illustrator 17.0.0, SVG Export Plug-In . SVG Version: 6.00 Build 0)  -->
<!DOCTYPE svg PUBLIC "-//W3C//DTD SVG 1.1//EN" "http://www.w3.org/Graphics/SVG/1.1/DTD/svg11.dtd">
<svg version="1.1" id="Layer_1" xmlns="http://www.w3.org/2000/svg" xmlns:xlink="http://www.w3.org/1999/xlink" x="0px" y="0px"
	 width="1409.1px" height="565.1px" viewBox="0 0 1409.1 565.1" enable-background="new 0 0 1409.1 565.1" xml:space="preserve">
<g>
	<g>
		<path fill="#995CA0" d="M1399.9,556.6c7.1-59.4-13.2-500.4-6.7-548.6C897.9,10.3,627.9,9.6,4.5,7.1v542.1
			C548,549.2,1399.9,556.6,1399.9,556.6z"/>
		<g>
			<path fill="#995CA0" d="M1402.4,556.6c3.1-26.7,1.6-54.3,1.3-81c-0.5-46.4-1.7-92.8-2.9-139.2c-2.4-93.1-6.1-186.2-6.4-279.3
				c-0.1-16.2-0.8-33,1.3-49.2c0.2-1.4-1.3-2.5-2.5-2.5C1260.5,6.1,1127.7,6.6,995,6.8C871.7,6.9,748.4,6.9,625,6.6
				C480.4,6.4,335.8,5.8,191.2,5.3C129,5.1,66.7,4.8,4.5,4.6C3.1,4.6,2,5.7,2,7.1c0,49.2,0,98.4,0,147.6C2,244,2,333.2,2,422.5
				c0,42.2,0,84.5,0,126.7c0,1.4,1.1,2.5,2.5,2.5c129.3,0,258.7,0.4,388,0.9c134.6,0.5,269.2,1.3,403.8,2.1
				c115.7,0.7,231.4,1.5,347.1,2.4c72.6,0.5,145.3,1.1,217.9,1.7c12.9,0.1,25.8,0.2,38.6,0.3c3.2,0,3.2-5,0-5
				c-36.6-0.3-73.2-0.6-109.8-0.9c-93.7-0.7-187.3-1.4-281-2.1c-126.6-0.9-253.1-1.7-379.7-2.4c-135.3-0.7-270.7-1.3-406-1.7
				c-73-0.2-146-0.3-219-0.3c0.8,0.8,1.7,1.7,2.5,2.5c0-49.2,0-98.4,0-147.6C7,312.3,7,223,7,133.8C7,91.6,7,49.3,7,7.1
				C6.2,7.9,5.3,8.7,4.5,9.6c159.5,0.6,319.1,1.3,478.6,1.7c127.4,0.4,254.8,0.6,382.1,0.6c125.9,0,251.8-0.3,377.6-0.7
				c50.1-0.2,100.2-0.4,150.3-0.6c-0.8-0.8-1.7-1.7-2.5-2.5c-3.3,24.7-1.4,50.6-1.1,75.4c0.6,45.5,1.8,91,3.1,136.5
				c2.5,94.3,6.1,188.6,6.2,283c0,17.8,0.5,35.9-1.5,53.6C1397,559.8,1402,559.8,1402.4,556.6z"/>
		</g>
	</g>
	<g>
		<path fill="#B88DBD" d="M247.8,58.8c1,41.5-1.9,264.4-1,298.1c-70.9-1.6-109.5-1.1-198.7,0.7V64C125.9,64,247.8,58.8,247.8,58.8z"
			/>
		<g>
			<defs>
				<path id="SVGID_1_" d="M248.2,62.4c1,41.5-1.9,264.4-1,298.1c-70.9-1.6-109.5-1.1-198.7,0.7V67.6
					C126.3,67.6,248.2,62.4,248.2,62.4z"/>
			</defs>
			<clipPath id="SVGID_2_">
				<use xlink:href="#SVGID_1_"  overflow="visible"/>
			</clipPath>
			<g clip-path="url(#SVGID_2_)">
				<polygon fill="#FFFFFF" points="250.3,217.4 45.8,217.4 45.8,209.2 250.3,212.5 				"/>
			</g>
		</g>
		<path fill="#FFFFFF" d="M93.3,262.3c3.5-3.2,6.7-6.3,14.8-13.2c1.4-1.4,4.2-1.4,5.6,0c1.9,1.9,9.3,9,21.5,9
			c10.4,0,22.5-10.7,22.5-25.2c0-10.7-6.5-19-16.9-19h-31.5c-4.2,0-5.8-4.4-5.3-8.1l10.2-71.8c0.2-2.3,2.3-4.4,4.6-4.4h68.1
			c2.1,0,3.5,2.1,3.2,4.4l-2.8,20.4c-0.2,2.3-2.5,4.4-4.6,4.4h-41l-3.5,24.8h13c24.5,0,40.5,19.9,40.5,45.4
			c0,33.8-20.1,60.4-59.3,60.4c-19.4,0-35-12.3-39.8-19.2C90.3,266.7,90.3,265,93.3,262.3z"/>
	</g>
	<g>
		<path fill="#B88DBD" d="M933.9,361.2c-1-41.5,1.9-264.4,1-298.1c70.9,1.6,109.5,1.1,198.7-0.7V356
			C1055.8,356,933.9,361.2,933.9,361.2z"/>
		<g>
			<defs>
				<path id="SVGID_3_" d="M933.5,357.5c-1-41.5,1.9-264.4,1-298.1c70.9,1.6,109.5,1.1,198.7-0.7v293.5
					C1055.4,352.4,933.5,357.5,933.5,357.5z"/>
			</defs>
			<clipPath id="SVGID_4_">
				<use xlink:href="#SVGID_3_"  overflow="visible"/>
			</clipPath>
			<g clip-path="url(#SVGID_4_)">
				<polygon fill="#FFFFFF" points="931.4,202.6 1135.9,202.6 1135.9,210.7 931.4,207.5 				"/>
			</g>
		</g>
		<path fill="#FFFFFF" d="M977.8,227.5c0-60.4,24.5-100.5,66.5-100.5c26.9,0,44.7,24.1,44.7,61.6c0,60.4-25.7,100.7-66.5,100.7
			C995.4,289.4,977.8,265,977.8,227.5z M1051.7,190.5c0-17.1-3.9-28-11.6-28c-15.3,0-25,29.2-25,63.5c0,16.9,4.2,28,11.6,28
			C1042.4,253.9,1051.7,224.3,1051.7,190.5z"/>
	</g>
	<g>
		<path fill="#B88DBD" d="M915.6,58.8c1,41.5-1.9,264.4-1,298.1c-70.9-1.6-109.5-1.1-198.7,0.7V64C793.7,64,915.6,58.8,915.6,58.8z"
			/>
		<g>
			<defs>
				<path id="SVGID_5_" d="M716.6,361.2c-1-41.5,1.9-264.4,1-298.1c70.9,1.6,109.5,1.1,198.7-0.7V356
					C838.5,356,716.6,361.2,716.6,361.2z"/>
			</defs>
			<clipPath id="SVGID_6_">
				<use xlink:href="#SVGID_5_"  overflow="visible"/>
			</clipPath>
			<g clip-path="url(#SVGID_6_)">
				<polygon fill="#FFFFFF" points="714.5,206.2 919,206.2 919,214.4 714.5,211.2 				"/>
			</g>
		</g>
	</g>
	<path fill="#FFFFFF" d="M871.7,192.5c0,60.4-24.5,100.5-66.5,100.5c-26.9,0-44.7-24.1-44.7-61.6c0-60.4,25.7-100.7,66.5-100.7
		C854.1,130.6,871.7,155,871.7,192.5z M797.8,229.5c0,17.1,3.9,28,11.6,28c15.3,0,25-29.2,25-63.5c0-16.9-4.2-28-11.6-28
		C807.1,166.1,797.8,195.7,797.8,229.5z"/>
	<g>
		<path fill="#B88DBD" d="M492.4,361.2c-1-41.5,1.9-264.4,1-298.1c70.9,1.6,109.5,1.1,198.7-0.7V356
			C614.3,356,492.4,361.2,492.4,361.2z"/>
		<g>
			<defs>
				<path id="SVGID_7_" d="M492,357.5c-1-41.5,1.9-264.4,1-298.1c70.9,1.6,109.5,1.1,198.7-0.7v293.5
					C613.9,352.4,492,357.5,492,357.5z"/>
			</defs>
			<clipPath id="SVGID_8_">
				<use xlink:href="#SVGID_7_"  overflow="visible"/>
			</clipPath>
			<g clip-path="url(#SVGID_8_)">
				<polygon fill="#FFFFFF" points="489.9,202.6 694.4,202.6 694.4,210.7 489.9,207.5 				"/>
			</g>
		</g>
		<path fill="#FFFFFF" d="M536.4,227.5c0-60.4,24.5-100.5,66.5-100.5c26.9,0,44.7,24.1,44.7,61.6c0,60.4-25.7,100.7-66.5,100.7
			C554,289.4,536.4,265,536.4,227.5z M610.2,190.5c0-17.1-3.9-28-11.6-28c-15.3,0-25,29.2-25,63.5c0,16.9,4.2,28,11.6,28
			C601,253.9,610.2,224.3,610.2,190.5z"/>
	</g>
	<g>
		<path fill="#B88DBD" d="M471.2,58.8c1,41.5-1.9,264.4-1,298.1c-70.9-1.6-109.5-1.1-198.7,0.7V64C349.3,64,471.2,58.8,471.2,58.8z"
			/>
		<g>
			<defs>
				<path id="SVGID_9_" d="M471.6,62.4c1,41.5-1.9,264.4-1,298.1c-70.9-1.6-109.5-1.1-198.7,0.7V67.6
					C349.7,67.6,471.6,62.4,471.6,62.4z"/>
			</defs>
			<clipPath id="SVGID_10_">
				<use xlink:href="#SVGID_9_"  overflow="visible"/>
			</clipPath>
			<g clip-path="url(#SVGID_10_)">
				<polygon fill="#FFFFFF" points="473.7,217.4 269.2,217.4 269.2,209.2 473.7,212.5 				"/>
			</g>
		</g>
		<path fill="#FFFFFF" d="M427.2,192.5c0,60.4-24.5,100.5-66.5,100.5c-26.9,0-44.7-24.1-44.7-61.6c0-60.4,25.7-100.7,66.5-100.7
			C409.6,130.6,427.2,155,427.2,192.5z M353.4,229.5c0,17.1,3.9,28,11.6,28c15.3,0,25-29.2,25-63.5c0-16.9-4.2-28-11.6-28
			C362.6,166.1,353.4,195.7,353.4,229.5z"/>
	</g>
	<g>
		<g>
			<path fill="#B88DBD" d="M1156.6,361.2c-1-41.5,1.9-264.4,1-298.1c70.9,1.6,109.5,1.1,198.7-0.7V356
				C1278.5,356,1156.6,361.2,1156.6,361.2z"/>
			<g>
				<defs>
					<path id="SVGID_11_" d="M1156.2,357.5c-1-41.5,1.9-264.4,1-298.1c70.9,1.6,109.5,1.1,198.7-0.7v293.5
						C1278.1,352.4,1156.2,357.5,1156.2,357.5z"/>
				</defs>
				<clipPath id="SVGID_12_">
					<use xlink:href="#SVGID_11_"  overflow="visible"/>
				</clipPath>
				<g clip-path="url(#SVGID_12_)">
					<polygon fill="#FFFFFF" points="1154.1,202.6 1358.6,202.6 1358.6,210.7 1154.1,207.5 					"/>
				</g>
			</g>
		</g>
		<path fill="#FFFFFF" d="M1200.8,227.5c0-60.4,24.5-100.5,66.5-100.5c26.9,0,44.7,24.1,44.7,61.6c0,60.4-25.7,100.7-66.5,100.7
			C1218.4,289.4,1200.8,265,1200.8,227.5z M1274.6,190.5c0-17.1-3.9-28-11.6-28c-15.3,0-25,29.2-25,63.5c0,16.9,4.2,28,11.6,28
			C1265.4,253.9,1274.6,224.3,1274.6,190.5z"/>
	</g>
</g>
<g>
	<path fill="#FFFFFF" d="M929,405c0.2-1.5,1.5-2.9,2.9-2.9h19.6c1.4,0,2.5,1.4,2.3,2.9l-8.8,63.6c-1.5,10.8,3.8,18.2,12.3,18.2
		c9.2,0,16.8-7.4,18.3-18.2l8.8-63.6c0.2-1.5,1.4-2.9,2.9-2.9h19.4c1.4,0,2.5,1.4,2.3,2.9l-8.9,64.8c-3.5,24.9-20.3,41.6-45.9,41.6
		c-20.6,0-37.6-18.2-34.2-41.6L929,405z"/>
	<path fill="#FFFFFF" d="M1015.3,495.2l8.3-12.5c1.4-2,3.8-1.7,4.9-0.9c2,1.5,9.5,6.8,17.9,6.8c5.7,0,10-4.3,9.9-9.4
		c-0.2-5.5-3.5-9.7-10.2-14c-9.7-6.5-22.9-16.2-22.9-32.2c0-16.6,11.5-32.5,36.5-32.5c14.6,0,25.1,7.9,29.3,11.2
		c1.5,1.2,2.2,3.8,0.9,5.2l-9.7,11.9c-1.2,1.5-3.8,1.7-4.9,0.8c-1.1-0.9-9.1-6.9-17.2-6.9c-5.2,0-9.9,3.2-9.9,7.9
		c0,5.4,3.4,8.3,12.6,13.9c7.7,4.6,22.8,14.5,22.8,32.5c0,17.7-12.3,34.5-38.5,34.5c-16.3,0-26.8-8.2-29.7-11.9
		C1014.1,498,1014.4,496.6,1015.3,495.2z"/>
	<path fill="#FFFFFF" d="M1112.6,405c0.2-1.5,1.5-2.9,2.9-2.9h58c1.5,0,2.5,1.4,2.3,2.9l-2.5,16.8c-0.2,1.5-1.4,2.9-2.9,2.9h-36.6
		l-2.8,19.1h29.9c1.4,0,2.5,1.4,2.3,2.9l-2.5,16.8c-0.3,1.7-1.7,2.9-3.1,2.9H1128l-2.9,20.8h36.6c1.5,0,2.3,1.4,2.2,2.9l-2.3,16.8
		c-0.2,1.5-1.5,2.9-3.1,2.9h-58c-1.5,0-2.5-1.4-2.2-2.9L1112.6,405z"/>
	<path fill="#FFFFFF" d="M1196.4,405c0.2-1.5,1.5-2.9,2.9-2.9h41.6c16.2,0,27.1,13.1,27.1,28.9c0,16.5-9.4,30.3-25.3,35.3l13.4,39.1
		c0.8,2-0.6,4.5-2.9,4.5h-19.9c-1.1,0-2-0.6-2.2-1.4l-12.6-40.8h-6.8l-5.5,39.3c-0.2,1.5-1.5,2.9-2.9,2.9h-19.1
		c-1.5,0-2.5-1.4-2.2-2.9L1196.4,405z M1231.4,448.1c7.2,0,12.5-6.8,12.5-14.2c0-5.4-2.8-9.9-8.3-9.9h-17.7l-3.4,24H1231.4z"/>
	<path fill="#FFFFFF" d="M1274.2,495.2l8.3-12.5c1.4-2,3.8-1.7,4.9-0.9c2,1.5,9.5,6.8,17.9,6.8c5.7,0,10-4.3,9.9-9.4
		c-0.2-5.5-3.5-9.7-10.2-14c-9.7-6.5-22.9-16.2-22.9-32.2c0-16.6,11.5-32.5,36.5-32.5c14.6,0,25.1,7.9,29.3,11.2
		c1.5,1.2,2.2,3.8,0.9,5.2l-9.7,11.9c-1.2,1.5-3.8,1.7-4.9,0.8c-1.1-0.9-9.1-6.9-17.2-6.9c-5.2,0-9.9,3.2-9.9,7.9
		c0,5.4,3.4,8.3,12.6,13.9c7.7,4.6,22.8,14.5,22.8,32.5c0,17.7-12.3,34.5-38.5,34.5c-16.3,0-26.8-8.2-29.7-11.9
		C1272.9,498,1273.2,496.6,1274.2,495.2z"/>
</g>
</svg>
