<?xml version="1.0" encoding="utf-8"?>
<!-- Generator: Adobe Illustrator 17.1.0, SVG Export Plug-In . SVG Version: 6.00 Build 0)  -->
<!DOCTYPE svg PUBLIC "-//W3C//DTD SVG 1.1//EN" "http://www.w3.org/Graphics/SVG/1.1/DTD/svg11.dtd">
<svg version="1.1" id="Layer_1" xmlns="http://www.w3.org/2000/svg" xmlns:xlink="http://www.w3.org/1999/xlink" x="0px" y="0px"
	 viewBox="0 0 333 364" enable-background="new 0 0 333 364" xml:space="preserve">
<path fill="#99D5F1" d="M212.2,334.4c0,0-3.1-11.6-6.3-33.5c-3.1-21.9,21-23.2,51.3-27.8c14.7-2.2,27.4-11.3,28.5-25.5
	c0.6-7.6-1.5-9.7,3.8-14.5c13.9-12.6,34.8-12.5,38.6-34.2c8.2-46.8-36.1-99-76.2-117.8c-15.5-7.3-35.8-13.4-57.7-17
	c-7.3-1.2-14.8-2.1-22.3-2.7c-53.4-4.3-110.3,7.5-131.1,52.2c-8.7,18.6-11.3,61.1,2.1,78.5C58.6,212.4,90,206.6,90,206.6
	s-0.4,19.1,15.3,23.2c15.4,4,26.9,4.8,38.8,16.3c12.3,11.8,20.8,27.1,30.7,40.9c5.2,7.2,16.5,39.6,13.4,49.5"/>
<path fill="none" stroke="#E9507E" stroke-width="5" stroke-miterlimit="10" d="M140.9,79.3"/>
<path fill="none" stroke="#E9507E" stroke-width="5" stroke-miterlimit="10" d="M167.2,77.3"/>
<path fill="none" stroke="#E9507E" stroke-width="5" stroke-miterlimit="10" d="M251.9,81"/>
<path fill="#00A1DE" d="M137,160.5c-5.4,1.7-10.6,3.7-15.6,6.1c-3.9-6.4-11.1-17.6-14.4-20.2c-0.4-0.3-21.9,10.3-29.5,22.6l7.1,4
	c2.6-4.2,5.7-8.2,9.2-11.8c1.7-1.7,10.1-8.5,11.5-8.1c4,1,8.9,10.1,11.6,15.9c-17.3,9.4-30.8,23.1-34.4,38l7.6-0.6
	c3.3-13.3,14.1-24.5,29-32.7c0,0,0,0.1,0,0.1l5.1-2.6c0,0,0,0,0,0c4.5-2.1,9.3-4,14.3-5.6c29.4-9.2,57.8-3.7,76.8,11.9l-4.2,14.4
	c-5.5-3.5-18.7-13.8-32.2-12.8l0.2,8.1c15.4-1.1,31.3,10.5,31.5,10.6l2.5,1.8l12.4-24.7l-1.5-1.3C203.9,155.8,168.9,150.5,137,160.5
	z"/>
<path fill="#00A1DE" d="M87.5,127.2l-12.8-11.5c13.4-17.5,46.2-26.9,46.5-26.9l2.9-0.8l-9.4-24.4l-9.5,2.1l11.7,19
	c-9,2.9-36.2,12.7-47.7,29.8l-1.1,1.7L82.6,133L87.5,127.2z"/>
<path fill="#00A1DE" d="M326.4,167.1l-28.8,0.7c-0.9-3.6-2.9-11.5-6.7-20c-7-15.7-16.1-25.7-27-29.6l-1.3-0.5L234,137.3l3,4.3
	l27.6-14.9c7.3,3.1,12.8,8.9,17,15.4l-17,12.2l4.1,7.5l15.8-14.7c6.2,11.7,8.4,23.5,8.4,23.7l0.4,2.1l2.2,0.1h32.2L326.4,167.1z"/>
<path fill="#00A1DE" d="M223.2,221l-1.5-0.7c-0.2-0.1-19.8-9.8-19.8-9.8s-4-2-4.7-1.8c-1.6,0.6-6.5,7.1-6.5,7.1
	c-1.1,1-6.1,6.9-10.3,8.2c-6.6,2.1-14.7-0.2-23-5.2c-10.2-6.1-18.3-8.4-24.3-6.8l-14.8-16.9l-7.7,5.1l17.3,14.4
	c-7.2,6-5.4,15.7-5.6,19.1l5.3,1.7c0,0-0.5-14.2,4.6-17.5c4.3-2.8,12.1-1,22.5,5.3c9.7,5.8,18.7,7.5,26.9,4.9c8-2.5,15.4-14,17-14.4
	c2.5-0.6,13.7,7.7,16.8,9.8c1,0.7,0.5,1.1,0.3,1.8c-0.8,2.6-7.3,11.6-8.6,13.5c-7.4,10.4-15.2,11.3-24.8,10.9l-0.1,8.8
	c0.5,0.1,1,0.1,1.5,0.1c14.2,0,22.6-9.4,27.7-16.6c0.6-0.8,3.5-5.2,6.3-9.4c1.6-2.4,2.8-4.4,3.7-5.9
	C223,224.1,225.3,222.5,223.2,221z"/>
<path fill="#00A1DE" d="M145,141c0.1-0.1,12.3-6.9,36.5-4.8l0.4-8.5c-19.6-1.8-31.8,5.3-36.9,7.4l-9.5-22.2
	c39.8-19.1,83.2,9.5,83.6,9.8l1.8,1.2l43.7-36l-8.7-5l-35.7,34.3c-9.2-5.6-50.4-28.3-89.3-7.8l-2.1,1.1l13.6,32L145,141z"/>
<path fill="#00A1DE" d="M66.9,182.8c-0.2-0.3-21-24.9-6.7-45.7l-7.9-5c-7,10.1-7.3,22.8-0.9,36.6c3.4,7.2,7.7,12.9,10,15.7
	l-13.8,12.4l6.1,4.3c0,0,15-10.9,14.9-16.5C68.6,184,66.9,182.8,66.9,182.8z"/>
<path fill="#00A1DE" d="M252.8,200.8c-8.8-3.1-9.2-9.8-9.1-20.6c0.1-7.1,0.1-14.5-3.9-20.6c-9.6-14.7-30.2-24.7-38.4-26.5l-0.8,9.2
	c7.6,1.7,26.2,7,34.8,20.1c3.1,4.8,3.1,11.3,3,17.7c-0.1,9.9-0.2,21.1,12.6,25.6c2.9,1,5.8,1.4,8.9,1.4c11.7,0,24.5-6.5,33.7-13.6
	L287,187C276.9,194.8,264.5,204.9,252.8,200.8z"/>
<polygon fill="#FFFFFF" points="131,152.5 134.9,144.3 134.9,158.1 122.1,153.8 "/>
<path fill="#FFFFFF" d="M202.5,335.8c-0.6-1.5-1.3-3.1-1.9-4.7l2.3-0.9c0.6,1.6,1.2,3.1,1.8,4.6L202.5,335.8z M198.9,326.3
	c-0.5-1.6-1-3.2-1.5-4.8l2.4-0.7c0.5,1.6,0.9,3.2,1.5,4.7L198.9,326.3z M196.1,316.6c-0.4-1.7-0.8-3.3-1.1-4.9l2.5-0.5
	c0.3,1.6,0.7,3.2,1.1,4.8L196.1,316.6z M194.2,306.7c-0.2-1.7-0.4-3.4-0.5-5.1l2.5-0.2c0.1,1.6,0.3,3.2,0.5,4.9L194.2,306.7z
	 M195.9,296.5h-2.5c0-1.8,0.1-3.5,0.3-5.1l2.5,0.3C196.1,293.2,196,294.8,195.9,296.5z M197.2,287l-2.4-0.7c0.6-1.8,1.3-3.5,2.2-4.9
	l2.1,1.3C198.3,284,197.7,285.4,197.2,287z M202.2,279.5l-1.4-2.1c0.3-0.2,0.7-0.4,1.1-0.6c1.1-0.6,2.2-1.3,3.3-1.9l1.3,2.1
	c-1.1,0.7-2.3,1.4-3.4,2C202.7,279.2,202.4,279.3,202.2,279.5z M210.6,274.1l-1.5-2c1.3-1,2.6-2,3.8-3.1l1.6,1.9
	C213.3,272.1,212,273.1,210.6,274.1z M218.3,267.5l-1.8-1.8c1.1-1.2,2.3-2.4,3.3-3.6l1.9,1.6C220.7,265,219.5,266.3,218.3,267.5z
	 M225,259.8l-2-1.5c1-1.3,1.9-2.7,2.8-4l2.1,1.4C227,257,226,258.4,225,259.8z M230.5,251.2l-2.2-1.2c0.8-1.4,1.5-2.9,2.2-4.4
	l2.3,1.1C232.1,248.3,231.3,249.8,230.5,251.2z M234.8,242.1l-2.3-0.9c0.3-0.7,0.6-1.4,0.8-2.2c0.3-0.8,0.5-1.6,0.7-2.4l2.4,0.6
	c-0.2,0.9-0.5,1.8-0.8,2.7C235.4,240.6,235.1,241.3,234.8,242.1z M237.1,231.9h-2.5v-0.2c0-1.5-0.2-3-0.5-4.5l2.4-0.6
	c0.4,1.7,0.6,3.4,0.6,5V231.9z M232.6,222.8c-0.7-1.4-1.5-2.8-2.5-4.1l2-1.5c1.1,1.4,2,2.9,2.7,4.5L232.6,222.8z M226.9,215.2
	c-1.1-1.1-2.4-2.1-3.7-3.1l1.5-2c1.4,1,2.8,2.2,4,3.3L226.9,215.2z M176.7,210.2l-0.2-2.5c1.5-0.1,3.1-0.5,4.6-0.9l0.7,2.4
	C180.2,209.7,178.4,210.1,176.7,210.2z M171.4,210.1c-1.7-0.2-3.4-0.6-5.1-1.2l0.8-2.4c1.5,0.5,3.1,0.9,4.6,1.1L171.4,210.1z
	 M219.1,209.5c-1.4-0.8-2.9-1.5-4.4-2.1l0.9-2.3c1.6,0.7,3.2,1.4,4.6,2.2L219.1,209.5z M186.6,207.2l-1.1-2.2
	c1.5-0.8,3.2-1.4,4.9-1.9l0.7,2.4C189.5,205.9,188,206.5,186.6,207.2z M161.6,206.8c-1.1-0.6-2.2-1.3-3.3-2.1
	c-0.3-0.2-0.7-0.5-1-0.8l1.5-2c0.3,0.2,0.6,0.5,0.9,0.7c1,0.7,2.1,1.4,3.1,2L161.6,206.8z M210.2,205.8c-1.6-0.4-3.2-0.8-4.7-1
	l0.4-2.5c1.7,0.3,3.4,0.6,5,1.1L210.2,205.8z M195.8,204.6l-0.3-2.5c1.4-0.2,2.9-0.2,4.3-0.2c0.3,0,0.6,0,0.8,0l-0.1,2.5
	c-0.3,0-0.6,0-0.9,0C198.4,204.3,197.1,204.4,195.8,204.6z M153.4,200.5c-1.1-1.1-2.3-2.4-3.5-3.7l1.9-1.6c1.1,1.3,2.2,2.5,3.3,3.6
	L153.4,200.5z M146.7,192.9c-1-1.4-2-2.8-3-4.1l2.1-1.4c0.9,1.3,1.9,2.7,2.9,4L146.7,192.9z M141.1,184.4c-0.9-1.6-1.7-3.2-2.3-4.6
	l2.3-1c0.6,1.3,1.3,2.8,2.1,4.4L141.1,184.4z"/>
<polygon fill="#FFFFFF" points="139,177.7 133.5,184.9 136.4,171.5 147.9,178.4 "/>
<path fill="#FFFFFF" d="M127.8,150.9c-1.2-1.3-2.3-2.5-3.3-3.8l1.9-1.6c1,1.2,2.1,2.4,3.3,3.7L127.8,150.9z M121.2,143.3
	c-1.1-1.4-2.1-2.7-3-4.1l2-1.4c0.9,1.3,1.9,2.6,3,4L121.2,143.3z M115.4,135c-0.9-1.5-1.8-3-2.5-4.5l2.2-1.1
	c0.7,1.4,1.5,2.8,2.4,4.3L115.4,135z M110.9,125.8c-0.6-1.7-1.1-3.4-1.3-5l2.5-0.4c0.2,1.5,0.7,3,1.2,4.6L110.9,125.8z M111.8,115.6
	l-2.5-0.2c0.1-1.8,0.5-3.6,1.2-5.2l2.3,0.9C112.2,112.5,111.9,114,111.8,115.6z M115.2,107.2l-1.9-1.6c1-1.2,2.3-2.4,3.7-3.5
	l0.1-0.1l1.5,2l-0.1,0.1C117.2,105.1,116.1,106.1,115.2,107.2z M122.6,101.4l-1.2-2.2c1.5-0.8,3-1.5,4.7-2.1l0.9,2.3
	C125.5,100.1,124,100.7,122.6,101.4z M131.7,98l-0.6-2.4c1.5-0.4,3.1-0.8,4.9-1.1l0.5,2.5C134.7,97.2,133.2,97.6,131.7,98z
	 M141.4,96l-0.4-2.5c1.3-0.2,2.6-0.4,3.8-0.6l1.1-0.2l0.4,2.5l-1.1,0.2C143.9,95.6,142.6,95.8,141.4,96z M151.3,94.5l-0.4-2.5
	c1.8-0.3,3.4-0.6,4.8-1l0.6,2.4C154.7,93.8,153.1,94.1,151.3,94.5z M161.2,92.2l-0.7-2.4c1.6-0.5,3.1-1.1,4.5-1.7l1,2.3
	C164.5,91,162.9,91.6,161.2,92.2z M170.5,87.9l-1.3-2.1c1.4-0.9,2.6-1.8,3.8-2.9l1.7,1.9C173.4,85.9,172,87,170.5,87.9z M178.2,81
	l-1.9-1.6c1-1.2,2-2.5,2.8-3.9l2.1,1.3C180.3,78.3,179.3,79.7,178.2,81z M183.7,72.3l-2.3-1c0.7-1.5,1.3-3,1.8-4.5l2.4,0.8
	C185,69.1,184.4,70.7,183.7,72.3z M186.9,62.5l-2.4-0.5c0.3-1.6,0.6-3.2,0.7-4.8l2.5,0.2C187.5,59.1,187.2,60.8,186.9,62.5z"/>
</svg>
