<?xml version="1.0" encoding="utf-8"?>
<!-- Generator: Adobe Illustrator 17.1.0, SVG Export Plug-In . SVG Version: 6.00 Build 0)  -->
<!DOCTYPE svg PUBLIC "-//W3C//DTD SVG 1.1//EN" "http://www.w3.org/Graphics/SVG/1.1/DTD/svg11.dtd">
<svg version="1.1" id="Layer_1" xmlns="http://www.w3.org/2000/svg" xmlns:xlink="http://www.w3.org/1999/xlink" x="0px" y="0px"
	 viewBox="0 3.5 40 24.5" enable-background="new 0 3.5 40 24.5" xml:space="preserve">
<path fill="#99D5F1" d="M23.8,27.6c0,0-0.3-1-0.5-2.8C23,23,25,22.9,27.5,22.5c1.2-0.2,2.3-0.9,2.3-2.1c0-0.6-0.1-0.8,0.3-1.2
	c1.1-1,2.9-1,3.2-2.8c0.7-3.9-3-8.2-6.3-9.7c-1.3-0.6-3-1.1-4.8-1.4c-0.6-0.1-1.2-0.2-1.8-0.2C16,4.7,11.4,5.7,9.6,9.4
	c-0.7,1.5-0.9,5,0.2,6.5c1.3,1.7,3.9,1.2,3.9,1.2s0,1.6,1.3,1.9c1.3,0.3,2.2,0.4,3.2,1.3c1,1,1.7,2.2,2.5,3.4
	c0.4,0.6,1.4,3.3,1.1,4.1"/>
<path fill="none" stroke="#E9507E" stroke-width="5" stroke-miterlimit="10" d="M17.9,6.5"/>
<path fill="none" stroke="#E9507E" stroke-width="5" stroke-miterlimit="10" d="M20.1,6.4"/>
<path fill="none" stroke="#E9507E" stroke-width="5" stroke-miterlimit="10" d="M27,6.7"/>
<path fill="#00A1DE" d="M17.6,13.2c-0.4,0.1-0.9,0.3-1.3,0.5c-0.3-0.5-0.9-1.5-1.2-1.7c0,0-1.8,0.8-2.4,1.9l0.6,0.3
	c0.2-0.3,0.5-0.7,0.8-1c0.1-0.1,0.8-0.7,0.9-0.7c0.3,0.1,0.7,0.8,1,1.3c-1.4,0.8-2.5,1.9-2.8,3.1l0.6,0c0.3-1.1,1.2-2,2.4-2.7v0
	l0.4-0.2l0,0c0.4-0.2,0.8-0.3,1.2-0.5c2.4-0.8,4.8-0.3,6.3,1l-0.3,1.2c-0.5-0.3-1.5-1.1-2.7-1.1l0,0.7c1.3-0.1,2.6,0.9,2.6,0.9
	l0.2,0.1l1-2l-0.1-0.1C23.1,12.8,20.2,12.4,17.6,13.2z"/>
<path fill="#00A1DE" d="M13.5,10.5l-1.1-0.9c1.1-1.4,3.8-2.2,3.8-2.2l0.2-0.1l-0.8-2l-0.8,0.2l1,1.6c-0.7,0.2-3,1-3.9,2.5l-0.1,0.1
	l1.2,1.4L13.5,10.5z"/>
<path fill="#00A1DE" d="M33.2,13.8l-2.4,0.1c-0.1-0.3-0.2-0.9-0.6-1.6c-0.6-1.3-1.3-2.1-2.2-2.4l-0.1,0l-2.4,1.6l0.2,0.4l2.3-1.2
	c0.6,0.3,1.1,0.7,1.4,1.3l-1.4,1l0.3,0.6l1.3-1.2c0.5,1,0.7,1.9,0.7,2l0,0.2l0.2,0h2.7L33.2,13.8z"/>
<path fill="#00A1DE" d="M24.7,18.2l-0.1-0.1c0,0-1.6-0.8-1.6-0.8s-0.3-0.2-0.4-0.1c-0.1,0-0.5,0.6-0.5,0.6c-0.1,0.1-0.5,0.6-0.8,0.7
	c-0.5,0.2-1.2,0-1.9-0.4c-0.8-0.5-1.5-0.7-2-0.6L16,16.1l-0.6,0.4l1.4,1.2c-0.6,0.5-0.4,1.3-0.5,1.6l0.4,0.1c0,0,0-1.2,0.4-1.4
	c0.4-0.2,1-0.1,1.9,0.4c0.8,0.5,1.5,0.6,2.2,0.4c0.7-0.2,1.3-1.2,1.4-1.2c0.2,0,1.1,0.6,1.4,0.8c0.1,0.1,0,0.1,0,0.1
	c-0.1,0.2-0.6,1-0.7,1.1c-0.6,0.9-1.3,0.9-2,0.9l0,0.7c0,0,0.1,0,0.1,0c1.2,0,1.9-0.8,2.3-1.4c0-0.1,0.3-0.4,0.5-0.8
	c0.1-0.2,0.2-0.4,0.3-0.5C24.7,18.5,24.8,18.3,24.7,18.2z"/>
<path fill="#00A1DE" d="M18.2,11.6c0,0,1-0.6,3-0.4l0-0.7c-1.6-0.1-2.6,0.4-3,0.6l-0.8-1.8c3.3-1.6,6.9,0.8,6.9,0.8l0.1,0.1l3.6-3
	l-0.7-0.4l-2.9,2.8c-0.8-0.5-4.2-2.3-7.4-0.6l-0.2,0.1l1.1,2.6L18.2,11.6z"/>
<path fill="#00A1DE" d="M11.8,15.1c0,0-1.7-2.1-0.6-3.8l-0.7-0.4c-0.6,0.8-0.6,1.9-0.1,3c0.3,0.6,0.6,1.1,0.8,1.3l-1.1,1l0.5,0.4
	c0,0,1.2-0.9,1.2-1.4C11.9,15.2,11.8,15.1,11.8,15.1z"/>
<path fill="#00A1DE" d="M27.1,16.5c-0.7-0.3-0.8-0.8-0.8-1.7c0-0.6,0-1.2-0.3-1.7c-0.8-1.2-2.5-2-3.2-2.2l-0.1,0.8
	c0.6,0.1,2.2,0.6,2.9,1.7c0.3,0.4,0.3,0.9,0.2,1.5c0,0.8,0,1.7,1,2.1c0.2,0.1,0.5,0.1,0.7,0.1c1,0,2-0.5,2.8-1.1l-0.5-0.5
	C29.1,16.1,28.1,16.9,27.1,16.5z"/>
<polygon fill="#FFFFFF" points="17.1,12.6 17.4,11.9 17.4,13 16.3,12.7 "/>
<path fill="#FFFFFF" d="M23,27.7c0-0.1-0.1-0.3-0.2-0.4l0.2-0.1c0,0.1,0.1,0.3,0.1,0.4L23,27.7z M22.7,26.9c0-0.1-0.1-0.3-0.1-0.4
	l0.2-0.1c0,0.1,0.1,0.3,0.1,0.4L22.7,26.9z M22.4,26.1c0-0.1-0.1-0.3-0.1-0.4l0.2,0c0,0.1,0.1,0.3,0.1,0.4L22.4,26.1z M22.3,25.3
	c0-0.1,0-0.3,0-0.4l0.2,0c0,0.1,0,0.3,0,0.4L22.3,25.3z M22.4,24.4h-0.2c0-0.1,0-0.3,0-0.4l0.2,0C22.4,24.2,22.4,24.3,22.4,24.4z
	 M22.5,23.7l-0.2-0.1c0-0.1,0.1-0.3,0.2-0.4l0.2,0.1C22.6,23.4,22.6,23.5,22.5,23.7z M22.9,23l-0.1-0.2c0,0,0.1,0,0.1,0
	c0.1,0,0.2-0.1,0.3-0.2l0.1,0.2C23.2,22.9,23.1,22.9,22.9,23C23,23,23,23,22.9,23z M23.6,22.6l-0.1-0.2c0.1-0.1,0.2-0.2,0.3-0.3
	l0.1,0.2C23.9,22.4,23.8,22.5,23.6,22.6z M24.3,22l-0.1-0.1c0.1-0.1,0.2-0.2,0.3-0.3l0.2,0.1C24.5,21.8,24.4,21.9,24.3,22z
	 M24.8,21.4l-0.2-0.1c0.1-0.1,0.2-0.2,0.2-0.3l0.2,0.1C25,21.2,24.9,21.3,24.8,21.4z M25.3,20.7l-0.2-0.1c0.1-0.1,0.1-0.2,0.2-0.4
	l0.2,0.1C25.4,20.5,25.3,20.6,25.3,20.7z M25.6,20l-0.2-0.1c0-0.1,0-0.1,0.1-0.2c0-0.1,0-0.1,0.1-0.2l0.2,0c0,0.1,0,0.1-0.1,0.2
	C25.7,19.8,25.7,19.9,25.6,20z M25.8,19.1h-0.2v0c0-0.1,0-0.2,0-0.4l0.2,0C25.8,18.8,25.8,19,25.8,19.1L25.8,19.1z M25.4,18.4
	c-0.1-0.1-0.1-0.2-0.2-0.3l0.2-0.1c0.1,0.1,0.2,0.2,0.2,0.4L25.4,18.4z M25,17.7c-0.1-0.1-0.2-0.2-0.3-0.3l0.1-0.2
	c0.1,0.1,0.2,0.2,0.3,0.3L25,17.7z M20.8,17.3l0-0.2c0.1,0,0.3,0,0.4-0.1l0.1,0.2C21.1,17.3,21,17.3,20.8,17.3z M20.4,17.3
	c-0.1,0-0.3,0-0.4-0.1L20,17c0.1,0,0.3,0.1,0.4,0.1L20.4,17.3z M24.3,17.3c-0.1-0.1-0.2-0.1-0.4-0.2l0.1-0.2
	c0.1,0.1,0.3,0.1,0.4,0.2L24.3,17.3z M21.7,17.1l-0.1-0.2c0.1-0.1,0.3-0.1,0.4-0.2l0.1,0.2C21.9,17,21.8,17,21.7,17.1z M19.6,17
	c-0.1,0-0.2-0.1-0.3-0.2c0,0-0.1,0-0.1-0.1l0.1-0.2c0,0,0,0,0.1,0.1c0.1,0.1,0.2,0.1,0.3,0.2L19.6,17z M23.6,17
	c-0.1,0-0.3-0.1-0.4-0.1l0-0.2c0.1,0,0.3,0,0.4,0.1L23.6,17z M22.4,16.9l0-0.2c0.1,0,0.2,0,0.4,0c0,0,0,0,0.1,0l0,0.2c0,0,0,0-0.1,0
	C22.6,16.8,22.5,16.8,22.4,16.9z M18.9,16.5c-0.1-0.1-0.2-0.2-0.3-0.3l0.2-0.1c0.1,0.1,0.2,0.2,0.3,0.3L18.9,16.5z M18.4,15.9
	c-0.1-0.1-0.2-0.2-0.2-0.3l0.2-0.1c0.1,0.1,0.2,0.2,0.2,0.3L18.4,15.9z M17.9,15.2c-0.1-0.1-0.1-0.3-0.2-0.4l0.2-0.1
	c0,0.1,0.1,0.2,0.2,0.4L17.9,15.2z"/>
<polygon fill="#FFFFFF" points="17.7,14.6 17.3,15.2 17.5,14.1 18.5,14.7 "/>
<path fill="#FFFFFF" d="M16.8,12.4c-0.1-0.1-0.2-0.2-0.3-0.3l0.2-0.1c0.1,0.1,0.2,0.2,0.3,0.3L16.8,12.4z M16.3,11.8
	c-0.1-0.1-0.2-0.2-0.2-0.3l0.2-0.1c0.1,0.1,0.2,0.2,0.2,0.3L16.3,11.8z M15.8,11.1c-0.1-0.1-0.1-0.2-0.2-0.4l0.2-0.1
	c0.1,0.1,0.1,0.2,0.2,0.4L15.8,11.1z M15.4,10.4c0-0.1-0.1-0.3-0.1-0.4l0.2,0c0,0.1,0.1,0.2,0.1,0.4L15.4,10.4z M15.5,9.5l-0.2,0
	c0-0.1,0-0.3,0.1-0.4l0.2,0.1C15.5,9.3,15.5,9.4,15.5,9.5z M15.8,8.8l-0.2-0.1c0.1-0.1,0.2-0.2,0.3-0.3l0,0l0.1,0.2l0,0
	C15.9,8.7,15.8,8.7,15.8,8.8z M16.4,8.4l-0.1-0.2c0.1-0.1,0.2-0.1,0.4-0.2l0.1,0.2C16.6,8.2,16.5,8.3,16.4,8.4z M17.1,8.1l0-0.2
	c0.1,0,0.3-0.1,0.4-0.1l0,0.2C17.4,8,17.3,8,17.1,8.1z M17.9,7.9l0-0.2c0.1,0,0.2,0,0.3,0l0.1,0l0,0.2l-0.1,0
	C18.1,7.9,18,7.9,17.9,7.9z M18.7,7.8l0-0.2c0.1,0,0.3,0,0.4-0.1l0,0.2C19,7.7,18.9,7.8,18.7,7.8z M19.6,7.6l-0.1-0.2
	c0.1,0,0.3-0.1,0.4-0.1L20,7.5C19.8,7.5,19.7,7.5,19.6,7.6z M20.3,7.2l-0.1-0.2c0.1-0.1,0.2-0.1,0.3-0.2L20.7,7
	C20.6,7.1,20.5,7.2,20.3,7.2z M21,6.7l-0.2-0.1C20.9,6.4,21,6.3,21,6.2l0.2,0.1C21.1,6.5,21.1,6.6,21,6.7z M21.4,6l-0.2-0.1
	c0.1-0.1,0.1-0.2,0.1-0.4l0.2,0.1C21.5,5.7,21.5,5.8,21.4,6z M21.7,5.2l-0.2,0c0-0.1,0-0.3,0.1-0.4l0.2,0C21.7,4.9,21.7,5,21.7,5.2z
	"/>
</svg>
