<?xml version="1.0" encoding="utf-8"?>
<!-- Generator: Adobe Illustrator 17.1.0, SVG Export Plug-In . SVG Version: 6.00 Build 0)  -->
<!DOCTYPE svg PUBLIC "-//W3C//DTD SVG 1.1//EN" "http://www.w3.org/Graphics/SVG/1.1/DTD/svg11.dtd">
<svg version="1.1" id="Layer_1" xmlns="http://www.w3.org/2000/svg" xmlns:xlink="http://www.w3.org/1999/xlink" x="0px" y="0px"
	 viewBox="0 0 40 30" enable-background="new 0 0 40 30" xml:space="preserve">
<g>
	<path fill="#C5E9EA" d="M26.5,10.8c-0.7-0.4-2.6-0.6-2.6-0.6c-0.1-0.6-0.3-1.1-0.6-1.7c-1.4-2.4-8.8-2.3-8.8-2.3
		C14,6.5,13.4,7.1,13,7.6l-0.4-0.1c-1.7-0.4-3.6,0.3-4.4,2c-1,1.9-0.1,4.1,1.7,5c0.1,0,0.4,0.1,0.7,0.1l2.8,0c0.6,0.7,1.1,1.7,2,2.1
		c1.9,1,4,0.9,5.7-0.1c0,0,1.1,1.1,1.9,1.4c2,1,4.4,0.1,5.4-1.9C29.3,14.2,28.5,11.8,26.5,10.8z"/>
	<path fill="#C5E9EA" d="M30.4,18.7c0.1-0.2,0-0.4-0.1-0.6c-0.1-0.4-0.5-0.7-0.9-0.7c-0.6,0-1,0.4-1,1c0,0.5,0.3,0.8,0.8,0.9
		c0,0,0.1,0,0.1,0c0,0,0.1,0,0.1,0c0,0,0,0,0.1,0c0.3,0,0.6-0.2,0.8-0.4C30.3,19,30.3,18.9,30.4,18.7z"/>
	<path fill="#C5E9EA" d="M31.4,20.3c0.1-0.3,0.1-0.5-0.1-0.6c-0.1-0.1-0.3-0.2-0.4-0.2c-0.3,0-0.6,0.3-0.6,0.6
		c-0.1,0.3,0.1,0.6,0.4,0.7C31,20.9,31.2,20.6,31.4,20.3z"/>
	<path fill="#C5E9EA" d="M31.7,21c-0.3-0.1-0.6,0-0.6,0.3c-0.1,0.3,0,0.6,0.3,0.6c0,0,0.1,0,0.1,0c0,0,0,0,0.1,0
		c0.1,0,0.4,0,0.4-0.3c0,0.1-0.1,0.1-0.1,0.2c0.1-0.1,0.1-0.1,0.1-0.2c0,0,0,0,0,0.1C32.1,21.3,32,21.2,31.7,21z M31.8,21.8
		C31.8,21.8,31.8,21.8,31.8,21.8C31.8,21.8,31.8,21.8,31.8,21.8z"/>
</g>
<g>
	<path fill="#FDFFFF" d="M21.6,16.6c-0.4-0.1-0.9,0-1.3,0.1c-1.3,0.4-2.6,0.6-3.8,0.3c-1.1-0.3-2.1-1.1-2.7-2.1
		c-0.7-1.1,0.9-1.6,1.7-1.9c0.4-0.1,0.9-0.3,1-0.6c0.3-0.4,0-0.9-0.3-1.1c-0.6-0.7-1.7-0.7-2.6-0.4c-0.9,0.1-1.6,0.7-2.1,1.4
		s-1,1.6-1,2.4c-0.1,1,0.1,1.7,0.7,2.6c0.6,0.7,1.3,1.4,1.7,2.1c0.7,1,0.6,2.3,0.6,3.4c-0.1,1.3-0.4,2.6-0.4,3.8
		c0,0.1,0.1,0.3,0.3,0.3c1.9-0.3,3.8-0.6,5.7-0.7c0.1,0,0.1-0.1,0.1-0.3c-0.3-1.3-0.1-2.4,0.6-3.6c0.3-0.4,0.6-0.9,0.9-1.4
		c0.3-0.6,0.6-1.1,1-1.6c0.3-0.6,1.1-1.1,0.9-1.9C22.3,17,22,16.7,21.6,16.6z"/>
	<path fill="#FDFFFF" d="M23.7,6.1c-0.3-0.1-0.7-0.3-1.1-0.3c0.1-1.1-0.1-2.1-1.3-2.1c-0.1,0-0.4,0-0.6,0c-0.1-0.4-0.4-0.9-1-1
		c-0.7-0.1-1.3,0.3-1.7,1c-0.1,0.1-0.1,0.3-0.3,0.6c-0.1-0.4-0.3-1-0.7-1.3c-0.6-0.6-1.4-0.1-1.9,0.3c-1.3,1.1-2.3,2.4-2.6,4.1
		c0,0,0,0.1,0.1,0.1c0.1,0.1,0.3,0.1,0.4,0.3c0.1,0.1,0.3,0,0.3-0.1c0.1-0.4,0.6-0.7,1-1c-0.1,0.4,0,0.9,0.1,1.3
		c0.3,0.7,0.9,1.3,1.6,1c0.3-0.1,0.6-0.3,0.7-0.6c0,0.1,0,0.1,0,0.3c0.1,0.6,0.4,1,1,1.1c0.4,0.1,0.7,0,1-0.1c0.3,0.3,0.6,0.3,1,0.3
		c0,0.3,0,0.7,0.4,0.9c0.4,0.1,1.1-0.1,1.6-0.4c1.1-0.7,2.3-1.9,2.4-3.3C24.4,6.6,24.1,6.2,23.7,6.1z"/>
</g>
</svg>
