<?xml version="1.0" encoding="utf-8"?>
<!-- Generator: Adobe Illustrator 17.1.0, SVG Export Plug-In . SVG Version: 6.00 Build 0)  -->
<!DOCTYPE svg PUBLIC "-//W3C//DTD SVG 1.1//EN" "http://www.w3.org/Graphics/SVG/1.1/DTD/svg11.dtd">
<svg version="1.1" id="Layer_1" xmlns="http://www.w3.org/2000/svg" xmlns:xlink="http://www.w3.org/1999/xlink" x="0px" y="0px"
	 viewBox="0 0 555.4 562.7" enable-background="new 0 0 555.4 562.7" xml:space="preserve">
<g>
	<g>
		<path fill="#C5E9EA" d="M68.6,286.6c-6.2-1.1-11.8-2.7-16.1-4.8C9.4,260.6-8.2,208.5,13,165.5c19-38.6,62.9-56.7,102.8-44.8
			l9.5,2.5c9.7-13.7,21.6-25.2,35-34.2c0,0,170.5-2.7,202,51.4c7.1,12.3,11,26.2,13.4,40.2c0,0,42.1,4.2,57.6,11.8
			c46,22.7,64.8,78.4,42.1,124.3s-78.4,64.8-124.3,42.1c-14.8-7.3-43.5-33.9-43.5-33.9c-38.8,22.1-87.5,25.2-130.6,3.9
			c-19.8-9.8-32.6-31.7-45.1-48.1"/>
		<path fill="#C5E9EA" d="M202.8,339.6c-9-2.4-17.8-5.7-26.3-9.9c-16.2-8-27.8-24.1-38.1-38.4c-2.5-3.5-4.9-6.9-7.4-10l1.6-1.2
			c2.5,3.2,4.9,6.5,7.4,10.1c10.1,14.1,21.6,30,37.4,37.8c41.2,20.3,89.7,18.9,129.7-3.9l0.6-0.4l0.5,0.5
			c0.3,0.3,28.8,26.6,43.3,33.8c45.4,22.4,100.6,3.7,123-41.7s3.7-100.6-41.7-123c-15.2-7.5-56.8-11.7-57.2-11.7l-0.8-0.1l-0.1-0.8
			c-2.8-16.2-7.2-29.3-13.3-39.9C331.2,89,168.7,89.9,160.6,90c-13.5,9.2-25.1,20.5-34.5,33.8l-0.4,0.6l-10.2-2.7
			c-40.3-12.1-83,6.5-101.6,44.2c-10.2,20.6-11.7,43.8-4.3,65.6c7.4,21.7,22.7,39.3,43.3,49.4c3.9,1.9,9.3,3.5,15.9,4.7l-0.4,2
			c-6.8-1.2-12.3-2.9-16.4-4.9c-21-10.4-36.8-28.4-44.3-50.6s-6-46.1,4.4-67.1c19.1-38.6,62.8-57.6,104-45.3l8.8,2.3
			c9.6-13.3,21.3-24.7,34.9-33.9L160,88h0.3c0.4,0,43.2-0.6,89.3,5.4c62.1,8.1,100.3,23.7,113.5,46.4c6.2,10.6,10.6,23.7,13.4,39.8
			c6,0.6,42.6,4.7,57.2,11.8c22.5,11.1,39.3,30.3,47.3,54s6.4,49.2-4.7,71.7c-20.1,40.7-65.9,60.4-108.1,49.2
			c-6-1.6-11.9-3.8-17.6-6.6c-13.8-6.8-39.1-29.8-43.2-33.6C275.2,344.3,237.7,348.8,202.8,339.6z"/>
	</g>
	<g>
		<circle fill="#C5E9EA" cx="497.2" cy="368" r="21.7"/>
		<path fill="#C5E9EA" d="M491.4,390c-12.1-3.2-19.4-15.7-16.2-27.8c3.2-12.1,15.7-19.4,27.8-16.2c12.1,3.2,19.4,15.7,16.2,27.8
			C515.9,385.9,503.5,393.2,491.4,390z M502.5,348c-11-2.9-22.4,3.7-25.3,14.7s3.7,22.4,14.7,25.3s22.4-3.7,25.3-14.7
			S513.5,350.9,502.5,348z"/>
	</g>
	<g>
		<circle fill="#C5E9EA" cx="530.3" cy="406.1" r="14.2"/>
		<path fill="#C5E9EA" d="M526.4,420.8c-8.1-2.1-13-10.5-10.8-18.6c2.1-8.1,10.5-13,18.6-10.8c8.1,2.1,13,10.5,10.8,18.6
			S534.5,423,526.4,420.8z M533.6,393.3c-7-1.9-14.3,2.4-16.1,9.4c-1.9,7,2.4,14.3,9.4,16.1s14.3-2.4,16.1-9.4
			C544.9,402.4,540.7,395.2,533.6,393.3z"/>
	</g>
	<g>
		<circle fill="#C5E9EA" cx="545.3" cy="437.5" r="9.1"/>
		<path fill="#C5E9EA" d="M542.7,447.2c-5.4-1.4-8.6-6.9-7.2-12.3c1.4-5.4,6.9-8.6,12.3-7.2c5.4,1.4,8.6,6.9,7.2,12.3
			C553.6,445.4,548.1,448.6,542.7,447.2z M547.4,429.7c-4.3-1.1-8.7,1.4-9.8,5.7c-1.1,4.3,1.4,8.7,5.7,9.8c4.3,1.1,8.7-1.4,9.8-5.7
			C554.2,435.2,551.7,430.8,547.4,429.7z"/>
	</g>
	<g>
		<path fill="#FDFFFF" d="M317.5,325c-9.8-3.9-19.6-0.9-29.1,2.5c-28.2,10.3-58,13.6-87.3,5.3c-24.7-7-50.5-27.4-62.8-50
			c-15.1-27.7,19-35.6,38.3-42c8.6-2.8,18.1-6,23.6-13.6c6-8.3-0.2-18.5-5.5-25.1c-14.2-17.8-38.1-14.9-58.2-10
			c-19.9,4.9-37.2,17.9-50.1,33.5c-12.9,15.7-21.6,35.5-23.8,55.7c-2.3,21.6,3.4,40.1,15.6,58c12.1,17.7,28,32.4,39.5,50.5
			c15,23.6,14.3,50.8,12,77.7c-2.5,29.5-8.4,58.7-10.8,88.2c-0.2,2.5,2.5,5.3,5.1,5c44-5.8,88.1-11.5,132.1-17.3
			c0.5-0.1,0.9-0.2,1.3-0.3c2.4-0.7,4.3-2.9,3.6-6.1c-6.9-29.3-2-55.5,12.3-81.6c5.9-10.8,12.8-21.1,19.3-31.5
			c7.6-12.1,13.8-25.1,21.6-37c7.9-12.1,24.8-25.8,20.6-42C332.7,336.9,325.2,328.1,317.5,325z"/>
		<path fill="#FDFFFF" d="M365,82.2c-5.3-3-16.6-6.5-25.4-6.1c2.8-23.8-2.4-47.6-31.4-47.4c-2.9,0-8.8,0.4-14.1,1.5
			c-3.4-11-11.2-19.6-24.1-22.9c-17.1-4.5-30.5,8-38.3,21.8c-2.2,3.9-4.1,8-5.7,12.2c-2.1-11.6-6.1-23.4-14.8-30.7
			C197-1.3,179.8,8.2,167.8,18C137,43.3,114.5,74.4,109,114.6c-0.1,0.4-0.1,0.8,0,1.1c-0.1,1.6,0.6,3.3,2.3,4.5
			c3.8,2.4,7.6,4.9,11.4,7.3c2.8,1.8,6.6,0,7.4-3.1c2.8-9.8,12-17.3,21.4-22.8c-2.1,9.7-0.6,18.4,4.2,29.5
			c6.8,15.6,18.6,29.2,37.1,22.2c7-2.6,12.6-7.7,17.1-13.7c0.3,2.4,0.6,4.8,1.1,7.1c2.3,12.2,9.3,22.9,21.7,26.2
			c9.3,2.5,17.6,0.3,24.5-4.7c6.9,6.9,14.4,8.1,21.8,5.7c-0.6,7.8,1.1,15.7,9,19c11.4,4.7,25.2-2.6,34.8-8.2
			c26.4-15.3,53.8-44.2,56.7-75.9C380.5,97.6,374.7,87.7,365,82.2z"/>
	</g>
</g>
</svg>
