<?xml version="1.0" encoding="utf-8"?>
<!-- Generator: Adobe Illustrator 17.1.0, SVG Export Plug-In . SVG Version: 6.00 Build 0)  -->
<!DOCTYPE svg PUBLIC "-//W3C//DTD SVG 1.1//EN" "http://www.w3.org/Graphics/SVG/1.1/DTD/svg11.dtd">
<svg version="1.1" id="Layer_1" xmlns="http://www.w3.org/2000/svg" xmlns:xlink="http://www.w3.org/1999/xlink" x="0px" y="0px"
	 viewBox="0 0 692.9 376.2" enable-background="new 0 0 692.9 376.2" xml:space="preserve">
<path fill="#BA85B9" d="M3.2,146.9c34.2,40.2,162.2,199,189.3,225.8c19.9-23.3,30.6-77.7,65.4-82.1c19.5-2,22.5,9.1,36.5,17.2
	c24.3,11.4,34.9,12.7,59.1,7c90.3-21.4,267.4-109,335.6-129.8L464.3,8.1c-61,38.3-85.7,40.1-141.7,7.7
	c-30.1-16.4-53.1-21.3-83.5,0.8c-46.7,33-66.4,90.5-123.2,118C77.5,151.5,3.2,146.9,3.2,146.9z"/>
<path fill="#DCC1DB" d="M682,179.4l-2.9-2.3c-5.9,1.8-11.9,3.6-17.8,5.4c-5-4.5-10.1-8.8-15.3-13.1c5.3-2,10.6-4,15.9-5.9l-2.8-2.2
	c-5.3,1.9-10.5,3.8-15.8,5.8c-3.1-2.5-6.2-5-9.3-7.5c5.2-1.9,10.5-3.9,15.8-5.7l-2.8-2.2c-5.3,1.9-10.5,3.8-15.8,5.8
	c-18.9-14.6-38.7-28.3-58.5-41.8c6.7-2,13.4-4.2,19.9-6.8l-2.7-2.1c-6.7,2.6-13.5,4.8-20.4,6.7c-18.2-12.3-36.4-24.6-54.2-37.4
	c9.9-1.2,19.7-2.7,29.5-4.8l-3.1-2.4c-10,2-20,3.5-30.1,4.6c-10.4-7.5-20.5-15.3-30.5-23.4c0.1,0,0.1,0,0.2,0
	c8.9-2.1,17.7-4.8,26.3-7.9l-2.8-2.2c-8.8,3-17.7,5.6-26.8,7.7c-11-9.1-21.7-18.7-31.8-28.8c-0.9,0.5-1.9,1.1-2.8,1.6
	c9.9,9.9,20.2,19.2,30.8,28c-7.2,1.5-14.4,2.7-21.7,3.5c-9.9-7.7-20.4-14.6-31.5-20.7c-1.2,0.5-2.4,0.9-3.6,1.4
	c10.8,5.7,21,12.3,30.7,19.7c-2.3,0.2-4.6,0.4-6.9,0.5c-18.5,1-37.4,0.3-55.9-2.2c-3.5-4.2-6.8-8.5-9.8-13c-1.3-0.2-2.7-0.5-4.1-0.7
	c2.9,4.6,6.1,8.9,9.5,13.1c-6.4-1-12.7-2.2-18.9-3.6c-1.8-4.4-3.3-9-4.6-13.6c-1.1-0.4-2.2-0.8-3.3-1.2c1.3,4.8,2.8,9.5,4.6,14.1
	c-1-0.2-2-0.5-3-0.7c-1.3-0.3-2.6-0.7-3.9-1c-1.2-3.8-2.3-7.7-3.3-11.6c-0.3-1.1-0.6-2.3-0.8-3.4c-1.1-0.5-2.2-1-3.3-1.5
	c1.1,5.3,2.5,10.5,4,15.7c-3.7-1-7.5-2-11.2-3c-1.1-5.9-2.1-11.8-2.9-17.7c-1.1-0.6-2.1-1.1-3.2-1.7c0.8,6.2,1.8,12.4,3,18.6
	c-3.7-1-7.5-1.9-11.2-2.8c0.3-6.5,1-12.9,2-19.3c-0.8-0.5-1.6-0.9-2.4-1.4c-0.1,0-0.2-0.1-0.3-0.1c-1.1,6.7-1.9,13.4-2.3,20.2
	c-4.1-0.9-8.2-1.7-12.4-2.2c1.4-7.7,3-15.4,4.8-23c-0.9-0.4-1.9-0.9-2.8-1.3c-1.9,7.9-3.6,15.8-5.1,23.8c-7.8-0.9-15.7-1.2-23.7-0.3
	c2.3-9.3,5.4-18.5,9.5-27.5c0.3-0.8,0.7-1.5,1.1-2.2c-1-0.2-2-0.4-3-0.6c-4.8,9.9-8.2,20.2-10.7,30.7c-5.3,0.8-10.5,2.2-15.5,4
	c1-11.1,1.6-22.2,1.5-33.4c-1,0.3-2,0.6-3,0.9c0.1,11.3-0.5,22.5-1.6,33.6c-13.9,5.6-26.5,14.5-38.5,23.4c-1.6,1.2-3.1,2.4-4.7,3.6
	c3.3-12,6.3-24.2,7.8-36.5c-1.2,1.1-2.3,2.1-3.4,3.2c-1.7,12.3-4.9,24.4-8.3,36.4c-18.7,15-37.1,32.5-56.2,48.9c0-4,0.2-8,0.4-12
	c-1,1-2.1,2-3.2,3c-0.2,3.9-0.3,7.7-0.3,11.6c-14.2,12.1-28.9,23.4-44.3,32.5c-0.4-5-0.6-10-0.7-15c-1,0.3-2,0.6-3,0.9
	c0.1,5.2,0.4,10.5,0.8,15.7c-14.7,8.4-30.1,14.7-46.6,17.7c-3.8-8-7-16.4-9.5-25.1c-1.1,0.1-2.1,0.1-3.2,0.2
	c2.5,8.8,5.7,17.3,9.5,25.4c-9.9,1.5-20.2,1.9-30.9,0.7c0.9,1.1,1.8,2.2,2.8,3.4c7.1,0.6,14.2,0.7,21.4,0c2.8-0.2,5.5-0.6,8.3-1
	c4.6,9.4,9.9,18.3,15.7,27c-7.3,0.8-14.7,1.5-22.1,2.2c0.8,1,1.6,1.9,2.4,2.9c7.3-0.6,14.5-1.2,21.8-2c8.8,12.8,18.6,25,28.6,36.9
	c-5.3,2.5-10.6,4.8-16,7c0.7,0.8,1.3,1.6,2,2.4c5.4-2.2,10.7-4.6,15.9-7.1c2.8,3.3,5.6,6.6,8.4,9.8c9.8,11.4,19.3,22.9,28.2,34.9
	c-5.1,2.6-10.2,5-15.5,7.1c0.7,0.8,1.3,1.6,2,2.4c5.2-2.1,10.3-4.4,15.3-7c4.1,5.6,8,11.3,11.7,17.1c1.4,2.2,2.8,4.5,4.2,6.7
	c-3.1,3.1-6.4,6.1-9.7,8.9c0.7,0.8,1.3,1.6,2,2.3c3.2-2.8,6.3-5.6,9.4-8.6c5.6,8.9,11.2,17.8,17.3,26.3c-1.5,2.7-3.1,5.4-4.7,7.9
	c0.7,0.8,1.3,1.5,2,2.3c1.6-2.5,3.1-5,4.6-7.5c4.9,6.6,10.1,13,15.9,18.9c0.6-0.8,1.1-1.7,1.7-2.6c-5.8-6-11.1-12.4-16-19.1
	c2.2-3.7,4.3-7.5,6.4-11.3c4.7,7.3,9.4,14.6,13.8,22.1c0.1,0.2,0.3,0.4,0.4,0.5c0.5-1,1.1-2,1.6-3c-4.5-7.6-9.3-15.1-14.2-22.6
	c0.3-0.6,0.6-1.2,1-1.7c4.2-7.6,8.5-15.3,13.6-22.4c3.8,7.7,7.7,15.3,11.7,22.8c0.6-1.1,1.1-2.1,1.7-3.2
	c-3.9-7.4-7.7-14.9-11.4-22.4c4-5.2,8.6-10,14-14c2,7.5,4,15,5.9,22.5c0.8-1.1,1.5-2.1,2.3-3.2c-1.8-7.1-3.7-14.2-5.5-21.2
	c7.2-4.8,15.2-7.4,23.5-8.5c0.9,4.3,1.9,8.6,3,12.9c0.9-0.3,1.9-0.6,2.8-0.9c-1.1-4.1-2.1-8.2-3-12.4c10.8-1,22,0.2,32.7,1.9
	c2,6.8,3.9,13.5,5.7,20.4c0.3,1,0.5,2.1,0.8,3.1c1.1,0.8,2.2,1.6,3.5,2.4c-2-8.5-4.3-16.9-6.7-25.3c16.3,2.9,31.9,8.8,48,12.8
	c3,6.5,6.1,13,9.5,19.3c0.5,1,1,1.9,1.6,2.9c1-0.2,2.1-0.4,3.1-0.6c-3.7-6.8-7.2-13.7-10.5-20.7c2.9,0.7,5.9,1.3,8.9,1.7
	c20.9,3.4,39.9-2.1,58.8-9.9c2.5,3.1,5.1,6.2,7.8,9.2c1-0.4,2-0.7,3-1.1c-2.7-3-5.4-6.1-8-9.2c1.6-0.7,3.1-1.3,4.7-2
	c14.6-6.4,29.3-12.9,44-19.3c3.6,3.6,7.3,7.1,11,10.6c1-0.4,2-0.8,3-1.2c-3.8-3.5-7.5-7-11.1-10.6c11.2-4.8,22.4-9.6,33.6-14.4
	c3.5,3.8,7,7.6,10.4,11.5c1-0.4,1.9-0.8,2.9-1.2c-3.5-3.9-7-7.7-10.4-11.5c1.4-0.6,2.8-1.2,4.2-1.8c6.3-2.6,12.6-5.3,18.9-7.9
	c0.3,0.3,0.5,0.5,0.8,0.8c3.5,3.5,7.1,6.9,10.8,10.2c1.1-0.4,2.1-0.9,3.2-1.3c-4-3.5-7.9-7.1-11.6-10.9c11.8-4.8,23.6-9.6,35.5-14.3
	c3.9,3.3,7.9,6.6,11.8,9.9c1-0.4,2-0.9,3.1-1.3c-3.9-3.3-7.8-6.5-11.7-9.8c16.7-6.5,33.4-12.8,50.3-18.8c3.2,2.7,6.4,5.5,9.6,8.3
	c1-0.4,2-0.8,3-1.2c-3.1-2.8-6.2-5.5-9.4-8.2c15.2-5.4,30.5-10.5,45.9-15.4c2.3,2.1,4.6,4.2,6.9,6.4c1.1-0.4,2.1-0.8,3.1-1.1
	c-2.2-2.1-4.5-4.2-6.8-6.3c5.6-1.7,11.1-3.5,16.7-5.1C681.1,179.7,681.6,179.5,682,179.4z M640.2,168.5c-14.6,5.7-29,11.8-43.4,18.1
	c-3.6-2.9-7.2-5.8-10.9-8.7c14.9-5.7,29.9-11.4,44.8-16.9C633.9,163.5,637.1,166,640.2,168.5z M378.5,78.8
	c12.7,15,28.5,27.3,42.5,40.9c2.3,2.3,4.6,4.6,6.9,6.9c-11.1,0-22.2-0.1-33.3-0.2c-10.5-15.2-20.3-31-28.4-47.5
	C370.3,78.9,374.4,78.8,378.5,78.8z M213.2,246c-4.7-19.6-8.7-39.3-11.1-59.3c13.6-8.7,27.3-17.1,41.3-24.7
	c-1.7,23.4-2.8,46.9-1.7,70.2C232,236,222.5,240.7,213.2,246C213.3,245.9,213.2,245.9,213.2,246z M210.4,247.6
	c-7.5,4.3-14.8,9.1-22.2,13.9c-6.2-15.2-11.8-30.6-16.6-46.3c-0.7-2.4-1.4-4.8-2.1-7.2c9.9-6.4,19.8-13,29.8-19.4
	C201.6,208.4,205.7,228,210.4,247.6z M244.3,228c-0.7-22.5,0.7-45.2,2.3-67.7c8.2-4.3,16.6-8.3,25.1-11.9c0,0.7,0,1.4,0,2.1
	c-0.3,14.3-2,28.4-2.9,42.6c-0.6,10.3-0.3,20.6,0.8,30.9c-8.6,1.7-17,4.2-25.2,7.3C244.4,230.1,244.3,229,244.3,228z M271.9,214.8
	c-0.9-14.3,0.8-28.3,1.9-42.5c0.6-8.3,0.9-16.8,1-25.3c7.6-3.1,15.3-5.9,23.3-8.2c0.5,8.9,1.2,17.9,2.1,26.8c2,18.5,5,36.9,9.2,55.1
	c-11.2-0.1-22.4,0.4-33.5,2.1c-1.1,0.2-2.2,0.3-3.3,0.5C272.3,220.5,272.1,217.7,271.9,214.8z M303.8,170.5
	c-1.3-10.8-2.2-21.6-2.8-32.5c6.1-1.7,12.3-3.2,18.7-4.4c4-0.7,8-1.3,12-1.8c8.1,31.6,19.6,62.7,34.3,92.1
	c-9.2-0.4-18.4-1.2-27.6-1.9c-8.6-0.6-17.2-1.1-25.8-1.3C308.7,204.1,305.8,187.3,303.8,170.5z M355.9,194.5
	c-8.5-20.3-15.9-41.5-21.5-63.1c9.8-1.1,19.6-1.6,29.5-1.8c3.4,7.3,6.9,14.6,10.7,21.7c12.8,24.6,27.8,48.2,44.7,70.3
	c-12.5,1.5-25,2.3-37.5,2.5c-4.2,0.1-8.3,0-12.5-0.2C364.5,214.2,360,204.4,355.9,194.5z M381.8,158.5c-5.2-9.4-10.1-19.1-14.7-28.9
	c8.3-0.1,16.6-0.1,24.8-0.1c0.5,0,1,0,1.5,0c2.2,3.2,4.5,6.4,6.7,9.5c19,26.4,40.1,51.2,61.8,75.4c-11.5,2.5-23.1,4.7-34.8,6.3
	c-1.4,0.2-2.8,0.4-4.3,0.6C407.6,201.4,393.9,180.4,381.8,158.5z M419.8,160.2c-7.8-9.9-15.6-20.2-23-30.7c11.4,0,22.7,0.1,34.1,0.2
	c15,15.7,28.7,32.6,41.7,50.1c6.7,9,13.3,18,20.1,26.9c-9,2.5-18.1,4.9-27.3,7C449.6,196.2,434.3,178.6,419.8,160.2z M450.7,147
	c-5-6-10.3-11.7-15.6-17.3c10.5,0,21,0,31.6-0.3c9,9.1,16.7,19.2,25.2,28.9c8.8,10,17.9,19.6,27.4,28.9c2.9,2.8,5.8,5.7,8.8,8.4
	c-5.3,1.8-10.7,3.6-16.1,5.3c-5.4,1.7-10.8,3.3-16.2,4.9C480.5,186.3,466.4,165.8,450.7,147z M523.5,187.3
	c-9.5-9.2-18.6-18.8-27.4-28.6c-8.7-9.6-16.5-20-25.4-29.4c17.5-0.4,35.1-1.4,52.6-3.6c16.8,17.1,34.1,33.1,52.9,48.2
	c1.3,1,2.5,2,3.8,3.1c-16.2,6.1-32.4,12.1-48.8,17.6C528.6,192.2,526,189.7,523.5,187.3z M467.7,126.3c-16.8-16.7-35.8-31.3-53.4-47
	c-0.1-0.1-0.3-0.2-0.4-0.3c7.6,0.1,15.1,0.3,22.7,0.3c13.9,0.2,27.9,0.1,41.8-0.4c13.8,13.6,26.7,28.1,40.2,42.1
	c0.7,0.7,1.3,1.3,2,2C503,125,485.3,125.9,467.7,126.3z M409.9,79.3c17.6,16,36.5,30.6,53.6,47.1c-4.7,0.1-9.4,0.1-14,0.2
	c-5.8,0-11.6,0-17.4,0c-10.3-10.5-21.2-20.5-32.1-30.5c-6.1-5.6-11.9-11.3-17.3-17.4c8.9,0,17.8,0,26.7,0.2
	C409.6,79,409.8,79.2,409.9,79.3z M391.3,126.5c-7.8,0-15.5,0.1-23.3,0.2c-0.7,0-1.5,0-2.2,0.1c-7-15.2-13.1-30.9-18.2-46.9
	c5.2-0.3,10.3-0.6,15.5-0.8C371.2,95.6,381,111.4,391.3,126.5z M362.7,126.8c-9.7,0.3-19.3,0.9-28.9,2c-3.9-15.4-6.9-31.1-8.8-46.8
	c6.5-0.8,13.1-1.5,19.6-2C349.7,96,355.8,111.6,362.7,126.8z M331,129.1c-10.1,1.3-20.1,3.1-30.1,5.7c-0.7-16.3-0.6-32.6,0.4-48.8
	c0.5-0.1,1.1-0.2,1.6-0.4c6.3-1.3,12.7-2.4,19.1-3.3C324,98.3,327.2,114,331,129.1z M297.9,135.7c-1,0.3-2,0.5-2.9,0.8
	c-6.8,2-13.6,4.4-20.2,7.1c0.1-16.3-0.4-32.8-0.3-49.2c7.6-3.2,15.5-5.7,23.7-7.6C297.3,103,297.2,119.4,297.9,135.7z M271.8,144.8
	c-8.5,3.5-16.7,7.4-24.9,11.7c0.1-1.8,0.3-3.6,0.4-5.4c1.2-15.2,3.3-30.3,5.6-45.4c3.5-2.1,7-4.2,10.6-6.1c2.7-1.4,5.4-2.7,8.1-4
	C271.4,112.1,271.9,128.6,271.8,144.8z M244.3,151.1c-0.2,2.4-0.4,4.7-0.6,7.1c-14.4,7.7-28.3,16.3-42,25.2
	c-0.7-6.8-1.3-13.6-1.6-20.5c-0.2-5.7-0.3-11.3-0.2-17c10.5-8.7,21-17.5,31.9-25.8c5.8-4.4,11.7-8.5,17.8-12.4
	C247.5,122.1,245.5,136.6,244.3,151.1z M197.2,164.7c0.3,6.9,0.9,13.7,1.7,20.6c-5.2,3.4-10.5,6.9-15.7,10.3
	c-4.8,3.2-9.7,6.4-14.5,9.5c-2.8-9.9-5.2-19.9-7.2-30c3.5-2.3,7-4.7,10.4-7.2c8.6-6.2,16.8-12.8,24.9-19.5
	C196.8,153.8,197,159.3,197.2,164.7z M166.1,206.8c-12.4,8-25,15.9-37.8,23.1c-4.4-9.7-8.2-19.7-11.3-29.9c-0.2-0.8-0.5-1.6-0.7-2.5
	c15.1-4.9,29.2-12.1,42.6-20.7C160.9,186.9,163.3,196.9,166.1,206.8z M166.9,209.6c0.4,1.5,0.9,3.1,1.3,4.6
	c5,16.6,10.8,32.9,17.4,48.9c-9.3,6.1-18.6,12.3-28.1,18c-6.1-9.3-12-18.7-17.5-28.4c-3.8-6.6-7.3-13.4-10.6-20.3
	C142.1,225.3,154.5,217.5,166.9,209.6z M186.9,266.3c2.2,5.2,4.4,10.4,6.8,15.6c-7.3,6.9-14.2,14.3-21.2,21.6
	c-4.4-6.5-8.9-13.1-13.2-19.7C168.6,278.3,177.8,272.3,186.9,266.3z M189.5,264.6c7.2-4.7,14.4-9.3,21.7-13.7
	c1.1,4.6,2.3,9.2,3.5,13.8c-6.6,4.5-12.8,9.6-18.6,15C193.8,274.7,191.6,269.7,189.5,264.6z M214,249.2c9-5.3,18.3-10.1,27.9-14
	c0.3,5.3,0.7,10.5,1.2,15.7c-5.6,1.7-11,3.8-16.2,6.4c-3.3,1.7-6.4,3.5-9.5,5.5C216.2,258.3,215.1,253.8,214,249.2z M244.6,234.1
	c0.1,0,0.2-0.1,0.3-0.1c8.2-3.2,16.6-5.4,25.1-7c0.2,1.6,0.4,3.3,0.7,4.9c0.7,4.8,1.7,9.6,2.8,14.3c-9.4,0.3-18.7,1.5-27.7,4
	C245.2,244.9,244.8,239.5,244.6,234.1z M273,226.4c12.2-2.1,24.7-2.8,37.1-2.7c2.2,9.1,4.6,18,7.4,26.9c-8.5-1.5-17-2.9-25.6-3.8
	c-5.1-0.5-10.3-0.8-15.5-0.8C275,239.6,273.9,233.1,273,226.4z M313.3,223.8c5,0.1,10.1,0.3,15.1,0.6c13.1,0.7,26.2,2.2,39.2,2.7
	c5.2,10.2,10.8,20.1,16.8,29.8c-8.3,0.4-16.6,0.4-24.9-0.1c-13-0.9-25.8-3.2-38.6-5.5C318.1,242.2,315.5,233,313.3,223.8z
	 M370.9,227.2c0,0,0.1,0,0.1,0c14.8,0.3,29.6-0.4,44.3-2c2.1-0.2,4.1-0.5,6.2-0.7c6.3,8,12.8,15.8,19.6,23.4
	c-17.7,4.5-35.6,7.7-53.6,8.9C381.4,247.2,376,237.3,370.9,227.2z M425,224.1c13.2-1.7,26.3-4.1,39.3-7c5.6,6.2,11.2,12.3,16.8,18.5
	c-12.1,4.3-24.3,8.2-36.7,11.5C437.6,239.6,431.2,231.9,425,224.1z M467.7,216.3c9.1-2.1,18-4.4,27-7c4.3,5.5,8.6,10.8,13.1,16.1
	c-7.8,3.1-15.7,6.2-23.6,9C478.6,228.4,473.1,222.3,467.7,216.3z M497.7,208.4c11-3.2,22-6.7,32.8-10.3c4.4,4.1,8.8,8.1,13.3,12.1
	c-7.4,3.2-14.8,6.4-22.3,9.5c-3.6,1.5-7.2,3-10.8,4.5C506.3,219,502,213.8,497.7,208.4z M533.7,197c16.4-5.6,32.7-11.6,49-17.8
	c3.7,2.9,7.4,5.9,11,8.8c-15.7,6.9-31.2,14-46.9,20.9C542.4,205,538.1,201,533.7,197z M627.9,158.9c-15,5.6-29.9,11.3-44.8,16.9
	c-1.6-1.3-3.3-2.6-4.9-3.9c-18.2-14.5-35-30-51.3-46.5c14.2-1.9,28.3-4.6,42.1-8.4C588.9,130.5,608.8,144.2,627.9,158.9z
	 M565.7,114.7c-13.6,3.6-27.4,6.1-41.4,7.9c-1.2-1.2-2.4-2.4-3.6-3.7c-12.8-13.3-25.2-27.1-38.2-40.1c9.5-0.4,18.9-1.1,28.3-2
	C528.8,89.8,547.3,102.2,565.7,114.7z M477.4,51.1c9.7,7.9,19.6,15.6,29.8,23c-9.2,0.9-18.4,1.4-27.6,1.8c-2.7-2.6-5.4-5.3-8.1-7.8
	c-5-4.7-10.2-9.2-15.5-13.5C463.1,53.7,470.3,52.6,477.4,51.1z M403.7,55.3c16,1.2,32,1.2,47.9-0.3c6.1,4.8,12,9.8,17.7,15.1
	c2.1,1.9,4.1,3.9,6.2,5.9c-21.6,0.7-43.3,0.2-64.9,0c-7.7-6.9-15.3-14.2-22.2-22C393.4,54.5,398.6,54.9,403.7,55.3z M384,53.4
	c6.9,8,14.5,15.4,22.2,22.5c-7-0.1-13.9-0.1-20.9-0.1c-1.7,0-3.4,0-5,0c-6.5-7.8-12.2-16.3-16.5-25.9
	C370.5,51.4,377.2,52.5,384,53.4z M360.4,49.2c4,9.5,9.2,18.4,15.8,26.7c-3.8,0.1-7.5,0.1-11.3,0.3c-4.5-9.4-8.4-18.9-11.7-28.7
	C355.6,48,358,48.6,360.4,49.2z M349.7,46.5c3.3,10.2,7.3,20.1,12,29.8c-5,0.2-10,0.4-15,0.8c-3.4-11.1-6.3-22.3-8.6-33.7
	C342,44.4,345.8,45.5,349.7,46.5z M334.9,42.6c2.3,11.7,5.3,23.3,8.8,34.7c-6.4,0.5-12.7,1.1-19.1,1.9c-0.8-7.2-1.4-14.5-1.7-21.7
	c-0.2-6-0.3-11.9-0.1-17.9C326.9,40.5,330.9,41.5,334.9,42.6z M319.9,38.9c-0.6,13.5,0.1,27.2,1.7,40.7c-6.7,0.9-13.4,2-20.1,3.4
	c1.1-15.6,2.9-31.1,5.6-46.5C311.4,37.1,315.7,37.9,319.9,38.9z M282.7,35.7c7.1-0.8,14.3-0.5,21.4,0.4c-2.8,15.7-4.6,31.6-5.7,47.6
	c-0.5,0.1-1,0.2-1.5,0.3c-7.7,1.7-15.1,4.2-22.3,7.2c0.3-18.7,1.5-37.2,5.6-55.2C281,35.9,281.9,35.8,282.7,35.7z M277.1,36.5
	c-4,18.2-5.2,37-5.5,56c-6.3,2.8-12.3,6-18.2,9.5c3.1-20.4,6.6-40.8,8.6-61.3C266.9,38.9,271.9,37.4,277.1,36.5z M244.6,49.3
	c4.6-2.8,9.4-5.3,14.3-7.4c-2.1,20.8-5.6,41.4-8.7,62c-7.2,4.5-14.2,9.4-21,14.5c-10,7.5-19.6,15.5-29.2,23.4
	c0.2-6.6,0.8-13.2,1.8-19.8c1.9-12.6,5.3-25,8.8-37.2c1.4-4.8,2.8-9.6,4.1-14.5C224.3,62.8,234.2,55.7,244.6,49.3z M196.4,85.8
	c4.7-4.1,9.5-8.2,14.3-12.1c-1.3,4.6-2.6,9.2-3.9,13.7c-3.5,12.3-6.5,24.7-8.4,37.4c-0.9,6.5-1.4,13.1-1.5,19.6
	c-11.7,9.6-23.5,19-36,27.4c-3.1-16.6-4.9-33.4-5-50.2C169.7,109.9,182.9,97.5,196.4,85.8z M153,124.3c0.3,16.6,2.2,33.1,5.3,49.4
	c-5.8,3.8-11.8,7.4-18.1,10.7c-8.1,4.2-16.3,7.5-24.7,10.1c-3.3-12.5-5.4-25.3-6.5-38.1C124.6,147.2,139.1,136.1,153,124.3z
	 M60.7,175c14.6-2.7,28.5-8.1,41.6-15c1.3-0.7,2.6-1.4,3.9-2.1c1.2,12.6,3.3,25.1,6.5,37.4c-11.8,3.4-23.9,5.4-36.1,6.9
	C70.7,193.5,65.3,184.4,60.7,175z M78.7,205.2c7.7-0.9,15.4-2.1,23-3.7c4-0.9,7.9-1.9,11.8-3.1c3.1,11.3,7.3,22.3,12.2,33
	c-6.3,3.5-12.6,6.7-19,9.8C96.9,229.6,87.3,217.7,78.7,205.2z M118.4,255c-3.3-3.8-6.5-7.6-9.8-11.5c6.2-3,12.3-6.2,18.3-9.6
	c2.7,5.7,5.6,11.3,8.6,16.9c6,10.9,12.6,21.5,19.4,31.9c-3.2,1.9-6.5,3.7-9.8,5.5C136.7,276.8,127.7,265.9,118.4,255z M158.6,307.8
	c-3.7-5.9-7.6-11.5-11.6-17.1c3.3-1.7,6.5-3.5,9.7-5.4c4.5,6.8,9.1,13.6,13.7,20.4c-2.6,2.7-5.3,5.5-8,8.1
	C161.1,311.9,159.9,309.8,158.6,307.8z M180.8,342.2c-5.9-8.3-11.3-16.9-16.7-25.6c2.7-2.7,5.4-5.4,8.1-8.2c5,7.3,10,14.7,14.9,22.1
	C185,334.5,182.9,338.4,180.8,342.2z M188.7,327.5c-4.7-7.1-9.5-14.2-14.4-21.3c4.7-4.9,9.3-9.8,14-14.6c2.2-2.2,4.4-4.4,6.7-6.6
	c2.8,6.2,5.7,12.3,8.7,18.4C198.1,310.8,193.3,319.2,188.7,327.5z M205.8,300.7c-2.9-5.9-5.7-11.9-8.4-17.9
	c5.8-5.3,11.8-10.3,18.2-14.7c1.6,6.2,3.2,12.4,4.9,18.6C215,290.6,210.1,295.4,205.8,300.7z M236.4,278.8
	c-4.8,1.5-9.2,3.6-13.3,6.1c-1.6-6.2-3.3-12.4-4.9-18.6c7.8-5.1,16.1-9.3,25.2-12.2c0.8,7.5,2,14.9,3.4,22.4
	C243.3,277,239.8,277.8,236.4,278.8z M249.8,276.1c-1.5-7.6-2.7-15.2-3.6-22.8c2.3-0.7,4.7-1.3,7.1-1.8c7-1.5,14-2.2,21-2.3
	c2.3,9.5,5.1,19,7.9,28.4C271.3,275.8,260.4,274.9,249.8,276.1z M302.1,282c-5.4-1.4-11.1-2.7-16.8-3.8c-2.5-8.7-5-17.3-7.3-26.1
	c-0.3-1-0.5-1.9-0.7-2.9c13.8,0.1,27.6,2.3,41.3,4.7c4,12.6,8.7,24.9,14,37C322.4,288.2,312.3,284.6,302.1,282z M361.1,295.2
	c-8.4,0.1-16.6-1.3-24.7-3.3c-5.5-12.2-10.3-24.6-14.4-37.3c4.5,0.8,9.1,1.6,13.6,2.4c16.9,2.8,33.7,3.6,50.5,2.7
	c5.5,8.8,11.4,17.3,17.9,25.5C390.2,290.7,376,295,361.1,295.2z M440.3,268.7c-11,4.8-22.2,10.4-33.6,15.2
	c-6.3-7.8-12.1-16-17.6-24.5c8.7-0.6,17.4-1.6,26.1-3.1c9.5-1.6,18.8-3.6,28.1-6c3.7,4.1,7.5,8.1,11.4,12.1
	C449.9,264.5,445.1,266.6,440.3,268.7z M457.6,261.1c-3.8-3.8-7.5-7.7-11.1-11.6c12.5-3.3,24.8-7.1,36.9-11.4c2.4,2.7,4.9,5.3,7.3,8
	c0.2,0.2,0.4,0.4,0.6,0.6C480.1,251.5,468.9,256.3,457.6,261.1z M494.3,245.5c-2.6-2.8-5.1-5.6-7.7-8.5c7.9-2.8,15.8-5.8,23.6-9
	c2.3,2.6,4.7,5.3,7.1,7.8C509.6,239.1,501.9,242.3,494.3,245.5z M526.2,232.2c-1.9,0.8-3.9,1.6-5.8,2.4c-2.5-2.5-4.9-5.1-7.2-7.8
	c11.2-4.5,22.3-9.3,33.4-14.2c3,2.6,6,5.2,9,7.8C545.7,224.3,536,228.2,526.2,232.2z M558.7,219.2c-3-2.6-6.1-5.2-9.1-7.9
	c15.7-7,31.3-14.1,46.9-21.1c4.1,3.3,8.3,6.7,12.4,10.1C592.1,206.4,575.3,212.7,558.7,219.2z M612.1,199.2
	c-4.1-3.5-8.3-6.9-12.5-10.3c14.3-6.3,28.8-12.5,43.3-18.2c5.1,4.2,10.2,8.5,15.2,12.9C642.7,188.6,627.4,193.8,612.1,199.2z"/>
</svg>
