<?xml version="1.0" encoding="utf-8"?>
<!-- Generator: Adobe Illustrator 17.1.0, SVG Export Plug-In . SVG Version: 6.00 Build 0)  -->
<!DOCTYPE svg PUBLIC "-//W3C//DTD SVG 1.1//EN" "http://www.w3.org/Graphics/SVG/1.1/DTD/svg11.dtd">
<svg version="1.1" id="Layer_1" xmlns="http://www.w3.org/2000/svg" xmlns:xlink="http://www.w3.org/1999/xlink" x="0px" y="0px"
	 viewBox="0 0 40 30" enable-background="new 0 0 40 30" xml:space="preserve">
<path fill="#C6E5E7" d="M5.5,23.4c0.1,0.3,0.5,2,0.5,2c-0.6-0.1-1.2-0.3-1.8-0.4L5.5,23.4z"/>
<path fill="#FFFFFF" d="M20.3,0.3c-3.9,0-7.6,2.7-7.6,6.6c0,3.9,3.2,7.1,7.1,7.1c3.9,0,7.1-3.2,7.1-7.1C27,3,24.2,0.3,20.3,0.3z"/>
<path fill="#FFFFFF" d="M27.5,6c-2.8,0-5.1,1.9-5.1,4.6c0,1.3,0.6,2.7,1.4,3.5c0.9,0.8,2.1,1.3,3.4,1.3c1.3,0,2.5-0.4,3.4-1.2
	c0.8-0.9,1.3-2.1,1.3-3.4C31.8,7.9,30,6,27.5,6z M28.4,6.2c-0.3-0.1-0.7-0.1-1.1-0.1c0,0,0,0,0,0C27.7,6.1,28.1,6.2,28.4,6.2z"/>
<path fill="#C6E5E7" d="M20.5,8.3c0.7,2.3,5.1,18.7,6,20.9c0,0,10.7-4.9,12.4-5.6L20.5,8.3z"/>
<path fill="#C6E5E7" d="M8.5,26c-0.6-0.1-1.4-0.4-2-0.5c-0.2-0.6-0.6-2.1-0.7-2.6c0.4-0.5,0.9-1.1,1.3-1.7C7.3,21.9,8.4,25.4,8.5,26
	z"/>
<path fill="#C6E5E7" d="M11,26.6c-0.6-0.1-1.4-0.4-2-0.5c-0.3-0.8-1.2-4.3-1.5-5.2C8,20.4,8.5,20,9,19.4C9.1,20.2,10.8,26.2,11,26.6
	z"/>
<path fill="#C6E5E7" d="M13.2,27.2c-0.6-0.1-1.2-0.4-1.8-0.5c-0.3-0.8-2-6.7-2.2-7.6c0.5-0.5,1-0.9,1.5-1.5
	C10.8,18.4,13,26.8,13.2,27.2z"/>
<path fill="#C6E5E7" d="M15.5,27.4c-0.5,0-1.3-0.2-1.8-0.2c-0.3-0.8-2.5-9.2-2.7-10c0.5-0.5,0.9-0.8,1.4-1.4
	C12.5,16.6,15.3,27.1,15.5,27.4z"/>
<path fill="#C6E5E7" d="M17.8,27.9c-0.6-0.1-1.2-0.3-1.8-0.4c-0.3-0.8-3.1-11.2-3.4-12.1c0.5-0.5,1-0.9,1.5-1.5
	C14.2,14.7,17.6,27.5,17.8,27.9z"/>
<path fill="#C6E5E7" d="M20.2,28.4c-0.6-0.1-1.5-0.2-2.1-0.3c-0.3-0.8-3.7-13.7-3.9-14.6c0.5-0.5,1-0.9,1.5-1.5
	C15.8,12.8,20,28,20.2,28.4z"/>
<path fill="#C6E5E7" d="M22.8,29c-0.6-0.1-1.5-0.3-2-0.4c-0.3-0.8-4.5-15.9-4.7-16.8c0.5-0.5,1-0.9,1.5-1.5
	C17.6,11.1,22.5,28.6,22.8,29z"/>
<path fill="#C6E5E7" d="M23.9,24.8c-0.2,0.5-1,1.3-1.5,1.2c-0.3-0.8-4.5-15.1-4.7-16c0.5-0.5,1.2-1.1,1.7-1.7
	C19.5,9.1,23.8,24.4,23.9,24.8z"/>
<path fill="#FFFFFF" d="M23.9,24.8c-0.4,0.9-1.2,1.7-2.5,1.7c-1.7,0-2.8-1.1-3.9-2.2c1.2-0.4,2.8-0.7,3.6-1.7
	C21.4,23.4,23,25.9,23.9,24.8z"/>
</svg>
