<?xml version="1.0" encoding="utf-8"?>
<!-- Generator: Adobe Illustrator 17.1.0, SVG Export Plug-In . SVG Version: 6.00 Build 0)  -->
<!DOCTYPE svg PUBLIC "-//W3C//DTD SVG 1.1//EN" "http://www.w3.org/Graphics/SVG/1.1/DTD/svg11.dtd">
<svg version="1.1" id="Layer_1" xmlns="http://www.w3.org/2000/svg" xmlns:xlink="http://www.w3.org/1999/xlink" x="0px" y="0px"
	 viewBox="-28 -27 608 523" enable-background="new -28 -27 608 523" xml:space="preserve">
<g>
	<path fill="#FDEAD0" d="M471.6,233.7c0.7,0.1,1.3-0.3,1.4-1c2.5-29.1,4.2-58.6,8.8-87.5c0-0.2,0-0.4-0.1-0.6c0-0.1-0.1-0.2-0.1-0.2
		c-0.1-0.2-0.3-0.4-0.5-0.5C421.1,91.8,372.5,23.1,294.7-3.9C256-17.3,214.2-17.6,173.7-19c-44.3-1.5-89-2.2-133.3-0.7
		c-20.9,0.7-41.9,3-61.9,9.2c-0.5,0.1-0.8,0.5-0.8,1c1,86.4,1.8,172.9,2.4,259.3c0.3,38.6,0.5,77.2,0.5,115.8c0,0.6,0.5,1,1.1,1.1
		c69.3,3.6,138.6,7.3,207.9,10.9c32.1,1.7,64.2,3.4,96.2,5.1c0.6,0,1.1-0.5,1.1-1.1c-2.7-44.2,22.2-83.9,55.4-111
		C377.9,241.5,425.8,226,471.6,233.7z"/>
	<path fill="#FDEAD0" d="M364.6,387.7c2.5,2.4,5.1,5.2,7.2,7.6l5.4-4.7c-3.8-4.4-9.3-9.7-12.3-12.6l-3.3-3.2l-2.5,2.1
		c-3.8,3.2-12.5,12.4-15.1,15.2l5.2,4.9c2.7-2.8,5.7-5.9,8.4-8.6c2.8,34.5,27.8,65.1,64.9,78.8l2.4-6.7
		C390.4,447.8,367.1,419.5,364.6,387.7z"/>
	<path fill="#FDEAD0" d="M500.9,459.1c-15.2,7.5-32.4,9.3-49.8,5.2c2.6-2.7,5.7-5.7,8.3-7.9l-4.7-5.4c-4.3,3.7-9.6,9.2-12.5,12.2
		l-3.2,3.3l2.1,2.5c3.2,3.8,12.4,12.5,15.2,15.1l4.9-5.2c-2.3-2.1-4.7-4.5-7-6.7c5.1,0.9,10.1,1.4,15.1,1.4
		c12.1,0,23.9-2.7,34.8-8.1c19.7-9.9,35.7-28.5,46.2-54l-6.6-2.7C533.8,433,519.4,449.9,500.9,459.1z"/>
	<path fill="#FDEAD0" d="M563.1,370.2c-2.1,2.5-4.9,5.3-7.4,7.8c-2.6-34.7-27.7-65.5-65-79.2l-2.5,6.7c33.8,12.5,56.9,39.9,60.1,71
		c-2.5-2.6-5.3-5.4-7.7-8.1l-5.2,4.9c2.6,2.7,11.4,12,15.1,15.2l2.5,2.1l3.3-3.2c2.9-2.8,8.5-8.2,12.2-12.5L563.1,370.2z"/>
	<path fill="#FDEAD0" d="M455.7,310.4l4.7,5.4c4.3-3.8,9.7-9.3,12.5-12.2l3.2-3.3l-2.1-2.5c-3.2-3.8-12.4-12.5-15.2-15.1l-4.9,5.2
		c2.1,2,4.4,4.1,6.6,6.2c-17-2.8-33.6-0.4-48.6,7c-19.7,9.9-35.7,28.5-46.2,54l6.6,2.7c10-24.2,24.4-41.1,42.7-50.3
		c15-7.5,32-9.3,49.3-5.3C461.7,304.9,458.4,308,455.7,310.4z"/>
</g>
<g>
	<path fill="#F6AC40" d="M416.7,154.9C347.3,38.2,203.1,17.7,79.2,14c-18.7-0.6-37.4-0.7-56.1-0.7c-0.3,0-0.6,0.1-0.7,0.3
		c0,0,0,0,0,0c0,0,0,0,0,0c-0.2,0.2-0.3,0.4-0.3,0.7c0,47.9,0,95.8,0,143.7c0,0.6,0.5,1.1,1.1,1.1c62.4-0.4,124.7-0.8,187.1-1.3
		c68.2-0.5,136.3-0.9,204.5-1.4c0.4,0,0.8,0,1.1,0C416.6,156.5,417.1,155.6,416.7,154.9z M23.1,157L23.1,157L23.1,157L23.1,157z"/>
	<path fill="#F6AC40" d="M95.5,198.5c-22.9,1.1-45.9,0.4-68.8,0.4c-0.6-0.6-1.8-0.4-1.8,0.7c0,9.5,0,18.9,0,28.4
		c0,0.6,0.5,1.1,1.1,1.1c6.9-0.3,68.5-0.2,68.5-1.1c0,1.4,2.1,1.4,2.1,0c0-9.5,0-18.9,0-28.4C96.6,199,96.1,198.5,95.5,198.5z"/>
</g>
</svg>
