<?xml version="1.0" encoding="utf-8"?>
<!-- Generator: Adobe Illustrator 17.0.0, SVG Export Plug-In . SVG Version: 6.00 Build 0)  -->
<!DOCTYPE svg PUBLIC "-//W3C//DTD SVG 1.1//EN" "http://www.w3.org/Graphics/SVG/1.1/DTD/svg11.dtd">
<svg version="1.1" id="Layer_1" xmlns="http://www.w3.org/2000/svg" xmlns:xlink="http://www.w3.org/1999/xlink" x="0px" y="0px"
	 width="687px" height="409.5px" viewBox="0 0 687 409.5" enable-background="new 0 0 687 409.5" xml:space="preserve">
<g>
	<path fill="#F7AC40" d="M478.6,135c0-42,137.9,37.5,169.8,59.8c111.9,78.3-101.1,257.9-163.4,195.5c-28.7-28.7,16-79.8-16-108.5
		C469,281.8,478.6,174.6,478.6,135z"/>
	<g>
		<path fill="#F7AC40" d="M466.9,36c43.1,33.5,33.5,236.2-19.2,274.5c-67,47.9-229.8,17.6-301.7,3.2C55.1,294.6,21.5,285,16.8,189.3
			C14.3,139.4,2.3,81.9,52.5,50.1C85.6,29.1,407.6-12.4,466.9,36z"/>
		<g>
			<path fill="#F7AC40" d="M462.9,39.9c34.2,30.5,27,103.4,23.8,144c-4.8,60.6-17.7,121.5-82.5,139.4
				c-64.5,17.9-139.6,5.4-204.2-5.2C150.7,310,72,306,40.2,262.3c-18.5-25.4-17-62.2-19.1-92c-3.1-43.5-5.3-87,34.2-115.4
				c25.5-18.3,75.6-18.7,105.2-22.9c57.8-8.2,116.4-12.7,174.8-13c39.4-0.2,95.3-3.2,128.8,21.8c5.7,4.3,11.3-5.4,5.6-9.6
				C434.6,5.1,376.4,8,335.3,7.9c-64.2-0.2-128.6,6.2-192.1,15.5c-41.6,6.1-88.3,9-116.8,43.2C7.4,89.4,7.5,123.1,8.7,151
				c1.4,34.7,1.8,72.2,15.3,104.7c20.8,50,87.9,57,133.8,66c72.7,14.3,148.4,26.1,222.4,17.4c56.1-6.6,87.9-30,104.7-83.2
				c17.8-56.5,20.3-123.4,7.6-181.2c-3.4-15.5-9.5-31.9-21.7-42.7C465.5,27.3,457.6,35.2,462.9,39.9z"/>
		</g>
	</g>
	<g opacity="0.65">
		<path fill="#FFFFFF" d="M430.1,61.1c37.1,27.1,28.9,191.1-16.5,222.1c-57.8,38.7-198.1,14.2-260,2.6
			C75.1,270.3,46.2,262.6,42.1,185.1c-2.2-40.3-12.5-86.8,30.8-112.6C101.4,55.5,379,21.9,430.1,61.1z"/>
	</g>
</g>
<g>
	<g>
		<g>
			<path fill="#FFFFFF" d="M217.3,150.1c8.8-16.7,13-39.2,30.4-49.4c19.1-11.2,38.2,13.8,49.3,25.9c6.7,7.3,17.5-3.6,10.8-10.8
				C292.4,98.9,273.6,77.5,248,84c-26.5,6.8-32.9,37.5-43.9,58.3C199.5,151.1,212.7,158.8,217.3,150.1L217.3,150.1z"/>
		</g>
		<g>
			<path fill="#FFFFFF" d="M278.3,133.6c10.4-0.4,20.5,2.8,30.9,2.4c3.1-0.1,6.8-2.2,7.4-5.6c1.3-7.9,2.3-15.8,3.3-23.7
				c1.2-9.8-14.1-9.7-15.3,0c-0.8,6.6-1.7,13.1-2.8,19.7c2.5-1.9,4.9-3.7,7.4-5.6c-10.4,0.4-20.5-2.8-30.9-2.4
				C268.5,118.7,268.4,134.1,278.3,133.6L278.3,133.6z"/>
		</g>
	</g>
	<g>
		<g>
			<path fill="#FFFFFF" d="M318.6,160.7c10,9.2,18.3,19.9,25,31.7c4.5,8,11.6,23.2,4.8,31.9c-4.9,6.2-14.7,7-22,7.5
				c-9.4,0.6-18.9,0-28.4,0.6c-9.8,0.6-9.9,15.9,0,15.3c21.1-1.3,50.1,4.2,63.9-16.2c8.2-12.1,3.2-28.6-2-40.6
				c-6.7-15.4-18.2-29.7-30.4-41C322.2,143.2,311.3,154,318.6,160.7L318.6,160.7z"/>
		</g>
		<g>
			<path fill="#FFFFFF" d="M303.5,242.4c3-6.8,8.2-12.1,12.5-18.2c2.4-3.4,0.6-8.5-2.7-10.5c-3.8-2.2-8.1-0.7-10.5,2.7
				c-4.3,6-9.5,11.3-12.5,18.2c-1.7,3.8-1.2,8.2,2.7,10.5C296.3,247.1,301.8,246.3,303.5,242.4L303.5,242.4z"/>
		</g>
		<g>
			<path fill="#FFFFFF" d="M289.3,244.8c2.8,5.7,6.1,11,10.3,15.8c2.7,3.2,8.1,2.8,10.8,0c3.1-3.1,2.7-7.7,0-10.8
				c-3.1-3.6-5.7-8.2-7.9-12.7c-1.8-3.7-7.1-4.7-10.5-2.7C288.2,236.6,287.4,241.1,289.3,244.8L289.3,244.8z"/>
		</g>
	</g>
	<g>
		<g>
			<path fill="#FFFFFF" d="M267.1,238.8c-21-1.6-43.1,0.3-63.6-5.1c-6-1.6-12.4-4.3-14.1-10.6c-2.8-10.5,6.6-23.8,11.7-32
				c5.3-8.4-8-16-13.2-7.7c-12.5,19.7-24.3,50.3,4,62.4c23.1,9.8,50.7,6.4,75.2,8.3C276.9,254.9,276.9,239.6,267.1,238.8
				L267.1,238.8z"/>
		</g>
		<g>
			<path fill="#FFFFFF" d="M183.5,194.1c6.7-1.8,13.7-3.8,20.6-4.4c-2.2-1.3-4.4-2.5-6.6-3.8c3.1,6.8,3.4,14.6,3.9,21.9
				c0.7,9.8,16,9.9,15.3,0c-0.7-10.2-1.7-20.1-6-29.6c-1-2.2-4.2-4-6.6-3.8c-8.4,0.8-16.6,2.8-24.7,5
				C169.9,181.9,173.9,196.7,183.5,194.1L183.5,194.1z"/>
		</g>
	</g>
</g>
</svg>
