<?xml version="1.0" encoding="utf-8"?>
<!-- Generator: Adobe Illustrator 18.0.0, SVG Export Plug-In . SVG Version: 6.00 Build 0)  -->
<!DOCTYPE svg PUBLIC "-//W3C//DTD SVG 1.1//EN" "http://www.w3.org/Graphics/SVG/1.1/DTD/svg11.dtd">
<svg version="1.1" id="Layer_1" xmlns="http://www.w3.org/2000/svg" xmlns:xlink="http://www.w3.org/1999/xlink" x="0px" y="0px"
	 viewBox="25.9 -75.4 300 283.2" enable-background="new 25.9 -75.4 300 283.2" xml:space="preserve">
<path fill="#EA881A" d="M207.9,205.4c0,0-3.7-12.3-6.2-34.5c-3.7-22.2,20.9-23.4,51.7-28.3c14.8-2.5,28.3-11.1,28.3-25.9
	c0-7.4-1.2-9.9,3.7-14.8c13.5-12.3,35.7-12.3,39.4-34.5c8.6-48-36.9-101-77.6-119.5c-16-7.4-36.9-13.5-59.1-17.2
	c-7.4-1.2-14.8-2.5-22.2-2.5c-54.2-4.9-110.8,7.4-133,53c-8.6,18.5-11.1,61.6,2.5,80c16,20.9,48,14.8,48,14.8s0,19.7,16,23.4
	s27.1,4.9,39.4,16c12.3,12.3,20.9,27.1,30.8,41.9c4.9,7.4,17.2,40.6,13.5,50.5"/>
<path fill="none" stroke="#E9507E" stroke-width="5" stroke-miterlimit="10" d="M135.2-54.5"/>
<path fill="none" stroke="#E9507E" stroke-width="5" stroke-miterlimit="10" d="M162.3-55.7"/>
<path fill="none" stroke="#E9507E" stroke-width="5" stroke-miterlimit="10" d="M247.3-52"/>
<path fill="#DD7406" d="M129.5,31.1c-4.9,1.2-11.1,3.7-16,6.2c-3.7-6.2-11.1-18.5-14.8-20.9c0,0-22.2,9.9-29.6,23.4l7.4,3.7
	c2.5-3.7,6.2-8.6,9.9-12.3c1.2-1.2,9.9-8.6,11.1-8.6c3.7,1.2,8.6,9.9,12.3,16c-17.2,9.9-31,23.6-34.7,38.4l3.8-0.3l3.7-0.4
	c3.7-13.5,14.9-24.2,29.6-32.8l0,0l4.9-2.5l0,0c4.9-2.5,9.9-3.7,14.8-6.2c29.6-9.9,59.1-3.7,77.6,12.3l-3.7,14.8
	c-6.2-3.7-18.5-13.5-33.2-13.5V57c16-1.2,32,11.1,32,11.1l2.5,1.2l12.3-24.6l-1.2-1.2C197.3,26.2,161.5,21.2,129.5,31.1z"/>
<path fill="#DD7406" d="M81-5.2L67.5-16.3c13.5-17.2,46.8-27.1,46.8-27.1l2.5-1.2l-9.9-24.6L97-66.8l12.3,19.7
	c-8.6,2.5-36.9,12.3-48,30.8l-1.2,1.2L74.9,2.2L81-5.2z"/>
<path fill="#DD7406" d="M323.6,35.4l-29.6,1.2c-1.2-3.7-2.5-11.1-7.4-19.7c-7.4-16-16-25.9-27.1-29.6h-1.2L228.8,7.1l2.5,4.9
	l28.3-14.8c7.4,3.7,13.5,8.6,17.2,16l-17.2,12.3l3.7,7.4l16-14.8c6.2,12.3,8.6,23.4,8.6,24.6v2.5h2.5h33.2V35.4z"/>
<path fill="#DD7406" d="M218.9,89.6l-1.2-1.2L198,78.5c0,0-3.7-2.5-4.9-1.2c-1.2,0-6.2,7.4-6.2,7.4c-1.2,1.2-6.2,7.4-9.9,8.6
	c-6.2,2.5-14.8,0-23.4-4.9c-9.9-6.2-18.5-8.6-24.6-7.4l-17.2-17.2l-7.4,4.9l17.2,14.8c-7.4,6.2-4.9,16-6.2,19.7l4.9,1.2
	c0,0,0-14.8,4.9-17.2c4.9-2.5,12.3-1.2,23.4,4.9c9.9,6.2,18.5,7.4,27.1,4.9s16-14.8,17.2-14.8c2.5,0,13.5,7.4,17.2,9.9
	c1.2,1.2,0,1.2,0,1.2c-1.2,2.5-7.4,12.3-8.6,13.5c-7.4,11.1-16,11.1-24.6,11.1v8.6h1.2c14.8,0,23.4-9.9,28.3-17.2
	c0-1.2,3.7-4.9,6.2-9.9c1.2-2.5,2.5-4.9,3.7-6.2C218.9,93.3,220.2,90.8,218.9,89.6z"/>
<path fill="#DD7406" d="M138.9,8.3c0,0,12.3-7.4,36.9-4.9v-8.6c-19.7-1.2-32,4.9-36.9,7.4L129-20c40.6-19.7,85,9.9,85,9.9l1.2,1.2
	l44.3-36.9l-8.6-4.9l-35.7,34.5c-9.9-6.2-51.7-28.3-91.1-7.4l-2.5,1.2l13.5,32L138.9,8.3z"/>
<path fill="#DD7406" d="M60.1,51.4c0,0-20.9-25.9-7.4-46.8l-8.6-4.9c-7.4,9.9-7.4,23.4-1.2,36.9c3.7,7.4,7.4,13.5,9.9,16L38.9,65.2
	l2.6,2.3l3.6,2.5c0,0,15-11.1,15-17.3C61.3,52.6,60.1,51.4,60.1,51.4z"/>
<path fill="#DD7406" d="M248.5,68.7c-8.6-3.7-9.9-9.9-9.9-20.9c0-7.4,0-14.8-3.7-20.9C225.1,12,204.2,2.2,195.5-0.3l-1.2,9.9
	c7.4,1.2,27.1,7.4,35.7,20.9c3.7,4.9,3.7,11.1,2.5,18.5c0,9.9,0,20.9,12.3,25.9c2.5,1.2,6.2,1.2,8.6,1.2c12.3,0,24.6-6.2,34.5-13.5
	l-6.2-6.2C273.1,63.7,260.8,73.6,248.5,68.7z"/>
<polygon fill="#FAAC3E" points="125.3,20.6 129,12 129,25.6 115.5,21.9 "/>
<path fill="#FAAC3E" d="M198,206.6c0-1.2-1.2-3.7-2.5-4.9l2.5-1.2c0,1.2,1.2,3.7,1.2,4.9L198,206.6z M194.3,196.7
	c0-1.2-1.2-3.7-1.2-4.9l2.5-1.2c0,1.2,1.2,3.7,1.2,4.9L194.3,196.7z M190.6,186.9c0-1.2-1.2-3.7-1.2-4.9h2.5c0,1.2,1.2,3.7,1.2,4.9
	H190.6z M189.4,177c0-1.2,0-3.7,0-4.9h2.5c0,1.2,0,3.7,0,4.9H189.4z M190.6,165.9h-2.5c0-1.2,0-3.7,0-4.9h2.5
	C190.6,163.5,190.6,164.7,190.6,165.9z M191.8,157.3l-2.5-1.2c0-1.2,1.2-3.7,2.5-4.9l2.5,1.2C193.1,153.6,193.1,154.9,191.8,157.3z
	 M196.8,148.7l-1.2-2.5h1.2c1.2,0,2.5-1.2,3.7-2.5l1.2,2.5C200.5,147.5,199.2,147.5,196.8,148.7C198,148.7,198,148.7,196.8,148.7z
	 M205.4,143.8l-1.2-2.5c1.2-1.2,2.5-2.5,3.7-3.7l1.2,2.5C209.1,141.3,207.9,142.5,205.4,143.8z M214,136.4l-1.2-1.2
	c1.2-1.2,2.5-2.5,3.7-3.7l2.5,1.2C216.5,133.9,215.2,135.2,214,136.4z M220.2,129l-2.5-1.2c1.2-1.2,2.5-2.5,2.5-3.7l2.5,1.2
	C222.6,126.5,221.4,127.8,220.2,129z M226.3,120.4l-2.5-1.2c1.2-1.2,1.2-2.5,2.5-4.9l2.5,1.2C227.6,117.9,226.3,119.1,226.3,120.4z
	 M230,111.8l-2.5-1.2c0-1.2,0-1.2,1.2-2.5c0-1.2,0-1.2,1.2-2.5h2.5c0,1.2,0,1.2-1.2,2.5C231.3,109.3,231.3,110.5,230,111.8z
	 M232.5,100.7H230l0,0c0-1.2,0-2.5,0-4.9h2.5C232.5,97,232.5,99.4,232.5,100.7L232.5,100.7z M227.6,92.1c-1.2-1.2-1.2-2.5-2.5-3.7
	l2.5-1.2c1.2,1.2,2.5,2.5,2.5,4.9H227.6z M222.6,83.4c-1.2-1.2-2.5-2.5-3.7-3.7l1.2-2.5c1.2,1.2,2.5,2.5,3.7,3.7L222.6,83.4z
	 M170.9,78.5V76c1.2,0,3.7,0,4.9-1.2l1.2,2.5C174.6,78.5,173.4,78.5,170.9,78.5z M166,78.5c-1.2,0-3.7,0-4.9-1.2v-2.5
	c1.2,0,3.7,1.2,4.9,1.2V78.5z M214,78.5c-1.2-1.2-2.5-1.2-4.9-2.5l1.2-2.5c1.2,1.2,3.7,1.2,4.9,2.5L214,78.5z M182,76l-1.2-2.5
	c1.2-1.2,3.7-1.2,4.9-2.5l1.2,2.5C184.5,74.8,183.2,74.8,182,76z M156.1,74.8c-1.2,0-2.5-1.2-3.7-2.5c0,0-1.2,0-1.2-1.2l1.2-2.5
	c0,0,0,0,1.2,1.2s2.5,1.2,3.7,2.5L156.1,74.8z M205.4,74.8c-1.2,0-3.7-1.2-4.9-1.2v-2.5c1.2,0,3.7,0,4.9,1.2V74.8z M190.6,73.6v-2.5
	c1.2,0,2.5,0,4.9,0c0,0,0,0,1.2,0v2.5c0,0,0,0-1.2,0C193.1,72.4,191.8,72.4,190.6,73.6z M147.5,68.7c-1.2-1.2-2.5-2.5-3.7-3.7
	l2.5-1.2c1.2,1.2,2.5,2.5,3.7,3.7L147.5,68.7z M141.4,61.3c-1.2-1.2-2.5-2.5-2.5-3.7l2.5-1.2c1.2,1.2,2.5,2.5,2.5,3.7L141.4,61.3z
	 M135.2,52.6c-1.2-1.2-1.2-3.7-2.5-4.9l2.5-1.2c0,1.2,1.2,2.5,2.5,4.9L135.2,52.6z"/>
<polygon fill="#FAAC3E" points="132.7,45.3 127.8,52.6 130.3,39.1 142.6,46.5 "/>
<path fill="#FAAC3E" d="M121.7,18.2c-1.2-1.2-2.5-2.5-3.7-3.7l2.5-1.2c1.2,1.2,2.5,2.5,3.7,3.7L121.7,18.2z M115.5,10.8
	c-1.2-1.2-2.5-2.5-2.5-3.7l2.5-1.2c1.2,1.2,2.5,2.5,2.5,3.7L115.5,10.8z M109.3,2.2c-1.2-1.2-1.2-2.5-2.5-4.9l2.5-1.2
	c1.2,1.2,1.2,2.5,2.5,4.9L109.3,2.2z M104.4-6.5c0-1.2-1.2-3.7-1.2-4.9h2.5c0,1.2,1.2,2.5,1.2,4.9H104.4z M105.6-17.5h-2.5
	c0-1.2,0-3.7,1.2-4.9l2.5,1.2C105.6-20,105.6-18.8,105.6-17.5z M109.3-26.2l-2.5-1.2c1.2-1.2,2.5-2.5,3.7-3.7l0,0l1.2,2.5l0,0
	C110.6-27.4,109.3-27.4,109.3-26.2z M116.7-31.1l-1.2-2.5c1.2-1.2,2.5-1.2,4.9-2.5l1.2,2.5C119.2-33.6,118-32.3,116.7-31.1z
	 M125.3-34.8v-2.5c1.2,0,3.7-1.2,4.9-1.2v2.5C129-36,127.8-36,125.3-34.8z M135.2-37.2v-2.5c1.2,0,2.5,0,3.7,0h1.2v2.5h-1.2
	C137.7-37.2,136.4-37.2,135.2-37.2z M145-38.5v-2.5c1.2,0,3.7,0,4.9-1.2v2.5C148.7-39.7,147.5-38.5,145-38.5z M156.1-40.9l-1.2-2.5
	c1.2,0,3.7-1.2,4.9-1.2l1.2,2.5C158.6-42.2,157.4-42.2,156.1-40.9z M164.8-45.9l-1.2-2.5c1.2-1.2,2.5-1.2,3.7-2.5l2.5,2.5
	C168.4-47.1,167.2-45.9,164.8-45.9z M173.4-52l-2.5-1.2c1.2-2.5,2.5-3.7,2.5-4.9l2.5,1.2C174.6-54.5,174.6-53.3,173.4-52z
	 M178.3-60.6l-2.5-1.2c1.2-1.2,1.2-2.5,1.2-4.9l2.5,1.2C179.5-64.3,179.5-63.1,178.3-60.6z M182-70.5h-2.5c0-1.2,0-3.7,1.2-4.9h2.5
	C182-74.2,182-73,182-70.5z"/>
</svg>
