<?xml version="1.0" encoding="utf-8"?>
<!-- Generator: Adobe Illustrator 17.0.0, SVG Export Plug-In . SVG Version: 6.00 Build 0)  -->
<!DOCTYPE svg PUBLIC "-//W3C//DTD SVG 1.1//EN" "http://www.w3.org/Graphics/SVG/1.1/DTD/svg11.dtd">
<svg version="1.1" id="Layer_1" xmlns="http://www.w3.org/2000/svg" xmlns:xlink="http://www.w3.org/1999/xlink" x="0px" y="0px"
	 width="333px" height="364px" viewBox="0 0 333 364" enable-background="new 0 0 333 364" xml:space="preserve">
<g>
	<g>
		<g>
			<g>
				<path fill="#80D8D5" d="M212.2,334.4c0,0-3.1-11.6-6.3-33.5c-3.1-21.9,21-23.2,51.3-27.8c14.7-2.2,27.4-11.3,28.5-25.5
					c0.6-7.6-1.5-9.7,3.8-14.5c13.9-12.6,34.8-12.5,38.6-34.2c8.2-46.8-36.1-99-76.2-117.8c-15.5-7.3-35.8-13.4-57.7-17
					c-7.3-1.2-14.8-2.1-22.3-2.7c-53.4-4.3-110.3,7.5-131.1,52.2c-8.7,18.6-11.3,61.1,2.1,78.5C58.6,212.4,90,206.6,90,206.6
					s-0.4,19.1,15.3,23.2c15.4,4,26.9,4.8,38.8,16.3c12.3,11.8,20.8,27.1,30.7,40.9c5.2,7.2,16.5,39.6,13.4,49.5"/>
			</g>
		</g>
		<g>
			<g>
				<g>
					<path fill="#FFFFFF" d="M84.6,218.1"/>
				</g>
			</g>
		</g>
		<g>
			<g>
				<g>
					<path fill="#3FB7BA" d="M90.1,206.4c4.6-18.6,23.8-33.1,48.4-40.8c29.4-9.2,57.8-3.7,76.8,11.9l-4.2,14.4
						c-5.5-3.5-18.7-13.8-32.2-12.8l0.2,8.1c15.4-1.1,31.3,10.5,31.5,10.6l2.5,1.8l12.4-24.7l-1.5-1.3c-20.1-17.8-55.1-23.1-87-13.1
						c-26.4,8.2-49.5,26.1-54.5,46.5L90.1,206.4z"/>
				</g>
			</g>
		</g>
		<g>
			<g>
				<path fill="none" stroke="#E9507E" stroke-width="5" stroke-miterlimit="10" d="M140.9,79.3"/>
			</g>
		</g>
		<g>
			<g>
				<path fill="none" stroke="#E9507E" stroke-width="5" stroke-miterlimit="10" d="M167.2,77.3"/>
			</g>
		</g>
		<g>
			<g>
				<g>
					<path fill="#3FB7BA" d="M82.6,133l4.9-5.8l-12.8-11.5c13.4-17.5,46.2-26.9,46.5-26.9l2.9-0.8l-9.4-24.4l-9.5,2.1l11.7,19
						c-9,2.9-36.2,12.7-47.7,29.8l-1.1,1.7L82.6,133z"/>
				</g>
			</g>
		</g>
		<g>
			<g>
				<g>
					<path fill="#3FB7BA" d="M119.1,173.8l5.1-2.6c0,0-12.4-21-17.2-24.8c-0.4-0.3-21.9,10.3-29.5,22.6l7.1,4
						c2.6-4.2,5.7-8.2,9.2-11.8c1.7-1.7,10.1-8.5,11.5-8.1C111.3,154.6,119.1,173.8,119.1,173.8z"/>
				</g>
			</g>
		</g>
		<g>
			<g>
				<path fill="none" stroke="#E9507E" stroke-width="5" stroke-miterlimit="10" d="M251.9,81"/>
			</g>
		</g>
		<g>
			<g>
				<g>
					<path fill="#3FB7BA" d="M295.5,173h32.2l-1.3-5.9l-28.8,0.7c-0.9-3.6-2.9-11.5-6.7-20c-7-15.7-16.1-25.7-27-29.6l-1.3-0.5
						L234,137.3l3,4.3l27.6-14.9c21.9,9.2,28.3,43.8,28.3,44.1l0.4,2.1L295.5,173z"/>
				</g>
			</g>
		</g>
		<g>
			<g>
				<g>
					<path fill="#3FB7BA" d="M183.7,258.6c14.2,0,22.6-9.4,27.7-16.6c0.6-0.8,3.5-5.2,6.3-9.4c1.6-2.4,2.8-4.4,3.7-5.9
						c1.6-2.6,3.9-4.2,1.8-5.7l-1.5-0.7c-0.2-0.1-19.8-9.8-19.8-9.8s-4-2-4.7-1.8c-1.6,0.6-6.5,7.1-6.5,7.1c-1.1,1-6.1,6.9-10.3,8.2
						c-6.6,2.1-14.7-0.2-23-5.2c-12.5-7.5-21.9-9.2-28.1-5.2c-8.8,5.8-6.8,16.5-7,20.1l5.3,1.7c0,0-0.5-14.2,4.6-17.5
						c4.3-2.8,12.1-1,22.5,5.3c9.7,5.8,18.7,7.5,26.9,4.9c8-2.5,15.4-14,17-14.4c2.5-0.6,13.7,7.7,16.8,9.8c1,0.7,0.5,1.1,0.3,1.8
						c-0.8,2.6-7.3,11.6-8.6,13.5c-7.4,10.4-15.2,11.3-24.8,10.9l-0.1,8.8C182.7,258.6,183.2,258.6,183.7,258.6z"/>
				</g>
			</g>
		</g>
		<g>
			<g>
				<g>
					<path fill="#3FB7BA" d="M142.4,142.5l2.6-1.5c0.1-0.1,12.3-6.9,36.5-4.8l0.4-8.5c-19.6-1.8-31.8,5.3-36.9,7.4l-9.5-22.2
						c39.8-19.1,83.2,9.5,83.6,9.8l1.8,1.2l43.7-36l-8.7-5l-35.7,34.3c-9.2-5.6-50.4-28.3-89.3-7.8l-2.1,1.1L142.4,142.5z"/>
				</g>
			</g>
		</g>
		<g>
			<g>
				<g>
					<polygon fill="#3FB7BA" points="268.7,161.8 287,144.8 283.9,140.5 264.6,154.3 					"/>
				</g>
			</g>
		</g>
		<g>
			<g>
				<g>
					<path fill="#3FB7BA" d="M53.7,201.1c0,0,15-10.9,14.9-16.5c0-0.6-1.7-1.8-1.7-1.8c-0.2-0.3-21-24.9-6.7-45.7l-7.9-5
						c-7,10.1-7.3,22.8-0.9,36.6c3.4,7.2,7.7,12.9,10,15.7l-13.8,12.4L53.7,201.1z"/>
				</g>
			</g>
		</g>
		<g>
			<g>
				<g>
					<path fill="#3FB7BA" d="M259.9,207.1c11.7,0,24.5-6.5,33.7-13.6L287,187c-10.1,7.8-22.5,17.9-34.2,13.8
						c-8.8-3.1-9.2-9.8-9.1-20.6c0.1-7.1,0.1-14.5-3.9-20.6c-9.6-14.7-30.2-24.7-38.4-26.5l-0.8,9.2c7.6,1.7,26.2,7,34.8,20.1
						c3.1,4.8,3.1,11.3,3,17.7c-0.1,9.9-0.2,21.1,12.6,25.6C253.9,206.7,256.8,207.1,259.9,207.1z"/>
				</g>
			</g>
		</g>
		<g>
			<g>
				<g>
					<polygon fill="#3FB7BA" points="130.5,216.8 134.4,213.4 118.3,195.1 110.6,200.2 					"/>
				</g>
			</g>
		</g>
		<g>
			<g>
				<polygon fill="#FFFFFF" points="131,152.5 134.9,144.3 134.9,158.1 122.1,153.8 				"/>
			</g>
		</g>
	</g>
	<g>
		<g>
			<g>
				<path fill="#FFFFFF" d="M229.2,357.6c-0.4,0-0.7,0-1.1,0l0.1-2.5c1.5,0,3.2,0,4.9-0.1l0.2,2.5
					C231.8,357.6,230.5,357.6,229.2,357.6z M222.9,357.1c-1.8-0.3-3.5-0.8-5.1-1.4l0.9-2.3c1.4,0.6,2.9,1,4.6,1.3L222.9,357.1z
					 M238.3,356.9l-0.4-2.5c1.5-0.2,3.2-0.5,4.9-0.9l0.5,2.4C241.5,356.3,239.9,356.6,238.3,356.9z M248.2,354.8l-0.6-2.4
					c1.5-0.4,3.1-0.8,4.8-1.3l0.7,2.4C251.3,354,249.7,354.5,248.2,354.8z M213.3,353.1c-1.4-1.1-2.7-2.3-3.8-3.8l2-1.5
					c0.9,1.3,2,2.4,3.3,3.3L213.3,353.1z M257.9,352.2l-0.7-2.4c1.6-0.5,3.2-0.9,4.8-1.4l0.7,2.4
					C261.1,351.2,259.5,351.7,257.9,352.2z M267.5,349.3l-0.7-2.4l0.5-0.2c1.4-0.4,2.9-0.9,4.3-1.3l0.7,2.4
					c-1.4,0.4-2.8,0.9-4.3,1.3L267.5,349.3z M277,346.4l-0.7-2.4c1.6-0.5,3.3-0.9,4.8-1.4l0.6,2.4
					C280.3,345.4,278.7,345.9,277,346.4z M309.7,344.9c-1.1-0.9-2.4-1.6-3.9-2.1l0.8-2.4c1.9,0.6,3.5,1.5,4.8,2.6L309.7,344.9z
					 M206.8,344.9c-0.8-1.4-1.5-3-2.3-4.5l2.3-1.1c0.7,1.5,1.5,3,2.2,4.4L206.8,344.9z M286.6,343.8l-0.6-2.4c1.8-0.4,3.4-0.7,5-1
					l0.4,2.5C290,343.1,288.4,343.4,286.6,343.8z M296.3,342.2l-0.2-2.5c1.9-0.2,3.6-0.2,5.2-0.1l-0.1,2.5
					C299.7,342,298.1,342,296.3,342.2z M202.5,335.8c-0.6-1.5-1.3-3.1-1.9-4.7l2.3-0.9c0.6,1.6,1.2,3.1,1.8,4.6L202.5,335.8z
					 M198.9,326.3c-0.5-1.6-1-3.2-1.5-4.8l2.4-0.7c0.5,1.6,0.9,3.2,1.5,4.7L198.9,326.3z M196.1,316.6c-0.4-1.7-0.8-3.3-1.1-4.9
					l2.5-0.5c0.3,1.6,0.7,3.2,1.1,4.8L196.1,316.6z M194.2,306.7c-0.2-1.7-0.4-3.4-0.5-5.1l2.5-0.2c0.1,1.6,0.3,3.2,0.5,4.9
					L194.2,306.7z M195.9,296.5l-2.5,0c0-1.8,0.1-3.5,0.3-5.1l2.5,0.3C196.1,293.2,196,294.8,195.9,296.5z M197.2,287l-2.4-0.7
					c0.6-1.8,1.3-3.5,2.2-4.9l2.1,1.3C198.3,284,197.7,285.4,197.2,287z M202.2,279.5l-1.4-2.1c0.3-0.2,0.7-0.4,1.1-0.6
					c1.1-0.6,2.2-1.3,3.3-1.9l1.3,2.1c-1.1,0.7-2.3,1.4-3.4,2C202.7,279.2,202.4,279.3,202.2,279.5z M210.6,274.1l-1.5-2
					c1.3-1,2.6-2,3.8-3.1l1.6,1.9C213.3,272.1,212,273.1,210.6,274.1z M218.3,267.5l-1.8-1.8c1.1-1.2,2.3-2.4,3.3-3.6l1.9,1.6
					C220.7,265,219.5,266.3,218.3,267.5z M225,259.8l-2-1.5c1-1.3,1.9-2.7,2.8-4l2.1,1.4C227,257,226,258.4,225,259.8z M230.5,251.2
					l-2.2-1.2c0.8-1.4,1.5-2.9,2.2-4.4l2.3,1.1C232.1,248.3,231.3,249.8,230.5,251.2z M234.8,242.1l-2.3-0.9
					c0.3-0.7,0.6-1.4,0.8-2.2c0.3-0.8,0.5-1.6,0.7-2.4l2.4,0.6c-0.2,0.9-0.5,1.8-0.8,2.7C235.4,240.6,235.1,241.3,234.8,242.1z
					 M237.1,231.9l-2.5,0l0-0.2c0-1.5-0.2-3-0.5-4.5l2.4-0.6c0.4,1.7,0.6,3.4,0.6,5L237.1,231.9z M232.6,222.8
					c-0.7-1.4-1.5-2.8-2.5-4.1l2-1.5c1.1,1.4,2,2.9,2.7,4.5L232.6,222.8z M226.9,215.2c-1.1-1.1-2.4-2.1-3.7-3.1l1.5-2
					c1.4,1,2.8,2.2,4,3.3L226.9,215.2z M176.7,210.2l-0.2-2.5c1.5-0.1,3.1-0.5,4.6-0.9l0.7,2.4C180.2,209.7,178.4,210.1,176.7,210.2
					z M171.4,210.1c-1.7-0.2-3.4-0.6-5.1-1.2l0.8-2.4c1.5,0.5,3.1,0.9,4.6,1.1L171.4,210.1z M219.1,209.5c-1.4-0.8-2.9-1.5-4.4-2.1
					l0.9-2.3c1.6,0.7,3.2,1.4,4.6,2.2L219.1,209.5z M186.6,207.2l-1.1-2.2c1.5-0.8,3.2-1.4,4.9-1.9l0.7,2.4
					C189.5,205.9,188,206.5,186.6,207.2z M161.6,206.8c-1.1-0.6-2.2-1.3-3.3-2.1c-0.3-0.2-0.7-0.5-1-0.8l1.5-2
					c0.3,0.2,0.6,0.5,0.9,0.7c1,0.7,2.1,1.4,3.1,2L161.6,206.8z M210.2,205.8c-1.6-0.4-3.2-0.8-4.7-1l0.4-2.5c1.7,0.3,3.4,0.6,5,1.1
					L210.2,205.8z M195.8,204.6l-0.3-2.5c1.4-0.2,2.9-0.2,4.3-0.2c0.3,0,0.6,0,0.8,0l-0.1,2.5c-0.3,0-0.6,0-0.9,0
					C198.4,204.3,197.1,204.4,195.8,204.6z M153.4,200.5c-1.1-1.1-2.3-2.4-3.5-3.7l1.9-1.6c1.1,1.3,2.2,2.5,3.3,3.6L153.4,200.5z
					 M146.7,192.9c-1-1.4-2-2.8-3-4.1l2.1-1.4c0.9,1.3,1.9,2.7,2.9,4L146.7,192.9z M141.1,184.4c-0.9-1.6-1.7-3.2-2.3-4.6l2.3-1
					c0.6,1.3,1.3,2.8,2.1,4.4L141.1,184.4z"/>
			</g>
		</g>
		<g>
			<g>
				<polygon fill="#FFFFFF" points="139,177.7 133.5,184.9 136.4,171.5 147.9,178.4 				"/>
			</g>
		</g>
	</g>
	<g>
		<g>
			<path fill="#FFFFFF" d="M127.8,150.9c-1.2-1.3-2.3-2.5-3.3-3.8l1.9-1.6c1,1.2,2.1,2.4,3.3,3.7L127.8,150.9z M121.2,143.3
				c-1.1-1.4-2.1-2.7-3-4.1l2-1.4c0.9,1.3,1.9,2.6,3,4L121.2,143.3z M115.4,135c-0.9-1.5-1.8-3-2.5-4.5l2.2-1.1
				c0.7,1.4,1.5,2.8,2.4,4.3L115.4,135z M110.9,125.8c-0.6-1.7-1.1-3.4-1.3-5l2.5-0.4c0.2,1.5,0.7,3,1.2,4.6L110.9,125.8z
				 M111.8,115.6l-2.5-0.2c0.1-1.8,0.5-3.6,1.2-5.2l2.3,0.9C112.2,112.5,111.9,114,111.8,115.6z M115.2,107.2l-1.9-1.6
				c1-1.2,2.3-2.4,3.7-3.5l0.1-0.1l1.5,2l-0.1,0.1C117.2,105.1,116.1,106.1,115.2,107.2z M122.6,101.4l-1.2-2.2
				c1.5-0.8,3-1.5,4.7-2.1l0.9,2.3C125.5,100.1,124,100.7,122.6,101.4z M131.7,98l-0.6-2.4c1.5-0.4,3.1-0.8,4.9-1.1l0.5,2.5
				C134.7,97.2,133.2,97.6,131.7,98z M141.4,96l-0.4-2.5c1.3-0.2,2.6-0.4,3.8-0.6l1.1-0.2l0.4,2.5l-1.1,0.2
				C143.9,95.6,142.6,95.8,141.4,96z M151.3,94.5l-0.4-2.5c1.8-0.3,3.4-0.6,4.8-1l0.6,2.4C154.7,93.8,153.1,94.1,151.3,94.5z
				 M161.2,92.2l-0.7-2.4c1.6-0.5,3.1-1.1,4.5-1.7l1,2.3C164.5,91,162.9,91.6,161.2,92.2z M170.5,87.9l-1.3-2.1
				c1.4-0.9,2.6-1.8,3.8-2.9l1.7,1.9C173.4,85.9,172,87,170.5,87.9z M178.2,81l-1.9-1.6c1-1.2,2-2.5,2.8-3.9l2.1,1.3
				C180.3,78.3,179.3,79.7,178.2,81z M183.7,72.3l-2.3-1c0.7-1.5,1.3-3,1.8-4.5l2.4,0.8C185,69.1,184.4,70.7,183.7,72.3z
				 M186.9,62.5l-2.4-0.5c0.3-1.6,0.6-3.2,0.7-4.8l2.5,0.2C187.5,59.1,187.2,60.8,186.9,62.5z M185.3,52.4c-0.1-1.6-0.2-3.2-0.5-4.8
				l2.5-0.4c0.3,1.7,0.4,3.4,0.5,5.1L185.3,52.4z M183.7,42.8c-0.5-1.6-1-3.1-1.7-4.5l2.3-1.1c0.7,1.5,1.3,3.2,1.8,4.8L183.7,42.8z
				 M179.6,34.2c-0.3-0.5-0.7-1-1-1.4c-0.6-0.8-1.3-1.6-2-2.4l1.9-1.6c0.7,0.8,1.4,1.7,2.1,2.5c0.4,0.5,0.8,1,1.1,1.5L179.6,34.2z
				 M173.3,26.8c-1.2-1.1-2.4-2.3-3.6-3.3l1.6-1.9c1.3,1.1,2.6,2.2,3.8,3.4L173.3,26.8z M165.8,20.5c-1.3-0.9-2.7-1.8-4.1-2.7
				l1.3-2.2c1.5,0.9,2.9,1.8,4.3,2.8L165.8,20.5z M18.4,16.4c-1.3,0-2.6,0-3.9-0.1l0.1-2.5c1.6,0.1,3.3,0.1,4.9,0.1l0,2.5
				C19.2,16.4,18.8,16.4,18.4,16.4z M24.7,16.3l-0.1-2.5c1.6-0.1,3.2-0.2,5-0.3l0.2,2.5C27.9,16.1,26.3,16.2,24.7,16.3z M34.7,15.6
				l-0.2-2.5c1.6-0.2,3.3-0.3,5-0.5l0.3,2.5C38,15.2,36.3,15.4,34.7,15.6z M157.4,15.6c-1.4-0.7-3-1.4-4.5-2l0.9-2.3
				c1.6,0.6,3.1,1.3,4.6,2.1L157.4,15.6z M44.7,14.5L44.4,12c1.6-0.2,3.3-0.4,5-0.6l0.3,2.5C48,14.1,46.3,14.3,44.7,14.5z
				 M54.6,13.2l-0.3-2.5c1.6-0.2,3.3-0.5,5-0.7l0.3,2.5C57.9,12.7,56.3,12.9,54.6,13.2z M148.3,11.9c-1.5-0.5-3.1-1-4.7-1.4l0.6-2.4
				c1.7,0.4,3.3,0.9,4.9,1.4L148.3,11.9z M64.5,11.8l-0.3-2.5c1.6-0.2,3.3-0.5,5-0.7l0.3,2.5C67.8,11.3,66.2,11.6,64.5,11.8z
				 M74.4,10.4L74.1,8c1.7-0.2,3.3-0.4,5-0.6l0.3,2.5C77.7,10,76.1,10.2,74.4,10.4z M138.7,9.4c-1.6-0.3-3.2-0.6-4.9-0.8l0.4-2.5
				c1.7,0.3,3.4,0.5,5,0.9L138.7,9.4z M84.3,9.2l-0.3-2.5c1.7-0.2,3.3-0.4,5-0.5l0.3,2.5C87.6,8.8,86,9,84.3,9.2z M94.3,8.2L94,5.7
				c1.7-0.1,3.3-0.3,5-0.4l0.2,2.5C97.6,7.9,95.9,8,94.3,8.2z M129,8c-1.6-0.2-3.3-0.3-4.9-0.4l0.2-2.5c1.7,0.1,3.4,0.3,5,0.4L129,8
				z M104.2,7.5L104.1,5c1.7-0.1,3.4-0.2,5-0.2l0.1,2.5C107.5,7.3,105.8,7.4,104.2,7.5z M119.1,7.3c-1.6,0-3.2-0.1-4.9-0.1h-0.1V4.7
				h0.1c1.7,0,3.3,0,4.9,0.1L119.1,7.3z"/>
		</g>
	</g>
</g>
</svg>
