<?xml version="1.0" encoding="utf-8"?>
<!-- Generator: Adobe Illustrator 17.0.0, SVG Export Plug-In . SVG Version: 6.00 Build 0)  -->
<!DOCTYPE svg PUBLIC "-//W3C//DTD SVG 1.1//EN" "http://www.w3.org/Graphics/SVG/1.1/DTD/svg11.dtd">
<svg version="1.1" id="Layer_1" xmlns="http://www.w3.org/2000/svg" xmlns:xlink="http://www.w3.org/1999/xlink" x="0px" y="0px"
	 width="164.1px" height="330px" viewBox="0 0 164.1 330" enable-background="new 0 0 164.1 330" xml:space="preserve">
<g>
	<path fill="#2CBEC1" d="M122.3,213.8c-0.3-6.7-3.4-14.9-3.5-20.5c0,0-40.2-3.1-65.1-1.8c0,0-2.9,11.1-3.7,21.6
		c-18.3,19-48,59.2-48,59.2C13.9,292,47.8,325,47.8,325c4.6-1.1,14.2-7.8,14.2-7.8c-11.2-16.5-25.7-35.1-31.4-52.9
		c10.3-10.4,23.8-27.6,32.1-38.3l45.9,0.6c7,11.5,18,29.1,26.7,40.1c-8,17.1-24.9,34.1-38.2,49.4c0,0,8.9,7.6,13.3,9.1
		c0,0,38.3-29.4,52.7-47.8C137.7,233.5,137.6,233.6,122.3,213.8z"/>
	<g>
		<path fill="#2CBEC1" d="M86.6,53c-1.3,10.8,0.3,21.4,1.8,32c1.8,12.6,1.4,24.5,0.9,37.2c-1,24.4-1.2,48.8-2.8,73.2
			c-0.2,3.2,4.8,3.2,5,0c1.6-23.7,1.9-47.5,2.7-71.2c0.4-12.2,1.2-24-0.4-36.1c-1.5-11.7-3.5-23.2-2.2-35C92,49.8,86.9,49.8,86.6,53
			L86.6,53z"/>
	</g>
	<g>
		<path fill="#2CBEC1" d="M89.5,53.2c-5.3,1.9-16.3,5.3-15.3,12.9c0.7,5.6,7.2,9.4,11,13c2.5,2.3,4.6,4.9,4.6,8.5
			c0,3.7-4.7,7.2-6.2,10.4c-3.7,8,5,14.6,9.7,19.6c3.1,3.3,5.3,7.4,1.1,10.5c-3.3,2.5-7,4.4-10.1,7.2c-6.6,5.9-4.2,12.1,1.5,17.2
			c2.9,2.7,6.9,5.8,4.4,10c-2.4,4-6.4,6.9-8.9,11c-1.8,2.9-2.5,6.8-1.3,10c1.5,4.3,6,8.3,3.9,13.2c-1.2,2.9,3.1,5.5,4.3,2.5
			c1.5-3.4,1.6-6.7,0.2-10.2c-1.6-3.7-4.3-6.5-3.7-10.7c0.6-4.3,5.6-8,8.2-11.1c2.4-2.9,3.6-5.7,3.1-9.4c-1-6.5-13.7-10.7-9.7-17.2
			c3.6-5.8,14.4-7.1,15.6-14.5c1.3-8-6.8-13.6-11.4-18.8c-3.5-4-2.8-7.3,0.2-11.1c2.3-3,4.1-5.9,4.1-9.8c-0.1-6.5-6.2-11.2-10.6-15
			c-1.6-1.4-4.7-3.6-5-6c-0.5-3.9,9.4-6.7,11.7-7.5C93.9,57,92.6,52.1,89.5,53.2L89.5,53.2z"/>
	</g>
	<path fill="#2CBEC1" d="M84.5,56.8c24.6,10.3,28.9-40.1,29.9-53.9l-5.9-0.4C94.8,1.5,80.9,2,67.9,1C67.9,1,66.6,49.3,84.5,56.8z"/>
</g>
</svg>
