<?xml version="1.0" encoding="utf-8"?>
<!-- Generator: Adobe Illustrator 18.0.0, SVG Export Plug-In . SVG Version: 6.00 Build 0)  -->
<!DOCTYPE svg PUBLIC "-//W3C//DTD SVG 1.1//EN" "http://www.w3.org/Graphics/SVG/1.1/DTD/svg11.dtd">
<svg version="1.1" id="Layer_1" xmlns="http://www.w3.org/2000/svg" xmlns:xlink="http://www.w3.org/1999/xlink" x="0px" y="0px"
	 viewBox="0 0 555.4 562.7" enable-background="new 0 0 555.4 562.7" xml:space="preserve">
<g>
	<g>
		<path fill="#37BEC0" d="M227.8,65.3"/>
	</g>
	<g>
		<path fill="#37BEC0" d="M279.8,71.2"/>
	</g>
	<g>
		<path fill="#37BEC0" d="M329.6,98.9"/>
	</g>
	<g>
		<path fill="#248082" d="M481,245.4c-8-23.7-24.8-42.9-47.3-54c-14.6-7.1-51.2-11.2-57.2-11.8c-2.8-16.1-7.2-29.2-13.4-39.8
			c-13.2-22.7-51.4-38.3-113.5-46.4c-46.1-6-88.9-5.4-89.3-5.4H160l-0.2,0.1c-13.6,9.2-25.3,20.6-34.9,33.9l-8.8-2.3
			c-41.2-12.3-84.9,6.7-104,45.3c-10.4,21-11.9,44.9-4.4,67.1c7.5,22.2,23.3,40.2,44.3,50.6c4.1,2,9.6,3.7,16.4,4.9l0.2-1l63.2-5.9
			l-0.8,0.6c2.5,3.1,4.9,6.5,7.4,10c10.3,14.3,21.9,30.4,38.1,38.4c8.5,4.2,17.3,7.5,26.3,9.9c34.9,9.2,72.4,4.7,104.6-13.5
			c4.1,3.8,29.4,26.8,43.2,33.6c5.7,2.8,11.6,5,17.6,6.6c42.2,11.2,88-8.5,108.1-49.2C487.4,294.6,489,269.1,481,245.4z"/>
		<path fill="#248082" d="M503,346c-12.1-3.2-24.6,4.1-27.8,16.2c-3.2,12.1,4.1,24.6,16.2,27.8c12.1,3.2,24.5-4.1,27.8-16.2
			C522.4,361.7,515.1,349.2,503,346z"/>
		<path fill="#248082" d="M545,410c2.2-8.1-2.7-16.5-10.8-18.6c-8.1-2.2-16.5,2.7-18.6,10.8c-2.2,8.1,2.7,16.5,10.8,18.6
			C534.5,423,542.8,418.1,545,410z"/>
		<path fill="#248082" d="M547.8,427.7c-5.4-1.4-10.9,1.8-12.3,7.2c-1.4,5.4,1.8,10.9,7.2,12.3c5.4,1.4,10.9-1.8,12.3-7.2
			C556.4,434.6,553.2,429.1,547.8,427.7z"/>
	</g>
	<g>
		<path fill="#217273" d="M317.5,325c-9.8-3.9-19.6-0.9-29.1,2.5c-28.2,10.3-58,13.6-87.3,5.3c-24.7-7-50.5-27.4-62.8-50
			c-15.1-27.7,19-35.6,38.3-42c8.6-2.8,18.1-6,23.6-13.6c6-8.3-0.2-18.5-5.5-25.1c-14.2-17.8-38.1-14.9-58.2-10
			c-19.9,4.9-37.2,17.9-50.1,33.5c-12.9,15.7-21.6,35.5-23.8,55.7c-2.3,21.6,3.4,40.1,15.6,58c12.1,17.7,28,32.4,39.5,50.5
			c15,23.6,14.3,50.8,12,77.7c-2.5,29.5-8.4,58.7-10.8,88.2c-0.2,2.5,2.5,5.3,5.1,5c44-5.8,88.1-11.5,132.1-17.3
			c0.5-0.1,0.9-0.2,1.3-0.3c2.4-0.7,4.3-2.9,3.6-6.1c-6.9-29.3-2-55.5,12.3-81.6c5.9-10.8,12.8-21.1,19.3-31.5
			c7.6-12.1,13.8-25.1,21.6-37c7.9-12.1,24.8-25.8,20.6-42C332.7,336.9,325.2,328.1,317.5,325z"/>
		<path fill="#217273" d="M365,82.2c-5.3-3-16.6-6.5-25.4-6.1c2.8-23.8-2.4-47.6-31.4-47.4c-2.9,0-8.8,0.4-14.1,1.5
			c-3.4-11-11.2-19.6-24.1-22.9c-17.1-4.5-30.5,8-38.3,21.8c-2.2,3.9-4.1,8-5.7,12.2c-2.1-11.6-6.1-23.4-14.8-30.7
			C197-1.3,179.8,8.2,167.8,18C137,43.3,114.5,74.4,109,114.6c-0.1,0.4-0.1,0.8,0,1.1c-0.1,1.6,0.6,3.3,2.3,4.5
			c3.8,2.4,7.6,4.9,11.4,7.3c2.8,1.8,6.6,0,7.4-3.1c2.8-9.8,12-17.3,21.4-22.8c-2.1,9.7-0.6,18.4,4.2,29.5
			c6.8,15.6,18.6,29.2,37.1,22.2c7-2.6,12.6-7.7,17.1-13.7c0.3,2.4,0.6,4.8,1.1,7.1c2.3,12.2,9.3,22.9,21.7,26.2
			c9.3,2.5,17.6,0.3,24.5-4.7c6.9,6.9,14.4,8.1,21.8,5.7c-0.6,7.8,1.1,15.7,9,19c11.4,4.7,25.2-2.6,34.8-8.2
			c26.4-15.3,53.8-44.2,56.7-75.9C380.5,97.6,374.7,87.7,365,82.2z"/>
	</g>
</g>
</svg>
