<?xml version="1.0" encoding="utf-8"?>
<!-- Generator: Adobe Illustrator 17.0.0, SVG Export Plug-In . SVG Version: 6.00 Build 0)  -->
<!DOCTYPE svg PUBLIC "-//W3C//DTD SVG 1.1//EN" "http://www.w3.org/Graphics/SVG/1.1/DTD/svg11.dtd">
<svg version="1.1" id="Layer_1" xmlns="http://www.w3.org/2000/svg" xmlns:xlink="http://www.w3.org/1999/xlink" x="0px" y="0px"
	 width="700.5px" height="566.6px" viewBox="0 -4.1 700.5 566.6" enable-background="new 0 -4.1 700.5 566.6" xml:space="preserve">
<g>
	<g>
		<g>
			<g>
				<path fill="#F6AC40" d="M143.9,46.4c-3.4-32.2-21.3-48-48-44c-23.1,3.4-39.3,16-39.3,44H143.9z"/>
			</g>
			<g>
				<g>
					<path fill="#F6AC40" d="M145.7,46.4c-1.4-12.7-5-25.4-13.9-34.9c-7.9-8.7-19.5-11.9-30.9-11.4C89.3,0.6,77.3,4.4,68.4,12
						c-10,8.5-13.3,21.7-13.4,34.3c0,1,0.8,1.8,1.8,1.8c29.1,0,58.2,0,87.2,0c2.3,0,2.3-3.5,0-3.5c-29.1,0-58.2,0-87.2,0
						c0.6,0.6,1.2,1.2,1.8,1.8c0.1-11.6,3-22.9,11.6-31.2c8-7.7,20-10.9,30.9-11.6c10.1-0.7,20,2.4,27.5,9.5
						c8.8,8.5,12.3,21.4,13.6,33.2C142.4,48.6,145.9,48.6,145.7,46.4z"/>
				</g>
			</g>
		</g>
		<g>
			<g>
				<path fill="#575655" d="M145.6,57.5c-12.6-0.2-80.2,0.4-90.5,0.2c0.5,14.7,0.3,22.6-0.2,41.1H144
					C144,82.7,145.6,57.5,145.6,57.5z"/>
			</g>
			<g>
				<g>
					<path fill="#575655" d="M145.6,55.7c-30.2-0.5-60.3,0.7-90.5,0.2c-0.9,0-1.8,0.8-1.8,1.8c0.4,13.7,0.2,27.4-0.2,41.1
						c0,1,0.8,1.8,1.8,1.8c29.7,0,59.4,0,89.1,0c1,0,1.7-0.8,1.8-1.8c0-13.8,0.7-27.5,1.6-41.3c0.1-2.3-3.4-2.2-3.5,0
						c-0.9,13.7-1.5,27.5-1.6,41.3c0.6-0.6,1.2-1.2,1.8-1.8c-29.7,0-59.4,0-89.1,0c0.6,0.6,1.2,1.2,1.8,1.8
						c0.4-13.7,0.6-27.4,0.2-41.1c-0.6,0.6-1.2,1.2-1.8,1.8c30.1,0.5,60.3-0.7,90.5-0.2C147.9,59.2,147.9,55.7,145.6,55.7z"/>
				</g>
			</g>
		</g>
	</g>
	<g>
		<g>
			<g>
				<path fill="#575655" d="M531.1,54.2c3.4,32.2,21.3,48,48,44c23.1-3.4,39.3-16,39.3-44H531.1z"/>
			</g>
			<g>
				<g>
					<path fill="#575655" d="M529.3,54.2c1.4,12.7,5,25.4,13.9,34.9c7.9,8.6,19.5,11.9,30.9,11.3c11.6-0.5,23.6-4.4,32.5-11.9
						c10-8.5,13.3-21.7,13.4-34.3c0-1-0.8-1.8-1.8-1.8c-29.1,0-58.2,0-87.2,0c-2.3,0-2.3,3.5,0,3.5c29.1,0,58.2,0,87.2,0
						c-0.6-0.6-1.2-1.2-1.8-1.8c-0.1,11.6-3,22.9-11.6,31.2c-8,7.7-20,10.9-30.9,11.6c-10.3,0.7-20.2-2.4-27.7-9.6
						c-8.8-8.5-12.3-21.4-13.6-33.2C532.6,52,529,52,529.3,54.2z"/>
				</g>
			</g>
		</g>
		<g>
			<g>
				<path fill="#F6AC40" d="M602.7,43.4C591.4,25.9,580.3,9.3,576,4.5c-3.5,2.6-16.6,20.3-29.4,38.1L602.7,43.4z"/>
			</g>
			<g>
				<g>
					<path fill="#F6AC40" d="M604.9,42.1c-8.6-13.2-16.7-27.5-27.1-39.4c-1-1.1-2.5-0.8-3.5,0c-4.2,3.4-7.4,8.4-10.7,12.7
						c-6.6,8.5-12.8,17.3-19.1,26c-1.1,1.6,0.4,3.7,2.2,3.8c18.7,0.3,37.4,0.5,56.1,0.8c3.2,0,3.2-5,0-5
						c-18.7-0.3-37.4-0.5-56.1-0.8c0.7,1.3,1.4,2.5,2.2,3.8c5.7-7.9,11.4-15.8,17.2-23.5c3.6-4.7,7.2-10.4,11.8-14.2
						c-1.2,0-2.4,0-3.5,0c10.1,11.6,18,25.6,26.3,38.4C602.3,47.3,606.7,44.8,604.9,42.1z"/>
				</g>
			</g>
		</g>
	</g>
	<g>
		<g>
			<g>
				<path fill="#F6AC40" d="M291.7,45.6c12.6,0.2,80.2-0.4,90.5-0.2c-0.5-14.7-0.3-22.6,0.2-41.1h-89.1
					C293.3,20.4,291.7,45.6,291.7,45.6z"/>
			</g>
			<g>
				<g>
					<path fill="#F6AC40" d="M291.7,46.9c30.2,0.5,60.3-0.7,90.5-0.2c0.7,0,1.3-0.6,1.2-1.2c-0.4-13.7-0.2-27.4,0.2-41.1
						c0-0.7-0.6-1.2-1.2-1.2c-29.7,0-59.4,0-89.1,0c-0.7,0-1.2,0.6-1.2,1.2c0,13.8-0.7,27.5-1.6,41.3c-0.1,1.6,2.4,1.6,2.5,0
						c0.9-13.7,1.5-27.5,1.6-41.3c-0.4,0.4-0.8,0.8-1.2,1.2c29.7,0,59.4,0,89.1,0c-0.4-0.4-0.8-0.8-1.2-1.2
						c-0.4,13.7-0.6,27.4-0.2,41.1c0.4-0.4,0.8-0.8,1.2-1.2c-30.1-0.5-60.3,0.7-90.5,0.2C290.1,44.4,290.1,46.9,291.7,46.9z"/>
				</g>
			</g>
		</g>
		<g>
			<g>
				<path fill="#575655" d="M368.2,57.8c2.3,3.1,26.1,36.1,30.6,42.8c0,0-79.4,1.4-119.1-0.8c0,0,13.2-21.9,26.8-43.5
					C306.5,56.2,365.9,54.7,368.2,57.8z"/>
			</g>
			<g>
				<g>
					<path fill="#575655" d="M366.7,58.7c10.4,14.1,20.8,28.3,30.6,42.8c0.5-0.9,1-1.8,1.5-2.6c-39.6,0.7-79.5,1.4-119.1-0.8
						c0.5,0.9,1,1.8,1.5,2.6c6.1-10.2,12.3-20.3,18.6-30.4c2.4-3.8,4.8-7.7,7.2-11.5c0.5-0.8-1.1-0.8,0.9-0.8c3-0.1,6.1-0.1,9.1-0.2
						c9.8-0.2,19.7-0.2,29.5-0.1c4.6,0.1,9.2,0.2,13.7,0.5c1.5,0.1,6,0.1,6.7,0.9c1.6,1.6,4-0.8,2.5-2.5c-1.4-1.4-4.2-1.4-6-1.6
						c-4.4-0.5-8.8-0.6-13.2-0.7c-10.8-0.3-21.7-0.2-32.5,0c-3.3,0-6.6,0.1-9.9,0.2c-4.4,0.1-6,5.9-8,9.2
						c-7.3,11.6-14.5,23.4-21.6,35.2c-0.7,1.2,0.2,2.6,1.5,2.6c39.6,2.2,79.5,1.5,119.1,0.8c1.2,0,2.3-1.5,1.5-2.6
						c-9.8-14.5-20.2-28.6-30.6-42.8C368.4,55.1,365.3,56.9,366.7,58.7z"/>
				</g>
			</g>
		</g>
	</g>
	<g>
		<g>
			<g>
				<path fill="#575655" d="M56.6,242.4c3.3,31.6,20.9,47,47,43.2c22.6-3.3,38.5-15.7,38.5-43.2H56.6z"/>
			</g>
			<g>
				<g>
					<path fill="#575655" d="M54.8,242.4c1.4,12.6,5,25.2,14,34.6c7.7,8.2,18.9,11.3,29.9,10.8c11.6-0.5,23.6-4.4,32.4-12
						c9.5-8.3,12.7-21.2,12.8-33.4c0-1-0.8-1.8-1.8-1.8c-28.5,0-57,0-85.5,0c-2.3,0-2.3,3.5,0,3.5c28.5,0,57,0,85.5,0
						c-0.6-0.6-1.2-1.2-1.8-1.8c-0.1,11.6-3.1,22.8-11.8,30.9c-7.9,7.3-19.5,10.3-29.9,11c-10.2,0.7-20.1-2.5-27.4-9.8
						c-8.4-8.3-11.6-20.8-12.9-32.2C58.1,240.2,54.5,240.2,54.8,242.4z"/>
				</g>
			</g>
		</g>
		<g>
			<g>
				<path fill="#F6AC40" d="M54.9,232c12.3,0.2,78.7-0.4,88.7-0.2c-0.5-14.4-0.3-22.2,0.2-40.3H56.4C56.4,207.3,54.9,232,54.9,232z"
					/>
			</g>
			<g>
				<g>
					<path fill="#F6AC40" d="M54.9,233.3c29.6,0.5,59.1-0.7,88.7-0.2c0.7,0,1.3-0.6,1.2-1.2c-0.4-13.4-0.2-26.8,0.2-40.3
						c0-0.7-0.6-1.2-1.2-1.2c-29.1,0-58.2,0-87.3,0c-0.7,0-1.2,0.6-1.2,1.2c0,13.5-0.7,27-1.5,40.5c-0.1,1.6,2.4,1.6,2.5,0
						c0.8-13.5,1.5-27,1.5-40.5c-0.4,0.4-0.8,0.8-1.2,1.2c29.1,0,58.2,0,87.3,0c-0.4-0.4-0.8-0.8-1.2-1.2
						c-0.4,13.4-0.6,26.8-0.2,40.3c0.4-0.4,0.8-0.8,1.2-1.2c-29.6-0.5-59.1,0.7-88.7,0.2C53.3,230.7,53.3,233.2,54.9,233.3z"/>
				</g>
			</g>
		</g>
	</g>
	<g>
		<g>
			<g>
				<path fill="#575655" d="M385.2,237.7c-12.3-0.2-78.7,0.4-88.7,0.2c0.5,14.4,0.3,22.2-0.2,40.3h87.3
					C383.6,262.4,385.2,237.7,385.2,237.7z"/>
			</g>
			<g>
				<g>
					<path fill="#575655" d="M385.2,235.9c-29.6-0.5-59.1,0.7-88.7,0.2c-0.9,0-1.8,0.8-1.8,1.8c0.4,13.4,0.2,26.8-0.2,40.3
						c0,1,0.8,1.8,1.8,1.8c29.1,0,58.2,0,87.3,0c1,0,1.7-0.8,1.8-1.8c0-13.5,0.7-27,1.5-40.5c0.1-2.3-3.4-2.2-3.5,0
						c-0.8,13.5-1.5,27-1.5,40.5c0.6-0.6,1.2-1.2,1.8-1.8c-29.1,0-58.2,0-87.3,0c0.6,0.6,1.2,1.2,1.8,1.8
						c0.4-13.4,0.6-26.8,0.2-40.3c-0.6,0.6-1.2,1.2-1.8,1.8c29.6,0.5,59.1-0.7,88.7-0.2C387.4,239.4,387.4,235.9,385.2,235.9z"/>
				</g>
			</g>
		</g>
		<g>
			<g>
				<path fill="#F6AC40" d="M365.3,226.4c-11.1-17.2-22-33.4-26.2-38.2c-3.5,2.6-16.3,19.9-28.9,37.4L365.3,226.4z"/>
			</g>
			<g>
				<g>
					<path fill="#F6AC40" d="M367.4,225.1c-8.4-13-16.4-27-26.6-38.7c-1-1.1-2.5-0.8-3.5,0c-4.3,3.5-7.6,8.7-10.9,13
						c-6.3,8.2-12.3,16.5-18.3,24.9c-1.1,1.6,0.4,3.7,2.2,3.8c18.3,0.2,36.7,0.5,55,0.7c3.2,0,3.2-5,0-5c-18.3-0.2-36.7-0.5-55-0.7
						c0.7,1.3,1.4,2.5,2.2,3.8c5.7-7.9,11.5-15.9,17.4-23.7c3.4-4.4,6.8-9.7,11.1-13.3c-1.2,0-2.4,0-3.5,0
						c9.9,11.4,17.6,25.1,25.8,37.7C364.9,230.4,369.2,227.8,367.4,225.1z"/>
				</g>
			</g>
		</g>
	</g>
	<g>
		<g>
			<g>
				<path fill="#F6AC40" d="M621.2,229c-3.3-31.6-20.9-47-47-43.2c-22.6,3.3-38.5,15.7-38.5,43.2H621.2z"/>
			</g>
			<g>
				<g>
					<path fill="#F6AC40" d="M623,229c-1.4-12.6-5-25.2-14-34.6c-7.7-8.2-18.9-11.3-29.9-10.8c-11.6,0.5-23.6,4.4-32.4,12
						c-9.5,8.3-12.7,21.2-12.8,33.4c0,1,0.8,1.8,1.8,1.8c28.5,0,57,0,85.5,0c2.3,0,2.3-3.5,0-3.5c-28.5,0-57,0-85.5,0
						c0.6,0.6,1.2,1.2,1.8,1.8c0.1-11.6,3.1-22.8,11.8-30.9c7.9-7.3,19.5-10.3,29.9-11c10.2-0.7,20.1,2.5,27.4,9.8
						c8.4,8.3,11.6,20.8,12.9,32.2C619.7,231.2,623.2,231.3,623,229z"/>
				</g>
			</g>
		</g>
		<g>
			<g>
				<path fill="#575655" d="M609.8,241.4c2.2,3,25.6,35.4,30,41.9c0,0-77.9,1.4-116.8-0.8c0,0,12.9-21.5,26.3-42.7
					C549.3,239.8,607.6,238.4,609.8,241.4z"/>
			</g>
			<g>
				<g>
					<path fill="#575655" d="M608.3,242.3c10.2,13.8,20.4,27.7,30,41.9c0.5-0.9,1-1.8,1.5-2.6c-38.9,0.7-78,1.4-116.8-0.8
						c0.5,0.9,1,1.8,1.5,2.6c5.9-9.9,12-19.7,18-29.5c2.4-3.9,4.8-7.7,7.2-11.6c0.5-0.9-1-0.8,0.9-0.8c3.1-0.1,6.2-0.1,9.3-0.2
						c9.6-0.1,19.2-0.2,28.7-0.1c4.3,0.1,8.6,0.2,13,0.4c1.5,0.1,6.1,0.1,6.9,0.9c1.6,1.6,4-0.8,2.5-2.5c-1.3-1.3-3.8-1.4-5.5-1.6
						c-4.3-0.5-8.7-0.6-13-0.7c-10.6-0.3-21.1-0.2-31.7,0c-3.3,0-6.5,0.1-9.8,0.2c-4.3,0.1-5.2,4.1-7.4,7.6
						c-7.4,11.9-14.8,23.9-22.1,36c-0.7,1.2,0.2,2.6,1.5,2.6c38.8,2.2,77.9,1.5,116.8,0.8c1.2,0,2.3-1.5,1.5-2.6
						c-9.7-14.2-19.9-28.1-30-41.9C610,238.7,607,240.5,608.3,242.3z"/>
				</g>
			</g>
		</g>
	</g>
	<g>
		<g>
			<g>
				<g>
					<path fill="#575655" d="M379.1,464.6c-11.2-0.2-71.6,0.3-80.7,0.2c0.4,13.1,0.3,20.2-0.2,36.7h79.5
						C377.7,487.1,379.1,464.6,379.1,464.6z"/>
				</g>
				<g>
					<g>
						<path fill="#575655" d="M379.1,462.8c-26.9-0.4-53.8,0.6-80.7,0.2c-0.9,0-1.8,0.8-1.8,1.8c0.4,12.2,0.2,24.4-0.2,36.7
							c0,1,0.8,1.8,1.8,1.8c26.5,0,53,0,79.5,0c1,0,1.7-0.8,1.8-1.8c0-12.3,0.6-24.6,1.4-36.8c0.1-2.3-3.4-2.2-3.5,0
							c-0.8,12.3-1.4,24.5-1.4,36.8c0.6-0.6,1.2-1.2,1.8-1.8c-26.5,0-53,0-79.5,0c0.6,0.6,1.2,1.2,1.8,1.8
							c0.3-12.2,0.6-24.4,0.2-36.7c-0.6,0.6-1.2,1.2-1.8,1.8c26.9,0.5,53.8-0.6,80.7-0.2C381.4,466.4,381.4,462.9,379.1,462.8z"/>
					</g>
				</g>
			</g>
			<g>
				<g>
					<path fill="#F6AC40" d="M298.3,455.4c11.2,0.2,71.6-0.3,80.7-0.2c-0.4-13.1-0.3-20.2,0.2-36.7h-79.5
						C299.7,432.9,298.3,455.4,298.3,455.4z"/>
				</g>
				<g>
					<g>
						<path fill="#F6AC40" d="M298.3,456.6c26.9,0.4,53.8-0.6,80.7-0.2c0.7,0,1.3-0.6,1.2-1.2c-0.4-12.2-0.2-24.4,0.2-36.7
							c0-0.7-0.6-1.2-1.2-1.2c-26.5,0-53,0-79.5,0c-0.7,0-1.2,0.6-1.2,1.2c0,12.3-0.6,24.6-1.4,36.8c-0.1,1.6,2.4,1.6,2.5,0
							c0.8-12.3,1.4-24.5,1.4-36.8c-0.4,0.4-0.8,0.8-1.2,1.2c26.5,0,53,0,79.5,0c-0.4-0.4-0.8-0.8-1.2-1.2
							c-0.3,12.2-0.6,24.4-0.2,36.7c0.4-0.4,0.8-0.8,1.2-1.2c-26.9-0.5-53.8,0.6-80.7,0.2C296.6,454.1,296.6,456.6,298.3,456.6z"/>
					</g>
				</g>
			</g>
		</g>
		<g>
			<g>
				<path fill="#F6AC40" d="M406.5,393.3c-2.1,2.1-13.4,11.8-15,13.5c-1.6-1.7-2.5-2.6-4.7-4.6l15.1-15.1
					C403.7,388.9,406.5,393.3,406.5,393.3z"/>
			</g>
		</g>
		<g>
			<g>
				<path fill="#F6AC40" d="M421.7,434.1c-2.8,1-20.7,5.9-22.9,6.7c-0.6-2.2-1.1-3.4-2.1-6.2l22.3-9.2
					C419.7,427.8,421.7,434.1,421.7,434.1z"/>
			</g>
		</g>
		<g>
			<g>
				<path fill="#F6AC40" d="M433,473.8c-2.9-0.4-29.9-4.2-32.2-4.5c-0.2,2.3-0.4,3.6-0.8,6.5l32.1,7.1
					C432.4,480.3,433,473.8,433,473.8z"/>
			</g>
		</g>
		<g>
			<g>
				<path fill="#F6AC40" d="M279.5,387.5c2.1,2.1,11.8,13.4,13.5,15c-1.7,1.6-2.6,2.5-4.6,4.7l-15.1-15.1
					C275.1,390.2,279.5,387.5,279.5,387.5z"/>
			</g>
		</g>
		<g>
			<g>
				<path fill="#F6AC40" d="M343.2,373.7c-0.4,2.9-4.2,29.9-4.5,32.2c2.3,0.2,3.6,0.4,6.5,0.8l7.1-32.1
					C349.7,374.4,343.2,373.7,343.2,373.7z"/>
			</g>
		</g>
		<g>
			<g>
				<path fill="#F6AC40" d="M410.1,530c-2.1-2.1-11.8-13.4-13.5-15c1.7-1.6,2.6-2.5,4.6-4.7l15.1,15.1
					C414.5,527.2,410.1,530,410.1,530z"/>
			</g>
		</g>
		<g>
			<g>
				<path fill="#F6AC40" d="M251.6,434.1c2.8,1,20.7,5.9,22.9,6.7c0.6-2.2,1.1-3.4,2.1-6.2l-22.3-9.2
					C253.5,427.8,251.6,434.1,251.6,434.1z"/>
			</g>
		</g>
		<g>
			<g>
				<path fill="#F6AC40" d="M247.5,470.7c2.9-0.4,29.9-4.2,32.2-4.5c0.2,2.3,0.4,3.6,0.8,6.5l-32.1,7.1
					C248.2,477.3,247.5,470.7,247.5,470.7z"/>
			</g>
		</g>
		<g>
			<g>
				<path fill="#F6AC40" d="M263.1,526.2c2.1-2.1,11.8-13.4,13.5-15c-1.7-1.6-2.6-2.5-4.6-4.7l-15.1,15.1
					C258.7,523.4,263.1,526.2,263.1,526.2z"/>
			</g>
		</g>
		<g>
			<g>
				<path fill="#F6AC40" d="M308.6,538.9c0.3-2.2,3.3-22.8,3.5-24.6c-2.3-0.2-3.6-0.4-6.5-0.8l-6.1,24.4
					C302.1,538.2,308.6,538.9,308.6,538.9z"/>
			</g>
		</g>
		<g>
			<g>
				<path fill="#F6AC40" d="M354,541.3c-0.4-2.9-4.3-29.8-4.7-32.2c-2.3,0.5-3.5,0.7-6.5,1l2.2,32.8
					C347.5,542.5,354,541.3,354,541.3z"/>
			</g>
		</g>
	</g>
	<g>
		<g>
			<g>
				<g>
					<path fill="#F6AC40" d="M614.7,459.4c-10.8-16.7-21.3-32.4-25.4-37c-3.4,2.6-15.8,19.3-28,36.3L614.7,459.4z"/>
				</g>
				<g>
					<g>
						<path fill="#F6AC40" d="M616.9,458.2c-8.1-12.6-15.9-26.2-25.8-37.5c-1-1.1-2.5-0.8-3.5,0c-4,3.3-7,8-10.2,12
							c-6.3,8.1-12.3,16.5-18.2,24.8c-1.1,1.6,0.4,3.7,2.2,3.8c17.8,0.2,35.6,0.5,53.4,0.7c3.2,0,3.2-5,0-5
							c-17.8-0.2-35.6-0.5-53.4-0.7c0.7,1.3,1.4,2.5,2.2,3.8c5.4-7.5,10.8-14.9,16.3-22.3c3.4-4.5,6.8-9.9,11.3-13.5
							c-1.2,0-2.4,0-3.5,0c9.6,11,17.1,24.3,25,36.5C614.3,463.4,618.6,460.9,616.9,458.2z"/>
					</g>
				</g>
			</g>
			<g>
				<g>
					<g>
						<path fill="#575655" d="M618.4,471.8c2.2,2.9,24.8,34.3,29.1,40.7c0,0-75.6,1.4-113.3-0.8c0,0,12.6-20.8,25.5-41.4
							C559.7,470.3,616.2,468.8,618.4,471.8z"/>
					</g>
					<g>
						<g>
							<path fill="#575655" d="M616.9,472.7c9.9,13.4,19.8,26.9,29.1,40.7c0.5-0.9,1-1.8,1.5-2.6c-37.7,0.7-75.6,1.3-113.3-0.8
								c0.5,0.9,1,1.8,1.5,2.6c5.7-9.4,11.5-18.9,17.3-28.2c2.4-3.8,4.8-7.7,7.2-11.5c0.5-0.9-1-0.8,0.9-0.8
								c2.9-0.1,5.9-0.1,8.8-0.2c9.3-0.1,18.6-0.2,27.9-0.1c4.3,0.1,8.7,0.2,13,0.5c1.4,0.1,5.7,0.1,6.4,0.8c1.6,1.6,4-0.9,2.5-2.5
								c-1.3-1.4-3.9-1.4-5.6-1.6c-4.1-0.5-8.3-0.5-12.4-0.7c-10.3-0.3-20.6-0.2-30.9,0c-3.2,0-6.4,0.1-9.6,0.2
								c-4,0.1-5.1,4.4-7.1,7.6c-7.2,11.5-14.3,23.1-21.3,34.8c-0.7,1.2,0.2,2.6,1.5,2.6c37.7,2.1,75.6,1.5,113.3,0.8
								c1.2,0,2.3-1.5,1.5-2.6c-9.4-13.8-19.3-27.2-29.1-40.7C618.6,469.1,615.5,470.8,616.9,472.7z"/>
						</g>
					</g>
				</g>
			</g>
		</g>
		<g>
			<g>
				<path fill="#F6AC40" d="M668.9,441.8c-3.2,2.5-19.9,13.9-22.4,15.9c-1.3-1.9-2.1-2.8-3.9-5l23.1-17.8
					C667.2,436.9,668.9,441.8,668.9,441.8z"/>
			</g>
		</g>
		<g>
			<g>
				<path fill="#F6AC40" d="M694.1,485.5c-2.8,0.5-28.8,5.1-31.1,5.5c0.5,2.2,0.7,3.4,1.2,6.2l31.7-3.1
					C695.5,491.7,694.1,485.5,694.1,485.5z"/>
			</g>
		</g>
		<g>
			<g>
				<path fill="#F6AC40" d="M676.2,462c-2.2,0.5-22.1,5.4-23.9,5.8c0.7,2.2,1,3.4,1.6,6.1l24.7-3.4C678,468.1,676.2,462,676.2,462z"
					/>
			</g>
		</g>
		<g>
			<g>
				<path fill="#F6AC40" d="M637.7,394.8c-1.3,2.5-13.9,25.8-15,27.8c2.1,0.9,3.1,1.5,5.6,3l17.3-26.8
					C643.4,397.6,637.7,394.8,637.7,394.8z"/>
			</g>
		</g>
		<g>
			<g>
				<path fill="#F6AC40" d="M515.4,416.7c2.3,1.8,14.3,9.7,16.2,11.1c1.3-1.9,2.1-2.8,3.9-5L519,410.1
					C517.5,412.1,515.4,416.7,515.4,416.7z"/>
			</g>
		</g>
		<g>
			<g>
				<path fill="#F6AC40" d="M501.2,448.6c2.8,0.5,28.8,5.1,31.1,5.5c-0.5,2.2-0.7,3.4-1.2,6.2l-31.7-3.1
					C499.9,454.9,501.2,448.6,501.2,448.6z"/>
			</g>
		</g>
		<g>
			<g>
				<path fill="#F6AC40" d="M490.6,495.4c2.9-0.3,29.1-2.8,31.4-3c0.1,2.3,0.2,3.5,0.6,6.3l-31.4,5.5
					C491,501.8,490.6,495.4,490.6,495.4z"/>
			</g>
		</g>
		<g>
			<g>
				<path fill="#F6AC40" d="M617.1,558.6c-0.7-2.8-7.4-28.3-8-30.5c2.2-0.4,3.4-0.8,6.1-1.6l10.5,30.1
					C623.3,557.2,617.1,558.6,617.1,558.6z"/>
			</g>
		</g>
		<g>
			<g>
				<path fill="#F6AC40" d="M672.2,538.7c-2.1-2-11.4-13-13.1-14.6c1.7-1.5,2.5-2.4,4.5-4.5l14.7,14.7
					C676.5,536,672.2,538.7,672.2,538.7z"/>
			</g>
		</g>
		<g>
			<g>
				<path fill="#F6AC40" d="M512.3,542.5c2.1-2,11.4-13,13.1-14.6c-1.7-1.5-2.5-2.4-4.5-4.5l-14.6,14.7
					C508.1,539.9,512.3,542.5,512.3,542.5z"/>
			</g>
		</g>
		<g>
			<g>
				<path fill="#F6AC40" d="M566.3,555.7c0.2-2.1,1.8-21.5,1.9-23.2c-2.3-0.1-3.5-0.2-6.3-0.4l-4.4,23.2
					C560,555.4,566.3,555.7,566.3,555.7z"/>
			</g>
		</g>
		<g>
			<g>
				<path fill="#F6AC40" d="M588,405.6c-0.4-2.8-4.2-28.9-4.6-31.2c-2.2,0.5-3.4,0.6-6.3,1l2.1,31.8
					C581.7,406.7,588,405.6,588,405.6z"/>
			</g>
		</g>
	</g>
	<g>
		<g>
			<g>
				<path fill="#F6AC40" d="M150,397.8c-1.8,2.3-12,13.2-13.5,15.1c-1.8-1.5-2.8-2.3-5.1-4l13.4-16.7
					C146.8,393.7,150,397.8,150,397.8z"/>
			</g>
		</g>
		<g>
			<g>
				<path fill="#F6AC40" d="M174.5,423.7c-2.8,1-20.7,5.9-22.9,6.7c-0.6-2.2-1.1-3.4-2.1-6.2l22.3-9.2
					C172.6,417.4,174.5,423.7,174.5,423.7z"/>
			</g>
		</g>
		<g>
			<g>
				<path fill="#F6AC40" d="M190.2,445.2c-2.9,0.3-30,2.9-32.4,3.1c0.4,2.3,0.5,3.6,0.7,6.5l32.9-0.6
					C191,451.7,190.2,445.2,190.2,445.2z"/>
			</g>
		</g>
		<g>
			<g>
				<path fill="#F6AC40" d="M191.2,475c-2.9-0.4-29.8-4.5-32.2-4.8c-0.2,2.3-0.4,3.6-0.9,6.5l32,7.4
					C190.4,481.5,191.2,475,191.2,475z"/>
			</g>
		</g>
		<g>
			<g>
				<path fill="#F6AC40" d="M44.1,529.1c2.5-2.6,16.1-14.5,18.1-16.5c1.6,1.7,2.5,2.6,4.7,4.6l-18.4,18.3
					C46.7,533.7,44.1,529.1,44.1,529.1z"/>
			</g>
		</g>
		<g>
			<g>
				<path fill="#F6AC40" d="M25.1,492.8c3.3-1.2,24.7-7.2,27.5-8.2c0.8,2.7,1.3,4.1,2.5,7.4l-26.7,11.2
					C27.5,500.4,25.1,492.8,25.1,492.8z"/>
			</g>
		</g>
		<g>
			<g>
				<path fill="#F6AC40" d="M13.7,459.2c3,0,30.1-0.2,32.5-0.3c-0.2-2.3-0.2-3.6-0.1-6.5l-32.8-2.3
					C13.4,452.7,13.7,459.2,13.7,459.2z"/>
			</g>
		</g>
		<g>
			<g>
				<path fill="#F6AC40" d="M49.4,406.8c2.1,2.1,11.8,13.4,13.5,15c-1.7,1.6-2.6,2.5-4.6,4.7l-15.1-15.1
					C45,409.6,49.4,406.8,49.4,406.8z"/>
			</g>
		</g>
		<g>
			<g>
				<path fill="#F6AC40" d="M77.5,382.4c1,2.8,5.9,20.7,6.7,22.9c-2.2,0.6-3.4,1.1-6.2,2.1l-9.2-22.3
					C71.2,384.4,77.5,382.4,77.5,382.4z"/>
			</g>
		</g>
		<g>
			<g>
				<path fill="#F6AC40" d="M104.8,373.7c-0.4,2.9-4.2,29.9-4.5,32.2c2.3,0.2,3.6,0.4,6.5,0.8l7.1-32.1
					C111.3,374.4,104.8,373.7,104.8,373.7z"/>
			</g>
		</g>
		<g>
			<g>
				<path fill="#F6AC40" d="M165.7,520.9c-2.9-2.9-16.8-18.4-19.2-20.7c1.8-1.5,2.6-2.5,4.6-4.7l21.1,21.1
					C170.5,518.5,165.7,520.9,165.7,520.9z"/>
			</g>
		</g>
		<g>
			<g>
				<path fill="#F6AC40" d="M129.8,543.8c-1-2.8-5.9-20.7-6.7-22.9c2.2-0.6,3.4-1.1,6.2-2.1l9.2,22.3
					C136.1,541.8,129.8,543.8,129.8,543.8z"/>
			</g>
		</g>
		<g>
			<g>
				<path fill="#F6AC40" d="M93.5,554c0.4-2.9,4.2-29.9,4.5-32.2c-2.3-0.2-3.6-0.4-6.5-0.8l-7,32C87,553.3,93.5,554,93.5,554z"/>
			</g>
		</g>
		<g>
			<g>
				<g>
					<path fill="#F6AC40" d="M144.6,457c-3.2-30.6-20.3-45.6-45.6-41.9c-22,3.2-37.3,15.2-37.3,41.9H144.6z"/>
				</g>
				<g>
					<g>
						<path fill="#F6AC40" d="M146.4,457c-1.4-12.2-4.9-24.4-13.5-33.6c-7.5-7.9-18.3-10.9-28.9-10.5c-11.3,0.4-23,4.2-31.5,11.7
							c-9.3,8.1-12.4,20.6-12.5,32.4c0,1,0.8,1.8,1.8,1.8c27.6,0,55.3,0,82.9,0c2.3,0,2.3-3.5,0-3.5c-27.6,0-55.3,0-82.9,0
							c0.6,0.6,1.2,1.2,1.8,1.8c0.1-11.3,3-22.1,11.5-30c7.6-7.1,18.9-10,29-10.6c9.9-0.6,19.4,2.5,26.4,9.5
							c8.1,8.1,11.2,20.1,12.5,31.1C143.1,459.2,146.6,459.2,146.4,457z"/>
					</g>
				</g>
			</g>
			<g>
				<g>
					<path fill="#575655" d="M61.3,467c3.2,30.6,20.3,45.6,45.6,41.9c22-3.2,37.3-15.2,37.3-41.9H61.3z"/>
				</g>
				<g>
					<g>
						<path fill="#575655" d="M59.5,467c1.4,12.2,4.9,24.4,13.5,33.6c7.5,7.9,18.3,10.9,28.9,10.5c11.3-0.4,23-4.2,31.5-11.7
							c9.3-8.1,12.4-20.6,12.5-32.4c0-1-0.8-1.8-1.8-1.8c-27.6,0-55.3,0-82.9,0c-2.3,0-2.3,3.5,0,3.5c27.6,0,55.3,0,82.9,0
							c-0.6-0.6-1.2-1.2-1.8-1.8c-0.1,11.3-3,22.1-11.5,30c-7.6,7.1-18.9,10-29,10.6c-9.9,0.6-19.4-2.5-26.4-9.5
							c-8.1-8.1-11.2-20.1-12.5-31.1C62.8,464.8,59.3,464.7,59.5,467z"/>
					</g>
				</g>
			</g>
		</g>
	</g>
	<g>
		<g>
			<path fill="#F6AC40" d="M109.9,162.2l-1.9-0.7c1.5-4.1,2.1-10.6,0.8-14.7c-0.3,0.6-0.8,1.2-1.5,1.5c-1.2,0.7-2.7,0.7-3.9-0.1
				c-1.3-0.8-2.2-2.3-2.1-3.7c0-1.3,0.8-2.5,2.2-3.1c1.1-0.5,2.2-0.6,3.2-0.3c0.2,0.1,0.5,0.2,0.7,0.3c-0.1-0.7-0.3-1.5-0.5-2
				c-0.7-2-2.1-3.8-4.4-5.7c-4.2-3.7-9.4-5.2-13.8-4.1l-0.5-1.9c5.1-1.2,10.9,0.4,15.6,4.5c2.6,2.2,4.1,4.3,5,6.6
				c0.4,1.3,0.8,3.1,0.8,4.9c0.2,0.4,0.4,0.8,0.6,1.1C112.4,149.3,111.8,157.4,109.9,162.2z M105.5,142.9c-0.3,0-0.7,0.1-1,0.3
				c-0.7,0.3-1,0.8-1.1,1.4c0,0.7,0.4,1.5,1.1,2c0.4,0.3,1.1,0.5,1.9,0c0.7-0.4,1.1-1.3,1.2-2.4c-0.5-0.6-1-1.1-1.5-1.2
				C105.9,142.9,105.7,142.9,105.5,142.9z"/>
		</g>
		<g>
			<path fill="#F6AC40" d="M109.1,165l-0.7-0.6c-0.9-0.8-1.9-1.9-3-3c-0.7-0.7-1.4-1.5-2.2-2.3l1.4-1.4c0.8,0.8,1.5,1.6,2.2,2.3
				c0.8,0.8,1.5,1.6,2.1,2.2c0.2-0.2,0.5-0.5,0.8-0.7c1.2-1.1,2.7-2.5,4-4l1.5,1.3c-1.4,1.6-2.9,3-4.2,4.1c-0.5,0.5-1,0.9-1.4,1.3
				L109.1,165z"/>
		</g>
	</g>
	<g>
		<g>
			<path fill="#F6AC40" d="M587,157.9l-1.9-0.7c1.5-4.1,2.1-10.6,0.8-14.7c-0.3,0.6-0.8,1.2-1.5,1.5c-1.2,0.7-2.7,0.7-3.9-0.1
				c-1.3-0.8-2.2-2.3-2.1-3.7c0-1.3,0.8-2.5,2.2-3.1c1.1-0.5,2.2-0.6,3.2-0.3c0.2,0.1,0.5,0.2,0.7,0.3c-0.1-0.7-0.3-1.5-0.5-2
				c-0.7-2-2.1-3.8-4.4-5.7c-4.2-3.7-9.4-5.2-13.8-4.1l-0.5-1.9c5.1-1.2,10.9,0.4,15.6,4.5c2.6,2.2,4.1,4.3,5,6.6
				c0.4,1.3,0.8,3.1,0.8,4.9c0.2,0.4,0.4,0.8,0.6,1.1C589.5,145,588.9,153.1,587,157.9z M582.6,138.6c-0.3,0-0.7,0.1-1,0.3
				c-0.7,0.3-1,0.8-1.1,1.4c0,0.7,0.4,1.5,1.1,2c0.4,0.3,1.1,0.5,1.9,0c0.7-0.4,1.1-1.3,1.2-2.4c-0.5-0.6-1-1.1-1.5-1.2
				C583,138.6,582.8,138.6,582.6,138.6z"/>
		</g>
		<g>
			<path fill="#F6AC40" d="M586.2,160.8l-0.7-0.6c-0.9-0.8-1.9-1.9-3-3c-0.7-0.7-1.4-1.5-2.2-2.3l1.4-1.4c0.8,0.8,1.5,1.6,2.2,2.3
				c0.8,0.8,1.5,1.6,2.1,2.2c0.2-0.2,0.5-0.5,0.8-0.7c1.2-1.1,2.7-2.5,4-4l1.5,1.3c-1.4,1.6-2.9,3-4.2,4.2c-0.5,0.5-1,0.9-1.4,1.3
				L586.2,160.8z"/>
		</g>
	</g>
	<g>
		<g>
			<g>
				<rect x="338" y="311.5" fill="#F6AC40" width="2" height="33"/>
			</g>
		</g>
		<g>
			<path fill="#F6AC40" d="M340.1,345.9l-0.7-0.6c-1.3-1.1-2.5-2.4-3.9-3.9c-0.5-0.6-1.1-1.2-1.7-1.8l1.4-1.4
				c0.6,0.6,1.1,1.2,1.7,1.8c1.1,1.2,2.1,2.3,3.1,3.1c0.2-0.2,0.5-0.5,0.8-0.8c1.3-1.2,3-2.7,4.4-4.4l1.5,1.3
				c-1.5,1.7-3.2,3.3-4.5,4.5c-0.6,0.5-1.1,1-1.4,1.3L340.1,345.9z"/>
		</g>
	</g>
	<g>
		<g>
			<g>
				<rect x="582" y="311.5" fill="#F6AC40" width="2" height="33"/>
			</g>
		</g>
		<g>
			<path fill="#F6AC40" d="M583.3,346.2l-0.7-0.6c-1.3-1.1-2.5-2.4-3.9-3.9c-0.5-0.6-1.1-1.2-1.7-1.8l1.4-1.4
				c0.6,0.6,1.1,1.2,1.7,1.8c1.1,1.2,2.1,2.3,3.1,3.1c0.2-0.2,0.5-0.5,0.8-0.7c1.3-1.2,3-2.7,4.4-4.4l1.5,1.3
				c-1.5,1.7-3.2,3.3-4.5,4.5c-0.6,0.5-1.1,1-1.4,1.3L583.3,346.2z"/>
		</g>
	</g>
	<g>
		<g>
			<path fill="#F6AC40" d="M342.1,163.6l-1.9-0.7c1.5-4.1,2.1-10.6,0.8-14.7c-0.3,0.6-0.8,1.2-1.5,1.5c-1.2,0.7-2.7,0.7-3.9-0.1
				c-1.3-0.8-2.2-2.3-2.1-3.7c0-1.3,0.8-2.5,2.2-3.1c1.1-0.5,2.2-0.6,3.2-0.3c0.2,0.1,0.5,0.2,0.7,0.3c-0.1-0.7-0.3-1.5-0.5-2
				c-0.7-2-2.1-3.8-4.4-5.7c-4.2-3.7-9.4-5.2-13.8-4.1l-0.5-1.9c5.1-1.2,10.9,0.4,15.6,4.5c2.6,2.2,4.1,4.3,5,6.6
				c0.4,1.3,0.8,3.1,0.8,4.9c0.2,0.4,0.4,0.8,0.6,1.1C344.6,150.7,344,158.8,342.1,163.6z M337.7,144.3c-0.3,0-0.7,0.1-1,0.3
				c-0.7,0.3-1,0.8-1.1,1.4c0,0.7,0.4,1.5,1.1,2c0.4,0.3,1.1,0.5,1.9,0c0.7-0.4,1.1-1.3,1.2-2.4c-0.5-0.6-1-1.1-1.5-1.2
				C338.1,144.3,337.9,144.3,337.7,144.3z"/>
		</g>
		<g>
			<path fill="#F6AC40" d="M341.3,166.5l-0.7-0.6c-0.9-0.8-1.9-1.9-3-3c-0.7-0.7-1.4-1.5-2.2-2.3l1.4-1.4c0.8,0.8,1.5,1.6,2.2,2.3
				c0.8,0.8,1.5,1.6,2.1,2.2c0.2-0.2,0.5-0.5,0.8-0.7c1.2-1.1,2.7-2.5,4-4l1.5,1.3c-1.4,1.6-2.9,3-4.2,4.1c-0.5,0.5-1,0.9-1.4,1.3
				L341.3,166.5z"/>
		</g>
	</g>
	<g>
		<g>
			<g>
				<rect x="97" y="311.5" fill="#F6AC40" width="2" height="33"/>
			</g>
		</g>
		<g>
			<path fill="#F6AC40" d="M98.1,345.8l-0.7-0.6c-1.3-1.1-2.5-2.4-3.9-3.9c-0.5-0.6-1.1-1.2-1.7-1.8l1.4-1.4
				c0.6,0.6,1.1,1.2,1.7,1.8c1.1,1.2,2.1,2.3,3.1,3.1c0.2-0.2,0.5-0.5,0.8-0.8c1.3-1.2,3-2.7,4.4-4.4l1.5,1.3
				c-1.5,1.7-3.2,3.3-4.5,4.5c-0.6,0.5-1.1,1-1.4,1.3L98.1,345.8z"/>
		</g>
	</g>
</g>
</svg>
