<?xml version="1.0" encoding="utf-8"?>
<!-- Generator: Adobe Illustrator 17.0.0, SVG Export Plug-In . SVG Version: 6.00 Build 0)  -->
<!DOCTYPE svg PUBLIC "-//W3C//DTD SVG 1.1//EN" "http://www.w3.org/Graphics/SVG/1.1/DTD/svg11.dtd">
<svg version="1.1" id="Layer_1" xmlns="http://www.w3.org/2000/svg" xmlns:xlink="http://www.w3.org/1999/xlink" x="0px" y="0px"
	 width="692.9px" height="376.2px" viewBox="0 0 692.9 376.2" enable-background="new 0 0 692.9 376.2" xml:space="preserve">
<g>
	<path fill="#995CA0" d="M3.2,146.9c34.2,40.2,162.2,199,189.3,225.8c19.9-23.3,30.6-77.7,65.4-82.1c19.5-2,22.5,9.1,36.5,17.2
		c24.3,11.4,34.9,12.7,59.1,7c90.3-21.4,267.4-109,335.6-129.8L464.3,8.1c-61,38.3-85.7,40.1-141.7,7.7
		c-30.1-16.4-53.1-21.3-83.5,0.8c-46.7,33-66.4,90.5-123.2,118C77.5,151.5,3.2,146.9,3.2,146.9z"/>
	<g>
		<g>
			<defs>
				<path id="SVGID_1_" d="M3.2,146.9c34.2,40.2,162.2,199,189.3,225.8c19.9-23.3,30.6-77.7,65.4-82.1c19.5-2,22.5,9.1,36.5,17.2
					c24.3,11.4,34.9,12.7,59.1,7c90.3-21.4,267.4-109,335.6-129.8L464.3,8.1c-61,38.3-85.7,40.1-141.7,7.7
					c-30.1-16.4-53.1-21.3-83.5,0.8c-46.7,33-66.4,90.5-123.2,118C77.5,151.5,3.2,146.9,3.2,146.9z"/>
			</defs>
			<clipPath id="SVGID_2_">
				<use xlink:href="#SVGID_1_"  overflow="visible"/>
			</clipPath>
			<g clip-path="url(#SVGID_2_)">
				<g>
					<path fill="#BA85B9" d="M-13.7,166.5c20.1,7.9,41.4,12,63,10.1c18.7-1.6,36.5-7.9,53-16.6c35.4-18.8,64.1-48.1,94.1-74.2
						c15.2-13.3,31-26,48.2-36.5c11.8-7.2,24.4-12.1,38.1-13.6c13.2-1.4,26.6,0.7,39.5,3.7c13.2,3,26.2,7,39.4,10.1
						c13.9,3.2,27.9,4.8,42.1,5.8c26.1,1.9,52.2,0.8,77.7-5.1c13.5-3.2,26.7-7.8,39.6-13c1.8-0.7,1-3.6-0.8-2.9
						c-25.3,10.3-51.5,17.1-78.8,18.6c-28.5,1.6-57.7-1-85.4-7.9c-25-6.2-50.1-15.2-76.3-12c-22.3,2.8-41.4,15.7-58.9,28.9
						c-61.4,46.2-118.7,125.9-205.5,109.9c-9.7-1.8-19.1-4.7-28.2-8.3C-14.7,162.9-15.4,165.8-13.7,166.5L-13.7,166.5z"/>
				</g>
				<g>
					<path fill="#BA85B9" d="M161.2,375.3c12.7-13.7,21.6-30.1,30.5-46.4c8.2-14.9,17-30.5,31.4-40.4c18.4-12.7,41.9-10.6,62.8-7
						c20.7,3.6,40.2,12.2,60.9,15.5c23.6,3.8,44.9-3.7,66.2-13.1c29.1-12.8,58.2-25.6,87.5-37.9c59-24.8,118.9-47.9,180.2-66.2
						c9.1-2.7,18.3-5.3,27.4-7.8c1.9-0.5,1.1-3.4-0.8-2.9c-61.8,16.8-121.9,38.9-181.1,63.1c-28.8,11.8-57.4,24-85.9,36.5
						c-25.2,11-51,26.1-79.2,26.5c-20.3,0.2-39.6-8.2-59-13.2c-20.8-5.4-44.7-9.6-65.7-3.2c-34,10.4-45.9,49.6-63.4,76.5
						c-4.1,6.3-8.7,12.4-13.9,17.9C157.7,374.6,159.8,376.7,161.2,375.3L161.2,375.3z"/>
				</g>
				<g>
					<path fill="#BA85B9" d="M434.2,10.9C504.7,86.7,603.3,128,676.4,200.8c1.4,1.4,3.5-0.8,2.1-2.1
						c-73.1-72.9-171.7-114.2-242.1-190C435,7.3,432.9,9.4,434.2,10.9L434.2,10.9z"/>
				</g>
				<g>
					<path fill="#BA85B9" d="M22.5,210.6c26.3-3.2,53.2-3.5,79.2-9.1c25.9-5.6,48.9-18.1,70.2-33.6c20.7-15,39.5-32.4,59.9-47.8
						c10.1-7.6,20.6-14.6,31.7-20.5c12.5-6.7,25.5-11,39.4-13.9c43.9-9.1,89.2-6.9,133.7-6.4c45.1,0.5,90.6-0.8,134-14.6
						c1.8-0.6,1.1-3.5-0.8-2.9c-59.8,19.1-122.7,13.8-184.5,14c-29.6,0.1-59.4,1.7-88.4,8.2c-25.2,5.6-47.3,19.1-67.7,34.5
						c-29.5,22.2-56,48.5-89,65.9c-36.7,19.3-77.6,18.3-117.6,23.2C20.6,207.9,20.6,210.9,22.5,210.6L22.5,210.6z"/>
				</g>
				<g>
					<path fill="#BA85B9" d="M66.9,260.1c91.6-27.5,157.5-108.6,252.8-126.5c23.7-4.4,48.2-4.1,72.2-4.1c25.3,0,50.6,0.5,75.9-0.1
						c49.2-1.1,99.9-6.3,144.3-29.1c1.7-0.9,0.2-3.5-1.5-2.6c-49.5,25.4-106.5,28.5-161.1,28.9c-27.2,0.2-54.3-0.5-81.5,0.1
						c-24.9,0.5-49.1,2.7-73,9.8c-40.8,12.2-76.7,35.8-111.8,59.1c-36.9,24.4-74.3,48.7-117,61.5C64.3,257.8,65.1,260.7,66.9,260.1
						L66.9,260.1z"/>
				</g>
				<g>
					<path fill="#BA85B9" d="M136.1,339.8c20.1-13.1,35.7-31.2,52.3-48.2c18.4-18.8,38.5-34.5,64.8-40.1c27.7-5.9,55.1,0.9,82.4,5.4
						c26.6,4.4,53,3.9,79.6-0.6c93-15.7,173.7-69.8,262.7-98c1.8-0.6,1.1-3.5-0.8-2.9c-53.5,16.9-103.7,42.8-155.5,64.3
						c-50.9,21.2-106.1,40.7-162.1,37.1c-22.7-1.5-44.8-7.6-67.5-9.9c-22.2-2.3-45.1,0.4-65.1,10.5c-36.9,18.7-58,57.4-92.3,79.8
						C133,338.2,134.5,340.8,136.1,339.8L136.1,339.8z"/>
				</g>
				<g>
					<path fill="#BA85B9" d="M102.7,306.9c53.6-9.9,92.4-53.7,142.2-72.9c26.8-10.3,55.2-11.3,83.5-9.6c14.2,0.8,28.4,2.5,42.6,2.8
						c14.8,0.3,29.6-0.4,44.3-2c91.9-9.6,175.6-52.4,262.5-80.7c1.8-0.6,1-3.5-0.8-2.9c-55.6,18.1-109.3,41.7-165.1,59.3
						c-27.7,8.7-56,15.8-84.8,19.8c-15,2.1-30.2,3.2-45.3,3.5c-14.5,0.2-29-1.2-43.4-2.2c-20.8-1.5-41.7-2.3-62.5,0.8
						c-22.3,3.3-43.1,12.1-62.6,23.1c-36.3,20.5-69.1,50.4-111.4,58.2C100,304.3,100.8,307.2,102.7,306.9L102.7,306.9z"/>
				</g>
				<g>
					<path fill="#BA85B9" d="M409.8,28.8c22,10.5,41.6,24.7,59.5,41.3c17.3,16.1,32.9,33.9,49.3,50.9c18.2,18.9,37,36.5,57.5,52.9
						c20.1,16.2,40.7,31.8,59.1,50.1c1.4,1.4,3.5-0.8,2.1-2.1c-18.4-18.2-38.9-33.9-59.1-50.1c-20.5-16.4-39.3-34-57.5-52.9
						c-16.4-17-32-34.8-49.3-50.9c-18-16.8-37.9-31.1-60.1-41.7C409.5,25.4,408,28,409.8,28.8L409.8,28.8z"/>
				</g>
				<g>
					<path fill="#BA85B9" d="M585,241.1c-21.1-17.2-41.9-34.8-61.5-53.8c-9.5-9.2-18.6-18.8-27.4-28.6c-9-10-17.1-20.9-26.5-30.5
						c-17.3-17.5-37-32.6-55.3-48.9c-17.8-15.9-36-33.4-46.4-55.3c-0.8-1.7-3.4-0.2-2.6,1.5c10.1,21.2,27.4,38.2,44.6,53.8
						c18.3,16.6,38,31.8,55.7,49.1c9.5,9.3,17.4,19.9,26.2,29.9c8.8,10,17.9,19.6,27.4,28.9c19.3,19,39.9,36.6,60.9,53.7
						c0.9,0.8,1.9,1.5,2.8,2.3C584.3,244.4,586.5,242.3,585,241.1L585,241.1z"/>
				</g>
				<g>
					<path fill="#BA85B9" d="M295-9.4c-29.4,48.2-22.4,106-23.3,159.8c-0.3,14.3-2,28.4-2.9,42.6c-0.8,13-0.1,26,1.9,38.9
						c3.6,23.7,12.2,46.3,18,69.5c2,7.8,3.6,15.7,4.8,23.7c0.3,1.9,3.2,1.1,2.9-0.8c-4-24.7-12.2-48.1-18.4-72.2
						c-3.2-12.2-5.3-24.7-6.1-37.3c-0.9-14.3,0.8-28.3,1.9-42.5c4.3-55.5-7.5-114.6,16.7-166.9c2.1-4.6,4.6-9,7.2-13.3
						C298.6-9.5,296-11,295-9.4L295-9.4z"/>
				</g>
				<g>
					<path fill="#BA85B9" d="M260.6-5c2.3,52.8-12,103.9-16.3,156.1c-4.3,52.4-6.3,105.2,10.5,155.7c0.6,1.8,3.5,1,2.9-0.8
						c-8.4-25.3-12.6-51.4-13.4-78c-0.8-25.6,1.1-51.4,3-76.9C251.4,98.8,266,47.8,263.6-5C263.5-6.9,260.5-6.9,260.6-5L260.6-5z"/>
				</g>
				<g>
					<path fill="#BA85B9" d="M232.2,319.9c-12.8-51.8-29.6-103.3-32.1-157c-0.6-13.6-0.4-27.3,1.7-40.8c1.9-12.6,5.3-25,8.8-37.2
						c6.6-23.3,14.1-46.7,14.3-71.2c0-1.9-3-1.9-3,0c-0.2,25.4-8.3,49.5-15.1,73.7c-3.5,12.3-6.5,24.7-8.4,37.4
						c-1.9,13.2-1.8,26.6-1.2,39.9c2.5,53.3,19.4,104.6,32.1,156.1C229.8,322.6,232.7,321.8,232.2,319.9L232.2,319.9z"/>
				</g>
				<g>
					<path fill="#BA85B9" d="M311.5,2.3c-13.9,53.1-17.1,108.8-11.3,163.3c5.5,51.3,19.2,102.4,43.5,148.1c1.6,3,3.3,6,5,8.9
						c1,1.7,3.6,0.2,2.6-1.5c-26.5-45.9-41.2-98.2-47.5-150.6c-6.6-55.2-3.6-112,10.2-165.9c0.1-0.5,0.3-1.1,0.4-1.6
						C314.9,1.3,312,0.5,311.5,2.3L311.5,2.3z"/>
				</g>
				<g>
					<path fill="#BA85B9" d="M342.3,13.7c5.9,46.2,31.1,88.2,57.8,125.3c27.4,38,59,72.7,90.7,107.1c5,5.4,10,10.9,14.9,16.4
						c1.3,1.4,3.4-0.7,2.1-2.1c-29.8-33.1-60.5-65.2-88-100.2c-30-38-59-80.3-71-127.8c-1.6-6.1-2.7-12.3-3.5-18.6
						C345.1,11.8,342,11.8,342.3,13.7L342.3,13.7z"/>
				</g>
				<g>
					<path fill="#BA85B9" d="M554.4,262.9C509.7,234.3,484,186.7,450.7,147c-15.4-18.4-33-34.7-50.7-50.9
						c-14.8-13.6-28.2-27.9-36.4-46.5c-4.6-10.2-7.4-21.2-9.4-32.2c-0.4-1.9-3.2-1.1-2.9,0.8c4,21.5,11.6,41.4,25.5,58.5
						c13,15.9,29.6,28.7,44.2,43c19,18.5,35.7,38.8,51.5,60.1c15.1,20.3,29.9,41,47.7,59.1c9.9,10,20.8,19,32.7,26.6
						C554.5,266.5,556,263.9,554.4,262.9L554.4,262.9z"/>
				</g>
				<g>
					<path fill="#BA85B9" d="M324.8,3.7c-10.1,41.1-3.8,85.4,6.3,125.8c11.3,45.2,29.6,89.4,54.3,129c10.8,17.3,23.1,33.8,37.8,48
						c1.4,1.3,3.5-0.8,2.1-2.1c-31.2-30.1-52.8-70.3-69.4-109.9c-18.1-43.2-30.9-90-32.9-137c-0.7-17.7,0.3-35.7,4.6-53
						C328.1,2.6,325.3,1.8,324.8,3.7L324.8,3.7z"/>
				</g>
				<g>
					<path fill="#BA85B9" d="M480.4,282.4c-40.2-34.6-73-77.5-98.6-123.9c-25.2-45.7-43.9-96.4-48.7-148.6c-0.1-1-0.2-1.9-0.2-2.9
						c-0.2-1.9-3.2-1.9-3,0c4.1,50.6,21.4,99.6,44.7,144.4c24.2,46.5,56.1,89.6,94.7,125.1c2.9,2.7,5.9,5.3,9,7.9
						C479.7,285.7,481.8,283.6,480.4,282.4L480.4,282.4z"/>
				</g>
				<g>
					<path fill="#BA85B9" d="M154.9,90.2c-5.6,41.7,1.4,84,13.3,124c12.4,41.6,30.6,81.3,51.1,119.5c0.9,1.7,3.5,0.2,2.6-1.5
						c-20.1-37.5-37.8-76.4-50.3-117.1c-12.3-40.2-19.3-82.9-13.7-124.9C158.2,88.3,155.2,88.3,154.9,90.2L154.9,90.2z"/>
				</g>
				<g>
					<path fill="#BA85B9" d="M104.9,132.1c0.1,22.3,2.6,44.4,8.5,65.9c5.1,18.5,12.9,36.1,22.1,52.8c20.1,36.4,46.3,69.1,67.4,104.9
						c1,1.7,3.6,0.2,2.6-1.5C185,319.5,160,287.7,140,252.8c-9.6-16.7-17.5-34.3-23-52.8c-6.5-22-9.1-45-9.1-67.9
						C107.9,130.1,104.9,130.1,104.9,132.1L104.9,132.1z"/>
				</g>
				<g>
					<path fill="#BA85B9" d="M45.6,143.5c11.1,43.3,40.2,78,68.6,111.2c15,17.5,29.4,35.1,41.8,54.6c12.7,20.1,24.6,40.7,41.4,57.7
						c1.4,1.4,3.5-0.7,2.1-2.1c-16.6-16.8-28.4-37.3-40.9-57.1c-11.9-18.9-25.7-35.9-40.2-52.8c-28.7-33.6-58.6-68.5-69.8-112.3
						C48,140.8,45.1,141.6,45.6,143.5L45.6,143.5z"/>
				</g>
			</g>
		</g>
	</g>
</g>
</svg>
