<?xml version="1.0" encoding="utf-8"?>
<!-- Generator: Adobe Illustrator 17.1.0, SVG Export Plug-In . SVG Version: 6.00 Build 0)  -->
<!DOCTYPE svg PUBLIC "-//W3C//DTD SVG 1.1//EN" "http://www.w3.org/Graphics/SVG/1.1/DTD/svg11.dtd">
<svg version="1.1" id="Layer_1" xmlns="http://www.w3.org/2000/svg" xmlns:xlink="http://www.w3.org/1999/xlink" x="0px" y="0px"
	 viewBox="0 3.7 40 22.7" enable-background="new 0 3.7 40 22.7" xml:space="preserve">
<path fill="#BA85B9" d="M0.2,12.6c2,2.3,9.4,11.5,10.9,13c1.1-1.3,1.8-4.5,3.8-4.7c1.1-0.1,1.3,0.5,2.1,1c1.4,0.7,2,0.7,3.4,0.4
	c5.2-1.2,15.4-6.3,19.4-7.5l-13-10.2c-3.5,2.2-4.9,2.3-8.2,0.4c-1.7-0.9-3.1-1.2-4.8,0C11.1,7,10,10.3,6.7,11.9
	C4.5,12.9,0.2,12.6,0.2,12.6z"/>
<path fill="#DCC1DB" d="M39.4,14.5l-0.2-0.1c-0.3,0.1-0.7,0.2-1,0.3c-0.3-0.3-0.6-0.5-0.9-0.8c0.3-0.1,0.6-0.2,0.9-0.3L38,13.5
	c-0.3,0.1-0.6,0.2-0.9,0.3c-0.2-0.1-0.4-0.3-0.5-0.4c0.3-0.1,0.6-0.2,0.9-0.3l-0.2-0.1c-0.3,0.1-0.6,0.2-0.9,0.3
	c-1.1-0.8-2.2-1.6-3.4-2.4c0.4-0.1,0.8-0.2,1.1-0.4l-0.2-0.1c-0.4,0.2-0.8,0.3-1.2,0.4c-1.1-0.7-2.1-1.4-3.1-2.2
	c0.6-0.1,1.1-0.2,1.7-0.3l-0.2-0.1c-0.6,0.1-1.2,0.2-1.7,0.3C28.9,8,28.4,7.5,27.8,7c0,0,0,0,0,0c0.5-0.1,1-0.3,1.5-0.5l-0.2-0.1
	c-0.5,0.2-1,0.3-1.5,0.4c-0.6-0.5-1.3-1.1-1.8-1.7c-0.1,0-0.1,0.1-0.2,0.1c0.6,0.6,1.2,1.1,1.8,1.6C27,7,26.5,7.1,26.1,7.1
	c-0.6-0.4-1.2-0.8-1.8-1.2C24.2,6,24.2,6,24.1,6c0.6,0.3,1.2,0.7,1.8,1.1c-0.1,0-0.3,0-0.4,0c-1.1,0.1-2.2,0-3.2-0.1
	c-0.2-0.2-0.4-0.5-0.6-0.8c-0.1,0-0.2,0-0.2,0C21.6,6.5,21.8,6.8,22,7c-0.4-0.1-0.7-0.1-1.1-0.2c-0.1-0.3-0.2-0.5-0.3-0.8
	c-0.1,0-0.1,0-0.2-0.1c0.1,0.3,0.2,0.5,0.3,0.8c-0.1,0-0.1,0-0.2,0c-0.1,0-0.2,0-0.2-0.1c-0.1-0.2-0.1-0.4-0.2-0.7
	c0-0.1,0-0.1,0-0.2c-0.1,0-0.1-0.1-0.2-0.1C19.9,6,20,6.3,20.1,6.6c-0.2-0.1-0.4-0.1-0.6-0.2c-0.1-0.3-0.1-0.7-0.2-1
	c-0.1,0-0.1-0.1-0.2-0.1c0,0.4,0.1,0.7,0.2,1.1c-0.2-0.1-0.4-0.1-0.6-0.2c0-0.4,0.1-0.7,0.1-1.1c0,0-0.1-0.1-0.1-0.1c0,0,0,0,0,0
	c-0.1,0.4-0.1,0.8-0.1,1.2c-0.2-0.1-0.5-0.1-0.7-0.1c0.1-0.4,0.2-0.9,0.3-1.3c-0.1,0-0.1-0.1-0.2-0.1c-0.1,0.5-0.2,0.9-0.3,1.4
	c-0.5-0.1-0.9-0.1-1.4,0c0.1-0.5,0.3-1.1,0.5-1.6c0,0,0-0.1,0.1-0.1c-0.1,0-0.1,0-0.2,0c-0.3,0.6-0.5,1.2-0.6,1.8
	c-0.3,0-0.6,0.1-0.9,0.2c0.1-0.6,0.1-1.3,0.1-1.9c-0.1,0-0.1,0-0.2,0.1c0,0.7,0,1.3-0.1,1.9c-0.8,0.3-1.5,0.8-2.2,1.4
	c-0.1,0.1-0.2,0.1-0.3,0.2c0.2-0.7,0.4-1.4,0.5-2.1c-0.1,0.1-0.1,0.1-0.2,0.2c-0.1,0.7-0.3,1.4-0.5,2.1C11.2,9,10.1,10,9,10.9
	c0-0.2,0-0.5,0-0.7c-0.1,0.1-0.1,0.1-0.2,0.2c0,0.2,0,0.4,0,0.7C8,11.8,7.1,12.4,6.3,13c0-0.3,0-0.6,0-0.9c-0.1,0-0.1,0-0.2,0.1
	c0,0.3,0,0.6,0,0.9c-0.8,0.5-1.7,0.8-2.7,1c-0.2-0.5-0.4-0.9-0.5-1.4c-0.1,0-0.1,0-0.2,0c0.1,0.5,0.3,1,0.5,1.5
	c-0.6,0.1-1.2,0.1-1.8,0c0.1,0.1,0.1,0.1,0.2,0.2c0.4,0,0.8,0,1.2,0c0.2,0,0.3,0,0.5-0.1c0.3,0.5,0.6,1.1,0.9,1.6
	c-0.4,0-0.8,0.1-1.3,0.1C3,16,3,16.1,3.1,16.1c0.4,0,0.8-0.1,1.3-0.1c0.5,0.7,1.1,1.4,1.7,2.1c-0.3,0.1-0.6,0.3-0.9,0.4
	c0,0,0.1,0.1,0.1,0.1c0.3-0.1,0.6-0.3,0.9-0.4c0.2,0.2,0.3,0.4,0.5,0.6c0.6,0.7,1.1,1.3,1.6,2c-0.3,0.2-0.6,0.3-0.9,0.4
	c0,0,0.1,0.1,0.1,0.1C7.7,21.3,8,21.2,8.3,21c0.2,0.3,0.5,0.7,0.7,1c0.1,0.1,0.2,0.3,0.2,0.4c-0.2,0.2-0.4,0.4-0.6,0.5
	c0,0,0.1,0.1,0.1,0.1c0.2-0.2,0.4-0.3,0.5-0.5c0.3,0.5,0.6,1,1,1.5c-0.1,0.2-0.2,0.3-0.3,0.5c0,0,0.1,0.1,0.1,0.1
	c0.1-0.1,0.2-0.3,0.3-0.4c0.3,0.4,0.6,0.8,0.9,1.1c0,0,0.1-0.1,0.1-0.2c-0.3-0.3-0.6-0.7-0.9-1.1c0.1-0.2,0.2-0.4,0.4-0.7
	c0.3,0.4,0.5,0.8,0.8,1.3c0,0,0,0,0,0c0-0.1,0.1-0.1,0.1-0.2c-0.3-0.4-0.5-0.9-0.8-1.3c0,0,0-0.1,0.1-0.1c0.2-0.4,0.5-0.9,0.8-1.3
	c0.2,0.4,0.4,0.9,0.7,1.3c0-0.1,0.1-0.1,0.1-0.2c-0.2-0.4-0.4-0.9-0.7-1.3c0.2-0.3,0.5-0.6,0.8-0.8c0.1,0.4,0.2,0.9,0.3,1.3
	c0-0.1,0.1-0.1,0.1-0.2c-0.1-0.4-0.2-0.8-0.3-1.2c0.4-0.3,0.9-0.4,1.4-0.5c0.1,0.2,0.1,0.5,0.2,0.7c0.1,0,0.1,0,0.2-0.1
	c-0.1-0.2-0.1-0.5-0.2-0.7c0.6-0.1,1.3,0,1.9,0.1c0.1,0.4,0.2,0.8,0.3,1.2c0,0.1,0,0.1,0,0.2c0.1,0,0.1,0.1,0.2,0.1
	c-0.1-0.5-0.2-1-0.4-1.5c0.9,0.2,1.8,0.5,2.8,0.7c0.2,0.4,0.4,0.8,0.5,1.1c0,0.1,0.1,0.1,0.1,0.2c0.1,0,0.1,0,0.2,0
	c-0.2-0.4-0.4-0.8-0.6-1.2c0.2,0,0.3,0.1,0.5,0.1c1.2,0.2,2.3-0.1,3.4-0.6c0.1,0.2,0.3,0.4,0.5,0.5c0.1,0,0.1,0,0.2-0.1
	c-0.2-0.2-0.3-0.4-0.5-0.5c0.1,0,0.2-0.1,0.3-0.1c0.8-0.4,1.7-0.7,2.5-1.1c0.2,0.2,0.4,0.4,0.6,0.6c0.1,0,0.1,0,0.2-0.1
	c-0.2-0.2-0.4-0.4-0.6-0.6c0.6-0.3,1.3-0.6,1.9-0.8c0.2,0.2,0.4,0.4,0.6,0.7c0.1,0,0.1,0,0.2-0.1c-0.2-0.2-0.4-0.4-0.6-0.7
	c0.1,0,0.2-0.1,0.2-0.1c0.4-0.2,0.7-0.3,1.1-0.5c0,0,0,0,0,0c0.2,0.2,0.4,0.4,0.6,0.6c0.1,0,0.1-0.1,0.2-0.1
	c-0.2-0.2-0.5-0.4-0.7-0.6c0.7-0.3,1.4-0.6,2-0.8c0.2,0.2,0.5,0.4,0.7,0.6c0.1,0,0.1-0.1,0.2-0.1c-0.2-0.2-0.5-0.4-0.7-0.6
	c1-0.4,1.9-0.7,2.9-1.1c0.2,0.2,0.4,0.3,0.6,0.5c0.1,0,0.1,0,0.2-0.1c-0.2-0.2-0.4-0.3-0.5-0.5c0.9-0.3,1.8-0.6,2.6-0.9
	c0.1,0.1,0.3,0.2,0.4,0.4c0.1,0,0.1,0,0.2-0.1c-0.1-0.1-0.3-0.2-0.4-0.4C38.6,14.7,39,14.6,39.4,14.5C39.3,14.5,39.3,14.5,39.4,14.5
	z M37,13.9c-0.8,0.3-1.7,0.7-2.5,1c-0.2-0.2-0.4-0.3-0.6-0.5c0.9-0.3,1.7-0.7,2.6-1C36.6,13.6,36.8,13.7,37,13.9z M21.9,8.7
	c0.7,0.9,1.6,1.6,2.5,2.4c0.1,0.1,0.3,0.3,0.4,0.4c-0.6,0-1.3,0-1.9,0c-0.6-0.9-1.2-1.8-1.6-2.7C21.4,8.7,21.6,8.7,21.9,8.7z
	 M12.3,18.3c-0.3-1.1-0.5-2.3-0.6-3.4c0.8-0.5,1.6-1,2.4-1.4c-0.1,1.4-0.2,2.7-0.1,4.1C13.4,17.8,12.8,18,12.3,18.3
	C12.3,18.3,12.3,18.3,12.3,18.3z M12.1,18.4c-0.4,0.2-0.9,0.5-1.3,0.8c-0.4-0.9-0.7-1.8-1-2.7c0-0.1-0.1-0.3-0.1-0.4
	c0.6-0.4,1.1-0.8,1.7-1.1C11.6,16.2,11.9,17.3,12.1,18.4z M14.1,17.3c0-1.3,0-2.6,0.1-3.9c0.5-0.2,1-0.5,1.4-0.7c0,0,0,0.1,0,0.1
	c0,0.8-0.1,1.6-0.2,2.5c0,0.6,0,1.2,0,1.8c-0.5,0.1-1,0.2-1.5,0.4C14.1,17.4,14.1,17.4,14.1,17.3z M15.7,16.5
	c-0.1-0.8,0-1.6,0.1-2.5c0-0.5,0.1-1,0.1-1.5c0.4-0.2,0.9-0.3,1.3-0.5c0,0.5,0.1,1,0.1,1.5c0.1,1.1,0.3,2.1,0.5,3.2
	c-0.6,0-1.3,0-1.9,0.1c-0.1,0-0.1,0-0.2,0C15.7,16.9,15.7,16.7,15.7,16.5z M17.5,14c-0.1-0.6-0.1-1.2-0.2-1.9
	c0.4-0.1,0.7-0.2,1.1-0.3c0.2,0,0.5-0.1,0.7-0.1c0.5,1.8,1.1,3.6,2,5.3c-0.5,0-1.1-0.1-1.6-0.1c-0.5,0-1-0.1-1.5-0.1
	C17.8,15.9,17.7,15,17.5,14z M20.5,15.4c-0.5-1.2-0.9-2.4-1.2-3.6c0.6-0.1,1.1-0.1,1.7-0.1c0.2,0.4,0.4,0.8,0.6,1.3
	c0.7,1.4,1.6,2.8,2.6,4.1c-0.7,0.1-1.4,0.1-2.2,0.1c-0.2,0-0.5,0-0.7,0C21,16.5,20.8,15.9,20.5,15.4z M22,13.3
	c-0.3-0.5-0.6-1.1-0.8-1.7c0.5,0,1,0,1.4,0c0,0,0.1,0,0.1,0c0.1,0.2,0.3,0.4,0.4,0.5c1.1,1.5,2.3,3,3.6,4.4c-0.7,0.1-1.3,0.3-2,0.4
	c-0.1,0-0.2,0-0.2,0C23.5,15.8,22.7,14.6,22,13.3z M24.2,13.4c-0.5-0.6-0.9-1.2-1.3-1.8c0.7,0,1.3,0,2,0c0.9,0.9,1.7,1.9,2.4,2.9
	c0.4,0.5,0.8,1,1.2,1.6c-0.5,0.1-1,0.3-1.6,0.4C26,15.5,25.1,14.5,24.2,13.4z M26,12.6c-0.3-0.3-0.6-0.7-0.9-1c0.6,0,1.2,0,1.8,0
	c0.5,0.5,1,1.1,1.5,1.7c0.5,0.6,1,1.1,1.6,1.7c0.2,0.2,0.3,0.3,0.5,0.5c-0.3,0.1-0.6,0.2-0.9,0.3c-0.3,0.1-0.6,0.2-0.9,0.3
	C27.7,14.9,26.9,13.7,26,12.6z M30.2,15c-0.5-0.5-1.1-1.1-1.6-1.7c-0.5-0.6-1-1.2-1.5-1.7c1,0,2-0.1,3-0.2c1,1,2,1.9,3.1,2.8
	c0.1,0.1,0.1,0.1,0.2,0.2c-0.9,0.4-1.9,0.7-2.8,1C30.5,15.2,30.4,15.1,30.2,15z M27,11.4c-1-1-2.1-1.8-3.1-2.7c0,0,0,0,0,0
	c0.4,0,0.9,0,1.3,0c0.8,0,1.6,0,2.4,0c0.8,0.8,1.5,1.6,2.3,2.4c0,0,0.1,0.1,0.1,0.1C29,11.4,28,11.4,27,11.4z M23.7,8.7
	c1,0.9,2.1,1.8,3.1,2.7c-0.3,0-0.5,0-0.8,0c-0.3,0-0.7,0-1,0c-0.6-0.6-1.2-1.2-1.9-1.8c-0.4-0.3-0.7-0.7-1-1
	C22.6,8.7,23.1,8.7,23.7,8.7C23.6,8.7,23.7,8.7,23.7,8.7z M22.6,11.4c-0.5,0-0.9,0-1.3,0c0,0-0.1,0-0.1,0c-0.4-0.9-0.8-1.8-1.1-2.7
	c0.3,0,0.6,0,0.9,0C21.4,9.7,22,10.6,22.6,11.4z M20.9,11.5c-0.6,0-1.1,0.1-1.7,0.1c-0.2-0.9-0.4-1.8-0.5-2.7c0.4,0,0.8-0.1,1.1-0.1
	C20.2,9.7,20.5,10.6,20.9,11.5z M19.1,11.6c-0.6,0.1-1.2,0.2-1.7,0.3c0-0.9,0-1.9,0-2.8c0,0,0.1,0,0.1,0c0.4-0.1,0.7-0.1,1.1-0.2
	C18.7,9.8,18.9,10.7,19.1,11.6z M17.2,12c-0.1,0-0.1,0-0.2,0c-0.4,0.1-0.8,0.3-1.2,0.4c0-0.9,0-1.9,0-2.8c0.4-0.2,0.9-0.3,1.4-0.4
	C17.2,10.1,17.2,11,17.2,12z M15.7,12.5c-0.5,0.2-1,0.4-1.4,0.7c0-0.1,0-0.2,0-0.3c0.1-0.9,0.2-1.7,0.3-2.6c0.2-0.1,0.4-0.2,0.6-0.4
	c0.2-0.1,0.3-0.2,0.5-0.2C15.7,10.6,15.7,11.6,15.7,12.5z M14.1,12.9c0,0.1,0,0.3,0,0.4c-0.8,0.4-1.6,0.9-2.4,1.5
	c0-0.4-0.1-0.8-0.1-1.2c0-0.3,0-0.7,0-1c0.6-0.5,1.2-1,1.8-1.5c0.3-0.3,0.7-0.5,1-0.7C14.3,11.2,14.2,12,14.1,12.9z M11.4,13.6
	c0,0.4,0.1,0.8,0.1,1.2c-0.3,0.2-0.6,0.4-0.9,0.6c-0.3,0.2-0.6,0.4-0.8,0.5c-0.2-0.6-0.3-1.1-0.4-1.7c0.2-0.1,0.4-0.3,0.6-0.4
	c0.5-0.4,1-0.7,1.4-1.1C11.4,13,11.4,13.3,11.4,13.6z M9.6,16.1c-0.7,0.5-1.4,0.9-2.2,1.3c-0.3-0.6-0.5-1.1-0.7-1.7c0,0,0-0.1,0-0.1
	c0.9-0.3,1.7-0.7,2.5-1.2C9.3,14.9,9.4,15.5,9.6,16.1z M9.6,16.2c0,0.1,0.1,0.2,0.1,0.3c0.3,1,0.6,1.9,1,2.8c-0.5,0.4-1.1,0.7-1.6,1
	c-0.4-0.5-0.7-1.1-1-1.6c-0.2-0.4-0.4-0.8-0.6-1.2C8.2,17.1,8.9,16.7,9.6,16.2z M10.8,19.5c0.1,0.3,0.3,0.6,0.4,0.9
	c-0.4,0.4-0.8,0.8-1.2,1.2c-0.3-0.4-0.5-0.8-0.8-1.1C9.7,20.2,10.3,19.9,10.8,19.5z M10.9,19.4c0.4-0.3,0.8-0.5,1.3-0.8
	c0.1,0.3,0.1,0.5,0.2,0.8c-0.4,0.3-0.7,0.6-1.1,0.9C11.2,20,11.1,19.7,10.9,19.4z M12.4,18.5c0.5-0.3,1.1-0.6,1.6-0.8
	c0,0.3,0,0.6,0.1,0.9c-0.3,0.1-0.6,0.2-0.9,0.4c-0.2,0.1-0.4,0.2-0.5,0.3C12.5,19.1,12.4,18.8,12.4,18.5z M14.1,17.7
	C14.1,17.7,14.1,17.6,14.1,17.7c0.5-0.2,1-0.3,1.5-0.4c0,0.1,0,0.2,0,0.3c0,0.3,0.1,0.6,0.2,0.8c-0.5,0-1.1,0.1-1.6,0.2
	C14.2,18.3,14.1,18,14.1,17.7z M15.8,17.2c0.7-0.1,1.4-0.2,2.1-0.2c0.1,0.5,0.3,1,0.4,1.6c-0.5-0.1-1-0.2-1.5-0.2
	c-0.3,0-0.6,0-0.9,0C15.9,18,15.8,17.6,15.8,17.2z M18.1,17.1c0.3,0,0.6,0,0.9,0c0.8,0,1.5,0.1,2.3,0.2c0.3,0.6,0.6,1.2,1,1.7
	c-0.5,0-1,0-1.4,0c-0.8-0.1-1.5-0.2-2.2-0.3C18.4,18.1,18.2,17.6,18.1,17.1z M21.4,17.3L21.4,17.3c0.9,0,1.7,0,2.6-0.1
	c0.1,0,0.2,0,0.4,0c0.4,0.5,0.7,0.9,1.1,1.4c-1,0.3-2.1,0.4-3.1,0.5C22,18.4,21.7,17.8,21.4,17.3z M24.5,17.1
	c0.8-0.1,1.5-0.2,2.3-0.4c0.3,0.4,0.6,0.7,1,1.1c-0.7,0.2-1.4,0.5-2.1,0.7C25.3,18,24.9,17.5,24.5,17.1z M27,16.6
	c0.5-0.1,1-0.3,1.6-0.4c0.2,0.3,0.5,0.6,0.8,0.9c-0.5,0.2-0.9,0.4-1.4,0.5C27.6,17.3,27.3,17,27,16.6z M28.7,16.2
	c0.6-0.2,1.3-0.4,1.9-0.6c0.3,0.2,0.5,0.5,0.8,0.7c-0.4,0.2-0.9,0.4-1.3,0.5c-0.2,0.1-0.4,0.2-0.6,0.3C29.2,16.8,29,16.5,28.7,16.2z
	 M30.8,15.5c0.9-0.3,1.9-0.7,2.8-1c0.2,0.2,0.4,0.3,0.6,0.5c-0.9,0.4-1.8,0.8-2.7,1.2C31.3,16,31.1,15.7,30.8,15.5z M36.2,13.3
	c-0.9,0.3-1.7,0.7-2.6,1c-0.1-0.1-0.2-0.2-0.3-0.2c-1.1-0.8-2-1.7-3-2.7c0.8-0.1,1.6-0.3,2.4-0.5C34,11.7,35.1,12.5,36.2,13.3z
	 M32.7,10.8c-0.8,0.2-1.6,0.4-2.4,0.5c-0.1-0.1-0.1-0.1-0.2-0.2c-0.7-0.8-1.5-1.6-2.2-2.3c0.5,0,1.1-0.1,1.6-0.1
	C30.5,9.3,31.6,10,32.7,10.8z M27.6,7.1c0.6,0.5,1.1,0.9,1.7,1.3c-0.5,0.1-1.1,0.1-1.6,0.1c-0.2-0.2-0.3-0.3-0.5-0.5
	c-0.3-0.3-0.6-0.5-0.9-0.8C26.7,7.2,27.1,7.2,27.6,7.1z M23.3,7.3c0.9,0.1,1.8,0.1,2.8,0c0.4,0.3,0.7,0.6,1,0.9
	c0.1,0.1,0.2,0.2,0.4,0.3c-1.2,0-2.5,0-3.7,0c-0.4-0.4-0.9-0.8-1.3-1.3C22.7,7.3,23,7.3,23.3,7.3z M22.2,7.2
	c0.4,0.5,0.8,0.9,1.3,1.3c-0.4,0-0.8,0-1.2,0c-0.1,0-0.2,0-0.3,0c-0.4-0.5-0.7-0.9-1-1.5C21.4,7.1,21.8,7.2,22.2,7.2z M20.8,7
	C21,7.5,21.3,8,21.7,8.5c-0.2,0-0.4,0-0.7,0c-0.3-0.5-0.5-1.1-0.7-1.7C20.5,6.9,20.7,6.9,20.8,7z M20.2,6.8c0.2,0.6,0.4,1.2,0.7,1.7
	c-0.3,0-0.6,0-0.9,0c-0.2-0.6-0.4-1.3-0.5-1.9C19.7,6.7,20,6.8,20.2,6.8z M19.3,6.6c0.1,0.7,0.3,1.3,0.5,2c-0.4,0-0.7,0.1-1.1,0.1
	c0-0.4-0.1-0.8-0.1-1.3c0-0.3,0-0.7,0-1C18.9,6.5,19.1,6.5,19.3,6.6z M18.5,6.4c0,0.8,0,1.6,0.1,2.3c-0.4,0.1-0.8,0.1-1.2,0.2
	c0.1-0.9,0.2-1.8,0.3-2.7C18,6.3,18.2,6.3,18.5,6.4z M16.3,6.2c0.4,0,0.8,0,1.2,0C17.4,7.1,17.3,8,17.2,9c0,0-0.1,0-0.1,0
	c-0.4,0.1-0.9,0.2-1.3,0.4c0-1.1,0.1-2.1,0.3-3.2C16.2,6.2,16.3,6.2,16.3,6.2z M16,6.2c-0.2,1.1-0.3,2.1-0.3,3.2
	C15.3,9.6,15,9.8,14.6,10c0.2-1.2,0.4-2.4,0.5-3.5C15.4,6.4,15.7,6.3,16,6.2z M14.1,7c0.3-0.2,0.5-0.3,0.8-0.4
	c-0.1,1.2-0.3,2.4-0.5,3.6c-0.4,0.3-0.8,0.5-1.2,0.8c-0.6,0.4-1.1,0.9-1.7,1.4c0-0.4,0-0.8,0.1-1.1c0.1-0.7,0.3-1.4,0.5-2.1
	c0.1-0.3,0.2-0.6,0.2-0.8C12.9,7.8,13.5,7.4,14.1,7z M11.3,9.1c0.3-0.2,0.5-0.5,0.8-0.7c-0.1,0.3-0.2,0.5-0.2,0.8
	c-0.2,0.7-0.4,1.4-0.5,2.2c-0.1,0.4-0.1,0.8-0.1,1.1c-0.7,0.6-1.4,1.1-2.1,1.6c-0.2-1-0.3-1.9-0.3-2.9C9.8,10.5,10.6,9.8,11.3,9.1z
	 M8.8,11.3c0,1,0.1,1.9,0.3,2.9c-0.3,0.2-0.7,0.4-1,0.6c-0.5,0.2-0.9,0.4-1.4,0.6c-0.2-0.7-0.3-1.5-0.4-2.2C7.2,12.6,8,12,8.8,11.3z
	 M3.5,14.2c0.8-0.2,1.6-0.5,2.4-0.9c0.1,0,0.2-0.1,0.2-0.1c0.1,0.7,0.2,1.4,0.4,2.2c-0.7,0.2-1.4,0.3-2.1,0.4
	C4.1,15.3,3.8,14.8,3.5,14.2z M4.5,16c0.4-0.1,0.9-0.1,1.3-0.2c0.2-0.1,0.5-0.1,0.7-0.2c0.2,0.7,0.4,1.3,0.7,1.9
	c-0.4,0.2-0.7,0.4-1.1,0.6C5.6,17.4,5,16.7,4.5,16z M6.8,18.9c-0.2-0.2-0.4-0.4-0.6-0.7C6.6,18,7,17.8,7.3,17.6
	c0.2,0.3,0.3,0.7,0.5,1c0.3,0.6,0.7,1.2,1.1,1.8c-0.2,0.1-0.4,0.2-0.6,0.3C7.9,20.1,7.4,19.5,6.8,18.9z M9.2,21.9
	c-0.2-0.3-0.4-0.7-0.7-1c0.2-0.1,0.4-0.2,0.6-0.3c0.3,0.4,0.5,0.8,0.8,1.2c-0.2,0.2-0.3,0.3-0.5,0.5C9.3,22.1,9.2,22,9.2,21.9z
	 M10.4,23.9c-0.3-0.5-0.7-1-1-1.5c0.2-0.2,0.3-0.3,0.5-0.5c0.3,0.4,0.6,0.8,0.9,1.3C10.7,23.5,10.6,23.7,10.4,23.9z M10.9,23
	c-0.3-0.4-0.5-0.8-0.8-1.2c0.3-0.3,0.5-0.6,0.8-0.8c0.1-0.1,0.3-0.3,0.4-0.4c0.2,0.4,0.3,0.7,0.5,1.1C11.4,22.1,11.2,22.6,10.9,23z
	 M11.9,21.5c-0.2-0.3-0.3-0.7-0.5-1c0.3-0.3,0.7-0.6,1.1-0.8c0.1,0.4,0.2,0.7,0.3,1.1C12.4,20.9,12.1,21.2,11.9,21.5z M13.6,20.2
	c-0.3,0.1-0.5,0.2-0.8,0.4c-0.1-0.4-0.2-0.7-0.3-1.1c0.5-0.3,0.9-0.5,1.5-0.7c0,0.4,0.1,0.9,0.2,1.3C14,20.1,13.8,20.2,13.6,20.2z
	 M14.4,20.1c-0.1-0.4-0.2-0.9-0.2-1.3c0.1,0,0.3-0.1,0.4-0.1c0.4-0.1,0.8-0.1,1.2-0.1c0.1,0.5,0.3,1.1,0.5,1.6
	C15.7,20.1,15,20,14.4,20.1z M17.4,20.4c-0.3-0.1-0.6-0.2-1-0.2c-0.1-0.5-0.3-1-0.4-1.5c0-0.1,0-0.1,0-0.2c0.8,0,1.6,0.1,2.4,0.3
	c0.2,0.7,0.5,1.4,0.8,2.1C18.6,20.8,18,20.6,17.4,20.4z M20.8,21.2c-0.5,0-1-0.1-1.4-0.2c-0.3-0.7-0.6-1.4-0.8-2.2
	c0.3,0,0.5,0.1,0.8,0.1c1,0.2,1.9,0.2,2.9,0.2c0.3,0.5,0.7,1,1,1.5C22.5,20.9,21.7,21.2,20.8,21.2z M25.4,19.7
	c-0.6,0.3-1.3,0.6-1.9,0.9c-0.4-0.5-0.7-0.9-1-1.4c0.5,0,1-0.1,1.5-0.2c0.5-0.1,1.1-0.2,1.6-0.3c0.2,0.2,0.4,0.5,0.7,0.7
	C26,19.4,25.7,19.5,25.4,19.7z M26.4,19.2c-0.2-0.2-0.4-0.4-0.6-0.7c0.7-0.2,1.4-0.4,2.1-0.7c0.1,0.2,0.3,0.3,0.4,0.5c0,0,0,0,0,0
	C27.7,18.7,27.1,18.9,26.4,19.2z M28.5,18.3c-0.2-0.2-0.3-0.3-0.4-0.5c0.5-0.2,0.9-0.3,1.4-0.5c0.1,0.2,0.3,0.3,0.4,0.5
	C29.4,17.9,29,18.1,28.5,18.3z M30.4,17.5c-0.1,0-0.2,0.1-0.3,0.1c-0.1-0.1-0.3-0.3-0.4-0.5c0.6-0.3,1.3-0.5,1.9-0.8
	c0.2,0.2,0.3,0.3,0.5,0.5C31.5,17.1,30.9,17.3,30.4,17.5z M32.3,16.8c-0.2-0.2-0.4-0.3-0.5-0.5c0.9-0.4,1.8-0.8,2.7-1.2
	c0.2,0.2,0.5,0.4,0.7,0.6C34.2,16.1,33.2,16.4,32.3,16.8z M35.3,15.6c-0.2-0.2-0.5-0.4-0.7-0.6c0.8-0.4,1.7-0.7,2.5-1.1
	c0.3,0.2,0.6,0.5,0.9,0.7C37.1,15,36.2,15.3,35.3,15.6z"/>
</svg>
