<?xml version="1.0" encoding="utf-8"?>
<!-- Generator: Adobe Illustrator 18.0.0, SVG Export Plug-In . SVG Version: 6.00 Build 0)  -->
<!DOCTYPE svg PUBLIC "-//W3C//DTD SVG 1.1//EN" "http://www.w3.org/Graphics/SVG/1.1/DTD/svg11.dtd">
<svg version="1.1" id="Layer_1" xmlns="http://www.w3.org/2000/svg" xmlns:xlink="http://www.w3.org/1999/xlink" x="0px" y="0px"
	 viewBox="20.3 -80.3 300 279.9" enable-background="new 20.3 -80.3 300 279.9" xml:space="preserve">
<g>
	<circle fill="#10759F" cx="112.1" cy="36.4" r="11.4"/>
	<circle fill="#10759F" cx="72.5" cy="32.2" r="11.4"/>
	<circle fill="#10759F" cx="113.2" cy="-12.2" r="11.4"/>
	<circle fill="#10759F" cx="194.4" cy="45.9" r="11.4"/>
	<circle fill="#10759F" cx="221.4" cy="28.2" r="9.6"/>
	<circle fill="#10759F" cx="199" cy="20.9" r="9.6"/>
	<circle fill="#10759F" cx="217.2" cy="49.7" r="8.5"/>
	<circle fill="#10759F" cx="105.5" cy="61.2" r="8.5"/>
	<circle fill="#10759F" cx="189.4" cy="78.9" r="7.1"/>
	<circle fill="#10759F" cx="191.4" cy="188.9" r="7"/>
	<circle fill="#10759F" cx="231" cy="63.1" r="7"/>
	<circle fill="#10759F" cx="120.3" cy="11.3" r="8.2"/>
	<circle fill="#10759F" cx="136.4" cy="-2.9" r="5.4"/>
	<circle fill="#10759F" cx="140.5" cy="-66.3" r="5.4"/>
	<circle fill="#10759F" cx="140.5" cy="-20" r="8.6"/>
	<circle fill="#10759F" cx="88.3" cy="48.9" r="8.6"/>
	<circle fill="#10759F" cx="84" cy="69.8" r="8.6"/>
	<circle fill="#10759F" cx="217.2" cy="2.7" r="8.6"/>
	<circle fill="#10759F" cx="239.6" cy="41.1" r="8.6"/>
	<circle fill="#10759F" cx="99.5" cy="5.7" r="8.6"/>
	<circle fill="#10759F" cx="212.9" cy="75.4" r="10.8"/>
	<circle fill="#10759F" cx="248.1" cy="66.8" r="9.1"/>
	<circle fill="#10759F" cx="223.6" cy="-47.2" r="11.4"/>
	<circle fill="#10759F" cx="141.7" cy="92.8" r="11.4"/>
	<circle fill="#10759F" cx="92.5" cy="109.2" r="11.4"/>
	<circle fill="#10759F" cx="100.6" cy="83.2" r="9.6"/>
	<circle fill="#10759F" cx="101.8" cy="-32.5" r="9.6"/>
	<circle fill="#10759F" cx="75.4" cy="-37.8" r="8.5"/>
	<circle fill="#10759F" cx="199" cy="96.4" r="8.5"/>
	<circle fill="#10759F" cx="154.8" cy="74.1" r="7.1"/>
	<circle fill="#10759F" cx="55.8" cy="18" r="7"/>
	<circle fill="#10759F" cx="257.2" cy="95.9" r="7"/>
	<circle fill="#10759F" cx="241.1" cy="-17.3" r="8.2"/>
	<circle fill="#10759F" cx="123.5" cy="-32.5" r="5.4"/>
	<circle fill="#10759F" cx="225.7" cy="-14.4" r="5.4"/>
	<circle fill="#10759F" cx="279.2" cy="102.8" r="8.6"/>
	<circle fill="#10759F" cx="75.4" cy="9.8" r="8.6"/>
	<circle fill="#10759F" cx="131.9" cy="116.9" r="8.6"/>
	<circle fill="#10759F" cx="196.8" cy="0.3" r="8.6"/>
	<circle fill="#10759F" cx="247.6" cy="109.8" r="8.6"/>
	<circle fill="#10759F" cx="57.5" cy="85.1" r="8.6"/>
	<circle fill="#10759F" cx="145.5" cy="-43.2" r="10.8"/>
	<circle fill="#10759F" cx="79.8" cy="-13.8" r="11.4"/>
	<circle fill="#10759F" cx="120.3" cy="-54" r="11.4"/>
	<circle fill="#10759F" cx="221.4" cy="109.8" r="11.4"/>
	<circle fill="#10759F" cx="259.2" cy="26.3" r="11.4"/>
	<circle fill="#10759F" cx="281.6" cy="35.9" r="9.6"/>
	<circle fill="#10759F" cx="250.2" cy="-37.7" r="9.6"/>
	<circle fill="#10759F" cx="59.7" cy="140.3" r="8.5"/>
	<circle fill="#10759F" cx="165" cy="166.3" r="8.5"/>
	<circle fill="#10759F" cx="304.6" cy="41.1" r="7.1"/>
	<circle fill="#10759F" cx="291.2" cy="82.3" r="7"/>
	<circle fill="#10759F" cx="79.8" cy="90.9" r="7"/>
	<circle fill="#10759F" cx="287.8" cy="-19.7" r="8.2"/>
	<circle fill="#10759F" cx="173.6" cy="181.2" r="5.4"/>
	<circle fill="#10759F" cx="182.3" cy="105.3" r="5.4"/>
	<circle fill="#10759F" cx="297.4" cy="20.7" r="8.6"/>
	<circle fill="#10759F" cx="264.1" cy="53.2" r="8.6"/>
	<circle fill="#10759F" cx="291.2" cy="122.6" r="8.6"/>
	<circle fill="#10759F" cx="264.1" cy="-19.7" r="8.6"/>
	<circle fill="#10759F" cx="111.4" cy="125.5" r="8.6"/>
	<circle fill="#10759F" cx="250.2" cy="150.6" r="8.6"/>
	<circle fill="#10759F" cx="207.6" cy="175.9" r="10.8"/>
	<circle fill="#0B6184" cx="147.7" cy="134" r="11.4"/>
	<circle fill="#10759F" cx="118.2" cy="167.7" r="11.4"/>
	<circle fill="#10759F" cx="266.6" cy="127.5" r="11.4"/>
	<circle fill="#10759F" cx="241.1" cy="8.1" r="11.4"/>
	<circle fill="#10759F" cx="238" cy="86.3" r="9.6"/>
	<circle fill="#10759F" cx="168.2" cy="92.8" r="9.6"/>
	<circle fill="#10759F" cx="173.6" cy="144.6" r="8.5"/>
	<circle fill="#10759F" cx="199" cy="123.1" r="8.5"/>
	<circle fill="#10759F" cx="154.8" cy="111.6" r="7.1"/>
	<circle fill="#10759F" cx="123.5" cy="145" r="7"/>
	<circle fill="#10759F" cx="216.1" cy="137" r="7"/>
	<circle fill="#10759F" cx="279.2" cy="5.7" r="8.2"/>
	<circle fill="#10759F" cx="259.9" cy="-0.8" r="5.4"/>
	<circle fill="#10759F" cx="173.6" cy="74.1" r="5.4"/>
	<circle fill="#10759F" cx="237.7" cy="131.7" r="8.6"/>
	<circle fill="#10759F" cx="173.6" cy="122.6" r="8.6"/>
	<circle fill="#10759F" cx="266.6" cy="78.4" r="8.6"/>
	<circle fill="#10759F" cx="176.7" cy="25.4" r="8.6"/>
	<circle fill="#10759F" cx="122.1" cy="191" r="8.6"/>
	<circle fill="#10759F" cx="141.7" cy="159.2" r="8.6"/>
	<circle fill="#10759F" cx="196.8" cy="147.3" r="10.8"/>
	<circle fill="#10759F" cx="61.1" cy="109.9" r="11.4"/>
	<circle fill="#10759F" cx="145.5" cy="184.4" r="11.4"/>
	<circle fill="#10759F" cx="61.1" cy="59" r="11.4"/>
	<circle fill="#10759F" cx="35.2" cy="97.8" r="11.4"/>
	<circle fill="#10759F" cx="287.8" cy="58.2" r="9.6"/>
	<circle fill="#10759F" cx="55.8" cy="-5.2" r="9.6"/>
	<circle fill="#10759F" cx="100.6" cy="147.3" r="8.5"/>
	<circle fill="#10759F" cx="35.2" cy="72.2" r="8.5"/>
	<circle fill="#10759F" cx="48.9" cy="36.9" r="7.1"/>
	<circle fill="#10759F" cx="299.8" cy="-0.8" r="7"/>
	<circle fill="#10759F" cx="79.8" cy="151.1" r="7"/>
	<circle fill="#10759F" cx="79.8" cy="127.5" r="8.2"/>
	<circle fill="#10759F" cx="186" cy="167.7" r="5.4"/>
	<circle fill="#10759F" cx="308.3" cy="81.4" r="5.4"/>
	<circle fill="#10759F" cx="311.7" cy="63.1" r="8.6"/>
	<circle fill="#10759F" cx="299.8" cy="99.9" r="8.6"/>
	<circle fill="#10759F" cx="161.8" cy="-71.7" r="8.6"/>
	<circle fill="#10759F" cx="118.2" cy="99.4" r="8.6"/>
	<circle fill="#10759F" cx="209.2" cy="-20.7" r="8.6"/>
	<circle fill="#10759F" cx="225.7" cy="159.2" r="8.6"/>
	<circle fill="#10759F" cx="31" cy="45.9" r="10.8"/>
	<path fill="#0B6184" d="M170.4-55.9c0,0-5.8,22.2-7.7,27.4c-1.9,5.2-10.1,25.2-10.1,25.2s-2.7,5.6-4.1,9.1
		c-1.4,3.5-2.1,6.5-2.1,6.5s-4.3,13.2-6.2,16c-3.5,5.2-5.9,10.9-8.6,16.5c-2.2,4.5-4.7,9.6-7.2,14.5c-1,1.9,1.9,24.5,4.2,24.3
		c1.4-0.1,1.8-2.3,1.8-2.3s0,0,0.8-0.4c1.1-0.5,1.4-4.2,1.4-4.2s-0.1,1.2,1.2,0.8c1.3-0.4,3.6-0.6,4.1-7.5
		c0.5-6.8,0.7-10.8,0.7-10.8s2.4-7.5,3.1-8.2c0.7-0.8,1.9-1.8,1.9-1.8s0.5,4.5,0.9,5.7c0,0,1.2,2.1,1.4,5.7c0.2,3.6,0.7,5.8,2.2,5.2
		c1.6-0.7,3.1-2.2,1.9-10.3c-1.2-8.1-1.6-6.7-0.5-9.2c1-2.4,1.3-3.6,1.3-3.6s6,0.1,6.6,2c0.7,1.9,6.1,15.2,8,17
		c1.9,1.7,5.2,3.1,5.8,0.8c0.7-2.4,0.4-2.2-2-9.3c-2.4-7.1-5.3-15.2-5.3-18.2c0-3.1-0.7-6.9-1.6-10.7c-0.9-3.9-3.6-4.3-0.1-10.4
		c3.4-6,23.7-37,29.8-48.2C198-46,212.3-78,212.3-78"/>
</g>
</svg>
