<?xml version="1.0" encoding="utf-8"?>
<!-- Generator: Adobe Illustrator 17.1.0, SVG Export Plug-In . SVG Version: 6.00 Build 0)  -->
<!DOCTYPE svg PUBLIC "-//W3C//DTD SVG 1.1//EN" "http://www.w3.org/Graphics/SVG/1.1/DTD/svg11.dtd">
<svg version="1.1" id="Layer_1" xmlns="http://www.w3.org/2000/svg" xmlns:xlink="http://www.w3.org/1999/xlink" x="0px" y="0px"
	 viewBox="0 0 40 30" enable-background="new 0 0 40 30" xml:space="preserve">
<path fill="#99D5F1" d="M4.8,22.4c4.4,0.1,26.9-0.3,30.4-0.1c0-5.5,0.3-12,0.4-21.9L4.3,0.2C4.3,8.8,4.8,22.4,4.8,22.4z"/>
<path fill="#00A1DE" d="M6.3,18.2c4,0.1,23.8,0,27.1,0.1c0.1-2.9,0.8-11.7,0.8-16.7l-28.7,0C5.4,4.3,6.3,18.2,6.3,18.2z"/>
<path fill="#00A1DE" d="M18.9,20.1c0.6-1.4,2.3-0.3,1.7,0.9C20.1,21.9,18.5,21,18.9,20.1z"/>
<path fill="#99D5F1" d="M13,28.1c0,0,9.5-0.2,14-0.2v1.8l-14-0.5V28.1z"/>
<path fill="#99D5F1" d="M26.4,27.2c-1.2-0.8-2.2-2.6-2.2-4.2c0,0-5.4-0.2-8-0.1c-0.2,1.5-1.5,3.7-2.8,4.4L26.4,27.2z"/>
<path fill="#99D5F1" d="M8.2,8c0,0,0.8,0,1.2,0v0.2L8.2,8.1V8z"/>
<path fill="#99D5F1" d="M9.3,8C9.2,7.7,9,7.2,9,6.9c0,0-0.2,0-0.4,0c0,0.4-0.3,1-0.4,1.1L9.3,8z"/>
<path fill="#99D5F1" d="M8.2,5.7c0-0.1,0-0.1,0-0.1S7.7,5.5,7.7,5.9c0,0.2,0.3,0.5,0.6,0.5c0,0,0-0.1,0-0.1C7.8,6.2,7.7,5.5,8.2,5.7
	z"/>
<path fill="#99D5F1" d="M9.5,5.7c0-0.1,0-0.1,0-0.1s0.5-0.2,0.5,0.3c0,0.2-0.2,0.5-0.5,0.5c0,0,0-0.1,0-0.1C9.8,6.2,9.9,5.5,9.5,5.7
	z"/>
<path fill="#99D5F1" d="M9.6,5.1c0,0-0.1,1.7-0.6,1.8c-0.9,0.2-0.9-1-1-1.7L9.6,5.1z"/>
<path fill="#99D5F1" d="M21.4,6.8c0,0-0.6,0-0.9,0v0.1L21.4,6.8L21.4,6.8z"/>
<path fill="#99D5F1" d="M20.5,6.8c0.1-0.2,0.3-0.5,0.3-0.8c0,0,0.2,0,0.3,0c0,0.3,0.2,0.7,0.3,0.9L20.5,6.8z"/>
<path fill="#99D5F1" d="M21.5,5.1C21.5,5,21.4,5,21.5,5.1c0-0.1,0.3-0.2,0.3,0.1c0,0.2-0.2,0.4-0.4,0.4c0,0,0-0.1,0-0.1
	C21.7,5.5,21.8,4.9,21.5,5.1z"/>
<path fill="#99D5F1" d="M20.5,5.1C20.5,5,20.5,5,20.5,5.1c0-0.1-0.3-0.2-0.3,0.1c0,0.2,0.2,0.4,0.4,0.4c0,0,0-0.1,0-0.1
	C20.2,5.5,20.2,4.9,20.5,5.1z"/>
<path fill="#99D5F1" d="M20.4,4.6c0,0,0.1,1.3,0.4,1.4c0.7,0.2,0.7-0.8,0.8-1.3L20.4,4.6z"/>
<path fill="#99D5F1" d="M12.5,2.9l0,1.1l0.4,0l0.9,0.1L14,4.4l0-0.4l0.4,0.1l0-1.3L12.5,2.9z M13.5,3.9c-0.1,0-0.5-0.3-0.5-0.6
	c0-0.2,0.1-0.3,0.3-0.3c0.1,0,0.2,0,0.2,0.1c0-0.1,0.1-0.1,0.2-0.1c0.2,0,0.3,0.1,0.3,0.3C14,3.6,13.6,3.9,13.5,3.9z"/>
<path fill="#99D5F1" d="M14.3,12.3l0,1.2l0.4,0l1,0.1L16,14l0-0.4l0.5,0.1l0-1.5L14.3,12.3z M15.4,13.4c-0.1,0-0.5-0.3-0.5-0.6
	c0-0.2,0.1-0.3,0.3-0.3c0.1,0,0.2,0.1,0.2,0.1c0.1-0.1,0.1-0.1,0.2-0.1c0.2,0,0.3,0.1,0.3,0.3C15.9,13.1,15.4,13.4,15.4,13.4z"/>
<path fill="#99D5F1" d="M15,8c0-0.8,0-1.1,0-2.1L13.6,6c0,0.8,0,2.2,0,2.2c0.1,0.1,0.7,0.4,0.7,0.5C14.3,8.7,15,8,15,8z"/>
<path fill="#99D5F1" d="M15.1,9.2c0,0.4-0.4,0.7-0.8,0.7c-0.4,0-0.7-0.3-0.7-0.7c0-0.4,0.3-0.7,0.7-0.7C14.7,8.5,15.1,8.8,15.1,9.2z
	"/>
<path fill="#00A1DE" d="M14.8,9.2c0,0.3-0.3,0.5-0.6,0.5c-0.3,0-0.5-0.2-0.5-0.5c0-0.3,0.2-0.5,0.5-0.5C14.6,8.7,14.8,8.9,14.8,9.2z
	"/>
<path fill="#99D5F1" d="M14.7,9.2c0,0.2-0.2,0.4-0.4,0.4c-0.2,0-0.3-0.1-0.3-0.3c0-0.2,0.2-0.4,0.4-0.4C14.5,8.9,14.7,9,14.7,9.2z"
	/>
<path fill="#00A1DE" d="M14.4,6.2c0,0,0,1.6,0,1.8c0.2,0,0,0,0.2,0l0-1.8C14.5,6.2,14.4,6.2,14.4,6.2z"/>
<path fill="#00A1DE" d="M14.2,7.9c0,0,0-1.6,0-1.8c-0.2,0,0,0-0.2,0l0,1.8C14.1,8,14.2,7.9,14.2,7.9z"/>
<path fill="#99D5F1" d="M25.6,12.7c0-0.7,0-1,0-1.8l-1.2,0.1c0,0.7,0,1.9,0,1.9c0,0.1,0.6,0.4,0.6,0.4C25,13.3,25.6,12.7,25.6,12.7z
	"/>
<path fill="#99D5F1" d="M25.6,13.8c0,0.3-0.3,0.6-0.7,0.6c-0.3,0-0.6-0.3-0.6-0.6c0-0.3,0.3-0.6,0.6-0.6
	C25.3,13.2,25.6,13.4,25.6,13.8z"/>
<path fill="#00A1DE" d="M25.4,13.8c0,0.2-0.3,0.4-0.5,0.4s-0.4-0.2-0.4-0.4c0-0.2,0.2-0.4,0.4-0.4C25.2,13.4,25.4,13.5,25.4,13.8z"
	/>
<path fill="#99D5F1" d="M25.3,13.8c0,0.2-0.2,0.3-0.4,0.3s-0.3-0.1-0.3-0.3c0-0.2,0.1-0.3,0.3-0.3C25.1,13.5,25.3,13.6,25.3,13.8z"
	/>
<path fill="#00A1DE" d="M25.1,11.1c0,0,0,1.4,0,1.6c0.1,0,0,0,0.2,0l0-1.6C25.2,11.1,25.1,11.1,25.1,11.1z"/>
<path fill="#00A1DE" d="M24.9,12.7c0,0,0-1.4,0-1.6c-0.1,0,0,0-0.2,0l0,1.6C24.8,12.7,24.9,12.7,24.9,12.7z"/>
<polygon fill="#99D5F1" points="11.9,8.7 11,11.1 11.7,11.4 11.3,12.8 11.4,12.9 12.2,11.5 12.1,11 11.6,10.9 "/>
<path fill="#99D5F1" d="M11.4,13l-0.1-0.2l0.4-1.4L11,11.1l0.9-2.4l0.1,0l-0.4,2.1l0.6,0.2l0.1,0.5L11.4,13z M11.4,12.8L11.4,12.8
	l0.8-1.3l-0.1-0.4l-0.6-0.2l0.3-1.7l-0.7,1.9l0.7,0.3L11.4,12.8z"/>
<polygon fill="#99D5F1" points="17.8,5.9 17.4,7 17.7,7.1 17.5,7.8 17.6,7.9 17.9,7.2 17.9,7 17.6,6.9 "/>
<path fill="#99D5F1" d="M17.6,7.9l-0.1-0.1l0.2-0.7L17.3,7l0.4-1.1l0.1,0l-0.2,1L17.9,7l0,0.3L17.6,7.9z M17.4,7l0.3,0.1l-0.1,0.6
	l0.3-0.5l0-0.2l-0.3-0.1l0.1-0.6L17.4,7z"/>
<polygon fill="#99D5F1" points="16.8,10 16.9,9.5 16.9,9.5 17.1,10 17.6,10 17.6,10.1 17.2,10.3 17.3,10.7 17.3,10.7 16.9,10.5 
	16.6,10.9 16.6,10.9 16.6,10.3 16.3,10.2 16.3,10.2 "/>
<polygon fill="#99D5F1" points="28.2,4.3 28,3.4 27.9,3.4 27.6,4.4 26.7,4.4 26.7,4.5 27.5,4.8 27.2,5.6 27.3,5.6 27.9,5.2 
	28.4,5.9 28.5,5.9 28.4,4.8 29,4.7 29.1,4.7 "/>
<path fill="#99D5F1" d="M31.5,8.1l0.8,0.2L32,7.5c-0.1,0.2-0.3,0.3-0.6,0.4S31,8.1,30.8,8.1l0.3,0.8L31.5,8.1z"/>
<polygon fill="#99D5F1" points="31.6,8.2 31.1,8.9 31.2,9 31.6,8.4 32.4,8.6 32.4,8.4 "/>
<path fill="#99D5F1" d="M32,6.6c0.1,0,0.1-0.1,0.1-0.1S32.1,6.4,32,6.4c0.1,0,0.1-0.1,0.1-0.1c0-0.1-0.1-0.1-0.1-0.1
	c0,0,0.1-0.1,0-0.2c0,0-0.1-0.1-0.1,0c0,0,0-0.1,0-0.2c0,0-0.1,0-0.1,0c0,0,0-0.1,0-0.2c0,0-0.1,0-0.1,0c0-0.1,0-0.1-0.1-0.1
	c-0.1,0-0.1,0-0.1,0c0-0.1,0-0.1-0.1-0.1c-0.1,0-0.1,0-0.1,0.1c0-0.1,0-0.1-0.1-0.1c-0.1,0-0.1,0-0.1,0.1c0-0.1-0.1-0.1-0.1-0.1
	c-0.1,0-0.1,0.1-0.1,0.1c0-0.1-0.1-0.1-0.1-0.1s-0.1,0.1-0.1,0.1c0,0-0.1-0.1-0.1,0c0,0-0.1,0.1,0,0.1c0,0-0.1,0-0.1,0
	c0,0,0,0.1,0,0.2c0,0-0.1,0-0.1,0c0,0,0,0.1,0,0.2c-0.1,0-0.1,0-0.1,0.1c0,0.1,0,0.1,0,0.1c-0.1,0-0.1,0-0.1,0.1
	c0,0.1,0,0.1,0.1,0.1c-0.1,0-0.1,0-0.1,0.1c0,0.1,0,0.1,0.1,0.1c-0.1,0-0.1,0.1-0.1,0.1c0,0.1,0.1,0.1,0.1,0.1
	c-0.1,0-0.1,0.1-0.1,0.1c0,0.1,0.1,0.1,0.1,0.1c0,0-0.1,0.1,0,0.2c0,0,0.1,0.1,0.1,0c0,0,0,0.1,0,0.2c0,0,0.1,0,0.1,0
	c0,0,0,0.1,0,0.2c0,0,0.1,0,0.1,0c0,0.1,0,0.1,0.1,0.1c0.1,0,0.1,0,0.1,0c0,0.1,0,0.1,0.1,0.1c0.1,0,0.1,0,0.1-0.1
	c0,0.1,0,0.1,0.1,0.1c0.1,0,0.1,0,0.1-0.1c0,0.1,0.1,0.1,0.1,0.1c0.1,0,0.1-0.1,0.1-0.1c0,0.1,0.1,0.1,0.1,0.1
	c0.1,0,0.1-0.1,0.1-0.1c0,0,0.1,0.1,0.1,0c0,0,0.1-0.1,0-0.1c0,0,0.1,0,0.1,0c0,0,0-0.1,0-0.2c0,0,0.1,0,0.1,0s0-0.1,0-0.2
	c0.1,0,0.1,0,0.1-0.1c0-0.1,0-0.1,0-0.1c0.1,0,0.1,0,0.1-0.1c0-0.1,0-0.1-0.1-0.1c0.1,0,0.1,0,0.1-0.1C32.1,6.7,32.1,6.6,32,6.6z"/>
<path fill="#00A1DE" d="M31.8,6.9c-0.1,0.5-0.7,0.8-1.2,0.7C30.1,7.4,29.9,7,30,6.5c0.1-0.5,0.6-0.8,1.1-0.7
	C31.6,5.9,31.9,6.4,31.8,6.9z"/>
<path fill="#99D5F1" d="M31.5,6.8c-0.1,0.4-0.5,0.6-0.9,0.5c-0.3-0.1-0.5-0.4-0.4-0.8C30.3,6.2,30.7,6,31,6
	C31.4,6.1,31.6,6.5,31.5,6.8z"/>
<path fill="#99D5F1" d="M30.8,11.6c-0.2,0.8-1.2,1.3-2,1.1c-0.8-0.2-1.2-0.9-1-1.7c0.2-0.8,1-1.3,1.8-1.2C30.4,10,31,10.8,30.8,11.6
	z"/>
<path fill="#00A1DE" d="M30.6,11.6c-0.2,0.7-1,1.1-1.7,0.9c-0.6-0.2-1-0.8-0.8-1.5c0.2-0.7,0.8-1.1,1.5-1
	C30.3,10.3,30.8,10.9,30.6,11.6z"/>
<path fill="#99D5F1" d="M30.5,11.6c-0.2,0.6-0.9,1-1.5,0.8c-0.6-0.1-0.9-0.7-0.7-1.3c0.2-0.6,0.8-1,1.3-0.9S30.6,11,30.5,11.6z"/>
<path fill="#00A1DE" d="M29.2,10.5c0,0,0,1.5,0,1.7c0.1,0,0,0,0.2,0l0-1.7C29.3,10.5,29.2,10.5,29.2,10.5z"/>
<path fill="#99D5F1" d="M23.7,3.4c-0.1,0.4-0.6,0.7-1,0.6c-0.4-0.1-0.6-0.5-0.5-0.9s0.5-0.7,0.9-0.6C23.5,2.5,23.8,3,23.7,3.4z"/>
<path fill="#00A1DE" d="M23.6,3.4c-0.1,0.4-0.5,0.6-0.9,0.5c-0.3-0.1-0.5-0.4-0.4-0.8c0.1-0.4,0.4-0.6,0.8-0.5
	C23.4,2.7,23.7,3,23.6,3.4z"/>
<path fill="#99D5F1" d="M23.5,3.4c-0.1,0.3-0.5,0.5-0.8,0.4c-0.3-0.1-0.5-0.4-0.4-0.7c0.1-0.3,0.4-0.5,0.7-0.5
	C23.3,2.7,23.6,3,23.5,3.4z"/>
<path fill="#00A1DE" d="M22.9,2.8c0,0,0,0.8,0,0.9c0.1,0,0,0,0.1,0L22.9,2.8C22.9,2.8,22.9,2.8,22.9,2.8z"/>
<path fill="#99D5F1" d="M19.1,3.6c0-0.1,0-0.1,0-0.1s-0.1,0-0.3,0l0-0.3c-0.1,0-0.1,0-0.1,0s0,0.1,0,0.3c-0.1,0-0.2,0-0.3,0
	c0,0.1,0,0,0,0.1l0.3,0c0,0.1,0,0.2,0,0.3c0.1,0,0,0,0.1,0l0-0.3H19.1z"/>
<path fill="#99D5F1" d="M18.8,4.1C18.8,4.2,18.8,4.2,18.8,4.1c0,0.1-0.2,0.2-0.4,0.2c-0.2,0-0.6,0-0.8,0c-0.2,0-0.4-0.1-0.4-0.1
	c0,0,0,0,0-0.1c0-0.1,0.1-0.1,0.4-0.2c0.2-0.1,0.3-0.1,0.3-0.3c0-0.1-0.1-0.1-0.1-0.2c0-0.1-0.1,0-0.1-0.1c0-0.1,0-0.1,0-0.1
	c0,0,0-0.1,0-0.1c0,0,0,0,0-0.1c0-0.1,0.1-0.3,0.3-0.3c0.3,0,0.4,0.2,0.3,0.3c0,0.1,0,0.1,0,0.1c0,0,0,0.1,0,0.1c0,0,0,0,0,0.1
	c0,0.1-0.1,0.1-0.1,0.1c0,0.2-0.1,0.1-0.1,0.2c0,0.1,0.1,0.2,0.3,0.3C18.6,4,18.8,4.1,18.8,4.1z"/>
<path fill="#99D5F1" d="M27.1,7.7c0-0.2,0-0.2,0-0.2s-0.2,0-0.4,0l0-0.4c-0.2,0-0.2,0-0.2,0s0,0.2,0,0.4c-0.2,0-0.4,0-0.4,0
	c0,0.1,0,0,0,0.2l0.4,0c0,0.2,0,0.4,0,0.4c0.1,0,0,0,0.2,0l0-0.4L27.1,7.7z"/>
<path fill="#99D5F1" d="M26.6,8.5C26.6,8.6,26.6,8.6,26.6,8.5c0,0.2-0.2,0.3-0.5,0.3h-0.2c-0.3,0-0.8,0-1.1,0h-0.2
	c-0.3,0-0.5-0.1-0.5-0.2c0,0,0,0,0-0.1s0.2-0.2,0.5-0.3C25,8.1,25.1,8,25.1,7.7c0-0.1-0.1-0.1-0.1-0.3c0-0.1-0.1,0-0.1-0.2
	c0-0.1,0-0.1,0-0.1c0,0,0-0.1,0-0.2c0,0,0,0,0-0.1c0-0.1,0.1-0.4,0.5-0.4c0.5,0,0.5,0.3,0.5,0.5c0,0.1,0,0.1,0,0.1
	c0,0.1,0,0.1,0,0.2c0,0,0,0,0,0.1c0,0.2-0.1,0.1-0.1,0.2c0,0.2-0.1,0.2-0.1,0.3c0,0.2,0.1,0.3,0.4,0.4C26.4,8.3,26.6,8.4,26.6,8.5z"
	/>
<path fill="#99D5F1" d="M25.4,16.2c0,0.3,0,0.3,0,0.3c0,0.1-0.2,0.3-0.4,0.3l-9.1,0.4c-0.2,0-0.4-0.2-0.4-0.4c0,0,0-0.4,0-0.7
	c0-0.3,0.9-0.8,2.2-1.3c1.3-0.5,1.7-0.9,1.7-1.7c0-0.5-0.4-0.4-0.6-1.3c-0.1-0.4-0.4,0-0.5-0.9c0-0.4,0-0.4,0-0.4
	c0.1,0,0.2-0.3,0.1-0.5c0,0,0-0.1-0.1-0.5c0-0.5,0.3-1.8,2.1-1.8c1.8,0,2.1,1.3,2.1,1.8c0,0.4,0,0.5,0,0.5c0,0.2,0,0.4,0.1,0.5
	c0,0,0,0,0,0.4c-0.1,0.9-0.4,0.5-0.5,0.9c-0.2,0.9-0.6,0.8-0.6,1.3c0,0.8,0.4,1.2,1.7,1.7C24.6,15.4,25.4,15.9,25.4,16.2z"/>
</svg>
